<svg id="Layer_1" data-name="Layer 1" xmlns="http://www.w3.org/2000/svg" xmlns:xlink="http://www.w3.org/1999/xlink" viewBox="0 0 200 200"><defs><style>.cls-1{fill:#727988;}.cls-2{clip-path:url(#clip-path);}</style><clipPath id="clip-path"><polygon class="cls-1" points="71.56 97.32 70.75 102.68 85.02 102.68 85.82 97.32 71.56 97.32"/></clipPath></defs><title>Aecom</title><path class="cls-1" d="M63.94,111.53h5.49L64.1,88.47H57.85L47,111.53h5.8L54.68,107H63ZM56.81,102l3.35-8h.05l1.7,8Z"/><path class="cls-1" d="M86.44,106.16H70.23l-.8,5.37H85.64Zm1.85-12.33H72.08l.8-5.37H89.1Z"/><polygon class="cls-1" points="71.56 97.32 70.75 102.68 85.02 102.68 85.82 97.32 71.56 97.32"/><g class="cls-2"><rect class="cls-1" x="70.75" y="97.32" width="15.07" height="5.36"/></g><path class="cls-1" d="M104.31,105.62a13.43,13.43,0,0,1-5,.83,5.63,5.63,0,0,1-5.94-6.19,6.8,6.8,0,0,1,7.09-6.71,7.59,7.59,0,0,1,5.06,1.89l1.11-5.52A12.15,12.15,0,0,0,100,88,12.65,12.65,0,0,0,87.68,100.5C87.45,107.24,91.84,112,98.35,112a14.13,14.13,0,0,0,5.12-.83Z"/><path class="cls-1" d="M118.09,88.07c6.17.44,10,5.46,9.3,12.17-.71,6.92-6.29,12.07-12.59,11.62s-10-5.46-9.3-12.17c.71-6.92,6.29-12.07,12.59-11.62m3.81,12.73c.84-3.9-.61-6.94-3.56-7.54-3.24-.66-6.19,1.82-7.07,5.94-.84,3.9.61,6.94,3.56,7.54,3.24.66,6.19-1.82,7.08-5.94"/><polygon class="cls-1" points="153 111.53 152.58 88.47 147.38 88.47 140.72 101.48 138.03 88.47 132.84 88.47 125.67 111.53 131.4 111.53 135.3 98.03 137.75 111.53 140.68 111.53 147.44 98.03 147.35 111.53 153 111.53"/></svg>