<svg id="Layer_1" data-name="Layer 1" xmlns="http://www.w3.org/2000/svg" viewBox="0 0 200 200"><defs><style>.cls-1{fill:#727988;}</style></defs><title>AlTayer</title><path class="cls-1" d="M48.5,115.5v-1.59l1.27-.72a7.24,7.24,0,0,1,1.51-.68,5,5,0,0,1,1.39-.19,4.31,4.31,0,0,1,2.61.72,2.86,2.86,0,0,1,1.19,1.85,39.8,39.8,0,0,1,.18,4.17c0,2.1.06,4.32.14,4.54l-2.12,0v-1c0-.34,0-.68,0-1l-2.42,1.85a2.12,2.12,0,0,1-.65.35,3.08,3.08,0,0,1-.88.1,3.25,3.25,0,0,1-2.3-.74,2.59,2.59,0,0,1-.8-2,3.74,3.74,0,0,1,.57-2.07,3.33,3.33,0,0,1,1.61-1.3,32.22,32.22,0,0,1,4.86-1.1,3.42,3.42,0,0,0-.65-2.22,2.83,2.83,0,0,0-2.27-.93,3.86,3.86,0,0,0-1.06.14,3.2,3.2,0,0,0-.91.41c-.23.56-.43,1.09-.62,1.6m5.51,1.68a13.86,13.86,0,0,0-4.13,1.31,2.16,2.16,0,0,0-.87,1.9,1.9,1.9,0,0,0,.5,1.38,1.73,1.73,0,0,0,1.3.52,3.21,3.21,0,0,0,1.68-.49,5.69,5.69,0,0,0,1.53-1.46l0-2.59Z"/><path class="cls-1" d="M81.14,115.5v-1.59l1.28-.72a7.2,7.2,0,0,1,1.51-.68,4.93,4.93,0,0,1,1.38-.19,4.31,4.31,0,0,1,2.61.72,2.87,2.87,0,0,1,1.19,1.85,39.22,39.22,0,0,1,.18,4.17c0,2.1.06,4.32.14,4.54l-2.12,0v-1c0-.34,0-.68,0-1l-2.42,1.85a2.14,2.14,0,0,1-.65.35,3.09,3.09,0,0,1-.88.1,3.26,3.26,0,0,1-2.3-.74,2.59,2.59,0,0,1-.8-2,3.76,3.76,0,0,1,.57-2.07,3.33,3.33,0,0,1,1.61-1.3,32.09,32.09,0,0,1,4.86-1.1,3.43,3.43,0,0,0-.66-2.22,2.83,2.83,0,0,0-2.27-.93,3.85,3.85,0,0,0-1.05.14,3.17,3.17,0,0,0-.91.41c-.23.56-.43,1.09-.62,1.6m5.51,1.68a13.81,13.81,0,0,0-4.13,1.31,2.16,2.16,0,0,0-.88,1.9,1.9,1.9,0,0,0,.5,1.38,1.73,1.73,0,0,0,1.3.52,3.21,3.21,0,0,0,1.68-.49,5.69,5.69,0,0,0,1.53-1.46l0-2.59Z"/><path class="cls-1" d="M63.19,106.26c-.13,2.28-.2,4.35-.2,6.2V123.6H61V110.16l0-1.53c0-.38,0-.62-.13-.7a1.15,1.15,0,0,0-.78-.19h-1V107a11.88,11.88,0,0,0,3.9-.91"/><path class="cls-1" d="M75.26,114.44V119a13.24,13.24,0,0,0,.12,2.3,1.34,1.34,0,0,0,.47.78,1.42,1.42,0,0,0,.91.28,1.73,1.73,0,0,0,.66-.13,2.71,2.71,0,0,0,.64-.4l.34.41-1.14,1.33a6,6,0,0,1-.73.2,3.58,3.58,0,0,1-.68.07,3.16,3.16,0,0,1-1.47-.31,2,2,0,0,1-.87-.8,3.29,3.29,0,0,1-.27-1.5l0-2.26v-4.45c-.6,0-1.22,0-1.86.08v-.5q1-.39,1.86-.81c0-1.11,0-2.32-.09-3.62a18.82,18.82,0,0,0,2-.93l.3.23q-.09.91-.2,4.32,1.43,0,2.33,0l.94,0-.13,1.2H75.67"/><path class="cls-1" d="M90.74,129.91l.55-1.83h.27a2.54,2.54,0,0,0,.63.57,1.24,1.24,0,0,0,.64.19,1.72,1.72,0,0,0,1.33-.7A17.78,17.78,0,0,0,96,124.22q-.52-1.36-2.06-5.18l-1.09-2.68-.88-2c-.27-.72-.68-1.09-1.22-1.09h-.47v-.68c.81.06,1.53.08,2.15.08s1.61,0,3.38-.08v.68h-.86a1.09,1.09,0,0,0-.65.15l-.2.37a3.14,3.14,0,0,0,.22.8q1.18,3.25,2.78,7,1.54-3.4,2.69-6.56a5.26,5.26,0,0,0,.34-1.12c0-.25-.26-.41-.8-.49l-.86-.13v-.68q1.38.08,2.46.08c.68,0,1.36,0,2-.08v.68h-.41a1.13,1.13,0,0,0-.55.16,1.27,1.27,0,0,0-.46.44q-.38.59-2.16,4.55-.49,1.08-2.51,5.89-1.78,4-2,4.45a3.29,3.29,0,0,1-1.17,1.19,3,3,0,0,1-1.54.42,2.51,2.51,0,0,1-.7-.1,3.9,3.9,0,0,1-.72-.3"/><path class="cls-1" d="M106.07,118a5.12,5.12,0,0,0,1.18,3.5,3.86,3.86,0,0,0,2.94,1.2,5.14,5.14,0,0,0,1.62-.27,6.58,6.58,0,0,0,1.6-.81l.19.18-.37,1a8.47,8.47,0,0,1-2,.84,7.94,7.94,0,0,1-2.12.28,5.09,5.09,0,0,1-3.83-1.5,5.63,5.63,0,0,1-1.46-4.08,6.72,6.72,0,0,1,.82-3.4,5,5,0,0,1,2-1.75,5.82,5.82,0,0,1,2.82-.81,4.42,4.42,0,0,1,3.28,1.22,4.62,4.62,0,0,1,1.21,3.4l0,.69a9.59,9.59,0,0,1-1.47.25q-1.25.09-3.47.09m-2.9-.88q1.81.08,4,.08.88,0,1.7-.08v-.65a4.74,4.74,0,0,0-.41-2,2.11,2.11,0,0,0-.9-1,2.85,2.85,0,0,0-1.48-.38,2.57,2.57,0,0,0-2.09,1,4.77,4.77,0,0,0-.81,3"/><path class="cls-1" d="M118.79,115a10,10,0,0,0,1-1.17,4.37,4.37,0,0,1,1.22-1.17,2.37,2.37,0,0,1,1.18-.32,2.48,2.48,0,0,1,1,.15l.16.22v.12a16,16,0,0,0-.21,2.65h-.53a1.93,1.93,0,0,0-.63-.84,1.57,1.57,0,0,0-.88-.25,2,2,0,0,0-1.28.47,2.27,2.27,0,0,0-.78,1.31,17.55,17.55,0,0,0-.2,3.3c0,1.09,0,3.4.13,4.15h-2.14c.05-1.12.08-4.56.08-6.1a12.88,12.88,0,0,0-.22-3.31c-.1-.21-.42-.32-1-.32h-1v-.68a17.57,17.57,0,0,0,2-.33,8.24,8.24,0,0,0,1.58-.52l.27-.08.18.07,0,.32"/><path class="cls-1" d="M122.56,80.65l2-1.25v14s-.64,3.36-2.8,4.15c0,0,.8-1.12.8-4.19"/><path class="cls-1" d="M78.08,85.34l-1.55,2.6A8.37,8.37,0,0,1,78.44,93s.07,1.8-1.15,1.8H53.61V85.34l-2,1.48V98.19s.33,3.54-4.58,3.87l0,.5s6.82,1,7-5.16h24s4.22-.36.14-12.06"/><path class="cls-1" d="M66.89,100a1.23,1.23,0,1,1-1.23-1.23A1.23,1.23,0,0,1,66.89,100"/><path class="cls-1" d="M69.45,100a1.23,1.23,0,1,1-1.23-1.23A1.23,1.23,0,0,1,69.45,100"/><path class="cls-1" d="M119.92,79.35,118,80.54V94.83H104.25s3.89-3.77-1.35-9.1c0,0-.68-.68-1.62.19s-6.17,7.44-11.19,8.38a6.07,6.07,0,0,0,1.23-4V79.32L89.38,80.8V93a1.78,1.78,0,0,1-1.95,1.92h-2.6V81.8l-1-1.44-1.3,2.13a1.4,1.4,0,0,1,1,1.41V95.34s.25,1.8,1.73,1.77h32.38s2.35-.44,2.35-3.86,0-13.9,0-13.9m-16.7,15.37-9.85-.06c2.86-1.14,6.86-6.49,7.35-6.89s2.34.86,3.26,3.17a3.4,3.4,0,0,1-.77,3.79"/><path class="cls-1" d="M153,69.68l-1.88,5.65S141,75.16,135.89,89.7c0,0,1-16.25,17.11-20"/><path class="cls-1" d="M149.29,81.87l-1.57,4.89s-5.38-1.17-12.71,8.31c0,0,3.52-11.83,14.27-13.2"/><path class="cls-1" d="M131.79,97.32l1.66,3.52s10.36.69,13.88-11.53c0,0-6.26,8.9-15.54,8"/></svg>