<svg id="Layer_1" data-name="Layer 1" xmlns="http://www.w3.org/2000/svg" viewBox="0 0 200 200"><defs><style>.cls-1{fill:#727988;fill-rule:evenodd;}</style></defs><title>Arup</title><path class="cls-1" d="M59.79,84.23,71.55,113A3.86,3.86,0,0,0,75,114.88l-9.62.09c1.71-.21,2.62-.93,2.4-2l-3.61-8.93H55.76l-2.92,8.84A2.7,2.7,0,0,0,55.58,115L47,114.88a4.31,4.31,0,0,0,3.09-1.81l9.7-28.85ZM56.3,102.35l3.25-9.55,3.89,9.55Zm20.78,12.51A3.88,3.88,0,0,0,79.86,113V89q-.18-1.89-3.52-2.4l10.2-.08c5.94.12,8.56,3.14,8.92,8,.18,3.22-1.64,5.45-4.3,7.21,1.93,2.31,3.69,4.29,5.88,6.92,2.49,3,4.39,5.92,7.78,5.65-3.56,1.88-6.88.56-10.8-4.42l-4.14-5.26c-1.7-2.15-3.68-3-4-2.91,4.35-.13,6.91-2.09,6.6-7-.53-3.92-3.07-6.23-6.82-6.37a4,4,0,0,0-2.33.52V113a4.47,4.47,0,0,0,3.38,1.88Zm25.63-28.3h9.88c-2.1.14-3.22.87-3.34,2.16v18.16c.4,4.32,3,6.59,6.85,6.79,3.63.08,7.27-1.71,7.41-7.06V88.72c-.41-1-1.48-1.77-3.21-2.16h9.14c-1.78.48-2.9,1.13-3.36,1.95l.09,18c-.21,6.79-5.18,9-10,9.28-6-.18-10-3.23-10.44-9.2l-.06-17.91c-.16-1.22-1.48-1.71-3-2.1Zm31.07,0,11.51.23c4.92.43,7.23,3.38,7.7,7.93-.1,5.19-4.87,9.2-10.69,6.85,4.78,0,7.73-1.78,7.41-6.85q-.43-5.87-7.29-6.3c-1.54,0-1.81.28-2,.63v23.52c.42,1.29.89,2.06,2.9,2.42l-9.64-.07c1.54-.25,3-1,3.15-2.3v-24c-.16-.85-.91-1.66-3.09-2.1Z"/></svg>