<svg id="Layer_1" data-name="Layer 1" xmlns="http://www.w3.org/2000/svg" viewBox="0 0 200 200"><defs><style>.cls-1{fill:#727988;}</style></defs><title>ATKearney</title><path class="cls-1" d="M53.74,99.56l-1,1.34h.87l.95-1.34Zm2,3.75v1.35h2.85v-1.35Zm-4.74,0-.6.81c-.14.19-.28.37-.43.53H51c.45-.68.92-1.34.92-1.34Zm7.59-8V93.93h-.67l-1,1.34Zm0,7.51v-1.35H55.7v.77h-3l.55-.77h-.89l-1,1.35Zm-2.05-7-1,1.34h3V95.8Zm-5.78,9.39H49.39a3,3,0,0,1-1.88.81h-.21l-.29.52h4.29l.23-.52h-.25C50.77,106,50.58,105.67,50.72,105.19Zm4.39-7.51-1,1.34h.81l.77-1.09V99h2.85V97.69Zm.59,1.87v1.34h2.85V99.56Zm7.48,1.87-.48,1.35h3l.48-1.35Zm.68-1.87-.49,1.34h3l.48-1.34Zm-1.35,3.76L62,104.66h3l.48-1.34Zm0-8A4.54,4.54,0,0,1,65,94.45h.66l-.29.82h3l.29-.82h.64a2.36,2.36,0,0,1,2,.82h1.42l.39-1.34H61.53L61,95.27Zm5.73.53h-3l-.48,1.34h3Zm3.44,0a3,3,0,0,1,.1,1.34h.5l.39-1.34Zm-7.11,1.88L64.05,99h3l.48-1.34Zm1.33,8.84.19-.52h-.36c-.69,0-.87-.34-.79-.81H61.77a1.93,1.93,0,0,1-1.57.81h-.89c-.52,0-.7-.31-.75-.81H55.63a1,1,0,0,1-1.09.81H54.2l-.2.52Zm-5.52-9.38h.5a5.2,5.2,0,0,1,1-1.34h-1Z"/><path class="cls-1" d="M102.33,93s0,9.86,0,11.9c0,.66.15,1.07.76,1.08h.49l-.21.52h-5.6L98,106h.34c.86,0,1.17-.61,1.17-1.43v-1.8H96s-.83,1.2-1.28,1.88S94.36,106,95,106h.41l-.23.52H92.28ZM99.7,102.2V97.93l-3,4.27Z"/><path class="cls-1" d="M144.85,100l3.89-4c.76-.78.6-1.52,0-1.52h-.37l.18-.53H153l-.18.53a3.48,3.48,0,0,0-2.73,1.36c-1.3,1.28-4.91,4.9-4.91,4.9l-1.47,4.08c-.25.68-.18,1.22.68,1.22h.37l-.19.51h-5.94l.19-.51H139a1.92,1.92,0,0,0,1.8-1.26l1.36-3.82-1.42-7h4.71l-.19.53h-.44a.7.7,0,0,0-.78.9C144.35,97.1,144.85,100,144.85,100Z"/><path class="cls-1" d="M87,93.93h8.57l-1,3.5h-.44c.25-1.27,0-3-2.37-3H89.9L88,99.61h.78a3,3,0,0,0,2.9-2.07h.45l-1.87,5.32h-.46c.42-1.43.06-2.72-1.27-2.72h-.71l-1.67,4.65c-.25.69-.19,1.22.68,1.22H88a5,5,0,0,0,4.41-3h.44l-1.26,3.53H82.49Z"/><path class="cls-1" d="M131.46,93.93H140L139,97.43h-.44c.25-1.27,0-3-2.37-3h-1.81l-1.86,5.17h.78a3,3,0,0,0,2.9-2.07h.45l-1.86,5.32h-.47c.42-1.43.07-2.72-1.27-2.72h-.71l-1.67,4.65c-.25.69-.18,1.22.68,1.22h1.08a4.94,4.94,0,0,0,4.42-3h.44L136,106.53h-9.06Z"/><path class="cls-1" d="M73.9,93.93h6l-.19.52h-.07c-1,0-1.52.46-1.91,1.54-.19.53-2.74,7.67-3.15,8.8-.26.68-.19,1.22.68,1.22h.36l-.19.52h-6l.19-.52h.22a1.92,1.92,0,0,0,1.79-1.26L74.8,95.8c.34-.95-.08-1.36-.64-1.36h-.44Zm7.47.52c.6,0,.83.81,0,1.51L76.64,100l1.9,6.5h3.17l-2.5-7.84s2.15-1.79,3.49-2.88c1.15-.93,1.71-1.36,2.74-1.36l.18-.52H81.18l-.18.52Z"/><path class="cls-1" d="M113,100.48a3.72,3.72,0,0,0,3.17-3.08c.27-1.74-.89-3.47-3.66-3.47h-5.39l-.19.51h.44c.56,0,1,.42.63,1.36l-3.84,10.72h4.53l.19-.52h-.36c-.86,0-.93-.53-.68-1.22.41-1.13,3.63-10.35,3.63-10.35H112c1.51,0,2,1.33,1.41,3.2a4.18,4.18,0,0,1-3.42,2.67l1.74,6.21h3.16Zm2.64,6h2.87l.19-.52h-.39c-1,0-1.32-.65-1-1.54l3-8.55L124,107s3.22-8.88,3.9-10.73c.48-1.28,1.19-1.8,2.16-1.8h.29l.18-.52H126l-.16.52h.29c.83,0,1.32.64,1,1.66-.54,1.64-1.91,5.63-1.91,5.63l-2.49-7.8h-4.46l-.2.52h.24c1.16,0,1.54.81,1.14,1.87s-1.76,4.83-2.89,7.91Z"/></svg>