<svg id="Layer_1" data-name="Layer 1" xmlns="http://www.w3.org/2000/svg" viewBox="0 0 200 200"><defs><style>.cls-1{fill:#727988;}</style></defs><title>BNP</title><path class="cls-1" d="M47,89v21.82H68.82V89Zm5.16,18.59a5,5,0,0,1-1.28-1.82,11.23,11.23,0,0,1-1.65-.91,4.88,4.88,0,0,1,1.19-.45,9.73,9.73,0,0,1,.07-2.76,7.34,7.34,0,0,0,.89,2.54C52.24,104,53,104,53,104a6,6,0,0,0-.71,1.36,7,7,0,0,0,1.9,1.23,8.82,8.82,0,0,1-2.09-.34A5.7,5.7,0,0,0,52.16,107.61Zm2.19-6.8a13.79,13.79,0,0,1-.79-2.3,19.35,19.35,0,0,0-2.9,2.42,14.92,14.92,0,0,1,2.23-3.3,3.66,3.66,0,0,0-2.1-.6,8.69,8.69,0,0,1,3.35-.38,6,6,0,0,1,2.07-1,4.85,4.85,0,0,0-.59,1.17,9.52,9.52,0,0,1,3.55,1.28,13,13,0,0,0-4-.07A13.13,13.13,0,0,0,54.35,100.81Zm4.12,5.74a2.39,2.39,0,0,0,.14.64s-.25,0-1,0a7.91,7.91,0,0,1-2.22.8,8.83,8.83,0,0,0,1.17-.91,4.09,4.09,0,0,1-1.17-.38,13.46,13.46,0,0,0,1.82-.25c.36-.37,1-1.32,1-1.32a8.89,8.89,0,0,0,.1.89,11,11,0,0,0,1.63-1A9.66,9.66,0,0,1,58.47,106.54Zm7-12.68a12.35,12.35,0,0,1-.78,4.76A9.74,9.74,0,0,0,64,94.79c-.45.31-1.59.88-3.19,1.7a17,17,0,0,0,1.62-2.05,25.54,25.54,0,0,0-4.64.51,18.21,18.21,0,0,1,4.84-1.57,18,18,0,0,0-3.18-1.91c.86,0,4.15.65,5.26,1.51a9.86,9.86,0,0,1,1.71-.2A2.67,2.67,0,0,1,65.48,93.87Z"/><path class="cls-1" d="M79.25,106.52a1.94,1.94,0,0,0,1.56-1.79c0-.77-.78-1.77-2.52-1.77H74.47s.08,2.12.08,3.86-.08,4-.08,4,2.29.06,3.72.06,3-.71,3-2.2S79.6,106.65,79.25,106.52Zm-1.57,3.35H76.37s0-1.85,0-3.09.08-2.92.08-2.92c.53,0,2.52-.27,2.52,1.08s-1.66,1.12-1.66,1.12l-.4,1.15h.79c.35,0,1.63.23,1.63,1.32S78.35,109.87,77.68,109.87Z"/><path class="cls-1" d="M135.56,106.52a1.94,1.94,0,0,0,1.56-1.79c0-.77-.78-1.77-2.52-1.77h-3.82s.08,2.12.08,3.86-.08,4-.08,4,2.29.06,3.72.06,3-.71,3-2.2S135.91,106.65,135.56,106.52ZM134,109.87h-1.3s0-1.85,0-3.09.08-2.92.08-2.92c.53,0,2.52-.27,2.52,1.08s-1.66,1.12-1.66,1.12l-.4,1.15H134c.35,0,1.63.23,1.63,1.32S134.66,109.87,134,109.87Z"/><path class="cls-1" d="M83.06,103s.11,2.51.11,3.42-.11,4.45-.11,4.45h1.68s-.09-2.35-.09-3.38V105.1a9.26,9.26,0,0,0,.85,1.58c.66,1.06,2.57,4.17,2.57,4.17h1.37s-.14-1.83-.14-4,.14-3.89.14-3.89H87.73l.18,4.83L85,103Z"/><path class="cls-1" d="M94.86,103H91.8s.09,2.1.09,3.94-.09,3.94-.09,3.94h2s-.14-1.57-.14-3.23c.76,0,4.54.36,4.54-2.39C98.22,104.67,98.08,103,94.86,103Zm-1.16,3.65v-2.67s2.7-.29,2.7,1.25C96.4,106.94,93.7,106.61,93.7,106.61Z"/><path class="cls-1" d="M105.62,103h-3.06s.09,2.1.09,3.94-.09,3.94-.09,3.94h2s-.14-1.57-.14-3.23c.76,0,4.54.36,4.54-2.39C109,104.67,108.85,103,105.62,103Zm-1.16,3.65v-2.67s2.7-.29,2.7,1.25C107.16,106.94,104.46,106.61,104.46,106.61Z"/><path class="cls-1" d="M113.54,103h-1.4S111,106,109,110.84h1.75l.56-1.87h2.81l.66,1.87h2Zm-1.9,5,1-2.62,1,2.62Z"/><path class="cls-1" d="M143,103h-1.4s-1.13,3.06-3.19,7.88h1.75l.56-1.87h2.81l.66,1.87h2Zm-1.9,5,1-2.62,1,2.62Z"/><path class="cls-1" d="M118,103s.11,1.44.11,3.59-.11,4.29-.11,4.29h2s-.11-2.09-.11-3.94S120,104,120,104s2.61-.37,2.61,1.27-2,1.4-2,1.4l2.28,4.21H125l-2.21-3.53a2.1,2.1,0,0,0,1.64-2.11c0-1.79-2.11-2.23-3.19-2.23Z"/><path class="cls-1" d="M126.41,103a33.66,33.66,0,0,1,.15,3.67c0,2.41-.15,4.21-.15,4.21h2s-.14-1.88-.14-4.24.14-3.63.14-3.63Z"/><path class="cls-1" d="M152.38,103a8.52,8.52,0,0,0-2.19-.32c-1.13,0-3,.46-3,2.28,0,1.47,1.56,2.1,2.15,2.38s2,.66,2,1.49-.68.9-1.43.87a6.56,6.56,0,0,1-2.6-.9v1.77a10.82,10.82,0,0,0,2.49.39c1.14,0,3.23-.41,3.23-2.43,0-1.45-1.3-2.06-2.5-2.55s-1.64-.8-1.64-1.35.75-.64,1.11-.64a4.63,4.63,0,0,1,2.41.73Z"/></svg>