<svg id="Layer_1" data-name="Layer 1" xmlns="http://www.w3.org/2000/svg" viewBox="0 0 200 200"><defs><style>.cls-1{fill:#727988;fill-rule:evenodd;}</style></defs><title>Booz</title><path class="cls-1" d="M47.92,102.63V99.76h1.73a1.94,1.94,0,0,1,1.25.27,1.51,1.51,0,0,1,.6,1.19A1.36,1.36,0,0,1,51,102.3a2,2,0,0,1-1.25.33Zm0-3.58V96.5h1.73a2.17,2.17,0,0,1,1,.16,1.16,1.16,0,0,1,.6,1,1.43,1.43,0,0,1-.49,1,2.11,2.11,0,0,1-1.41.32Zm1.9,4.34a2.71,2.71,0,0,0,1.84-.49,2,2,0,0,0,.76-1.63,2,2,0,0,0-1.57-2h0a1.73,1.73,0,0,0,1.35-1.68,1.8,1.8,0,0,0-.81-1.52,2.71,2.71,0,0,0-1.57-.38H47v7.64Z"/><path class="cls-1" d="M54.21,100.51a3,3,0,0,1,.27-1.41,1.51,1.51,0,0,1,1.3-.81,1.59,1.59,0,0,1,1.25.65,3.16,3.16,0,0,1,.33,1.57,3.5,3.5,0,0,1-.27,1.46,1.45,1.45,0,0,1-1.3.81,1.37,1.37,0,0,1-1.25-.7,3.28,3.28,0,0,1-.33-1.57Zm-1,0c0,1.46.76,3,2.44,3a2.71,2.71,0,0,0,2.66-3c0-1.46-.81-2.93-2.49-2.93a2.65,2.65,0,0,0-2.6,2.93Z"/><path class="cls-1" d="M60.11,100.51a3,3,0,0,1,.27-1.41,1.45,1.45,0,0,1,1.3-.81,1.49,1.49,0,0,1,1.19.65,2.71,2.71,0,0,1,.38,1.57A3.5,3.5,0,0,1,63,102a1.51,1.51,0,0,1-1.3.81,1.37,1.37,0,0,1-1.25-.7,3.29,3.29,0,0,1-.33-1.57Zm-1,0c0,1.46.76,3,2.44,3s2.6-1.41,2.6-3-.81-2.93-2.44-2.93a2.65,2.65,0,0,0-2.6,2.93Z"/><polygon class="cls-1" points="68.89 98.24 65.81 102.68 68.89 102.68 68.89 103.39 64.72 103.39 64.72 102.68 67.76 98.4 64.99 98.4 64.99 97.75 68.89 97.75 68.89 98.24 68.89 98.24"/><polygon class="cls-1" points="73.83 94.12 74.53 94.12 74.53 105.88 73.83 105.88 73.83 94.12 73.83 94.12"/><path class="cls-1" d="M83,100.41H80.65l1.14-3.63L83,100.41Zm-.6-4.66h-1l-2.49,7.64h.81l.7-2.22H83.2l.76,2.22h.92l-2.49-7.64Z"/><path class="cls-1" d="M91.33,100A1.69,1.69,0,0,1,93,98.24,1.54,1.54,0,0,1,94.47,100Zm3.2,1.73A1.63,1.63,0,0,1,93,102.79a1.78,1.78,0,0,1-1.52-.92,2.44,2.44,0,0,1-.22-1.25h4.12c.05-1.57-.7-3-2.44-3a2.7,2.7,0,0,0-2.6,3c0,1.57.87,2.93,2.55,2.93a2.58,2.58,0,0,0,2.44-1.68l-.81-.11Z"/><path class="cls-1" d="M97.45,98.67h.05a2,2,0,0,1,1.73-1.08,1.79,1.79,0,0,1,1.63.87,4,4,0,0,1,.22,1.79v3.14h-.87V99.86a2.24,2.24,0,0,0-.11-1,1.16,1.16,0,0,0-1-.49,1.64,1.64,0,0,0-1.19.54,2.49,2.49,0,0,0-.43,1.52v3h-.87V97.75h.81v.92Z"/><path class="cls-1" d="M149.37,98.67h0a2,2,0,0,1,1.73-1.08,1.79,1.79,0,0,1,1.63.87,4,4,0,0,1,.27,1.79v3.14h-.87V99.86a2.29,2.29,0,0,0-.16-1,1.16,1.16,0,0,0-1-.49,1.52,1.52,0,0,0-1.14.54,2.22,2.22,0,0,0-.49,1.52v3h-.87V97.75h.87v.92Z"/><polygon class="cls-1" points="106.07 94.12 106.77 94.12 106.77 105.88 106.07 105.88 106.07 94.12 106.07 94.12"/><polygon class="cls-1" points="116.58 103.39 116.58 99.7 113.06 99.7 113.06 103.39 112.19 103.39 112.19 95.75 113.06 95.75 113.06 99 116.58 99 116.58 95.75 117.5 95.75 117.5 103.39 116.58 103.39 116.58 103.39"/><path class="cls-1" d="M122.54,100.89a1.82,1.82,0,0,1-1.73,1.9c-.7,0-1.25-.27-1.25-1,0-1.14,1.25-1.3,2.28-1.3h.7v.38Zm-.7-1a5.41,5.41,0,0,0-2.11.33,1.8,1.8,0,0,0-1,1.57,1.74,1.74,0,0,0,2,1.73,1.94,1.94,0,0,0,1.9-1.19l.11,1.08h.87a4.52,4.52,0,0,1-.16-1.19V100a2.76,2.76,0,0,0-.43-1.84,2.12,2.12,0,0,0-1.68-.54c-1,0-2.22.38-2.38,1.57l.76.11a1.37,1.37,0,0,1,1.52-1c1,0,1.41.33,1.41,1.35v.22Z"/><path class="cls-1" d="M125.69,97.75v1h0a1.93,1.93,0,0,1,1.68-1.14,1.59,1.59,0,0,1,1.57,1.25,2,2,0,0,1,1.84-1.25,1.62,1.62,0,0,1,1.41.81,3.33,3.33,0,0,1,.27,1.63v3.36h-.87V100a2.64,2.64,0,0,0-.16-1.14,1,1,0,0,0-.92-.6,1.3,1.3,0,0,0-1.08.65,2.11,2.11,0,0,0-.33,1.41v3h-.87V99.81a2,2,0,0,0-.16-1,1.21,1.21,0,0,0-1-.54,1.61,1.61,0,0,0-1,.54,2.22,2.22,0,0,0-.33,1.3v3.25h-.87V97.75Z"/><path class="cls-1" d="M134,97.75h.87v5.64H134V97.75Zm-.05-2h1v1h-1v-1Z"/><polygon class="cls-1" points="136.69 95.75 137.5 95.75 137.5 103.39 136.69 103.39 136.69 95.75 136.69 95.75"/><polygon class="cls-1" points="85.75 95.75 86.56 95.75 86.56 103.39 85.75 103.39 85.75 95.75 85.75 95.75"/><polygon class="cls-1" points="88.35 95.75 89.16 95.75 89.16 103.39 88.35 103.39 88.35 95.75 88.35 95.75"/><path class="cls-1" d="M141.89,103.39l-.81.11c-1.25,0-1.63-.76-1.63-1.84V98.4h-1v-.7h1V96.29l.87-.05V97.7h1.25v.7h-1.25v3.36c0,.65.22,1,.92,1l.65-.05v.65Z"/><path class="cls-1" d="M143.3,100.51a3,3,0,0,1,.27-1.41,1.37,1.37,0,0,1,1.25-.81,1.51,1.51,0,0,1,1.25.65,2.71,2.71,0,0,1,.38,1.57,3.5,3.5,0,0,1-.27,1.46,1.53,1.53,0,0,1-1.35.81,1.35,1.35,0,0,1-1.19-.7,3.28,3.28,0,0,1-.33-1.57Zm-1,0c0,1.46.76,3,2.44,3s2.6-1.41,2.6-3-.81-2.93-2.44-2.93a2.62,2.62,0,0,0-2.6,2.93Z"/></svg>