<svg id="Layer_1" data-name="Layer 1" xmlns="http://www.w3.org/2000/svg" viewBox="0 0 200 200"><defs><style>.cls-1{fill:#727988;}</style></defs><title>Brussels</title><ellipse class="cls-1" cx="49.95" cy="111.45" rx="2.95" ry="2.18"/><ellipse class="cls-1" cx="52.38" cy="106.27" rx="2.59" ry="1.82"/><ellipse class="cls-1" cx="54.45" cy="101.94" rx="2.2" ry="1.46"/><ellipse class="cls-1" cx="60" cy="90.13" rx="1.15" ry="0.58"/><ellipse class="cls-1" cx="61.62" cy="86.79" rx="0.86" ry="0.42"/><ellipse class="cls-1" cx="60.86" cy="88.38" rx="1" ry="0.48"/><ellipse class="cls-1" cx="56.2" cy="98.14" rx="1.88" ry="1.18"/><ellipse class="cls-1" cx="57.71" cy="94.97" rx="1.6" ry="0.95"/><ellipse class="cls-1" cx="57.1" cy="111.09" rx="2.68" ry="1.96"/><ellipse class="cls-1" cx="63.26" cy="109.46" rx="2.41" ry="1.73"/><ellipse class="cls-1" cx="66.7" cy="106.15" rx="1.98" ry="1.36"/><ellipse class="cls-1" cx="64.36" cy="100.24" rx="1.44" ry="0.9"/><ellipse class="cls-1" cx="59.02" cy="92.33" rx="1.36" ry="0.75"/><ellipse class="cls-1" cx="66.47" cy="102.71" rx="1.68" ry="1.1"/><path class="cls-1" d="M74.58,111.08v-8.37h1.34v3.09a3.69,3.69,0,0,1,1.22-.23,2.38,2.38,0,0,1,1.94.83,2.85,2.85,0,0,1,.6,1.89,2.67,2.67,0,0,1-1,2.29,4,4,0,0,1-2.46.67A9.51,9.51,0,0,1,74.58,111.08Zm1.34-4.26v3.31a3.08,3.08,0,0,0,.52,0q1.87,0,1.87-1.8a1.74,1.74,0,0,0-.46-1.32,1.49,1.49,0,0,0-1.09-.39A2.55,2.55,0,0,0,75.92,106.83Z"/><path class="cls-1" d="M81.05,111.18v-5.12a6.2,6.2,0,0,1,2.36-.48,3.65,3.65,0,0,1,1.08.16v1.13a2.74,2.74,0,0,0-.94-.16,3.27,3.27,0,0,0-1.16.21v4.26Z"/><path class="cls-1" d="M85.38,105.68h1.34V109a1.2,1.2,0,0,0,.29.94,1.31,1.31,0,0,0,.85.22,4.33,4.33,0,0,0,.9-.11v-4.33H90.1V111a12.36,12.36,0,0,1-2.35.26,2.76,2.76,0,0,1-1.85-.51,1.5,1.5,0,0,1-.42-.71,4.12,4.12,0,0,1-.1-1Z"/><path class="cls-1" d="M91.57,111v-1.22a2.86,2.86,0,0,0,1.5.49q.89,0,.89-.56,0-.38-.53-.62l-.54-.26a2.67,2.67,0,0,1-1.05-.76,1.4,1.4,0,0,1-.27-.86,1.43,1.43,0,0,1,.64-1.24,2.49,2.49,0,0,1,1.45-.39,3.46,3.46,0,0,1,1.42.3V107a2.52,2.52,0,0,0-1.33-.42q-.89,0-.89.53a.44.44,0,0,0,.18.36,5.52,5.52,0,0,0,.76.41,3.91,3.91,0,0,1,1.11.74,1.59,1.59,0,0,1-.3,2.29,2.6,2.6,0,0,1-1.51.4A3.64,3.64,0,0,1,91.57,111Z"/><path class="cls-1" d="M96.35,111v-1.22a2.86,2.86,0,0,0,1.5.49q.89,0,.89-.56,0-.38-.53-.62l-.54-.26a2.67,2.67,0,0,1-1.05-.76,1.4,1.4,0,0,1-.27-.86A1.43,1.43,0,0,1,97,106a2.49,2.49,0,0,1,1.45-.39,3.46,3.46,0,0,1,1.42.3V107a2.53,2.53,0,0,0-1.33-.42q-.89,0-.89.53a.44.44,0,0,0,.18.36,5.51,5.51,0,0,0,.76.41,3.92,3.92,0,0,1,1.11.74,1.48,1.48,0,0,1,.36,1,1.47,1.47,0,0,1-.66,1.29,2.6,2.6,0,0,1-1.51.4A3.64,3.64,0,0,1,96.35,111Z"/><path class="cls-1" d="M106.16,108.68h-3.78a1.49,1.49,0,0,0,1.7,1.53,3,3,0,0,0,1.8-.58v1.12a3.81,3.81,0,0,1-2,.56,2.73,2.73,0,0,1-2.16-.84,2.88,2.88,0,0,1-.65-2,3,3,0,0,1,.83-2.24,2.54,2.54,0,0,1,1.85-.71,2.46,2.46,0,0,1,1.37.38,2.09,2.09,0,0,1,.76.89,4.85,4.85,0,0,1,.26,1.83Zm-3.7-1h2.4q-.09-1.15-1.12-1.15a1.19,1.19,0,0,0-.89.35A1.43,1.43,0,0,0,102.47,107.72Z"/><path class="cls-1" d="M107.55,111.18v-8.47h1.34v8.47Z"/><path class="cls-1" d="M110.37,111v-1.22a2.86,2.86,0,0,0,1.5.49q.89,0,.89-.56,0-.38-.53-.62l-.54-.26a2.67,2.67,0,0,1-1.05-.76,1.4,1.4,0,0,1-.27-.86A1.43,1.43,0,0,1,111,106a2.49,2.49,0,0,1,1.45-.39,3.46,3.46,0,0,1,1.42.3V107a2.52,2.52,0,0,0-1.33-.42q-.89,0-.89.53a.44.44,0,0,0,.18.36,5.53,5.53,0,0,0,.76.41,3.92,3.92,0,0,1,1.11.74,1.59,1.59,0,0,1-.3,2.29,2.6,2.6,0,0,1-1.51.4A3.64,3.64,0,0,1,110.37,111Z"/><path class="cls-1" d="M117.73,107.29v-1.15a4.51,4.51,0,0,1,2.14-.56,1.57,1.57,0,0,1,1.55.7,3.16,3.16,0,0,1,.18,1.31v3.49a17.35,17.35,0,0,1-2.32.2,2.12,2.12,0,0,1-1.48-.42,1.5,1.5,0,0,1-.39-1.13,1.62,1.62,0,0,1,.95-1.58,6,6,0,0,1,1.9-.44h.12v-.2a.85.85,0,0,0-.2-.66.93.93,0,0,0-.6-.15A3.48,3.48,0,0,0,117.73,107.29Zm2.66,2.87v-1.47A3.46,3.46,0,0,0,119,109a.67.67,0,0,0-.34.62q0,.62.73.62A7.46,7.46,0,0,0,120.39,110.16Z"/><path class="cls-1" d="M123.24,104.64v-1.43h1.38v1.43Zm0,6.54v-5.5h1.34v5.5Z"/><path class="cls-1" d="M126.33,111.18v-5.12a6.2,6.2,0,0,1,2.36-.48,3.64,3.64,0,0,1,1.08.16v1.13a2.74,2.74,0,0,0-.94-.16,3.27,3.27,0,0,0-1.16.21v4.26Z"/><path class="cls-1" d="M130.85,111.18v-8.47h1.34v8.47Z"/><path class="cls-1" d="M133.91,104.64v-1.43h1.38v1.43Zm0,6.54v-5.5h1.34v5.5Z"/><path class="cls-1" d="M137,111.18V106a9.07,9.07,0,0,1,2.5-.37,2.45,2.45,0,0,1,1.83.56,2.15,2.15,0,0,1,.44,1.5v3.53h-1.34v-3.44a1.08,1.08,0,0,0-.28-.86,1.29,1.29,0,0,0-.82-.21,3.44,3.44,0,0,0-1,.15v4.36Z"/><path class="cls-1" d="M148.18,108.68H144.4a1.49,1.49,0,0,0,1.7,1.53,3,3,0,0,0,1.8-.58v1.12a3.81,3.81,0,0,1-2,.56,2.73,2.73,0,0,1-2.16-.84,2.88,2.88,0,0,1-.65-2,3,3,0,0,1,.83-2.24,2.54,2.54,0,0,1,1.85-.71,2.46,2.46,0,0,1,1.37.38,2.09,2.09,0,0,1,.76.89,4.86,4.86,0,0,1,.26,1.83Zm-3.7-1h2.4q-.09-1.15-1.12-1.15a1.19,1.19,0,0,0-.89.35A1.43,1.43,0,0,0,144.48,107.72Z"/><path class="cls-1" d="M149.29,111v-1.22a2.86,2.86,0,0,0,1.5.49q.89,0,.89-.56,0-.38-.53-.62l-.54-.26a2.67,2.67,0,0,1-1.05-.76,1.4,1.4,0,0,1-.27-.86,1.43,1.43,0,0,1,.64-1.24,2.49,2.49,0,0,1,1.45-.39,3.46,3.46,0,0,1,1.42.3V107a2.52,2.52,0,0,0-1.33-.42q-.89,0-.89.53a.44.44,0,0,0,.18.36,5.52,5.52,0,0,0,.76.41,3.92,3.92,0,0,1,1.11.74,1.59,1.59,0,0,1-.3,2.29,2.6,2.6,0,0,1-1.51.4A3.64,3.64,0,0,1,149.29,111Z"/></svg>