<svg id="Layer_1" data-name="Layer 1" xmlns="http://www.w3.org/2000/svg" viewBox="0 0 200 200"><defs><style>.cls-1{fill:#727988;}</style></defs><title>Deloitte</title><path class="cls-1" d="M72,98.42a2.29,2.29,0,0,1,2.24,2.43H69.61A2.34,2.34,0,0,1,72,98.42Zm4.93,7.25a12.48,12.48,0,0,1-1.51.42,9.27,9.27,0,0,1-1.84.19c-2,0-3.62-.68-3.88-2.28h8.66a10.05,10.05,0,0,0,.18-1.84c0-3.66-1.82-7-6.46-7s-6.91,3.54-6.91,7.5c0,4.57,3.19,7.18,7.65,7.18a13,13,0,0,0,2.65-.24,10.73,10.73,0,0,0,2.16-.68Z"/><path class="cls-1" d="M139.24,98.42a2.29,2.29,0,0,1,2.23,2.43h-4.63A2.34,2.34,0,0,1,139.24,98.42Zm4.93,7.25a12.46,12.46,0,0,1-1.51.42,9.27,9.27,0,0,1-1.84.19c-2,0-3.62-.68-3.88-2.28h8.66a10.06,10.06,0,0,0,.18-1.84c0-3.66-1.82-7-6.46-7s-6.91,3.54-6.91,7.5c0,4.57,3.19,7.18,7.65,7.18a13,13,0,0,0,2.65-.24,10.74,10.74,0,0,0,2.16-.68Z"/><path class="cls-1" d="M80.67,90.49v19h4.7v-19Z"/><path class="cls-1" d="M94.79,106.34c-1.53,0-2.53-1.51-2.53-3.84,0-1.86.67-3.84,2.54-3.84s2.45,2.06,2.45,3.82C97.26,104.82,96.28,106.34,94.79,106.34Zm-.06,3.48a7,7,0,0,0,7.37-7.46c0-3.07-1.82-7.19-7.14-7.19-5.48,0-7.48,4-7.48,7.42A6.9,6.9,0,0,0,94.73,109.82Z"/><path class="cls-1" d="M104.15,95.48v14h4.7v-14Z"/><path class="cls-1" d="M104.15,90.49v3.65h4.7V90.49Z"/><path class="cls-1" d="M112.56,91.65v3.82h-1.8V99h1.8v5.75c0,3.16,1.45,5.1,4.75,5.1a13.76,13.76,0,0,0,2-.16,10.51,10.51,0,0,0,1.36-.27s0-3.67,0-3.68a10.14,10.14,0,0,1-1.61.23,1.82,1.82,0,0,1-1.34-.46,2.11,2.11,0,0,1-.49-1.54V99h3V95.47h-3V91.14Z"/><path class="cls-1" d="M123.43,91.65v3.82h-1.8V99h1.8v5.75c0,3.16,1.45,5.1,4.75,5.1a13.73,13.73,0,0,0,2-.16,10.5,10.5,0,0,0,1.36-.27s0-3.67,0-3.68a10.13,10.13,0,0,1-1.61.23,1.82,1.82,0,0,1-1.34-.46,2.11,2.11,0,0,1-.49-1.54V99h3V95.47h-3V91.14Z"/><circle class="cls-1" cx="150.4" cy="107.23" r="2.6"/><path class="cls-1" d="M47,109.54h5.31l1.14,0c7.27-.38,10.3-4.68,10.3-9.65,0-6.21-4.19-9.69-11.42-9.69-1.85,0-3.5.06-5.34.22Zm6.79-3.79-.68,0H51.63V94.08c.52,0,1.17-.08,1.61-.08a5.46,5.46,0,0,1,5.64,5.86C58.87,104.13,56.14,105.56,53.79,105.75Z"/></svg>