<svg id="Layer_1" data-name="Layer 1" xmlns="http://www.w3.org/2000/svg" viewBox="0 0 200 200"><defs><style>.cls-1,.cls-2{fill:#727988;}.cls-2{fill-rule:evenodd;}</style></defs><title>Delta</title><path class="cls-1" d="M75.53,93.65H75.1v12.92h5.21a10.35,10.35,0,0,0,2.22-.22,5.66,5.66,0,0,0,1.71-.66,5.09,5.09,0,0,0,1.32-1.19,6.15,6.15,0,0,0,1-1.89,8.19,8.19,0,0,0,.37-2.57,7.89,7.89,0,0,0-.55-3,5.38,5.38,0,0,0-1.7-2.24,5.12,5.12,0,0,0-2.12-.94,12.42,12.42,0,0,0-2.45-.18Zm4.53,2.3a7.15,7.15,0,0,1,2.12.22,2.9,2.9,0,0,1,1.44,1.19,4.81,4.81,0,0,1,.61,2.66,6.42,6.42,0,0,1-.32,2.17,3.33,3.33,0,0,1-.85,1.35,2.61,2.61,0,0,1-1,.53,7.13,7.13,0,0,1-1.93.2H77.71V95.94Z"/><path class="cls-1" d="M75.53,106.13V94.08h4.56a12.15,12.15,0,0,1,2.36.17,4.67,4.67,0,0,1,1.94.86A4.92,4.92,0,0,1,86,97.18a7.43,7.43,0,0,1,.52,2.87,7.71,7.71,0,0,1-.35,2.43,5.69,5.69,0,0,1-.9,1.75A4.62,4.62,0,0,1,84,105.32a5.19,5.19,0,0,1-1.58.6,9.88,9.88,0,0,1-2.13.21Zm1.75-1.43h2.82a7.5,7.5,0,0,0,2.05-.22,3,3,0,0,0,1.19-.62,3.73,3.73,0,0,0,1-1.52,6.81,6.81,0,0,0,.35-2.32,5.18,5.18,0,0,0-.68-2.9,3.34,3.34,0,0,0-1.66-1.36,7.46,7.46,0,0,0-2.26-.25H77.28Z"/><path class="cls-1" d="M103,93.65H94.44v12.92h9.26v-2.3H96.89V101H103v-2.3H96.89V95.94h6.52v-2.3Z"/><path class="cls-1" d="M94.87,106.13V94.08H103v1.43H96.46v3.66h6.07v1.43H96.46v4.1h6.81v1.43Z"/><path class="cls-1" d="M114.17,93.65h-2v12.92h8.37v-2.3H114.6V93.65Z"/><path class="cls-1" d="M112.58,106.13V94.08h1.59V104.7h5.91v1.43Z"/><path class="cls-1" d="M134.9,93.65h-10v2.3h4v10.62h2.46V95.94h4v-2.3Z"/><path class="cls-1" d="M129.33,106.13V95.51h-4V94.08h9.54v1.43h-4v10.62Z"/><path class="cls-1" d="M147,93.65H144.9l-5.48,12.92H142l1.31-3.66h5.53l1.37,3.66H153l-5.75-12.92Zm-.89,3.11L146.5,98l1,2.74h-2.86l1.11-2.94h0C145.9,97.46,146,97.11,146.08,96.76Z"/><path class="cls-1" d="M140,106.13l5.15-12.05H147l5.4,12.05h-1.81l-1.37-3.66H143l-1.31,3.66Zm4-5h4.11l-1.25-3.32q-.56-1.52-.86-2.53a15.25,15.25,0,0,1-.68,2.33Z"/><polygon class="cls-1" points="47 106.13 56.45 91.86 56.45 101.89 47 106.13"/><polygon class="cls-1" points="56.45 103.76 56.45 108.14 47.03 108.14 56.45 103.76"/><polygon class="cls-1" points="65.91 106.13 56.45 91.86 56.45 101.89 65.91 106.13"/><polygon class="cls-1" points="56.45 103.76 56.45 108.14 65.87 108.14 56.45 103.76"/><path class="cls-2" d="M67.32,106.13a.57.57,0,1,0-.57-.57.57.57,0,0,0,.57.57Zm0-.11a.46.46,0,1,1,.46-.46.46.46,0,0,1-.46.46Zm.13-.41c.11,0,.17-.05.17-.17a.18.18,0,0,0-.07-.16.35.35,0,0,0-.17,0h-.3v.61h.12v-.26h.12l.14.26h.14l-.15-.26Zm-.25-.09v-.17h.15c.06,0,.15,0,.15.08s0,.09-.12.09Z"/></svg>