<svg id="Layer_1" data-name="Layer 1" xmlns="http://www.w3.org/2000/svg" viewBox="0 0 200 200"><defs><style>.cls-1{fill:#727988;}</style></defs><title>DLA</title><path id="path64" class="cls-1" d="M134.44,119.11c-1,0-1.58-.39-1.58-1.62v-9c0-1.23.64-1.61,1.62-1.61h5.76a1.48,1.48,0,0,1,1.11.34,1.1,1.1,0,0,1,.28.8,1.12,1.12,0,0,1-.27.8,1.47,1.47,0,0,1-1.12.35h-4.64v2.71h4a1.57,1.57,0,0,1,1.11.32,1.27,1.27,0,0,1,0,1.6,1.55,1.55,0,0,1-1.12.32h-4v2.71h4.77a1.48,1.48,0,0,1,1.11.34,1.1,1.1,0,0,1,.28.8,1.13,1.13,0,0,1-.27.8,1.47,1.47,0,0,1-1.12.35h-5.93Zm-53.26,0c-1,0-1.58-.39-1.58-1.62v-9.25a1.37,1.37,0,1,1,2.74,0v8.57h4.22a1.47,1.47,0,0,1,1.11.34,1.09,1.09,0,0,1,.28.8,1.12,1.12,0,0,1-.27.8,1.47,1.47,0,0,1-1.12.35H81.17ZM120,117.85a1.37,1.37,0,1,1-2.74,0v-9.61a1.37,1.37,0,1,1,2.74,0Zm-27.39-3.66,1.52-4.44,1.51,4.44h-3ZM99.27,117l-2.87-8.19a3.48,3.48,0,0,0-.74-1.37,2,2,0,0,0-1.47-.55,2.06,2.06,0,0,0-1.46.54,3.09,3.09,0,0,0-.73,1.25c-.35,1-2.94,8-3,8.32a3.54,3.54,0,0,0-.26,1,1.27,1.27,0,0,0,2.47.34l.7-2h4.48l.68,2a1.21,1.21,0,0,0,1.24.88A1.24,1.24,0,0,0,99.53,118a3.62,3.62,0,0,0-.27-1m-24.57-.9a2.59,2.59,0,0,1-2,.73H70.58v-7.64h1.75a2.86,2.86,0,0,1,2.25.71,4.52,4.52,0,0,1,1,3.23,4.36,4.36,0,0,1-.87,3m1.94-7.95a5.12,5.12,0,0,0-3.82-1.27H69.4c-1,0-1.56.39-1.56,1.62v9c0,1.23.58,1.62,1.56,1.62h3.65c3.22,0,5.28-2,5.28-6a6.56,6.56,0,0,0-1.71-5m69.15.94h2.31a2.32,2.32,0,0,1,1.66.46,1.67,1.67,0,0,1,.49,1.32,1.8,1.8,0,0,1-.47,1.31,2,2,0,0,1-1.46.49h-2.53v-3.57Zm5.18,5.36a3.77,3.77,0,0,0,2-3.58,3.86,3.86,0,0,0-1.15-3,4.51,4.51,0,0,0-3.17-1h-4c-1.09,0-1.63.49-1.63,1.62v9.37a1.37,1.37,0,1,0,2.74,0v-3h2.55l2,3.58a1.3,1.3,0,0,0,1.29.81A1.19,1.19,0,0,0,152.9,118a1.48,1.48,0,0,0-.23-.73l-1.7-2.81m-29.18-5.95c0-1.13.55-1.62,1.63-1.62h4a4.5,4.5,0,0,1,3.17,1,4,4,0,0,1,1.15,3,3.77,3.77,0,0,1-4,4h-3.17v2.95a1.37,1.37,0,1,1-2.74,0v-9.37Zm2.74,4.22h2.6a1.72,1.72,0,0,0,1.35-.47,1.88,1.88,0,0,0,.49-1.34,1.77,1.77,0,0,0-.49-1.36,2.28,2.28,0,0,0-1.66-.46h-2.28v3.64Zm-18.37-4.22c0-1.13.55-1.62,1.63-1.62h4a4.5,4.5,0,0,1,3.17,1,4,4,0,0,1,1.15,3,3.77,3.77,0,0,1-4,4h-3.17v2.95a1.37,1.37,0,1,1-2.74,0v-9.37Zm2.74,4.22h2.6a1.72,1.72,0,0,0,1.35-.47,1.88,1.88,0,0,0,.49-1.34,1.77,1.77,0,0,0-.49-1.36,2.28,2.28,0,0,0-1.66-.46h-2.28v3.64Z"/><path id="path68" class="cls-1" d="M56.86,130.91a9.81,9.81,0,0,1-5.16-1.21,9.35,9.35,0,0,1-3.64-3.76A11.13,11.13,0,0,1,47,120.52v-41a11.13,11.13,0,0,1,1.06-5.43A9.35,9.35,0,0,1,51.7,70.3a9.82,9.82,0,0,1,5.16-1.21H99a9.82,9.82,0,0,1,5.16,1.21,9.35,9.35,0,0,1,3.64,3.76,11.12,11.12,0,0,1,1.06,5.43v20.71a1.23,1.23,0,0,1-1.35,1.38c-.84,0-1.29-.46-1.41-1.38-.84-6.32-3.06-11.37-7-15.36a25.15,25.15,0,0,0-18.25-7.29c-15.08,0-25.39,11.26-25.39,25.39A25.51,25.51,0,0,0,62.62,121a24.73,24.73,0,0,0,15.32,7.13c1.24.14,1.65.62,1.65,1.43a1.27,1.27,0,0,1-.36.94,1.73,1.73,0,0,1-1.23.38H56.86Z"/></svg>