<svg id="Layer_1" data-name="Layer 1" xmlns="http://www.w3.org/2000/svg" viewBox="0 0 200 200"><defs><style>.cls-1,.cls-2,.cls-3{fill:#727988;fill-rule:evenodd;}.cls-2{opacity:0.8;}.cls-3{opacity:0.6;}</style></defs><title>Edelman</title><polygon class="cls-1" points="68.7 121.7 47 100 68.7 100 68.7 121.7 68.7 121.7"/><polygon class="cls-2" points="68.7 121.7 90.41 100 68.7 100 68.7 121.7 68.7 121.7"/><polygon class="cls-3" points="68.7 78.3 90.41 100 68.7 100 68.7 78.3 68.7 78.3"/><polygon class="cls-1" points="97.46 103.52 103.16 103.52 103.16 105.6 94.87 105.6 94.87 104.76 94.87 103.52 94.87 101.05 94.87 98.97 94.87 96.93 94.87 96.02 94.87 94.85 102.7 94.85 102.7 96.93 97.46 96.93 97.46 98.97 102.37 98.97 102.37 101.05 97.46 101.05 97.46 103.52 97.46 103.52"/><polygon class="cls-1" points="120.69 94.84 123.17 94.84 123.17 105.6 120.69 105.6 120.69 94.84 120.69 94.84"/><path class="cls-1" d="M109,94.84h2.3V105.6H109v-.79a3.13,3.13,0,0,1-2.25,1c-1.92,0-3.48-1.9-3.48-4.24s1.56-4.24,3.48-4.24a3.13,3.13,0,0,1,2.25,1V94.84Zm0,7.15v-.82c-.14-1.2-.88-2.11-1.77-2.11s-1.79,1.13-1.79,2.52.8,2.52,1.79,2.52,1.63-.91,1.77-2.11Z"/><path class="cls-1" d="M118.12,102.71l1.79,1a5.14,5.14,0,0,1-1.32,1.28c-3.7,2.48-7.73-.44-6.21-5s7.9-3.24,7.53,2.1h-5.64c.09,2.2,2.65,2.83,3.86.6Zm-3.78-2h3.25a1.63,1.63,0,1,0-3.25,0Z"/><path class="cls-1" d="M124.5,97.6v8h2.32v-5.36c0-1.22,2.45-1.5,2.45,0v5.4h2.32v-5.23c0-1.33,2.34-1.61,2.37,0l.08,5.25h2.32V99.92c0-1,.08-1.42-.81-2.05a3.45,3.45,0,0,0-4.29.56,2.93,2.93,0,0,0-4.38-.15l-.18-.66Z"/><path class="cls-1" d="M137.55,99.87h2.29a1.24,1.24,0,1,1,2.41.51c-8.68.46-4.57,8.08.15,4.48l.07.8h2.16l-.22-1,.07-5.16a1.94,1.94,0,0,0-1.54-2c-2-.6-5.07-.16-5.39,2.32Zm4.72,1.87c0,1-.22,1.87-.94,2.23-1.2.58-2.58-.55-1.54-1.35a7.33,7.33,0,0,1,2.49-.88Z"/><path class="cls-1" d="M145.9,97.6v8h2.32v-5.36c0-1.22,2.45-1.5,2.45,0v5.4H153v-5c0-1.2.17-2.13-1-2.88a3.19,3.19,0,0,0-3.68.54l-.18-.66Z"/></svg>