<svg id="Layer_1" data-name="Layer 1" xmlns="http://www.w3.org/2000/svg" viewBox="0 0 200 200"><defs><style>.cls-1,.cls-2{fill:#727988;}.cls-2{opacity:0;}</style></defs><title>EY</title><path class="cls-1" d="M55.9,135.25h1.94l.26-.05.21-.05.21-.1.1-.11.1-.1.05-.16.05-.32-.05-.21-.05-.16-.05-.16-.1-.1-.16-.1-.21-.05-.47-.05H55.9Zm0,3.61h2.2l.26-.05.21-.1.16-.16.16-.16.1-.21L59,138l.05-.26-.05-.26-.05-.26-.1-.21-.1-.16-.21-.11-.21-.1-.21-.05H55.9Zm-1.47,1.36v-8.12h3.46l.52.05.52.11.42.16.37.26L60,133l.21.37.1.42.05.47-.05.21-.05.26-.05.21-.1.26-.16.16-.16.21-.16.16-.21.1.37.21.21.16.21.21.16.21.16.31.05.31.05.42-.05.58-.16.52-.21.42-.31.37-.42.31-.47.21-.58.11-.63.05Z"/><path class="cls-2" d="M57.84,135.25H55.9v-1.73h1.83l.47.05.21.05.16.1.1.1.05.16.05.16.05.21-.05.31-.05.16-.1.1-.1.11-.21.1-.21.05Zm0,3.61H55.9v-2.3h2.25l.21.05.21.1.21.11.1.16.1.21.05.26.05.26L59,138l-.05.21-.1.21-.16.16-.16.16-.21.1-.26.05Zm2.83-1.21h0l-.05-.42-.05-.31-.16-.31-.16-.21-.21-.21-.21-.16-.37-.21.21-.1.16-.16.16-.21.16-.16.1-.26.05-.21.05-.26.05-.21-.05-.47-.1-.42L60,133l-.31-.32-.37-.26-.42-.16-.52-.1-.52-.05H54.43v8.12h3.41l.63-.05.58-.1.47-.21.42-.31.31-.37.21-.42.16-.52Z"/><polygon class="cls-1" points="63.6 140.33 63.29 140.28 63.02 140.22 62.76 140.07 62.55 139.96 62.4 139.75 62.08 139.39 61.87 138.97 61.77 138.5 61.72 138.08 61.72 137.66 61.72 134.31 63.18 134.31 63.18 137.55 63.18 137.92 63.23 138.23 63.34 138.44 63.44 138.65 63.6 138.81 63.76 138.91 64.02 139.02 64.28 139.02 64.49 139.02 64.75 138.91 64.91 138.81 65.07 138.65 65.23 138.44 65.28 138.23 65.33 137.92 65.38 137.6 65.38 134.31 66.8 134.31 66.8 140.22 65.38 140.22 65.38 139.75 65.07 140.01 64.75 140.22 64.33 140.33 63.92 140.38 63.6 140.33"/><polygon class="cls-2" points="63.92 140.38 63.92 140.38 64.33 140.33 64.75 140.22 65.07 140.01 65.38 139.75 65.38 140.22 66.8 140.22 66.8 134.31 65.38 134.31 65.38 137.6 65.33 137.92 65.28 138.23 65.23 138.44 65.07 138.65 64.91 138.81 64.75 138.91 64.49 139.02 64.28 139.02 64.02 139.02 63.76 138.91 63.6 138.81 63.44 138.65 63.34 138.44 63.23 138.23 63.18 137.92 63.18 137.55 63.18 134.31 61.72 134.31 61.72 137.66 61.72 138.08 61.77 138.5 61.87 138.97 62.08 139.39 62.4 139.75 62.55 139.96 62.76 140.07 63.02 140.22 63.29 140.28 63.6 140.33 63.92 140.38"/><polygon class="cls-1" points="86.24 140.22 86.24 136.98 86.24 136.61 86.19 136.35 86.08 136.09 85.98 135.88 85.82 135.72 85.67 135.62 85.4 135.56 85.19 135.51 84.93 135.56 84.67 135.62 84.51 135.72 84.36 135.88 84.2 136.09 84.09 136.35 84.04 136.61 84.04 136.98 84.04 140.22 82.57 140.22 82.57 134.31 84.04 134.31 84.04 134.83 84.36 134.52 84.72 134.36 85.09 134.2 85.51 134.2 86.03 134.2 86.45 134.36 86.82 134.57 87.13 134.88 87.39 135.25 87.55 135.72 87.66 136.24 87.71 136.87 87.71 140.22 86.24 140.22"/><polygon class="cls-2" points="84.04 136.98 84.04 136.98 84.04 136.61 84.09 136.35 84.2 136.09 84.36 135.88 84.51 135.72 84.67 135.62 84.93 135.56 85.19 135.51 85.4 135.56 85.67 135.62 85.82 135.72 85.98 135.88 86.08 136.09 86.19 136.35 86.24 136.61 86.24 136.98 86.24 140.22 87.71 140.22 87.71 136.87 87.66 136.24 87.55 135.72 87.39 135.25 87.13 134.88 86.82 134.57 86.45 134.36 86.03 134.2 85.51 134.2 85.09 134.2 84.72 134.36 84.36 134.52 84.04 134.83 84.04 134.31 82.57 134.31 82.57 140.22 84.04 140.22 84.04 136.98"/><rect class="cls-1" x="68.16" y="134.31" width="1.47" height="5.92"/><rect class="cls-2" x="68.16" y="134.3" width="1.47" height="5.92"/><polygon class="cls-1" points="70.89 140.22 70.89 132.58 72.35 131.84 72.35 140.22 70.89 140.22"/><polygon class="cls-2" points="70.89 140.22 72.35 140.22 72.35 131.84 70.89 132.58 70.89 140.22"/><path class="cls-1" d="M75.81,135.56l-.21.05-.21.05-.16.16-.16.21-.1.31-.05.37-.05.47.05.52.05.42.1.32.16.21.21.16.16.1.21.1H76l.31-.05.31-.16.21-.16.16-.21v-2.36l-.16-.16-.21-.21-.31-.16-.37-.05Zm-.63,4.77-.47-.16-.37-.26-.37-.37-.26-.47-.16-.52-.1-.63-.05-.68.05-.68.1-.63.21-.47L74,135l.31-.32.42-.26.42-.16.52-.05h.37l.37.1.31.16.26.26v-2.15l1.47-.73v8.38H77v-.42l-.31.21-.31.21-.31.1-.37.05Z"/><path class="cls-2" d="M76,139h-.21l-.21-.1-.16-.1-.21-.16-.16-.21-.1-.31-.05-.42-.05-.52.05-.47.05-.37.1-.31.16-.21.16-.16.21-.05.21-.05.16-.05.37.05.31.16.21.21.16.16v2.36l-.16.21-.21.16-.31.16Zm1-4.29h0l-.26-.26-.31-.16-.37-.1h-.37l-.52.05-.42.16-.42.26L74,135l-.26.47-.21.47-.1.63-.05.68.05.68.1.63.16.52.26.47.37.37.37.26.47.16.52.05.37-.05.31-.11.31-.21.31-.21v.42h1.47v-8.38l-1.47.73Z"/><path class="cls-1" d="M108.41,135.56l-.32.1-.21.21-.21.26v2.3l.16.16.21.21.31.16.16.05h.21L109,139l.21-.05.21-.16.16-.21.1-.26.05-.31.05-.37.05-.42-.05-.42-.05-.37-.11-.26-.16-.26-.16-.16-.21-.1-.21-.05-.16-.05Zm.21,4.77-.37-.11-.32-.21-.26-.21v.42h-1.47v-7.49l1.47-.73v2.72l.26-.21.37-.21.31-.1H109l.52.05.42.16.42.26.31.32.26.47.21.47.1.63.05.68-.05.68-.1.63-.16.52-.26.47-.37.37-.37.26-.47.16-.52.05Z"/><path class="cls-2" d="M108.73,135.51h0l.16.05.21.05.21.1.16.16.16.26.11.26.05.37.05.42-.05.42-.05.37-.05.31-.1.26-.16.21-.21.16L109,139l-.26.05h-.21l-.16-.05-.31-.16-.21-.21-.16-.16v-2.3l.21-.26.21-.21.32-.1Zm.26-1.31h-.37l-.31.1-.37.21-.26.21V132l-1.47.73v7.49h1.47v-.42l.26.21.32.21.37.11.37.05.52-.05.47-.16.37-.26.37-.37.26-.47.16-.52.1-.63.05-.68-.05-.68-.1-.63-.21-.47-.26-.47-.32-.32-.42-.26-.42-.16Z"/><path class="cls-1" d="M90.91,135.56l-.21.1-.16.16-.16.21-.1.31-.05.37-.05.47.05.52.05.37.1.37.16.21.16.16.21.1.21.1h.16l.37-.05.26-.16.26-.16.16-.21v-2.36l-.16-.21-.21-.16-.31-.16-.37-.05h-.21Zm-.52,5.92h.05l.63-.05.47-.1.31-.16.26-.21.1-.26.1-.26v-.63L92,140l-.31.21-.31.11-.42.05-.47-.05-.47-.21-.37-.26-.37-.31-.26-.47-.16-.52-.16-.63v-1.36l.16-.63.16-.52.31-.42.31-.37.42-.21.42-.16.52-.05h.37l.37.1.31.21.26.21v-.42h1.47v5.39l-.05.68-.1.58-.26.52-.1.21-.21.21-.16.16-.21.16-.52.21-.58.16-.68.05Z"/><path class="cls-2" d="M92.32,136.09v2.36l-.16.21-.26.16-.26.16-.37.05h-.16l-.21-.1-.21-.11-.16-.16-.16-.21-.1-.37-.05-.37-.05-.52.05-.47.05-.37.1-.31.16-.21.16-.16.21-.1.16-.05h.21l.37.05.31.16.21.16Zm0-1.36h0l-.26-.21-.31-.21-.37-.1H91l-.52.05-.42.16-.42.21-.31.37-.31.42-.16.52-.16.63v1.36l.16.63.16.52.26.47.37.31.37.26.47.21.47.05.42-.05.31-.1L92,140l.31-.21v.63l-.1.26-.1.26-.26.21-.31.16-.47.1-.63.05h-.05l.52,1.15.68-.05.58-.16.52-.21.21-.16.16-.16.21-.21.1-.21.26-.52.1-.58.05-.68V134.3H92.32Z"/><path class="cls-1" d="M99.34,137.5l-.16.05-.16.11-.1.1-.1.16-.05.16v.37l.05.21.1.16.1.11.16.1.16.05.21.05.21.05.37-.05.37-.16.21-.21.21-.21v-.84l-.26-.1-.26-.1-.31-.05h-.52Zm-.26,2.83-.37-.05-.37-.16-.31-.21-.31-.31-.21-.37-.16-.42-.05-.52.05-.52.16-.42.26-.31.31-.26.37-.21.37-.1.42-.1H100l.37.05.31.11.26.1V136l-.05-.21-.1-.16-.1-.1-.16-.1-.21-.05-.42-.05-.42.05-.42.05-.37.16-.31.16-.58-1,.52-.26.52-.21.58-.1h1.1l.47.1.42.21.37.21.26.31.21.32.1.42.05.47v4h-1.47v-.47l-.32.26-.42.21-.37.1-.31.05Z"/><path class="cls-2" d="M98.77,138.29h0v-.21l.05-.16.1-.16.1-.11.16-.1.16-.05.21-.05h.52l.31.05.26.1.26.1v.84l-.21.21-.21.21-.37.16-.37.05-.21-.05-.21-.05-.16-.05-.16-.1-.1-.11-.1-.16-.05-.21Zm-.42-2.51h0l.31-.16.37-.16.42-.05.42-.05.42.05.21.05.16.1.1.1.1.16.05.21v.58l-.26-.1-.31-.11-.37-.05h-.73l-.42.1-.37.1-.37.21-.31.26-.26.31-.16.42-.05.52.05.52.16.42.21.37.31.31.31.21.37.16.37.05.42.05.31-.05.37-.1.42-.21.32-.26v.47h1.47v-4l-.05-.47-.1-.42L102,135l-.26-.31-.37-.21-.42-.21-.47-.1H99.4l-.58.1-.52.21-.52.26Z"/><path class="cls-1" d="M114.44,135.46l-.21.05-.21.11-.16.16-.1.16-.1.21-.1.26v.26h2.2l-.05-.47-.1-.21-.1-.16-.16-.16-.21-.16-.21-.05-.26-.05Zm-.21,4.87-.58-.21-.47-.26-.37-.31-.37-.47-.21-.52-.16-.58-.05-.68.05-.68.16-.58.21-.52.32-.47.42-.37.42-.26.52-.16.58-.05.52.05.47.16.42.26.37.37.32.42.21.52.1.63.05.68v.42h-3.67l.1.42.11.31.21.21.16.16.26.11.16.05.37.05.37-.05.31-.1.26-.16.21-.21.94.94-.26.21-.21.21-.26.16-.26.1-.52.21-.58.05Z"/><path class="cls-2" d="M113.55,136.66h0v-.26l.1-.26.1-.21.1-.16.16-.16.21-.11.21-.05.21-.05.26.05.21.05.21.16.16.16.1.16.1.21.05.47Zm2.46,1.83h0l-.21.21-.26.16-.31.1-.37.05-.37-.05-.16-.05-.26-.11-.16-.16-.21-.21-.11-.31-.1-.42h3.67v-.42l-.05-.68L117,136l-.21-.52-.31-.42-.37-.37-.42-.26-.47-.16-.52-.05-.58.05-.52.16-.42.26-.42.37-.32.47-.21.52-.16.58-.05.68.05.68.16.58.21.52.37.47.37.31.47.26.58.21.63.05.58-.05.52-.21.26-.1.26-.16.21-.21.26-.21Z"/><path class="cls-1" d="M128.54,135.46l-.21.05-.16.1-.16.16-.16.16-.1.21-.05.26v.26h2.2l-.1-.47-.05-.21-.11-.16-.16-.16-.21-.16-.21-.05-.26-.05Zm-.16,4.87-.58-.21-.47-.26-.42-.31-.31-.47-.26-.52-.11-.58-.05-.68.05-.68.11-.58.26-.52.31-.47.37-.37.47-.26.52-.16.52-.05.58.05.47.16.42.26.37.37.26.42.21.52.16.63.05.68v.42h-3.67l.05.42.16.31.16.21.21.16.21.11.21.05.31.05.37-.05.31-.1.26-.16.26-.21.89.94-.21.21-.26.21-.21.16-.26.1-.58.21-.58.05Z"/><path class="cls-2" d="M127.7,136.66h0v-.26l.05-.26.1-.21.16-.16.16-.16.16-.1.21-.05.26-.05.26.05.21.05.21.16.16.16.11.16.05.21.1.47Zm2.46,1.83h0l-.26.21-.26.16-.31.1L129,139l-.31-.05-.21-.05-.21-.1-.21-.16-.16-.21-.16-.31-.05-.42h3.67v-.42l-.05-.68-.16-.63-.21-.52-.26-.42-.37-.37-.42-.26-.47-.16-.58-.05-.52.05-.52.16-.47.26-.37.37-.31.47-.26.52-.11.58-.05.68.05.68.11.58.26.52.31.47.42.31.47.26.58.21.58.05.58-.05.58-.21.26-.1.21-.16.26-.21.21-.21Z"/><polygon class="cls-1" points="123.87 140.33 123.5 140.17 123.24 140.01 123.03 139.75 122.88 139.49 122.77 139.18 122.72 138.86 122.67 138.55 122.67 135.67 121.78 135.67 121.78 134.31 122.67 134.31 122.67 132.79 124.13 132.05 124.13 134.31 125.5 134.31 125.5 135.67 124.13 135.67 124.13 138.18 124.19 138.55 124.29 138.76 124.4 138.86 124.5 138.91 124.76 138.97 125.03 138.97 125.23 138.91 125.65 138.7 125.5 140.07 125.23 140.22 124.92 140.28 124.61 140.33 124.24 140.38 123.87 140.33"/><polygon class="cls-2" points="124.13 135.67 125.5 135.67 125.5 134.31 124.13 134.31 124.13 132.05 122.67 132.79 122.67 134.31 121.78 134.31 121.78 135.67 122.67 135.67 122.67 138.55 122.72 138.86 122.77 139.18 122.88 139.49 123.03 139.75 123.24 140.01 123.5 140.17 123.87 140.33 124.24 140.38 124.61 140.33 124.92 140.28 125.23 140.22 125.5 140.07 125.65 138.7 125.23 138.91 125.03 138.97 124.76 138.97 124.5 138.91 124.4 138.86 124.29 138.76 124.19 138.55 124.13 138.18 124.13 135.67"/><polygon class="cls-1" points="119.68 140.33 119.31 140.17 119.05 140.01 118.84 139.75 118.68 139.49 118.58 139.18 118.53 138.86 118.47 138.55 118.47 135.67 117.58 135.67 117.58 134.31 118.47 134.31 118.47 132.79 119.94 132.05 119.94 134.31 121.2 134.31 121.2 135.67 119.94 135.67 119.94 138.18 119.99 138.55 120.1 138.76 120.2 138.86 120.31 138.91 120.57 138.97 120.83 138.97 121.04 138.91 121.46 138.7 121.3 140.07 121.04 140.22 120.73 140.28 120.41 140.33 120.05 140.38 119.68 140.33"/><polygon class="cls-2" points="121.46 138.7 121.46 138.7 121.04 138.91 120.83 138.97 120.57 138.97 120.31 138.91 120.2 138.86 120.1 138.76 119.99 138.55 119.94 138.18 119.94 135.67 121.2 135.67 121.2 134.31 119.94 134.31 119.94 132.05 118.47 132.79 118.47 134.31 117.58 134.31 117.58 135.67 118.47 135.67 118.47 138.55 118.53 138.86 118.58 139.18 118.68 139.49 118.84 139.75 119.05 140.01 119.31 140.17 119.68 140.33 120.05 140.38 120.41 140.33 120.73 140.28 121.04 140.22 121.3 140.07 121.46 138.7"/><polygon class="cls-1" points="132.26 140.22 132.26 134.31 133.72 134.31 133.72 134.83 133.99 134.51 134.3 134.36 134.67 134.2 135.03 134.2 135.3 134.2 135.61 134.25 135.87 134.41 136.14 134.51 135.72 135.98 135.51 135.82 135.3 135.72 135.03 135.67 134.77 135.67 134.51 135.67 134.3 135.72 134.14 135.82 133.99 135.98 133.88 136.19 133.78 136.4 133.72 136.71 133.72 137.03 133.72 140.22 132.26 140.22"/><polygon class="cls-2" points="136.14 134.51 136.14 134.51 135.87 134.41 135.61 134.25 135.3 134.2 135.03 134.2 134.67 134.2 134.3 134.36 133.99 134.51 133.72 134.83 133.72 134.31 132.26 134.31 132.26 140.22 133.72 140.22 133.72 137.03 133.72 136.71 133.78 136.4 133.88 136.19 133.99 135.98 134.14 135.82 134.3 135.72 134.51 135.67 134.77 135.67 135.03 135.67 135.3 135.72 135.51 135.82 135.72 135.98 136.14 134.51"/><rect class="cls-1" x="68.16" y="132" width="1.47" height="1.47"/><rect class="cls-2" x="68.16" y="132" width="1.47" height="1.47"/><rect class="cls-1" x="79.8" y="134.3" width="1.47" height="5.92"/><rect class="cls-2" x="79.8" y="134.3" width="1.47" height="5.92"/><rect class="cls-1" x="79.8" y="132" width="1.47" height="1.47"/><rect class="cls-2" x="79.8" y="132" width="1.47" height="1.47"/><path class="cls-1" d="M120,145.93l-.16.1-.16.16-.16.21-.1.26-.11.42V148l.11.42.1.32.16.26.16.16.21.1.16.05h.58l.26-.16.21-.21.21-.21v-2.3l-.16-.21-.26-.16-.26-.16-.37-.05h-.21Zm.11,4.77-.52-.05-.42-.16-.42-.26-.32-.37-.26-.42-.21-.58-.11-.58-.05-.73.05-.68.11-.58.21-.52.26-.42.32-.37.42-.26.47-.16.52-.05.32.05.37.1.31.16.31.26v-2.15l1.47-.73v8.38h-1.47v-.47l-.31.26-.37.21-.31.1Z"/><path class="cls-2" d="M120.46,149.33h-.21l-.16-.05-.21-.11-.16-.16-.16-.26-.1-.31-.11-.42v-.94l.11-.42.1-.26.16-.21.16-.16.16-.1.21-.05h.21l.37.05.26.16.26.16.16.21v2.3l-.21.21-.21.21-.26.16Zm1-4.24h0l-.31-.26-.31-.16-.37-.1-.32-.05-.52.05-.47.16-.42.26-.32.37-.26.42-.21.52-.11.58-.05.68.05.73.11.58.21.58.26.42.32.37.42.26.42.16.52.05h.37l.31-.1.37-.21.31-.26v.47H123v-8.38l-1.47.73Z"/><polygon class="cls-1" points="68.27 150.59 68.27 144.67 69.73 144.67 69.73 145.2 70 144.88 70.31 144.67 70.63 144.57 71.04 144.52 71.31 144.57 71.62 144.62 71.88 144.73 72.14 144.88 71.72 146.3 71.52 146.19 71.25 146.09 71.04 146.03 70.78 145.98 70.52 146.03 70.31 146.09 70.1 146.19 70 146.35 69.84 146.51 69.79 146.77 69.73 147.03 69.73 147.4 69.73 150.59 68.27 150.59"/><polygon class="cls-2" points="72.14 144.88 72.14 144.88 71.88 144.72 71.62 144.62 71.31 144.57 71.04 144.52 70.63 144.57 70.31 144.67 70 144.88 69.73 145.2 69.73 144.67 68.27 144.67 68.27 150.59 69.73 150.59 69.73 147.4 69.73 147.03 69.79 146.77 69.84 146.51 70 146.35 70.1 146.19 70.31 146.09 70.52 146.03 70.78 145.98 71.04 146.03 71.25 146.09 71.52 146.19 71.72 146.3 72.14 144.88"/><polygon class="cls-1" points="58.73 150.59 58.1 148.13 57.73 146.82 57.42 148.18 56.79 150.59 55.53 150.59 55.48 150.54 53.91 144.88 53.91 144.67 55.32 144.67 55.9 146.87 56.16 148.34 56.37 147.55 56.53 146.82 57.16 144.67 58.41 144.67 58.99 146.82 59.36 148.34 59.67 146.82 60.2 144.67 61.66 144.67 59.99 150.59 58.73 150.59"/><polygon class="cls-2" points="59.67 146.82 59.67 146.82 59.36 148.34 58.99 146.82 58.41 144.67 57.16 144.67 56.53 146.82 56.37 147.55 56.16 148.34 55.9 146.87 55.32 144.67 53.85 144.67 55.48 150.54 55.53 150.59 56.79 150.59 57.42 148.18 57.73 146.82 58.1 148.13 58.73 150.59 59.99 150.59 61.66 144.67 60.2 144.67 59.67 146.82"/><path class="cls-1" d="M64.18,146l-.21.16-.21.16-.1.26-.1.31-.05.31-.05.37.05.37.05.37.1.26.1.26.21.21.21.16.21.05.26.05.26-.05.21-.05.21-.16.21-.21.1-.26.1-.26.1-.37v-.73l-.1-.31-.1-.31-.1-.26-.21-.16-.21-.16-.21-.1h-.52Zm-.1,4.61-.52-.16-.42-.26-.42-.37-.31-.47-.26-.52-.1-.58-.05-.68L62,147l.1-.58.26-.58.31-.42.42-.37.42-.26.52-.21.58-.05.58.05.52.21.42.26.42.37.31.42.26.58.1.58.05.63-.05.68-.1.58-.26.52-.31.47-.42.37-.42.26-.52.16-.58.05Z"/><path class="cls-2" d="M64.65,149.33h0l-.26-.05-.21-.05-.21-.16-.21-.21-.1-.26-.1-.26L63.5,148l-.05-.37.05-.37.05-.31.1-.32.1-.26.21-.16.21-.16.21-.1h.52l.21.1.21.16.21.16.1.26.1.32.1.31V148l-.1.37-.1.26-.1.26-.21.21-.21.16-.21.05Zm0-4.82h0l-.58.05-.52.21-.42.26-.42.37-.31.42-.26.58L62,147l-.05.63.05.68.1.58.26.52.31.47.42.37.42.26.52.16.58.05.58-.05.52-.16.42-.26.42-.37.31-.47.26-.52.1-.58.05-.68-.05-.63-.1-.58-.26-.58-.31-.42-.42-.37-.42-.26-.52-.21Z"/><polygon class="cls-1" points="110.77 150.59 110.77 144.67 112.24 144.67 112.24 145.2 112.55 144.88 112.87 144.67 113.18 144.57 113.55 144.52 113.86 144.57 114.18 144.62 114.44 144.72 114.65 144.88 114.28 146.3 114.07 146.19 113.81 146.09 113.55 146.03 113.29 145.98 113.08 146.03 112.87 146.09 112.66 146.19 112.5 146.35 112.39 146.51 112.34 146.77 112.29 147.03 112.24 147.4 112.24 150.59 110.77 150.59"/><polygon class="cls-2" points="114.65 144.88 114.65 144.88 114.44 144.72 114.18 144.62 113.86 144.57 113.55 144.52 113.18 144.57 112.87 144.67 112.55 144.88 112.24 145.2 112.24 144.67 110.77 144.67 110.77 150.59 112.24 150.59 112.24 147.4 112.29 147.03 112.34 146.77 112.39 146.51 112.5 146.35 112.66 146.19 112.87 146.09 113.08 146.03 113.29 145.98 113.55 146.03 113.81 146.09 114.07 146.19 114.28 146.3 114.65 144.88"/><polygon class="cls-1" points="101.28 150.59 100.6 148.13 100.29 146.82 99.97 148.18 99.29 150.59 98.03 150.59 98.03 150.54 96.36 144.67 97.88 144.67 98.4 146.87 98.72 148.34 98.87 147.55 99.08 146.82 99.71 144.67 100.92 144.67 101.55 146.82 101.91 148.34 102.23 146.82 102.75 144.67 104.22 144.67 102.54 150.59 101.28 150.59"/><polygon class="cls-2" points="102.23 146.82 102.23 146.82 101.91 148.34 101.55 146.82 100.92 144.67 99.71 144.67 99.08 146.82 98.87 147.55 98.72 148.34 98.4 146.87 97.88 144.67 96.36 144.67 98.03 150.54 98.03 150.59 99.29 150.59 99.97 148.18 100.29 146.82 100.6 148.13 101.28 150.59 102.54 150.59 104.22 144.67 102.75 144.67 102.23 146.82"/><path class="cls-1" d="M106.68,146l-.21.16-.16.16-.16.26-.1.32-.05.31V148l.05.37.1.26.16.26.16.21.21.16.26.05.26.05.26-.05.21-.05.21-.16.16-.21.16-.26.1-.26.05-.37v-.73l-.05-.31-.1-.32-.16-.26-.16-.16-.21-.16-.21-.11h-.52Zm-.05,4.61-.52-.16-.47-.26-.37-.37-.32-.47-.26-.52-.16-.58-.05-.68.05-.63.16-.57.26-.52.32-.47.37-.37.47-.26.52-.21.58-.05.52.05.52.21.47.26.37.37.37.47.21.52.16.57.05.63-.05.68-.16.58-.21.52-.37.47-.37.37-.47.26-.52.16-.52.05Z"/><path class="cls-2" d="M107.21,149.33h0l-.26-.05-.26-.05-.21-.16-.16-.21-.16-.26-.1-.26L106,148v-.73l.05-.31.1-.32.16-.26.16-.16.21-.16.26-.11h.52l.21.11.21.16.16.16.16.26.1.32.05.31V148l-.05.37-.1.26-.16.26-.16.21-.21.16-.21.05Zm0-4.82h0l-.58.05-.52.21-.47.26-.37.37-.32.47-.26.52-.16.57-.05.63.05.68.16.58.26.52.32.47.37.37.47.26.52.16.58.05.52-.05.52-.16.47-.26.37-.37.37-.47.21-.52.16-.58.05-.68-.05-.63-.16-.57-.21-.52-.37-.47-.37-.37-.47-.26-.52-.21Z"/><polygon class="cls-1" points="76.28 150.59 75.03 147.81 74.29 148.81 74.29 150.59 72.83 150.59 72.83 142.94 74.29 142.21 74.29 146.93 74.82 146.19 75.97 144.67 77.7 144.67 76.13 146.61 77.91 150.59 76.28 150.59"/><polygon class="cls-2" points="77.7 144.67 75.97 144.67 74.82 146.19 74.29 146.93 74.29 142.21 72.83 142.94 72.83 150.59 74.29 150.59 74.29 148.81 75.03 147.81 76.28 150.59 77.91 150.59 76.13 146.61 77.7 144.67"/><polygon class="cls-1" points="85.25 150.59 85.25 147.29 85.25 146.98 85.19 146.66 85.09 146.4 84.98 146.24 84.83 146.09 84.67 145.98 84.46 145.88 84.2 145.88 83.94 145.88 83.67 145.98 83.52 146.09 83.36 146.24 83.2 146.45 83.15 146.66 83.1 146.98 83.05 147.29 83.05 150.59 81.58 150.59 81.58 144.67 83.05 144.67 83.05 145.14 83.36 144.88 83.73 144.67 84.09 144.57 84.56 144.51 85.04 144.57 85.51 144.72 85.88 144.93 86.19 145.2 86.4 145.62 86.56 146.09 86.66 146.61 86.71 147.24 86.71 150.59 85.25 150.59"/><polygon class="cls-2" points="83.05 147.29 83.05 147.29 83.1 146.98 83.15 146.66 83.2 146.45 83.36 146.24 83.52 146.09 83.67 145.98 83.94 145.88 84.2 145.88 84.46 145.88 84.67 145.98 84.83 146.09 84.98 146.24 85.09 146.4 85.19 146.66 85.25 146.98 85.25 147.29 85.25 150.59 86.71 150.59 86.71 147.24 86.66 146.61 86.56 146.09 86.4 145.62 86.19 145.2 85.88 144.93 85.51 144.72 85.04 144.57 84.56 144.51 84.09 144.57 83.73 144.67 83.36 144.88 83.05 145.14 83.05 144.67 81.58 144.67 81.58 150.59 83.05 150.59 83.05 147.29"/><path class="cls-1" d="M89.91,145.93l-.21.1-.16.16-.16.21-.1.26-.05.42-.05.42.05.52.05.42.1.31.16.26.21.16.16.1.21.05h.52l.26-.16.26-.21.16-.21v-2.3l-.16-.21-.21-.16-.31-.16-.37-.05h-.16Zm-.52,5.92h.05l.63-.05.47-.1.31-.21.26-.21.1-.21.1-.26v-.68l-.26.26-.37.16-.31.16H90l-.52-.05-.47-.16-.37-.26-.37-.37-.26-.42-.16-.58-.1-.63-.05-.68.05-.68.1-.58.21-.52.26-.42.31-.37.42-.26.42-.16.52-.05.37.05.37.1.31.16.26.26v-.42h1.47V150l-.05.68-.1.63-.21.52-.16.21-.16.16-.21.21-.21.16-.52.21-.58.16-.68.05Z"/><path class="cls-2" d="M91.33,146.45v2.3l-.16.21-.26.21-.26.16h-.52l-.21-.05-.16-.1-.21-.16-.16-.26-.1-.31-.05-.42-.05-.52.05-.42.05-.42.1-.26.16-.21.16-.16.21-.1.21-.05h.16l.37.05.31.16.21.16Zm0-1.36h0l-.26-.26-.31-.16-.37-.1-.37-.05-.52.05-.42.16-.42.26-.31.37-.26.42-.21.52-.1.58-.05.68.05.68.1.63.16.58.26.42.37.37.37.26.47.16.52.05h.37l.31-.16.37-.16.26-.26v.68l-.1.26-.1.21-.26.21-.31.21-.47.1-.63.05h-.05l.52,1.15.68-.05.58-.16.52-.21.21-.16.21-.21.16-.16.16-.21.21-.52.1-.63.05-.68v-5.34H91.33Z"/><rect class="cls-1" x="78.8" y="144.67" width="1.47" height="5.92"/><rect class="cls-2" x="78.8" y="144.67" width="1.47" height="5.92"/><rect class="cls-1" x="78.8" y="142.37" width="1.47" height="1.47"/><rect class="cls-2" x="78.8" y="142.37" width="1.47" height="1.47"/><polygon class="cls-1" points="115.38 150.59 115.38 142.94 116.85 142.21 116.85 150.59 115.38 150.59"/><polygon class="cls-2" points="115.38 150.59 116.85 150.59 116.85 142.21 115.38 142.94 115.38 150.59"/><polygon class="cls-1" points="53.91 80.65 146.14 47 146.15 47 146.15 64.39 53.91 80.67 53.91 80.65"/><polygon class="cls-2" points="53.85 80.67 146.15 47 146.15 64.39 53.85 80.67"/><polygon class="cls-1" points="54.43 123.98 54.43 90.68 73.35 90.68 77.75 98.32 64.39 98.32 64.39 103.82 76.49 103.82 76.49 110.84 64.39 110.84 64.39 116.34 81.11 116.34 81.11 123.98 54.43 123.98"/><polygon class="cls-2" points="64.39 110.84 76.49 110.84 76.49 103.82 64.39 103.82 64.39 98.32 77.75 98.32 73.35 90.68 54.43 90.68 54.43 123.98 81.11 123.98 81.11 116.34 64.39 116.34 64.39 110.84"/><polygon class="cls-1" points="88.13 123.98 88.13 110.84 76.49 90.68 87.55 90.68 93.16 101.57 98.82 90.68 109.77 90.68 98.09 110.84 98.09 123.98 88.13 123.98"/><polygon class="cls-2" points="98.82 90.68 93.16 101.57 87.55 90.68 76.49 90.68 88.13 110.84 88.13 123.98 98.09 123.98 98.09 110.84 109.77 90.68 98.82 90.68"/></svg>