<svg id="Layer_1" data-name="Layer 1" xmlns="http://www.w3.org/2000/svg" viewBox="0 0 200 200"><defs><style>.cls-1,.cls-2{fill:#727988;}.cls-1{fill-rule:evenodd;}</style></defs><title>FitnessFirst</title><polygon class="cls-1" points="49.83 125.64 58.67 125.64 58.29 128.13 52.24 128.13 51.82 130.99 60.44 130.99 58.8 142.1 56 142.1 57.32 133.31 51.47 133.31 49.8 144.61 47 144.61 49.83 125.64"/><polygon class="cls-1" points="117.57 125.64 126.42 125.64 126.03 128.13 120.01 128.13 119.56 130.99 128.18 130.99 126.54 142.1 123.75 142.1 125.06 133.31 119.21 133.31 117.54 144.61 114.74 144.61 117.57 125.64"/><polygon class="cls-1" points="66.32 127.7 65.81 130.99 68.7 130.99 68.35 133.31 65.49 133.31 64.55 139.53 64.55 139.78 64.62 139.94 64.81 140.07 65.07 140.1 65.52 140.03 66 139.94 66.51 139.78 67 139.59 67.64 141.46 66.9 141.81 66.03 142.1 65.13 142.26 64.13 142.32 63.46 142.26 62.85 142.06 62.4 141.78 62.05 141.36 61.82 140.88 61.73 140.29 61.76 139.65 63.46 128.13 66.32 127.7"/><polygon class="cls-1" points="150.62 127.7 150.11 130.99 153 130.99 152.65 133.31 149.79 133.31 148.85 139.53 148.85 139.78 148.92 139.94 149.11 140.07 149.37 140.1 149.82 140.03 150.3 139.94 150.78 139.78 151.3 139.59 151.94 141.46 151.2 141.81 150.33 142.1 149.44 142.26 148.44 142.32 147.73 142.26 147.15 142.06 146.7 141.78 146.35 141.36 146.12 140.88 146.03 140.29 146.03 139.65 147.76 128.13 150.62 127.7"/><polygon class="cls-1" points="77.9 130.73 78.51 130.8 78.99 130.96 79.38 131.22 79.67 131.57 79.89 131.99 80.02 132.44 80.05 132.95 80.05 133.34 80.05 133.7 79.99 134.05 78.76 142.1 76 142.1 77.16 134.14 77.19 134.05 77.19 133.92 77.16 133.72 77.06 133.56 76.87 133.44 76.58 133.4 76.13 133.44 75.61 133.6 75.04 133.82 74.42 134.08 73.81 134.37 73.27 134.69 72.17 142.1 69.38 142.1 71.02 131.15 73.4 130.8 73.4 132.15 74.3 131.67 75.23 131.31 76.16 130.99 77.06 130.8 77.9 130.73"/><polygon class="cls-1" points="96.93 130.73 97.77 130.76 98.67 130.89 99.53 131.08 100.31 131.28 99.92 133.37 99.19 133.21 98.41 133.08 97.64 132.99 97 132.95 96.42 132.95 96 133.02 95.71 133.15 95.55 133.4 95.45 133.79 95.42 134.14 95.45 134.4 95.61 134.63 95.87 134.85 96.26 135.08 96.77 135.37 97.58 135.79 98.22 136.17 98.73 136.53 99.15 136.85 99.4 137.2 99.6 137.56 99.67 137.94 99.69 138.42 99.63 138.97 99.5 139.71 99.31 140.39 99.05 140.94 98.73 141.39 98.28 141.74 97.73 142 97.09 142.19 96.26 142.29 95.29 142.32 94.62 142.29 93.88 142.19 93.1 142.03 92.37 141.84 91.75 141.62 92.2 139.53 93.17 139.81 94.23 140.03 95.36 140.1 95.9 140.07 96.29 140 96.58 139.91 96.77 139.71 96.87 139.46 96.96 139.13 96.96 138.88 96.96 138.68 96.9 138.49 96.77 138.3 96.54 138.1 96.22 137.88 95.81 137.66 95.23 137.36 94.42 136.95 93.78 136.53 93.33 136.11 93.01 135.72 92.82 135.27 92.72 134.79 92.72 134.28 92.78 133.66 92.91 132.99 93.1 132.41 93.33 131.93 93.68 131.54 94.1 131.22 94.62 130.99 95.26 130.86 96.03 130.76 96.93 130.73"/><polygon class="cls-1" points="106.26 130.73 107.09 130.76 107.99 130.89 108.86 131.08 109.6 131.28 109.21 133.37 108.5 133.21 107.73 133.08 106.96 132.99 106.29 132.95 105.7 132.95 105.29 133.02 105.03 133.15 104.84 133.4 104.74 133.79 104.71 134.14 104.78 134.4 104.91 134.63 105.16 134.85 105.55 135.08 106.09 135.37 106.89 135.79 107.54 136.17 108.06 136.53 108.44 136.85 108.73 137.2 108.89 137.56 108.99 137.94 108.99 138.42 108.96 138.97 108.79 139.71 108.6 140.39 108.37 140.94 108.02 141.39 107.6 141.74 107.06 142 106.39 142.19 105.58 142.29 104.61 142.32 103.91 142.29 103.17 142.19 102.4 142.03 101.69 141.84 101.05 141.62 101.5 139.53 102.46 139.81 103.55 140.03 104.68 140.1 105.2 140.07 105.61 140 105.87 139.91 106.06 139.71 106.19 139.46 106.26 139.13 106.29 138.88 106.26 138.68 106.19 138.49 106.06 138.3 105.84 138.1 105.51 137.88 105.1 137.66 104.55 137.36 103.72 136.95 103.1 136.53 102.65 136.11 102.33 135.72 102.11 135.27 102.05 134.79 102.01 134.28 102.07 133.66 102.24 132.99 102.4 132.41 102.65 131.93 102.98 131.54 103.39 131.22 103.94 130.99 104.55 130.86 105.32 130.76 106.26 130.73"/><polygon class="cls-1" points="141.49 130.73 142.33 130.76 143.22 130.89 144.1 131.08 144.84 131.28 144.45 133.37 143.74 133.21 142.97 133.08 142.2 132.99 141.53 132.95 140.95 132.95 140.53 133.02 140.27 133.15 140.08 133.4 139.98 133.79 139.95 134.14 140.01 134.4 140.14 134.63 140.4 134.85 140.78 135.08 141.33 135.37 142.13 135.79 142.78 136.17 143.29 136.53 143.68 136.85 143.97 137.2 144.13 137.56 144.22 137.94 144.22 138.42 144.19 138.97 144.03 139.71 143.84 140.39 143.61 140.94 143.26 141.39 142.84 141.74 142.3 142 141.62 142.19 140.82 142.29 139.82 142.32 139.15 142.29 138.4 142.19 137.63 142.03 136.92 141.84 136.29 141.62 136.73 139.53 137.7 139.81 138.79 140.03 139.92 140.1 140.43 140.07 140.85 140 141.11 139.91 141.3 139.71 141.43 139.46 141.49 139.13 141.53 138.88 141.49 138.68 141.43 138.49 141.3 138.3 141.07 138.1 140.75 137.88 140.34 137.66 139.76 137.36 138.96 136.95 138.34 136.53 137.89 136.11 137.57 135.72 137.34 135.27 137.28 134.79 137.25 134.28 137.31 133.66 137.44 132.99 137.63 132.41 137.89 131.93 138.21 131.54 138.63 131.22 139.18 130.99 139.79 130.86 140.56 130.76 141.49 130.73"/><polygon class="cls-1" points="135.87 130.76 136.15 133.24 135.25 133.76 134.48 134.24 133.71 134.72 132.88 135.24 131.85 142.1 129.05 142.1 130.69 131.15 133.1 130.8 133.04 132.41 133.68 131.96 134.39 131.5 135.12 131.12 135.87 130.76"/><path class="cls-1" d="M90.72,133l-.19-.58-.35-.48-.42-.42-.55-.32-.61-.26-.71-.16-.77,0-1,0-.8.16-.71.23-.61.32-.51.38-.42.49-.35.54-.25.61-.2.7-.16.75-.48,3.38-.1.67v.64l.06.58.16.52.25.45.35.38.45.32.58.23.67.13.84.06,1.12-.1,1.13-.19,1.13-.32,1-.39.87-.48-.65-2.09-.9.42-.9.36-.87.25L86,140l-.77.06-.39,0-.26-.1-.16-.16-.1-.16,0-.23v-.26l.06-.25.07-.55.25-.06.23-.06.26-.07.32-.1.45-.13.61-.19,1-.35.9-.38.73-.42.61-.48.45-.52.29-.55.2-.64,0-.71Zm-2.6,1.16-.2.36-.35.32-.48.29-.64.22-.48.16-.35.1-.25.1-.2.06-.16,0-.19.06.19-1.16.1-.49.19-.45.26-.36.38-.29.45-.16.58-.06.48.06.39.16.26.29.06.32Z"/><path class="cls-1" d="M60.31,55.39H87L80.47,99.09H91.08l-2.28,15.2H51.53l2.25-15.2H64.43l4.24-28.5H58.06Zm30.45,0H112l-2.26,15.2H88.51ZM87.57,76.81H98.77L96.61,91.23H85.42Z"/><path class="cls-2" d="M60.31,55.39H87L80.47,99.09H91.08l-2.28,15.2H51.53l2.25-15.2H64.43l4.24-28.5H58.06Zm30.45,0H112l-2.26,15.2H88.51ZM87.57,76.81H98.77L96.61,91.23H85.42Z"/><polygon class="cls-1" points="47.32 55.43 51.11 55.43 50.95 56.26 49.54 56.26 48.8 60.48 47.87 60.48 48.61 56.26 47.19 56.26 47.32 55.43"/><polygon class="cls-2" points="47.32 55.43 51.11 55.43 50.95 56.26 49.54 56.26 48.8 60.48 47.87 60.48 48.61 56.26 47.19 56.26 47.32 55.43"/><polygon class="cls-1" points="51.99 55.43 52.98 55.43 53.66 58.84 55.55 55.43 56.62 55.43 55.97 60.48 55.01 60.48 55.45 57.22 54.01 59.84 52.98 59.84 52.5 57.22 51.76 60.48 50.82 60.48 51.99 55.43"/><polygon class="cls-2" points="51.99 55.43 52.98 55.43 53.66 58.84 55.55 55.43 56.62 55.43 55.97 60.48 55.01 60.48 55.45 57.22 54.01 59.84 52.98 59.84 52.5 57.22 51.76 60.48 50.82 60.48 51.99 55.43"/></svg>