<svg id="Layer_1" data-name="Layer 1" xmlns="http://www.w3.org/2000/svg" viewBox="0 0 200 200"><defs><style>.cls-1{fill:#727988;fill-rule:evenodd;}</style></defs><title>Hitachi</title><path class="cls-1" d="M128.74,85.17v5.77h7.69s-.06-5.77,0-5.77h3.78V99.52h-3.78V93.21h-7.69v6.31h-3.84s.06-14.35,0-14.35Z"/><path class="cls-1" d="M92.64,85.17v2.46H86.82V99.52H83V87.63H77.21V85.17Z"/><path class="cls-1" d="M107.42,99.52h-4.2L102,96.46H94.81l-1.2,3.06H89.34l6.73-14.35h4.62l6.73,14.35Zm-9-11.89-2.64,6.49h5.29l-2.64-6.49Z"/><polygon class="cls-1" points="143.21 85.17 146.99 85.17 146.99 99.52 143.21 99.52 143.21 85.17 143.21 85.17"/><polygon class="cls-1" points="57.57 85.17 57.57 90.93 65.26 90.93 65.26 85.17 69.04 85.17 69.04 99.52 65.26 99.52 65.26 93.21 57.57 93.21 57.57 99.52 53.79 99.52 53.79 85.17 57.57 85.17 57.57 85.17"/><polygon class="cls-1" points="72.04 85.17 75.89 85.17 75.89 99.52 72.04 99.52 72.04 85.17 72.04 85.17"/><path class="cls-1" d="M107.3,95.56a8.65,8.65,0,0,1-.54-3.06,8.38,8.38,0,0,1,1-4.2,6.56,6.56,0,0,1,3.24-2.7,11.77,11.77,0,0,1,9,.24,4.58,4.58,0,0,1,2.7,3.3l.18.9h-4a3.4,3.4,0,0,0-.18-1.08,3,3,0,0,0-1.8-1.68,7.57,7.57,0,0,0-1.68-.24,4.89,4.89,0,0,0-1.86.36,3.33,3.33,0,0,0-2.1,2.1,9.54,9.54,0,0,0-.48,3,9.15,9.15,0,0,0,.36,2.52,3.67,3.67,0,0,0,2,2.28,7.66,7.66,0,0,0,2,.36,5.58,5.58,0,0,0,1.74-.3,2.62,2.62,0,0,0,1.68-1.5,3.06,3.06,0,0,0,.3-1.5h4a5.45,5.45,0,0,1-.18,1.38,4.61,4.61,0,0,1-2.64,3.12,12.25,12.25,0,0,1-4.92,1,13.54,13.54,0,0,1-3.84-.6,6.18,6.18,0,0,1-4.08-3.72Z"/><path class="cls-1" d="M50.36,103.54l-3.36.3v.48h.12c1.32.18,1.32.18,1.32,1.14v7.09h2v-9.07l-.12.06Z"/><path class="cls-1" d="M57.57,106.19a2.91,2.91,0,0,0-2.4,1.38v-1.38H55l-2.76.42v.48h.12c.9.06,1.08.24,1.08,1v4.44h1.68v-3.24c0-.84.84-2,1.68-2s.9.66.9,1.8v3.42h1.68v-4.44a1.72,1.72,0,0,0-1.86-1.92Z"/><path class="cls-1" d="M64.24,108.65c-.66-.3-1.26-.6-1.26-1.08s.66-.54.9-.54a3,3,0,0,1,1.62.54l.3.18v-1.32h-.24a4.71,4.71,0,0,0-1.56-.24c-1.62,0-2.58.72-2.58,1.86s1,1.5,1.92,2c.66.3,1.32.66,1.32,1.14s-.42.72-1.14.72a3.56,3.56,0,0,1-1.86-.66l-.24-.12v1.32l.18.06a8.17,8.17,0,0,0,1.86.24c1.74,0,2.76-.72,2.76-1.92s-1-1.68-2-2.16Z"/><path class="cls-1" d="M71.8,106.19a2.61,2.61,0,0,0-1.86.9v-.9h-.12l-2.7.42v.48h.12c.84.06,1,.24,1,1v7.09h1.68V112a2.05,2.05,0,0,0,1.8.78c1.74,0,2.7-1.2,2.7-3.36s-1-3.18-2.64-3.18Zm-.54,1c1.2,0,1.32,1.26,1.32,2.22,0,1.62-.42,2.4-1.26,2.4-1.14,0-1.38-1-1.38-1.92v-.54c0-.66.12-2.16,1.32-2.16Z"/><path class="cls-1" d="M75.65,106.61v.48h.12c.84.06,1,.24,1,1v4.44h1.68v-6.37h-.12l-2.7.42Z"/><path class="cls-1" d="M77.63,105.4a1,1,0,0,0,1.08-.9,1,1,0,0,0-1-1,1,1,0,0,0-1.08,1,1,1,0,0,0,1,.9Z"/><path class="cls-1" d="M85.68,107.63v-1.32l-.12-.06c-.3,0-.54-.06-.78-.06A1.87,1.87,0,0,0,83,107.45v-1.26h-.18l-2.7.42v.48h.12c.84.06,1,.24,1,1v4.44H83v-3.18a1.6,1.6,0,0,1,1.74-1.8,2.13,2.13,0,0,1,.6.12l.3.06v-.12Z"/><path class="cls-1" d="M92.46,108.77c0-1.68-1-2.58-2.88-2.58-2.1,0-3.18,1-3.18,3.06s1.38,3.48,3.72,3.48a7.91,7.91,0,0,0,2.1-.36l.06-.06v-.78l-.12.06a6.44,6.44,0,0,1-1.38.18c-1.8,0-2.46-1.5-2.52-2.88h4.2v-.12Zm-2.94-1.86a1.11,1.11,0,0,1,1.2,1.26H88.26a1.26,1.26,0,0,1,1.26-1.26Z"/><path class="cls-1" d="M108.08,106.19a2.87,2.87,0,0,0-2.4,1.38V103.3h-.12l-2.7.36v.48H103c.84.06,1,.24,1,1v7.39h1.68v-3.18a2,2,0,0,1,1.62-2c1,0,1,.72,1,1.32v3.9H110v-4.08c0-.66,0-2.28-1.92-2.28Z"/><path class="cls-1" d="M117.69,108.77c0-1.68-1-2.58-2.82-2.58q-3.24,0-3.24,3.06c0,2.16,1.38,3.48,3.72,3.48a7.91,7.91,0,0,0,2.1-.36l.12-.06v-.78l-.18.06a6.36,6.36,0,0,1-1.32.18c-1.86,0-2.52-1.5-2.58-2.88h4.2v-.12Zm-2.88-1.86c.9,0,1.14.66,1.14,1.26h-2.46a1.31,1.31,0,0,1,1.32-1.26Z"/><path class="cls-1" d="M98.47,104.38v2H97.33v.72h1.14v3.84c0,1.68,1,1.8,2.34,1.8a6.7,6.7,0,0,0,1-.12h.06v-.78h-.12a1.49,1.49,0,0,1-.54.06c-1,0-1.08-.3-1.08-1.14v-3.66h1.92v-.72h-1.92v-2Z"/><path class="cls-1" d="M132.16,103.66h-1.74v6.79L126,103.66h-4v.48l.36.06c1,.18,1.08.24,1.08,1.2v7.15h1.86v-7.09l4.68,7.09h2.28v-8.89Z"/><path class="cls-1" d="M139.91,108.77c0-1.68-.9-2.58-2.82-2.58-2.1,0-3.18,1-3.18,3.06s1.38,3.48,3.72,3.48a6,6,0,0,0,2.1-.36l.06-.06v-.78l-.12.06a7.05,7.05,0,0,1-1.38.18c-1.8,0-2.52-1.5-2.52-2.88h4.14v-.12ZM137,106.91c.9,0,1.14.66,1.2,1.26h-2.46a1.26,1.26,0,0,1,1.26-1.26Z"/><path class="cls-1" d="M149.4,104.38v2h-1.14v.72h1.14v3.84c0,1.68,1,1.8,2.34,1.8a6.7,6.7,0,0,0,1-.12h.06v-.78h-.12a1.49,1.49,0,0,1-.54.06c-1,0-1.08-.3-1.08-1.14v-3.66H153v-.72h-1.92v-2Z"/><path class="cls-1" d="M145.91,108.35l1.8-2h-1.86l-1.62,1.92-1.5-1.92h-2.64v.48h.12a1.8,1.8,0,0,1,1.68,1l1.08,1.38-1.8,2H143l.78-.9,1.68,2.22h2l-3.24-4.2Z"/><polygon class="cls-1" points="149.34 104.38 147.53 104.38 149.76 101.86 151.56 101.86 149.34 104.38 149.34 104.38"/></svg>