<svg id="Layer_1" data-name="Layer 1" xmlns="http://www.w3.org/2000/svg" viewBox="0 0 200 200"><defs><style>.cls-1,.cls-2{fill:#727988;}.cls-2{opacity:0.5;}</style></defs><title>HSBC</title><path class="cls-1" d="M60.29,99.33v-6c0-.78-.41-1.65-2.38-1.65v-.51h7.5v.51c-2,0-2.37.86-2.37,1.65v13.54c0,.78.4,1.64,2.37,1.64V109h-7.5v-.51c2,0,2.38-.86,2.38-1.64v-6.42H52.12v6.42c0,.78.4,1.64,2.37,1.64V109H47v-.51c2,0,2.37-.86,2.37-1.64V93.32c0-.78-.4-1.65-2.37-1.65v-.51h7.5v.51c-2,0-2.37.86-2.37,1.65v6h8.17"/><path class="cls-1" d="M66,103.59h.62c.84,2.51,2.72,4.77,5.58,4.77a3.06,3.06,0,0,0,3-4c-1.11-3.78-8.47-3.94-8.47-9.09a4.53,4.53,0,0,1,4.77-4.5c2.86,0,4.15,2,4.8,0H77l.59,5.74h-.67c-.62-2.51-2.4-4.64-4.91-4.64a2.53,2.53,0,0,0-2.83,2.59c0,1.56,1.7,2.67,2.86,3.37,3.67,2.21,6.15,3.37,6.15,6.61,0,2.43-2,4.93-5.69,4.93-2.8,0-4.75-2-5,0h-.59l-.81-5.8"/><path class="cls-1" d="M87.07,99.14c2.72,0,4.31-1.16,4.31-3.34s-1.29-3.16-3.18-3.51c-2.48-.16-3.34-.22-3.34.73v6.12h2.21m-2.21,7.44c0,.94.24,1.43,2.21,1.43,2.8,0,4.88-.84,4.88-4s-3.21-3.8-5.74-3.8H84.86ZM82.11,93.32c0-.78-.4-1.65-2.59-1.65v-.51h7.23c4.15,0,7.39,1.11,7.39,4.56,0,2.26-1.51,3.42-3.59,3.88v.05c2.32.43,4.5,1.86,4.5,4.45,0,3.24-2.8,4.91-7,4.91H79.52v-.51c2.18,0,2.59-.86,2.59-1.64Z"/><path class="cls-1" d="M111.23,96.71h-.65c-.78-3-2.75-5-5.82-5-4.45,0-6.36,3.59-6.36,8.44,0,3.78,2,7.85,6.39,7.85a8.25,8.25,0,0,0,6.31-2.7l.46.54a9.46,9.46,0,0,1-7,3.37c-5.26,0-9.28-3.37-9.28-9.28a9,9,0,0,1,9.22-9.33c3.69,0,5,2.21,5.93,0H111l.24,6.07"/><rect class="cls-2" x="125.8" y="90.67" width="18.14" height="18.14"/><polyline class="cls-1" points="125.8 90.66 143.93 90.66 134.86 99.73 125.8 90.66"/><polyline class="cls-1" points="125.8 108.79 143.93 108.79 134.86 99.73 125.8 108.79"/><polyline class="cls-1" points="125.8 90.66 125.8 108.79 116.73 99.73 125.8 90.66"/><polyline class="cls-1" points="143.93 90.66 143.93 108.79 153 99.73 143.93 90.66"/></svg>