<svg id="Layer_1" data-name="Layer 1" xmlns="http://www.w3.org/2000/svg" viewBox="0 0 200 200"><defs><style>.cls-1{fill:#727988;}</style></defs><title>Norton</title><path id="path22" class="cls-1" d="M47,99l3.51-2.66L54,99,50.51,94.1,47,99"/><path id="path60" class="cls-1" d="M126,104.36a.84.84,0,0,1-.32.3,1.82,1.82,0,0,1-.67.2,7.64,7.64,0,0,1-.91.05h-.46c0-.13,0-.35,0-.67q0-.75,0-1.5c0-.21,0-.56,0-1s0-.83,0-1.21h.55a3.5,3.5,0,0,1,.57,0,1.58,1.58,0,0,1,.43.12.75.75,0,0,1,.3.26.65.65,0,0,1,.11.38.74.74,0,0,1-.1.38.92.92,0,0,1-.26.29,1.28,1.28,0,0,1-.39.18,2.23,2.23,0,0,1-.53.07h-.16V103H125a1.54,1.54,0,0,1,.51.08.93.93,0,0,1,.35.2,1,1,0,0,1,.21.29.83.83,0,0,1,.07.34.82.82,0,0,1-.11.43m.91-1.06a1.43,1.43,0,0,0-.31-.45,1.62,1.62,0,0,0-.53-.35l-.24-.08-.07,0,.06,0a1.71,1.71,0,0,0,.36-.34,1.34,1.34,0,0,0,.31-.87,1.27,1.27,0,0,0-.25-.79,1.54,1.54,0,0,0-.67-.49,3,3,0,0,0-.66-.17,5.45,5.45,0,0,0-.84-.06l-.82,0-.48,0h-.11v.11s0,.28,0,.78,0,1.18,0,2q0,.68,0,1.42c0,.5,0,1,0,1.58v.11h.11l.51,0h.89a5.5,5.5,0,0,0,1.06-.09,3.24,3.24,0,0,0,.86-.3,1.79,1.79,0,0,0,.69-.61,1.67,1.67,0,0,0,.14-1.45m-17.53-.93h-.84c0-.28,0-1.18,0-1.18s0-.55,0-.69h2.91l.44-.86h-4.33l0,1.23v3.05l0,1.82h1V104s0-.66,0-.8h2.94v-.88h-2.09m20.07.58,2.35,2.92.79-.66-1.83-2.15a6.7,6.7,0,0,0,.63-.55,1.59,1.59,0,0,0,.42-1.12,1.54,1.54,0,0,0-.28-.91,1.8,1.8,0,0,0-.76-.6,2.71,2.71,0,0,0-.73-.2,6.28,6.28,0,0,0-.75,0h-1.41v.13l0,2.15v2.68l0,1.14h1v-5.26H129c.41,0,.63,0,.63,0a1.66,1.66,0,0,1,.5.12.88.88,0,0,1,.59.87,1.27,1.27,0,0,1-.11.56,1.31,1.31,0,0,1-.26.36,1.93,1.93,0,0,1-.45.32,3.78,3.78,0,0,1-.51.22m-7.41,1.9h-2.85c0-.11,0-.65,0-.65q0-.75,0-1.88,0-.46,0-1.18t0-1.27v-.22h-1v.22q0,.26,0,.9c0,.43,0,1,0,1.85q0,.73,0,1.48t0,1.49v.15h.15l3.24,0,.45-.9m23.44.9v-.15c0-.17,0-.49,0-.95s0-1,0-1.58H142.3c0,.72,0,1.28,0,1.66s0,.7,0,.87v.15h-1v-.15c0-.17,0-.48,0-.91s0-1.18,0-2.21q0-.47,0-1.15c0-.45,0-1.68,0-1.68h1v.21c0,.43,0,.86,0,1.28s0,.71,0,1h3.18c0-.33,0-.68,0-1s0-.85,0-1.28v-.21h1v.21q0,.65,0,1.5c0,.56,0,1,0,1.38,0,.85,0,1.48,0,1.93s0,.76,0,.93v.15h-1m-12.13,0v-.13c0-.17,0-.48,0-.92s0-1.08,0-1.89c0-.33,0-.75,0-1.28s0-1.17,0-1.73v-.15h1v.15c0,.41,0,1,0,1.51s0,1,0,1.33c0,.87,0,1.54,0,2s0,.78,0,1l0,.13h-1m-18.47.12a3.09,3.09,0,0,1-1.06-.17,2.26,2.26,0,0,1-.79-.48,1.94,1.94,0,0,1-.48-.72,2.57,2.57,0,0,1-.16-.93c0-.17,0-.37,0-.6s0-.51,0-.83,0-.58,0-.93,0-.81,0-1.36v-.21h1v.22c0,.07,0,.31,0,.73s0,1,0,1.64c0,.2,0,.42,0,.64s0,.45,0,.68a1.37,1.37,0,0,0,.4,1.08,1.62,1.62,0,0,0,1.12.37,1.65,1.65,0,0,0,1.15-.35,1.45,1.45,0,0,0,.37-1.1c0-.23,0-.46,0-.68s0-.43,0-.64c0-.67,0-1.23,0-1.66s0-.67,0-.71v-.21h1v.21c0,.55,0,1,0,1.36s0,.67,0,.93,0,.6,0,.83,0,.43,0,.6a2.55,2.55,0,0,1-.16.93,1.94,1.94,0,0,1-.48.72,2.27,2.27,0,0,1-.79.47,3.07,3.07,0,0,1-1.06.17m35.68-.11v-4s0-.94,0-1.23h2l.44-.88h-5.93l.44.88h2s0,.16,0,1.23v4h1M97.76,102.3l-.4-.18c-.43-.18-1-.42-1-1,0-.41.32-.82,1-.82a2.53,2.53,0,0,1,1.47.44v-.95a3.29,3.29,0,0,0-1.48-.33,1.87,1.87,0,0,0-2.08,1.73,1.55,1.55,0,0,0,.38,1,2.65,2.65,0,0,0,1,.7l.39.17a1.94,1.94,0,0,1,.76.45.86.86,0,0,1,.19.53,1,1,0,0,1-1.17.94,3.37,3.37,0,0,1-1.66-.5v1a4.49,4.49,0,0,0,1.66.36c1.32,0,2.25-.76,2.25-1.84a1.91,1.91,0,0,0-1.39-1.73m-36.34.64,2.35,2.92.79-.66-1.83-2.16a6.72,6.72,0,0,0,.63-.55,1.59,1.59,0,0,0,.42-1.12,1.54,1.54,0,0,0-.28-.91,1.81,1.81,0,0,0-.76-.6,2.71,2.71,0,0,0-.73-.2,6.28,6.28,0,0,0-.75,0H59.84v.13l0,2.15v2.68l0,1.14h1v-5.26H61c.41,0,.63,0,.63,0a1.65,1.65,0,0,1,.5.12.91.91,0,0,1,.44.33.92.92,0,0,1,.15.54,1.27,1.27,0,0,1-.11.56,1.33,1.33,0,0,1-.26.36,2,2,0,0,1-.45.32,3.81,3.81,0,0,1-.51.22m12.57.84a2.31,2.31,0,0,1-.47.76,1.72,1.72,0,0,1-.53.38,1.52,1.52,0,0,1-.63.13,1.49,1.49,0,0,1-.63-.13,1.66,1.66,0,0,1-.51-.36,2.23,2.23,0,0,1-.5-.79,3.08,3.08,0,0,1-.18-1.07,3,3,0,0,1,.17-1,2.27,2.27,0,0,1,.48-.81,1.67,1.67,0,0,1,.53-.39,1.55,1.55,0,0,1,.63-.13,1.51,1.51,0,0,1,.63.13,1.69,1.69,0,0,1,.51.36,2.18,2.18,0,0,1,.51.86,3.47,3.47,0,0,1,.17,1.07,2.74,2.74,0,0,1-.19,1m.93-2.39a3.06,3.06,0,0,0-.63-1.07,2.62,2.62,0,0,0-3.9.06,3.13,3.13,0,0,0-.6,1,3.81,3.81,0,0,0-.2,1.26,3.73,3.73,0,0,0,.25,1.4,3.08,3.08,0,0,0,.67,1,2.54,2.54,0,0,0,.85.58,2.68,2.68,0,0,0,2,0,2.74,2.74,0,0,0,.9-.65,3.06,3.06,0,0,0,.62-1,3.72,3.72,0,0,0,.24-1.34,3.94,3.94,0,0,0-.21-1.3M58,103.79a2.31,2.31,0,0,1-.47.76,1.72,1.72,0,0,1-.53.38,1.52,1.52,0,0,1-.63.13,1.48,1.48,0,0,1-.63-.13,1.66,1.66,0,0,1-.51-.36,2.24,2.24,0,0,1-.5-.79,3.08,3.08,0,0,1-.18-1.07,3,3,0,0,1,.17-1,2.26,2.26,0,0,1,.48-.81,1.67,1.67,0,0,1,.53-.39,1.55,1.55,0,0,1,.63-.13,1.51,1.51,0,0,1,.63.13,1.69,1.69,0,0,1,.51.36,2.18,2.18,0,0,1,.51.86,3.46,3.46,0,0,1,.17,1.07,2.74,2.74,0,0,1-.19,1m.93-2.39h0a3.06,3.06,0,0,0-.63-1.07,2.62,2.62,0,0,0-3.9.06,3.13,3.13,0,0,0-.6,1,3.81,3.81,0,0,0-.2,1.26,3.73,3.73,0,0,0,.25,1.4,3.08,3.08,0,0,0,.67,1,2.53,2.53,0,0,0,.85.58,2.68,2.68,0,0,0,2,0,2.73,2.73,0,0,0,.9-.65,3.05,3.05,0,0,0,.62-1,3.73,3.73,0,0,0,.24-1.34,3.94,3.94,0,0,0-.21-1.3m34.66,2.39a2.3,2.3,0,0,1-.47.76,1.72,1.72,0,0,1-.53.38,1.52,1.52,0,0,1-.63.13,1.48,1.48,0,0,1-.63-.13,1.66,1.66,0,0,1-.51-.36,2.23,2.23,0,0,1-.5-.79,3.09,3.09,0,0,1-.18-1.07,3,3,0,0,1,.17-1,2.25,2.25,0,0,1,.48-.81,1.66,1.66,0,0,1,.53-.39,1.55,1.55,0,0,1,.63-.13,1.5,1.5,0,0,1,.63.13,1.68,1.68,0,0,1,.51.36,2.18,2.18,0,0,1,.51.86,3.48,3.48,0,0,1,.17,1.07,2.73,2.73,0,0,1-.19,1m.93-2.39a3.06,3.06,0,0,0-.63-1.07,2.62,2.62,0,0,0-3.9.06,3.14,3.14,0,0,0-.6,1,3.8,3.8,0,0,0-.2,1.26,3.73,3.73,0,0,0,.25,1.4,3.08,3.08,0,0,0,.67,1,2.54,2.54,0,0,0,.85.58,2.68,2.68,0,0,0,2,0,2.73,2.73,0,0,0,.9-.65,3.06,3.06,0,0,0,.62-1,3.74,3.74,0,0,0,.24-1.34,3.93,3.93,0,0,0-.21-1.3m-27.11,4.35v-4s0-.94,0-1.23h2l.44-.87H63.95l.44.88h2s0,.16,0,1.23v4h1m32.48-6v.05l0,1.68v3.05l0,1.23h3.9l.44-.86h-3.34c0-.13,0-.68,0-.68s0-.9,0-1.18h2.94v-.88h-2.94c0-.14,0-.8,0-.8s0-.63,0-.86h2.93v-.88H99.9v.09m-24-.09v6.1h1l0-4.54,4.12,4.66V99.64h-1s.05,3.17.06,3.6c-.28-.34-3.17-3.6-3.17-3.6h-1M48,99.64v6.1h1l0-4.54L53,105.86V99.64H52s.05,3.17.06,3.6c-.28-.34-3.17-3.6-3.17-3.6H48m38.23,3.3,2.35,2.92.79-.66-1.83-2.16a6.74,6.74,0,0,0,.63-.55,1.59,1.59,0,0,0,.42-1.12,1.54,1.54,0,0,0-.28-.91,1.81,1.81,0,0,0-.76-.6,2.71,2.71,0,0,0-.73-.2,6.29,6.29,0,0,0-.75,0H84.62v.13l0,2.15v2.68l0,1.14h1v-5.26h.19c.41,0,.63,0,.63,0a1.65,1.65,0,0,1,.5.12.91.91,0,0,1,.44.33.92.92,0,0,1,.15.54,1.27,1.27,0,0,1-.11.56,1.34,1.34,0,0,1-.26.36,2,2,0,0,1-.45.32,3.82,3.82,0,0,1-.51.22m52.1,2.9a3,3,0,0,1-3.11-3.12,3.14,3.14,0,0,1,3.31-3.25,4.44,4.44,0,0,1,1.76.36h0v.92l0,0a3.65,3.65,0,0,0-1.71-.46,2.39,2.39,0,0,0,0,4.77,2.23,2.23,0,0,0,1.06-.2h0v-2.37h.9v2.86h0a4.76,4.76,0,0,1-2.16.52"/></svg>