<svg id="Layer_1" data-name="Layer 1" xmlns="http://www.w3.org/2000/svg" viewBox="0 0 200 200"><defs><style>.cls-1,.cls-2,.cls-3,.cls-4{fill:#727988;}.cls-1{opacity:0.7;}.cls-2{opacity:0.9;}.cls-3{opacity:0.8;}</style></defs><title>Oliver</title><polygon class="cls-1" points="58.42 104.39 54.61 102.2 58.42 100 58.42 104.39"/><polygon class="cls-2" points="50.81 104.39 47 102.2 50.81 100 50.81 104.39"/><polygon class="cls-3" points="54.61 102.2 58.42 100 58.42 95.61 50.81 100 54.61 102.2"/><polygon class="cls-2" points="62.22 102.2 58.42 100 62.22 97.8 62.22 102.2"/><polygon class="cls-3" points="58.42 104.39 62.22 102.2 58.42 100 58.42 104.39"/><polygon class="cls-3" points="50.81 95.61 47 97.8 47 102.2 50.81 100 50.81 95.61"/><polygon class="cls-4" points="50.81 100 54.61 97.8 50.81 95.61 50.81 100"/><polygon class="cls-1" points="50.81 104.39 54.61 102.2 50.81 100 50.81 104.39"/><polygon class="cls-4" points="58.42 100 62.22 97.8 58.42 95.61 58.42 100"/><path class="cls-4" d="M141.26,97.57l1.2,3.12H140l1.21-3.12Zm-.67-1.39-3.07,7.64h1.27l.82-2.13h3.21l.82,2.13H145l-3-7.64Z"/><polygon class="cls-4" points="151.73 102.01 147.88 96.18 146.23 96.18 146.23 103.82 147.47 103.82 147.47 97.66 147.49 97.66 151.57 103.82 153 103.82 153 96.18 151.76 96.18 151.76 102.01 151.73 102.01"/><polygon class="cls-4" points="125.42 96.18 123.27 99.79 121.28 96.18 119.78 96.18 122.6 100.81 122.6 103.82 123.84 103.82 123.84 100.81 126.82 96.18 125.42 96.18"/><polygon class="cls-4" points="132.01 102.15 129.6 96.18 127.86 96.18 127.86 103.82 129.04 103.82 129.04 97.85 129.07 97.85 131.46 103.82 132.51 103.82 135.02 97.81 135.04 97.81 135.04 103.82 136.24 103.82 136.24 96.18 134.52 96.18 132.05 102.15 132.01 102.15"/><polygon class="cls-4" points="116.5 103.82 115.52 103.82 113.85 99.15 112.18 103.82 111.22 103.82 108.5 96.18 109.87 96.18 111.76 102.02 111.79 102.02 113.31 97.62 112.79 96.18 114.05 96.18 116.03 101.99 116.06 101.99 117.83 96.18 119.09 96.18 116.5 103.82"/><path class="cls-4" d="M102.94,100.59a2.3,2.3,0,0,0,2.21-2.3,2.25,2.25,0,0,0-2.56-2.11H99.47v7.64h1.24V97.16h1.58c1.1,0,1.61.54,1.61,1.27s-.56,1.27-1.77,1.27H100.8l3.29,4.12h1.53Z"/><polygon class="cls-4" points="82.13 96.18 82.13 103.82 83.39 103.82 83.39 97.37 83.39 96.18 82.13 96.18"/><polygon class="cls-4" points="76.18 96.18 76.18 103.82 80.76 103.82 80.76 102.82 77.42 102.82 77.42 96.18 76.18 96.18"/><path class="cls-4" d="M70.58,102.93A2.93,2.93,0,1,1,73.46,100a2.86,2.86,0,0,1-2.88,2.93m0-6.89a4,4,0,1,0,4.21,4,4,4,0,0,0-4.21-4"/><polygon class="cls-4" points="93.06 96.18 93.06 103.82 97.98 103.82 97.98 102.82 94.29 102.82 94.29 100.31 97.45 100.31 97.45 99.31 94.29 99.31 94.29 97.18 97.91 97.18 97.91 96.18 93.06 96.18"/><polygon class="cls-4" points="90.65 96.18 88.32 102.13 88.29 102.13 85.89 96.18 84.47 96.18 87.78 103.82 88.72 103.82 91.97 96.18 90.65 96.18"/></svg>