<svg id="Layer_1" data-name="Layer 1" xmlns="http://www.w3.org/2000/svg" viewBox="0 0 200 200"><defs><style>.cls-1{fill:#727988;}</style></defs><title>Oman</title><polygon class="cls-1" points="64.58 118.41 65.31 119.26 66.17 118.54 65.42 117.68 64.58 118.41"/><polygon class="cls-1" points="114.34 78.79 114.38 78.82 114.38 78.82 114.34 78.79"/><path class="cls-1" d="M151.94,117l.73-.88a3.34,3.34,0,0,1,0,2.86s-.41,1.12-2,.07c0,0-1.38,1.17-2.18.93a1.24,1.24,0,0,1-.83-.64,1.42,1.42,0,0,0-1.92-.61,9.12,9.12,0,0,0-2.38,2s-.68.79-1,1.12a6.82,6.82,0,0,1-1.67,1.17s-.87.44-1.19-.78a6.85,6.85,0,0,1,.63-2.64s.07-.39-.19-.3c0,0-3,.57-4.92.76a43.53,43.53,0,0,1-5.51.32,3.83,3.83,0,0,1-2.74-1.54s-.75-1.81-1.17-1.86c0,0-.65-.32-1.29,1l-1,1.79s-.51,1-1.17.76c0,0-2.21-1.1-.63-4.89,0,0-.36,3,.73,3.35,0,0,.48.29,1.19-1a17.17,17.17,0,0,1,1.63-2.35,1,1,0,0,1,1.14-.14s.51.27.75,1.47a3,3,0,0,0,2.23,1.79,30.1,30.1,0,0,0,6.55-.22s3.2-.29,4.49-.49c0,0,.87,0,.71-.61a1.15,1.15,0,0,0-.9-.22s-2.81.08-4.27.27a11,11,0,0,1-3.71-.15s-1.67-.27-1.31-1.47c0,0,.31-2.23,5.26-3.91,0,0-.51,1.54-.51,1.64s-3.2.83-3.59,1.88c0,0-.26.61,1.65.59,0,0,2.67,0,4.46-.1,0,0,2.76-.1,3.15-.07a1.43,1.43,0,0,1,1.31,1.42,1.49,1.49,0,0,1-1.19,1.61,3.88,3.88,0,0,1-.58.12s-.92,2.35,0,2.57c0,0,.56.34,1.62-.91a22.14,22.14,0,0,1,3.67-3.3,1.73,1.73,0,0,1,2.18.1s.41,1.22,1.24,1c0,0,1.09-.07,1.62-2l.51.59s-.31.71.32.78c0,0,.75,0,.07-.93"/><polygon class="cls-1" points="148.69 113.8 147.72 114.69 148.57 115.62 149.52 114.78 148.69 113.8"/><polygon class="cls-1" points="91.18 114.02 90.22 114.9 91.06 115.83 92.01 115 91.18 114.02"/><polygon class="cls-1" points="70.81 114.02 69.84 114.9 70.68 115.83 71.63 115 70.81 114.02"/><polygon class="cls-1" points="72.55 114.06 71.58 114.94 72.43 115.88 73.38 115.04 72.55 114.06"/><polygon class="cls-1" points="126.03 112.08 125.06 112.96 125.9 113.89 126.85 113.06 126.03 112.08"/><polygon class="cls-1" points="124.23 112.03 123.26 112.92 124.11 113.85 125.06 113.01 124.23 112.03"/><polygon class="cls-1" points="150.46 113.88 149.49 114.76 150.34 115.69 151.29 114.86 150.46 113.88"/><polygon class="cls-1" points="149.62 111.95 148.65 112.83 149.49 113.76 150.44 112.93 149.62 111.95"/><path class="cls-1" d="M141.56,111.33l0,1.08a2.14,2.14,0,0,1,1,2l.6-.83s.15-1.3.49-1.59c0,0,0-.46-.34-.27,0,0-.63.42-.51.71a13.37,13.37,0,0,0-1.31-1.05"/><path class="cls-1" d="M132.72,110.23a5.92,5.92,0,0,1-2.6,2.29s4.33-.84,2.6-2.29"/><path class="cls-1" d="M86.87,110.47a2,2,0,0,0-1.95.73s-.58.87.72.77a3,3,0,0,1-.65,1s-.25.51.65,0c0,0,1.52-.87,1.48-2a.43.43,0,0,0-.25-.47"/><path class="cls-1" d="M123.3,110.65a2,2,0,0,0-1.95.73s-.58.87.72.76a3,3,0,0,1-.65,1s-.25.51.65,0c0,0,1.52-.87,1.48-2a.44.44,0,0,0-.25-.47"/><path class="cls-1" d="M112.83,110.65a2,2,0,0,0-1.95.73s-.58.87.72.76a3,3,0,0,1-.65,1s-.25.51.65,0c0,0,1.51-.87,1.48-2a.44.44,0,0,0-.25-.47"/><path class="cls-1" d="M104.06,118.23s0,.37-.63-.07c0,0,0-.37.29-.44,0,0,.58.07.34.51m13.82-1.74c-.43.26-2.5,1.13-2.5,1.13a1.2,1.2,0,0,1-1.42-.46c-.54-.65.52-1.11.52-1.11a3,3,0,0,1,2.13-.54,2.44,2.44,0,0,0-3.1-.26c-1.19,1-.8,2.94-.8,2.94-1.06.65-4.06.48-4.06.48-3.21-.35-3.54-.72-3.54-.72a8.51,8.51,0,0,1-.54-.94c-.37-.65-.86-.56-.86-.56-.5.06-1.23,1.15-1.23,1.15-.43.8-.76.87-.76.87-1.08.65-1.55-.13-1.55-.13-.3-.37-.47-6.42-.47-6.42a2,2,0,0,0-.69-1.74l-.56,1.61c.6-.33.39,3,.39,3,0,1.39.28,3.87.28,3.87.24,1.26,1,1.39,1,1.39,1.3.41,2.44-1.07,2.44-1.07l.69.56c.6.63.8.28.8.28a5,5,0,0,1,.33-.52,12,12,0,0,0,6.21.55,16.21,16.21,0,0,0,7.3-2.39Z"/><path class="cls-1" d="M104.83,110.43s-1.63,1.22-2,1.2c0,0-.65.66.36.61,0,0,1.92-.78,1.68-1.81"/><path class="cls-1" d="M96.66,114.29l-.56,1.35s.83.84-.17,1.38A14.38,14.38,0,0,1,86,118.45s-4-.76-5.34-2.11c0,0,1.36,4.9,9,4a27.2,27.2,0,0,0,4.74-1.19s2.9-1.13,3-2.6a2.84,2.84,0,0,0-.76-2.31"/><path class="cls-1" d="M78.48,119.55c.69-1.1.27-4,.27-4a5.92,5.92,0,0,1,0-3.3,8.31,8.31,0,0,1-.63-1.47s-1.22.67-.38,4.8a11.4,11.4,0,0,1,.18,2.73s-.15,1-.94.58c0,0-.45,0-.45-.87,0,0-.22-5.66-1-6.88l-.72,1.07a36.13,36.13,0,0,1,.53,6s-.23.62-.76.51c0,0-.43.1-.91-.85A5.8,5.8,0,0,1,71.42,119s-3,.5-4.16-.35c0,0-1.06-.39-1.09-2.62l-.32-4.65-1.07,1a3.54,3.54,0,0,1,.43,1.82s.06,2.15.15,2.89c0,0-.08,3.41,2.58,3.49,0,0,3.26.25,5.2-1a2.09,2.09,0,0,0,1.31.7,1.48,1.48,0,0,0,1.21-.76,1.5,1.5,0,0,0,2.36.56,3.9,3.9,0,0,0,.46-.5"/><path class="cls-1" d="M64.78,109.31l0,.58s-.75.43-.05.56l.68.07-.15.71s-1.2,0-1.6.76c0,0-.37-.36.25-1.09,0,0-.7.08-.58-.4,0,0,.18-.86,1.51-1.19"/><path class="cls-1" d="M77,121.66s1.3.53,1.57-.48c0,0,0-.49-.37-.17a2.63,2.63,0,0,1-1.19.65"/><polygon class="cls-1" points="49.74 113.51 50.56 114.47 51.54 113.66 50.69 112.68 49.74 113.51"/><polygon class="cls-1" points="52.16 121.88 52.99 122.83 53.96 122.02 53.11 121.05 52.16 121.88"/><polygon class="cls-1" points="53.98 122 54.81 122.95 55.78 122.14 54.93 121.17 53.98 122"/><path class="cls-1" d="M55,110.73l-.44.63s1.09.88,1,1.59l.61-.51s0-1.64.8-1.54l-.34-.42s-.85.34-.9.85a2.27,2.27,0,0,0-.75-.61"/><polygon class="cls-1" points="62.33 121.48 62.28 122.19 64.08 121.36 64.08 120.78 62.33 121.48"/><path class="cls-1" d="M62.91,117.74s-.07.15-.77-.39a2.5,2.5,0,0,1,.46-.66,1,1,0,0,1,.31,1.05m.19-2.18c-.87-.34-1.62,1.17-1.62,1.17-.53,1.76-1.48,1.81-1.48,1.81a7.83,7.83,0,0,1-.95.17,18.29,18.29,0,0,1-3.18.07c-1.67-.1-1.29-3.64-1.29-3.64l-.41-.49a2,2,0,0,0-.37.78c0,.66-.48.71-.56.71-.56,0-1.19-.76-1.19-.76a2.77,2.77,0,0,0-.34,1.59c.49.49.46,1.83.46,1.83-1.19,1.83-3.71,1.1-3.71,1.1-1.7-.81.8-3.38.8-3.38a3.42,3.42,0,0,0-2,2.25c-1,2.86,1.65,2.93,1.65,2.93,3.88.12,4.05-3.84,4.05-3.84l.87-.54c-.07,3,1.89,3,1.89,3a13.9,13.9,0,0,0,3.28-.12c2.33-.29,2.59-1.52,2.59-1.52a8,8,0,0,0,1.14.46c1.31.49,1.51-1,1.51-1a3.92,3.92,0,0,0-1.12-2.57"/><path class="cls-1" d="M120.41,126.92l-.62.59v2.83a3.3,3.3,0,0,1,0,.7,1.39,1.39,0,0,1-.25.49,10,10,0,0,1-1.09,1.21,3.36,3.36,0,0,0,.91.85,2.93,2.93,0,0,0,1.09.38Zm-1.33-.3.12.17a4.54,4.54,0,0,0-1.19,1.34,4.1,4.1,0,0,0-.5,2,4.29,4.29,0,0,0,.74,2.42,1.33,1.33,0,0,0,.38-.51,5.55,5.55,0,0,0,.06-1.14v-2.77l2.29-2.21a7.28,7.28,0,0,0,1.25.48,4.67,4.67,0,0,0,1.07.11h.12l.09.23-.88,1a5.52,5.52,0,0,1-2-.74V134h.26a3.24,3.24,0,0,0,1.4-.3,4.85,4.85,0,0,0,1.31-1l.16.18a6,6,0,0,1-1,1.22,3.59,3.59,0,0,1-1.16.7,3.64,3.64,0,0,1-1.34.26,3.41,3.41,0,0,1-1.86-.55,3.71,3.71,0,0,1-1.36-1.58,4.79,4.79,0,0,1-.49-2.12,4.71,4.71,0,0,1,.69-2.49,6,6,0,0,1,1.77-1.75"/><path class="cls-1" d="M51.21,134.09a2.87,2.87,0,0,0,1.11-.26,3.47,3.47,0,0,0,1.12-.88,4.74,4.74,0,0,0,.78-1.36,2.11,2.11,0,0,0-1.52-.81,1.49,1.49,0,0,0-.86.28,2.46,2.46,0,0,0-.63.68Zm0-2.79a2.67,2.67,0,0,1,.71-.62,1.62,1.62,0,0,1,.77-.17,1.81,1.81,0,0,1,.82.18,2.87,2.87,0,0,1,.79.64,4.69,4.69,0,0,0,.15-1.07,4.51,4.51,0,0,0-.05-.73,3.87,3.87,0,0,0-.18-.57,3.23,3.23,0,0,1-.82.58,1.83,1.83,0,0,1-.76.15,1.69,1.69,0,0,1-.7-.14,3,3,0,0,1-.73-.51Zm0-2.61a2.88,2.88,0,0,0,.74.55,1.69,1.69,0,0,0,.76.17,1.47,1.47,0,0,0,.7-.17,2.69,2.69,0,0,0,.68-.55,3.33,3.33,0,0,0-.57-.69,3.94,3.94,0,0,0-1-.64,5,5,0,0,0-1.25-.33ZM51,127l-.72,0v3.7a3.27,3.27,0,0,1-.07.84,1.61,1.61,0,0,1-.25.49l-1,1.11a3.39,3.39,0,0,0,.94.71,3,3,0,0,0,1.08.26Zm-1.8.78a4.37,4.37,0,0,0-.65.66,3.25,3.25,0,0,0-.44.87,3.38,3.38,0,0,0-.18,1.13,4,4,0,0,0,.87,2.47,1.34,1.34,0,0,0,.32-.53,4.57,4.57,0,0,0,.08-1Zm2.19-2a6.81,6.81,0,0,1,1.48.31,4.28,4.28,0,0,1,1.41.84,3.87,3.87,0,0,1,.94,1.28,3.8,3.8,0,0,1,0,3.17,8.63,8.63,0,0,1-3,3.23,3.37,3.37,0,0,1-1.72.51,3.25,3.25,0,0,1-1.74-.52,3.46,3.46,0,0,1-1.3-1.42,4.39,4.39,0,0,1-.46-2,6.48,6.48,0,0,1,.11-1.21,9,9,0,0,1,.39-1.35,12.8,12.8,0,0,0,1.24-.85c.25-.2.89-.67,1.91-1.44.2-.15.44-.33.7-.55"/><path class="cls-1" d="M62.73,128.77l.16.17a2.74,2.74,0,0,0-.42.49,1.07,1.07,0,0,0-.14.37,5.12,5.12,0,0,0,0,.76v2.58a1.66,1.66,0,0,0,.09.68c.06.11.11.17.17.17a.8.8,0,0,0,.39-.24l.13.18L61.89,135a2.33,2.33,0,0,1-.53-.59,1.61,1.61,0,0,1-.18-.74V130l-.56-.54-.86.9v3.37l.42.51-1,.83-1-.83.42-.51v-3.07a1.89,1.89,0,0,0-.07-.69,1.56,1.56,0,0,0-.48-.5l-.85.79v3.47l.42.51-1,.83-1-.83.42-.51v-3.3a1.71,1.71,0,0,0-.11-.74c-.06-.12-.11-.17-.16-.17s-.18.08-.36.24l-.13-.19,1.18-1.1a3.05,3.05,0,0,1,.5.48,1.27,1.27,0,0,1,.18.41,3.81,3.81,0,0,1,0,.63l1.63-1.51a3.23,3.23,0,0,1,.7.8,2,2,0,0,1,.19.8l1.53-1.6.89.93Z"/><path class="cls-1" d="M65.45,131.7,64.14,131a3.62,3.62,0,0,0-.3,1.32,2,2,0,0,0,.81,1.65l.81-.73Zm0-1.81-1.85-.64.66,1.59,1.19.61Zm1.35-1.15.2.08a4.15,4.15,0,0,0-.37.79,2.81,2.81,0,0,0-.08.74V133a2.41,2.41,0,0,0,.08.81c.05.11.12.16.19.16a.26.26,0,0,0,.12,0l.23-.2.13.18L66.16,135a2.3,2.3,0,0,1-.55-.66,2.09,2.09,0,0,1-.16-.82L63.81,135a2.42,2.42,0,0,1-.93-1.7,2.72,2.72,0,0,1,.2-1.05,7,7,0,0,1,.92-1.51l-.66-1.59.08-.16.31,0a1.47,1.47,0,0,0,1.12-.55,3.72,3.72,0,0,0,.86.41,2.42,2.42,0,0,0,.71.16.28.28,0,0,0,.17,0,1.12,1.12,0,0,0,.2-.26"/><path class="cls-1" d="M70.59,128.42l.73.93.52-.59.14.17a2.29,2.29,0,0,0-.46.6,2.19,2.19,0,0,0-.11.75v3a1.27,1.27,0,0,0,.12.61c0,.08.09.13.15.13a1,1,0,0,0,.36-.23l.13.18L71,135a2,2,0,0,1-.57-.69,2.67,2.67,0,0,1-.12-1V130l-.47-.58-.93.85v3.43l.4.46-.94.88-.94-.88.4-.46v-3.14a2.29,2.29,0,0,0-.12-.91c-.05-.1-.11-.16-.18-.16s-.18.08-.32.24l-.12-.18,1.13-1.1a2.56,2.56,0,0,1,.59.64,1.51,1.51,0,0,1,.12.65v.22Z"/><path class="cls-1" d="M100.76,131.7,99.45,131a3.63,3.63,0,0,0-.31,1.32A2,2,0,0,0,100,134l.81-.73Zm0-1.81-1.86-.64.66,1.59,1.19.61Zm1.35-1.15.2.08a4,4,0,0,0-.37.79,2.81,2.81,0,0,0-.08.74V133a2.5,2.5,0,0,0,.08.81c.05.11.12.16.19.16a.28.28,0,0,0,.12,0l.23-.2.13.18L101.47,135a2.32,2.32,0,0,1-.55-.66,2.07,2.07,0,0,1-.16-.82L99.12,135a2.4,2.4,0,0,1-.93-1.7,2.72,2.72,0,0,1,.2-1.05,7,7,0,0,1,.92-1.51l-.66-1.59.08-.16.31,0a1.45,1.45,0,0,0,1.12-.55,3.75,3.75,0,0,0,.86.41,2.43,2.43,0,0,0,.72.16.28.28,0,0,0,.17,0,1.08,1.08,0,0,0,.2-.26"/><path class="cls-1" d="M105.9,128.42l.72.93.53-.59.14.17a2.22,2.22,0,0,0-.46.6,2.16,2.16,0,0,0-.11.75v3a1.31,1.31,0,0,0,.11.61c0,.08.1.13.16.13a1,1,0,0,0,.36-.23l.13.18L106.34,135a2.1,2.1,0,0,1-.57-.69,2.69,2.69,0,0,1-.12-1V130l-.47-.58-.93.85v3.43l.4.46-.94.88-.95-.88.4-.46v-3.14a2.28,2.28,0,0,0-.12-.91c-.05-.1-.11-.16-.18-.16s-.18.08-.32.24l-.13-.18,1.13-1.1a2.45,2.45,0,0,1,.59.64,1.47,1.47,0,0,1,.12.65v.22Z"/><path class="cls-1" d="M83.76,128.45l.73.93.53-.59.14.17a2.27,2.27,0,0,0-.46.6,2.09,2.09,0,0,0-.11.75v3a1.29,1.29,0,0,0,.11.61c0,.09.1.13.16.13s.17-.08.36-.24l.13.18L84.19,135a2.09,2.09,0,0,1-.57-.68,2.7,2.7,0,0,1-.12-1V130l-.47-.58-.93.85v3.43l.4.46-.94.88-.94-.88.4-.46v-3.14a2.31,2.31,0,0,0-.12-.91c-.05-.11-.12-.16-.19-.16s-.18.08-.32.24l-.12-.19,1.13-1.1a2.56,2.56,0,0,1,.59.64,1.52,1.52,0,0,1,.12.65V130Z"/><path class="cls-1" d="M80.21,125.68l.09.21a1.5,1.5,0,0,0-.78.51,1.48,1.48,0,0,0-.22.85,18.91,18.91,0,0,0,.25,2.36c.14.92.22,1.49.24,1.73s0,.49,0,.75a3.83,3.83,0,0,1-.31,1.64,2.19,2.19,0,0,1-.8,1,1.71,1.71,0,0,1-.89.3,4.91,4.91,0,0,1-1.41-.35,4,4,0,0,0-1.12-.27.84.84,0,0,0-.56.19,1.15,1.15,0,0,0-.34.58l-.21-.09a2.85,2.85,0,0,1,.34-.9,1.7,1.7,0,0,1,.58-.59,2.2,2.2,0,0,1,.9-.2,1.11,1.11,0,0,0,.8-.29,1.19,1.19,0,0,0,.22-.79,3,3,0,0,0-.37-1.64.82.82,0,0,0-.71-.41.89.89,0,0,0-.37.09,2.84,2.84,0,0,0-.51.37l-.16-.14a2.39,2.39,0,0,1,.66-.85,1.47,1.47,0,0,1,.89-.28h.18a5.28,5.28,0,0,1,.25-1.66,5.68,5.68,0,0,1,.89-1.48,8.15,8.15,0,0,1-.81.42,1.06,1.06,0,0,1-.38.07,2.27,2.27,0,0,1-.49-.08,2.3,2.3,0,0,0-.48-.08.78.78,0,0,0-.57.19,1,1,0,0,0-.25.61l-.21,0a2.34,2.34,0,0,1,.38-1.09,1.35,1.35,0,0,1,1.12-.55,1.92,1.92,0,0,1,.49.08,3.62,3.62,0,0,0,.9.14,1.93,1.93,0,0,0,.5-.06,2.25,2.25,0,0,0,.52-.23l.13.18a3.09,3.09,0,0,0-.78,1.07,4.22,4.22,0,0,0-.22,1.52c0,.34,0,.64,0,.9s.06.5.15,1.13c.1.8.16,1.33.16,1.58a1.52,1.52,0,0,1-.37,1.1,1.77,1.77,0,0,1-.89.44,6.07,6.07,0,0,0,.87.76.94.94,0,0,0,.5.15.76.76,0,0,0,.61-.3,1.18,1.18,0,0,0,.25-.78,18.18,18.18,0,0,0-.24-2.2,20.65,20.65,0,0,1-.29-2.87,3.85,3.85,0,0,1,.22-1.42,2.1,2.1,0,0,1,.65-.87,2.23,2.23,0,0,1,.95-.38"/><path class="cls-1" d="M86.58,131.16l.72.44,1.18-1.8a1.81,1.81,0,0,1-1.9-.39Zm.92.57-1.29,2a2.91,2.91,0,0,1,.44-.14,1.67,1.67,0,0,1,.37,0,2.23,2.23,0,0,1,1.28.47v-1.79Zm.65-1,1.23.76v2.61a2.08,2.08,0,0,0-.82.25,3.72,3.72,0,0,0-.83.69,3.22,3.22,0,0,0-.68-.38,1.82,1.82,0,0,0-.62-.1,1.29,1.29,0,0,0-.89.35c-.09.09-.17.13-.21.13a.17.17,0,0,1-.12-.07.22.22,0,0,1-.06-.14.36.36,0,0,1,.11-.2l.22-.29.48-.7.7-1.07-1.18-.73v-2.31a3.09,3.09,0,0,0,.86-.44,2.88,2.88,0,0,0,.6-.67,9.11,9.11,0,0,0,1.11.45,2,2,0,0,0,.58.09.66.66,0,0,0,.46-.15.44.44,0,0,0,.17-.32.32.32,0,0,0-.11-.22.63.63,0,0,1-.21-.42.48.48,0,0,1,.09-.3.26.26,0,0,1,.2-.11.34.34,0,0,1,.27.16.67.67,0,0,1,.12.42,1.47,1.47,0,0,1-.09.52,3.75,3.75,0,0,1-.37.66Z"/><path class="cls-1" d="M93.36,128.45l1,.92-.44.46v3.24a1.67,1.67,0,0,0,.14.8c.06.11.12.17.19.17s.15-.06.3-.18l.12.18-1.14,1a2,2,0,0,1-.55-.63,2.33,2.33,0,0,1-.14-.88A15.86,15.86,0,0,0,91.11,135a2.76,2.76,0,0,1-.67-.83,2.33,2.33,0,0,1-.16-.94v-3.06a1.1,1.1,0,0,0-.05-.42.26.26,0,0,0-.24-.17.65.65,0,0,0-.34.2l-.12-.18,1.26-1.2,1,.92-.4.43v3.27a1.36,1.36,0,0,0,.08.53,1.57,1.57,0,0,0,.39.43l1-.85v-3.35l-.4-.46Z"/><path class="cls-1" d="M97.58,128.45l.81,1.12-.81.83-.69-1-.52.52v3.64l.62.5.55-.49.13.18L96.29,135a4.89,4.89,0,0,0-.74-.65,2.52,2.52,0,0,0-.65-.31V134a.94.94,0,0,0,.31-.39,2.51,2.51,0,0,0,.07-.75v-2.54a1.43,1.43,0,0,0-.09-.64c-.06-.11-.13-.16-.2-.16s-.19.09-.33.27l-.13-.18,1.11-1.13a3,3,0,0,1,.62.7,1,1,0,0,1,.11.51Z"/><path class="cls-1" d="M109.21,128.39l1.41.92-.58,1-1.06-.69v4l1,.53.57-.49.05.28L109.33,135a6.21,6.21,0,0,0-.87-.5,4.86,4.86,0,0,0-.89-.28v-.15a.67.67,0,0,0,.25-.32,2.37,2.37,0,0,0,.09-.76v-3.52a4.82,4.82,0,0,0,1.31-1.08"/><path class="cls-1" d="M112,129.14l-.07,0V132l1.4-1.14Zm.81-.71,1.5,2-2.39,2v1.13l1.23.57.84-.66.13.2L112.41,135a7,7,0,0,0-.87-.47,8.78,8.78,0,0,0-1-.31v-.15a.59.59,0,0,0,.24-.3,3.26,3.26,0,0,0,.06-.79v-3.54c.34-.14.62-.27.84-.38l1.13-.66"/><path class="cls-1" d="M123.5,126.79l-1.7,1.83a4.84,4.84,0,0,1,1.59-.22l-.69.75a3.23,3.23,0,0,0-2.06.34l1.76-2Z"/><path class="cls-1" d="M125.08,133.34l1.4.65v-3.92q-.66-.36-.93-.47a2.57,2.57,0,0,0-.47-.14Zm2.49-4v4.61a9.54,9.54,0,0,0-1.17.62,3,3,0,0,0-.53.44,7.22,7.22,0,0,0-1.29-.76,2.27,2.27,0,0,0-.87-.16l-.05-.12a1.05,1.05,0,0,0,.26-.36,2.37,2.37,0,0,0,.08-.72v-3.42a4.84,4.84,0,0,0,1.7-1.06,5.53,5.53,0,0,0,1.88.93"/><path class="cls-1" d="M135,128.75l.15.17a2.81,2.81,0,0,0-.42.5,1.17,1.17,0,0,0-.14.37,5.47,5.47,0,0,0,0,.76v2.58a1.68,1.68,0,0,0,.09.67c.06.11.11.17.17.17s.2-.08.37-.24l.12.19L134.22,135a2.3,2.3,0,0,1-.52-.59,1.66,1.66,0,0,1-.17-.74v-3.74l-.55-.54-.86.91v3.37l.4.51-.94.83-.94-.83.4-.51v-3.07a2.14,2.14,0,0,0-.07-.69,1.56,1.56,0,0,0-.47-.5l-.83.8v3.47l.4.51-.94.83-.94-.83.4-.51v-3.3a1.79,1.79,0,0,0-.11-.74c-.06-.11-.11-.17-.16-.17s-.18.08-.36.23l-.13-.18,1.14-1.1a2.6,2.6,0,0,1,.48.48,1.2,1.2,0,0,1,.18.41,3.88,3.88,0,0,1,0,.63l1.58-1.51a3.18,3.18,0,0,1,.69.8,2,2,0,0,1,.19.8l1.51-1.6.87.93Z"/><path class="cls-1" d="M136.92,130.21v3.18c.42.1.71.17.86.22a3.48,3.48,0,0,1,.54.23v-3.47a1.73,1.73,0,0,0,0-.33.71.71,0,0,0-.16-.19c-.2-.21-.36-.35-.47-.45Zm-1.84-.84,1.13-1a2,2,0,0,1,.57.65,2,2,0,0,1,.14.83l1.41-1.48a4.14,4.14,0,0,1,.93,1,1.79,1.79,0,0,1,.15.81v3.46a6.26,6.26,0,0,0-1.58,1.31,8.12,8.12,0,0,0-.91-.54v.44a3.2,3.2,0,0,0,.14,1.11,1.34,1.34,0,0,0,.48.58l-.06.15a3.77,3.77,0,0,1-.88-.47,1.52,1.52,0,0,1-.37-.44,2.26,2.26,0,0,1-.72.55l-.07-.12a1.55,1.55,0,0,0,.31-.52,2.49,2.49,0,0,0,.09-.75v-.9a2.77,2.77,0,0,0-.62-.07h-.08v-.52a5.16,5.16,0,0,1,.7-.14v-3.08a1.4,1.4,0,0,0-.12-.69c-.08-.13-.16-.19-.25-.19s-.15.06-.26.17Z"/><path class="cls-1" d="M142.08,131.68l-1.29-.69a3.67,3.67,0,0,0-.3,1.33,2.06,2.06,0,0,0,.79,1.67l.79-.73Zm0-1.83-1.82-.65.65,1.6,1.17.62Zm1.33-1.16.2.08a4.16,4.16,0,0,0-.37.8,2.77,2.77,0,0,0-.08.74v2.64a2.54,2.54,0,0,0,.08.82c.05.11.12.16.2.16a.26.26,0,0,0,.12,0l.23-.22.13.18L142.77,135a2.32,2.32,0,0,1-.54-.66,2.09,2.09,0,0,1-.15-.82L140.45,135a2.45,2.45,0,0,1-.91-1.71,2.75,2.75,0,0,1,.2-1.06,7.05,7.05,0,0,1,.92-1.52l-.65-1.6.07-.17.31,0a1.43,1.43,0,0,0,1.11-.56,3.74,3.74,0,0,0,.85.42,2.5,2.5,0,0,0,.71.16.28.28,0,0,0,.17,0,1.27,1.27,0,0,0,.2-.26"/><path class="cls-1" d="M147.2,128.43l.73.92.53-.59.14.17a2.25,2.25,0,0,0-.46.6,2.17,2.17,0,0,0-.11.75v3a1.31,1.31,0,0,0,.11.61q.07.13.16.13s.17-.08.36-.24l.12.18-1.14,1.1a2.11,2.11,0,0,1-.57-.69,2.74,2.74,0,0,1-.12-1V130l-.47-.58-.93.85v3.43l.4.46L145,135l-.94-.89.4-.46v-3.14a2.37,2.37,0,0,0-.12-.91c-.05-.11-.12-.16-.18-.16s-.18.08-.32.23l-.13-.19,1.13-1.09a2.5,2.5,0,0,1,.59.64,1.45,1.45,0,0,1,.12.65v.22Z"/><path class="cls-1" d="M150.53,130.27v3.53a3.87,3.87,0,0,0,1.08-1.31,3.08,3.08,0,0,0,.32-1.31,2.72,2.72,0,0,0-.6-1.64Zm-1.86-.69,1.12-1.08a2.2,2.2,0,0,1,.6.63,1.67,1.67,0,0,1,.14.73V130l1.63-1.5a3.32,3.32,0,0,1,.84,2.17,3.09,3.09,0,0,1-.27,1.24,3.73,3.73,0,0,1-.87,1.17,17.09,17.09,0,0,1-1.9,1.44c-.38.26-.61.43-.69.5a1.47,1.47,0,0,0-.34.42.71.71,0,0,0-.08.33.81.81,0,0,0,.27.58,1,1,0,0,0,.72.27,1,1,0,0,0,.54-.13.68.68,0,0,0,.2-.27.92.92,0,0,1,.16-.26.25.25,0,0,1,.17-.06.24.24,0,0,1,.17.07.26.26,0,0,1,.06.18.53.53,0,0,1-.25.4,1.52,1.52,0,0,1-1,.31,1.29,1.29,0,0,1-1-.34,1.09,1.09,0,0,1-.33-.8,1.34,1.34,0,0,1,.37-.89,1.63,1.63,0,0,0,.22-.3,1.68,1.68,0,0,0,.16-.44,2.79,2.79,0,0,0,0-.57v-3a2,2,0,0,0-.12-.84c-.07-.12-.14-.17-.21-.17a.39.39,0,0,0-.23.14l-.07.07Z"/><path class="cls-1" d="M81.1,101.13s0,0-.08.05h0a.09.09,0,0,0,.07-.06"/><path class="cls-1" d="M113.87,97.38c.15-.31,1-.15,1.09-.62l0,0c0-.16.1-.29.25-.31v.43h-.05c-.11.1.15,0,0,.13a5.72,5.72,0,0,1-1.29.34m.08.71.11-.11v.11Zm.58,1.54,0,0a5.69,5.69,0,0,1-.73,1.41l-.08.17,0-.28c0-.1,0,.08,0,.08,0-.82.49-.87.73-1.38l0,0h.08c0-.13,0,0,0-.15h.12Zm-1.22-5.12c-.54-.21-.24-.65-.39-1.1a4.47,4.47,0,0,1-.19-.84c-.15-.48-.18-1.25-.28-1.77h0c0-.21-.16-.59-.16-1l0,0v-.56h-.08c.08-.44-.13-.67-.12-1.1-.1-.18,0-.48-.11-.62l0,0c-.08-.16,0-.49-.08-.71s0-.69-.12-1l.05,0c.1-.07,0-.13-.05-.16v-.79h-.08c0-.36,0-1.69,0-2.25l0-.18a0,0,0,0,1,0,0v0l0,0a3.17,3.17,0,0,0,0-.35h0V82.2l.11.12s-.07,0-.08,0l0,0a.07.07,0,0,1,0,0l.06.07,0,0c.16,0,0,.48.16.64h-.05c0,.59.25,1.26.25,1.92,0,.89.34,1.87.46,2.76.1,0,0,.49.13.48-.08.35.13.41.12.79l0,0c0,.1,0,.33,0,.46l0,0c0,.39.23.69.2,1.15l0,0c.1.41.13,1,.28,1.38l0,0v.31h.07c0,.12-.07.26.08.31h0a3.68,3.68,0,0,1,.23,1.15s.08,0,.11,0c0,.28.25.61.16,1h-.27c-.06-.1-.33-.13-.39-.12m-.08,1.3s0-.1-.06-.08c-.25-.06,0,.16-.28.08l0,0c-.06-.07-.18,0-.28,0l0,0c-.16.08-.16-.15-.16-.28h-.08c.15,0,0-.2.08-.31l0,0c.07-.1,0-.23,0-.35l0,0,0-.08c.19,0,.39.21.67.25,0,.28.1.71-.13.82m0,3.63c-.29.08-.24.5-.63.51h0s0,0-.07,0-.18-.07-.29-.08h0a.1.1,0,0,0,0,0s-.08,0-.11,0l-.08.11c-.05-.25-.29,0-.51,0,0,0-.16,0-.16.08s.13.11.13.23l0,0,0,0c.08.12.23,0,.31,0-.19.06-.54,0-.5.36l0,0a.58.58,0,0,1-.19.33c.08,0,.13.1.23.06s0-.06,0-.11l0,.05a.9.9,0,0,1,.19-.39v0a5.47,5.47,0,0,1,.95.08v0h.11c-.16.13-.33.08-.39.19h-.11s-.23.26-.36.33h-.59v.06c-1.4,0-2.73.23-4.22.16l-.28.16v0l-.15,0,0,0s0,0-.08,0-.88,0-1.32.08v.07h-.08l0,0c-.08-.06-.2,0-.31,0v.07a6,6,0,0,0-1.45.08c-.16-.11-.13,0-.28,0a19.82,19.82,0,0,0-2.18.11s-.07-.11-.16-.08l0,.08v0l-2,0,0,0c-.18-.06-.23.08-.45,0v0c-.91-.1-1.94,0-2.78-.08l-.23,0,0,0a.1.1,0,0,0-.08-.05l0,0h0l0,0,0,0s-.08,0-.11,0c-.11.23-.1-.1-.19,0h-.7l0,0a2.22,2.22,0,0,1-.58-.39s0,0-.08,0,.21-.16.31-.23l0,0h.11l0,.2c.11.06.28,0,.42,0,0-.16.1-.31.25-.31-.05.19.16,0,0,.19.1.13.15-.06.23,0,.26.2.23.31.63.2v-.12c.08,0,.18,0,.23,0v0c.17,0,.21.23.44.2,0-.15.08-.53,0-.54h-.11v.08H96l0,0a2.9,2.9,0,0,1-.7,0v0c-.68-.1-1.46,0-2.12-.12v-.08l.05,0c.06-.08,0-.22,0-.33s.18,0,.23,0c-.14,0-.22-.21-.43-.17h0c-.15-.13.14-.21.28-.22l0,0h0v-.08c.08.13.33.07.39,0l0-.39s-.11,0-.14,0v.12h-.12s0,0,.07-.05l-.23-.11-.11.16c0-.05-.16-.23-.36-.16s-.24,0-.39,0l.05,0c-.64,0-.54-.33-1-.56a2.62,2.62,0,0,0,.73.08l.19-.2c0,.34.34.13.51.2v0c.13-.11.08.13.28,0,0-.1,0-.16,0-.28h0v0c.34-.05,0,.37.36.39l0-.08s0,0,0,.08,0-.44.31-.33c.13.13.4.08.58.16s.16-.18.28-.08,0,.1.11.08l.19-.08c-.11.15.21.16,0,.2.07,0,.11.11.2.11s.06-.16.08-.26l.08.07,0,0c0,.08-.05.13,0,.23.08-.06.21-.13.16-.31.26,0,.13.21.28.28s.34.08.39,0,0,0,0,.06l0,0c0,.06.1,0,.15,0s.16-.2.08-.23h.08v0c0-.12.21.43.36.11v-.15c.15,0,0-.12.06-.16-.21,0-.31-.14-.45-.08s0,0-.08,0l.08,0c-.2-.1-.51,0-.64-.12s-.66.07-.92-.08h-.75v0l-.13,0s-.07,0-.1,0h.1l0,0c-.21-.13-.54.13-.55-.23h.16v-.16a3.36,3.36,0,0,1-.47-.08l-.11,0,0,0c-.47.1-.47-.34-.9-.2l0,0c-.1-.06-.26,0-.39,0l0,0c-.28,0-.24-.23-.44-.31.15,0,.18.15.36.08l0,0c.39,0,.62.26,1,.2.09.13.37,0,.52.17h.43v0a8.28,8.28,0,0,0,1.37.16l.67,0-.05,0c.18.05.52,0,.72.13s.7-.18.78.2c.34-.2.68,0,1.2,0v0a.26.26,0,0,0,.23,0l0,0c.77,0,1.09.2,1.84.11l0,0,.86.05v0a20,20,0,0,0,2,.11c0,.06.06.1.11.08s.13,0,.17,0l0,0-.12,0h0s.1,0,.13,0a19.82,19.82,0,0,0,2.25.06l0,0s.08,0,.11,0c.18-.18.27.12.55,0a2.78,2.78,0,0,0,1.2,0c.21.16.76,0,1,.16.49-.13,1.12-.08,1.65-.2,0,.07.15,0,.23,0,.1-.16.6,0,.78-.11s1.12.07,1.45-.17l0,0,.28,0a2.71,2.71,0,0,1-.08.28c-.24,0-.29.16-.54.16l-.44.06-.58.08,0,0c-.08,0-.56-.08-.59.06v0c0,.1-.41,0-.36.12s-.2,0-.28,0v0a2.5,2.5,0,0,0,1,0l.59-.08,0,0c.4-.07,1,.13,1.45-.16.18.11,0,.23,0,.28m-21.48,2.79c-.24-.1-.49-.24-.47-.46.18.36.55.2.67.62,0,0-.21-.07-.19-.16m-1.48-.43c-.18-.34-.31-.39-.39-.67-.06,0-.26-.25-.36-.34-.43-.26-.52-1.07-1.14-1.18h.05c.1-.1-.1-.07-.09-.16s-.09-.26-.19-.23l.28,0-.05,0c.15,0,.25.34.39.11-.06,0-.11-.54-.53-.36-.07-.15.14-.18.23-.28l.08.08c.26,0,.28.3.47.56l0,0,.25.25c-.11,0-.08.13-.2.08s-.1-.2-.24-.24a1.08,1.08,0,0,0,.28.64l.47.43c-.05,0-.06,0-.08,0,.28.13.37.48.59.72l0-.05a1.61,1.61,0,0,0,.36.59l0,0c-.11.25.31.1.33.2s.26,0,.31.11a1,1,0,0,1-.9-.2m-.47.2s-.08,0-.12,0l0,0c-.28,0-.23-.54-.42-.12.15-.18,0,.18.15.2-.26.12-.38-.33-.51-.48l-.42-.54,0,0c0-.28-.34-.36-.39-.59-.24-.07-.15-.38-.39-.43h0a14.15,14.15,0,0,1-1.37-2.21l0,0a1.55,1.55,0,0,0-.19-.56l-.16-.11h0c0-.1-.19-.33-.11-.36-.24-.11-.12.07-.36,0,.06-.1-.23-.13-.08-.28,0,0-.08,0-.11,0-.06-.21-.49-.59-.51-.84s-.31-.43-.5-.7c.24,0,.24.52.42.43,0,.15.16.2.23.28.08-.29-.26-.46-.34-.7a.63.63,0,0,1-.28-.51c.21.49.81.89.94,1.33.07-.1.15.2.23.28l0,0,0,0a1.89,1.89,0,0,0,.34.59l0,0a3.5,3.5,0,0,0,.62,1c-.08.56.75.21.7.59-.23.06.11.11,0,.2l.2.08v-.08c.15,0,.1.11.19.16-.13.13-.24,0-.39.08-.11.41.31.36.36.7l0,0c0,.38.29.26.36.59l0,0a5.59,5.59,0,0,0,.91,1.15c.07-.28-.06-.36-.24-.59.34.17.36.49.67.65v.13c.13-.18.06.16.11.2l.39.46,0,0c-.09.15-.13.26-.27.2m-1,.31c-.16-.12-.31-.44-.39-.51-.39-.47-.52-1.18-1.09-1.66l-.11-.23,0,0c-.19-.33-.86-1.43-1.11-1.72,0,0,.06,0,.08,0l0,0,0,0c.15,0,.19.21.28.31a9.78,9.78,0,0,1,1.29,1.74l0,0c0,.33.26.31.34.64l0,0c.11.2.26.48.45.79.08-.07.16.19.24.36Zm-3.55-5.66v0s-.19-.09-.16-.17c-.34.29-.41-.2-.58-.36s.08,0,.08-.17a.94.94,0,0,1,.66.7s0,0,0,0m-1-1.15-.08-.2h.08v-.08c.21-.1.08.21.27.16,0,0,0,.2,0,.28a.29.29,0,0,1-.31-.17m1.67.39h0c0-.07-.08-.27-.23-.3l0,0a1.56,1.56,0,0,1-.81-1.1c0,.23.36.28.47.48l0,0a3,3,0,0,1,.78.87l0,0c.06.18.15.31.23.54l.08,0c-.21.25-.25-.13-.44-.16h0c-.06,0,0-.33-.16-.32m1.33,1.66h0c-.1-.34-.31-.29-.39-.7l0,0-.15-.31c.26,0,.23.44.42.31l0,0c.21,0,0,.23.2.25s.32.44.59.7l0,0,0,0s.08,0,.11,0c0,.21.15,0,.08.2s-.55-.24-.75-.46c.05,0,.06,0,.08,0s-.07,0-.12,0m-3-4.92A8.56,8.56,0,0,1,86,92.27l0,0a3.71,3.71,0,0,0,.81-.08c.1-.16.36,0,.51-.11v0h.08l0,0c.11-.1.52,0,.66-.08.31-.06.85,0,1.17-.11h.26l0,0c.19-.15.44.11.58,0a1.73,1.73,0,0,1-.56.84l-.06.23,0,0c-.2.23-.23.46-.43.7a.08.08,0,0,0,0-.08l-.11.23s0-.05,0-.07c-.1.46-.59.65-.78,1h-.36l0,0c-.41,0-.47-.25-.86-.2l0,0c0-.07-.15,0-.23,0l0,0a3.79,3.79,0,0,0-.81-.26s.1,0,.12-.05-.2,0-.2-.12l0,0s0,0,0,0h0s-.25,0-.29-.1h-.08l0,0a4.55,4.55,0,0,1-1.12-.9c-.15,0,.1-.25.08-.28m14.09,1.72,0,0a7.48,7.48,0,0,0,0-1.15l0,0c.13-.11-.08-.16,0-.28s0,0,.08,0a.25.25,0,0,1-.08-.26c.18,0,.52-.08.67.07l0,0c0,.07.13,0,.2,0l0,0c.41.38,1.25.29,1.56,1l0,0c-.15,1.31.39,1.84.31,3.2.15.06,0,.26.08.39a7.13,7.13,0,0,1-1.06,0l.05,0a.09.09,0,0,0-.08-.05l0,0h0l0,0,0,0c-.13-.07-.28,0-.43,0l0,0c-.15-.1-.42,0-.47-.08a1,1,0,0,0-.44,0l0,0-.55,0c0-.76,0-1.1,0-1.89a6.15,6.15,0,0,0,0-.92m-3.21-1.92c0,.39-.44.77-.5,1.18l0,0a3.3,3.3,0,0,0-.28.75.09.09,0,0,0,0-.08,2.69,2.69,0,0,1-.11.36l0,0c-.31.69-.51,1-.75,1.54a.19.19,0,0,1-.28,0c.1,0,.08-.15.08-.24l.05,0c.06,0,0-.13,0-.19l0,0c0-.29.28-.33.19-.62l0,0c.1-.21.13-.23.11-.43l0,0a1.32,1.32,0,0,0,.2-.59c.16-.11.24-.61.33-.87l0,0c.06-.06,0-.16,0-.24l0,0c.06-.09,0-.2,0-.28l0,0c.15-.33.15-.82.42-1a.58.58,0,0,1,.47.11c-.1.12-.11.38-.16.48M97,94.91v.95h0c-.12.23.06.84-.16,1h-.51l0,0-.08-.09a5.64,5.64,0,0,1-1.37,0l0,0-.48,0h0s0,0,0,0c-.47,0-.46-.28-.89-.33.06,0,.1-.05.08-.12a2.45,2.45,0,0,1,.39-.79,7.8,7.8,0,0,1,.39-1s0,.07,0,.08a1.9,1.9,0,0,1,.2-.56.1.1,0,0,0,0,.08c.1-.47.26-.43.34-.9l0,0a3.41,3.41,0,0,0,.28-.66l0,0c.18-.16.11-.47.36-.56s.54.13.85.08.36.16.58.24v.26c-.1,0-.05.89-.11,1.18l0,1.11,0,0s0,0,0,.08m-8,.28.05,0c-.36,0-.51-.16-.83-.2-.13-.11.08-.28.13-.43,0,0,0,0,.06,0v-.13l.05,0a6.63,6.63,0,0,0,.81-1.15l0,0c.06-.29.39-.49.51-.64l-.05,0c.34-.23.37-.56.67-.87,0,.07.21-.08.2.08.15-.16.65,0,.94-.11.78.07,2,0,2.81.11a5.25,5.25,0,0,1-.08.67s0-.07,0-.08l-.06.19c0,.18-.1.25-.13.43,0,0,0,0-.07,0s.08.05,0,.23-.2.18-.11.39l0,0a3.47,3.47,0,0,1-.47,1.13l0,.13,0,0c-.11.24.08.24-.19.39.13.13-.21.31-.24.44s-.28,0-.27,0a0,0,0,0,1,0,0v0l0,0c0,.14-.32.06-.51.06h0l0,0a2.56,2.56,0,0,0-.7,0l0,0a1.14,1.14,0,0,0-.47,0s0,0,0-.08a4.66,4.66,0,0,1-1.25-.16l.05,0a1.15,1.15,0,0,0-.47,0s.06,0,.08,0a1,1,0,0,0-.44,0m1.76,6,0,0,.19.31c-.19,0-.1.13-.28.08a8.92,8.92,0,0,1-.67-1,.86.86,0,0,1-.39-.56c.34.12.44.53.75.71v.11c.1-.06.21.23.34.36m14.77-4.69,0,0c-.26-.56.47-.49.39-1l0,0c.06,0,0-.1,0-.15h.09V95.3l0,0c.11-.08-.06-.26.16-.2l-.05-.07c.46-.21.26.36.47.46l0,0,.11.36,0,0c.13.51.73,1.24.86,1.88-.13,0-.21-.08-.31,0-.45,0-.88,0-1.41,0-.05-.24-.33-.41-.39-.7l0,0c.06-.26-.11-.28,0-.52m5.19-1.25c-.06,0,0,.1,0,.15-.18.15-.75,0-1,.08,0-.33.65-.13.65-.48h-.06l0,0c0-.05-.16-.1-.2-.05s0,.07,0,.08h-.2v.08c-.26.08-.15-.15-.23-.17s.11-.2,0-.43l.17-.08c.13.12.34,0,.58,0a.46.46,0,0,0,.31.08h0v.82h0s0-.05,0-.07m.31.12c-.08-.39.16-.56.08-.79l0,0a.24.24,0,0,1,.31-.2c.1.16.24,0,.36.16l0,0c.11.1.29-.1.39,0v.43c-.13.16-.1.36-.2.39h-.86c0-.11-.1-.1-.08-.11m.7-6.69.08.74,0,0,0,.62,0,0a5.73,5.73,0,0,0,.24,1.66l-.08.08c.15.07,0,.33.11.46l0,0c0,.41.13.51.13.9l0,0c-.1.44.16.8.16,1.3-.34.08-.33-.14-.62-.09a0,0,0,0,1,0,0h0l0,0a4,4,0,0,0-.78,0s0,0,0-.06l-.11.06,0,0c0-.06-.1,0-.15,0v.06a.42.42,0,0,0-.44,0l0,0h-.16l.05,0s-.05,0-.08,0-.78,0-1,.15a4.16,4.16,0,0,0-1.33.59c-.08.26.23.1.31.19v1.23h0c-.13.11.12.08,0,.2s0,0-.06,0l.06.08c-.16.23,0,.57-.15.87v.2h-.11l0,0c-.21-.1-.26-.25-.36-.48a15.66,15.66,0,0,1-1.24-2.62c.31-.34.16-.44.39-.84l0,0c.09-.25.28-.44.28-.64l0,0a2.2,2.2,0,0,0,.28-.72l0,.05a3.27,3.27,0,0,0,.28-.64l0,0,.07-.08s0-.07,0-.11a.08.08,0,0,1,0,0,.07.07,0,0,1,0,0l0,0c.08,0,0-.15,0-.23l0,0a2.75,2.75,0,0,0,.28-.71l0,0a21.07,21.07,0,0,0,.83-2.08l0,0a.27.27,0,0,0,0-.25l0,0c0-.31.18-.34.2-.64l0,0c.08-.43.35-.79.36-1.12s.16-.39.23-.59l.08-.06c0-.25.1-.15.08-.56l0,0c.08-.07,0-.18,0-.26l0,0a3.9,3.9,0,0,0,.2-.78.09.09,0,0,0,.05.08c.06-.11,0-.24,0-.37s0,0,0,0a.18.18,0,0,0,0,0s0,0,0,.05c.08-.15,0-.25,0-.36l0,0a2.28,2.28,0,0,0,.19-.85s0,0,0,.07,0-.23,0-.34l0,0c0-.23.18-.77.19-1.1h.08c0,.23.07.18,0,.36a.67.67,0,0,1,0,.51c.15.2-.08.52,0,.71a.74.74,0,0,1,.08.39c-.05,0-.06,0-.08,0V84h.08c-.23.08,0,.25,0,.31l0,1.54,0,0c.15.1,0,.53.06.79h.08v.48s0,0-.08,0a3.77,3.77,0,0,1,.27,1.49m-28,1.18a6.71,6.71,0,0,0-.19-1.54c-.1-.16-.2-.9-.26-1.07a7.87,7.87,0,0,1,.65-.59l0,0,0,0s0-.07,0-.11a1.22,1.22,0,0,0,.47-.39c0,.05,0,.06,0,.08.37-.46,1-.82,1.28-1.18.57-.41,1-.87,1.56-1.29l0,0c.39-.16.66-.64,1.09-.79.12-.2.7-.53.78-.71.27-.07.31-.31.67-.43l-.05,0c.15-.31.49-.31.75-.7.23,0,.44-.36.67-.54l.67-.56,0,0c.18-.31.38-.29.67-.54l0,0c.28-.25.63-.39.86-.59l0,0c.44-.15.82-.64,1.21-.79,0-.16.39-.25.58-.43l0,0c.28-.15.75-.61,1.2-.82l0,0c0-.12.31-.3.39-.35.24-.18.39-.46.7-.56l0,0,0,0s0-.08,0-.11l.05,0a3,3,0,0,1,1.12-.79l0,0c-.07,0,.13,0,.15,0l0,0c.56-.06,1-.79,1.48-1l.08-.15v0a6,6,0,0,1,1.59-1.18l.05-.11s0,.06,0,.08c.21-.29.49-.39.67-.64v0c.41-.26,1-.72,1.53-1l.15-.12,0,0s.29-.1.28-.15c.26-.15.93-.64,1.28-.79V69.8c.25.08,0-.16.23-.08.18-.36.42-.15.67-.56l.62-.34,0,0,.28-.11,0,0,.44-.2,0,0s.24,0,.28-.12l0,0c.29,0,.58-.59,1.09-.71l.27-.25s0,.07,0,.08c.21-.36.31-.72.83-.76l-.05,0a2,2,0,0,0,.51-.31l.05,0,.11-.2v0c.13-.1.41-.23.59-.36a2.26,2.26,0,0,1,.9-.56c-.05.21.09.23,0,.44a.07.07,0,0,0-.08.08c0,.08.07.2.08.15,0,.13-.15.35,0,.51l0,0s.08,0,.12,0l0,0,0,0c.31-.29,0-1,.23-1.38l0-.2h0a.81.81,0,0,1,.36-.2c0,.08.06.2.08.16,0,.49-.34,1.05-.16,1.49,0,.07.11,0,.16,0s0-.1,0-.15l0,0a7.89,7.89,0,0,1,.19-1.34c0-.15-.1-.38.11-.43s0-.16.2-.23c.08.51-.21,1.28-.16,1.8h0v.12h0c-.1.16,0,.41-.11.56l.08.08h0l0,.54h0l0,.84,0-.05a2.64,2.64,0,0,0,0,.64h0c.1.1-.13.12,0,.15a7,7,0,0,0-.08.76c0,.36-.19.62-.11,1h0c0,.11,0,.46-.08.67l0,.7h0c0,.46-.2.61-.12,1-.11,0-.11.54-.08.54l0,0c-.1.11,0,.31-.08.43l0,.52a.2.2,0,0,1,0,0v0s0,0,0,0c0,.36-.12.46-.12.82-.16.08,0,.39-.11.48,0,.8-.47,1.25-.36,2l-.19.56a.63.63,0,0,1-.11.63l0,.16c0,.41-.17.64-.2,1l0,0c0,.19-.19.3-.08.4h0l.05,0-.05,0c-.24.92-.42,1.79-.62,2.56,0,.21-.2.33-.11.62l-.05,0a1.56,1.56,0,0,1-.15.51,10.32,10.32,0,0,1-.33,1.18c-.17.54-.44,1.18-.59,1.77s-.42.82-.45,1.23c-.24,0,0,.15-.13.2-.29.64-.49,1.28-.73,1.84l0,0c-.06,0,0,.11,0,.17a0,0,0,0,1,0,0v0a.16.16,0,0,0,0-.06c-.08.38-.34.67-.36,1l0,0-.13.39,0,0c0,.16-.2.22-.12.39l0,0a12.35,12.35,0,0,1-1.71,3c.11.12-.24.07-.12.31l0,0c-.12.16-.2.31-.39.36.08.11-.15.08,0,.23a1.39,1.39,0,0,1,.28.76l0,0a1.14,1.14,0,0,1-.55.85h-.2v0a2.18,2.18,0,0,0-.93,0h-.2c-.07.25.34.18.31.2s.39,0,.5,0l0,0a12.43,12.43,0,0,0,1.87.2c.11-.13.36.1.59-.08.31.23.77-.13,1.06,0,.67.07,1.61,0,2.29,0,.1-.15.9,0,.94-.11.47,0,.81-.21,1.2-.11.08-.08.32-.15.36-.08s0,0,0-.08l.24.08-.16.08,0,0c-.08,0-.37-.08-.44.08V98c.39.17.58-.15.86,0-.6.13-.88.59-1.65.48a.07.07,0,0,0,0,0h.12a.51.51,0,0,1-.12,0,2.76,2.76,0,0,0-.66,0l0,0a5.5,5.5,0,0,0-.93.05l0,0h0c-.64,0-1.4,0-2,0,0,0,0,0,0,.06s-.17-.2-.2,0v0l-2.54,0,.05,0a10.55,10.55,0,0,0-1.56-.05c0-.07-.06-.08-.13-.08a.14.14,0,0,0-.16.07h0c-.11-.13-.3,0-.46-.07l-.08.08v0c-.18-.1-.52,0-.62-.08l-.86,0,0,0a13.53,13.53,0,0,0-1.68-.12l0,0c-1.14-.18-2.49-.15-3.48-.33l-.1,0-.06,0,.06,0,0,0c-.21-.25-.77,0-1-.23a3.92,3.92,0,0,0-.86,0l0,0-.55,0a.08.08,0,0,0,.08,0c-.34,0-.49-.2-.86-.12l.05,0a1.45,1.45,0,0,0-.49,0h0s0,0,0,0c-.44-.15-1-.18-1.28-.28,0-.15-.33,0-.42-.08l0,0c-.29,0-.39-.2-.7-.12l0,0c-.1-.06-.26,0-.39,0l0,0c-.19-.08-.46,0-.55-.17a.49.49,0,0,1,.31-.08,1,1,0,0,0,.86.12.54.54,0,0,1,.51-.31c.11-.21-.23-.1-.28-.23l0,.08c-.05-.2-.41,0-.39-.2-.11-.08-.26,0-.39,0l0,0s0,0-.07,0-.19,0-.32,0c.16-.26.31,0,.58,0,.72.33,1.27,0,2,.36l.2-.08,0,0c.21,0,.25,0,.36.12v.11c.39.08.75.64,1.48.59l0,0c.54.1,1.14.15,1.73.2a26.4,26.4,0,0,0,3.48.4.11.11,0,0,0-.08,0l.7,0v0c.5,0,1.14.26,1.56,0l0,0,.93,0s0,0,0,.08,0-.15.15-.08l.08.08c.08-.17.36,0,.51-.13,0-.18-.26-.15-.43-.15h-.11v-.11c-.21-.1,0-.2-.16-.53-.18-.65-.26-1.08-.42-1.49a4,4,0,0,0-.2-.62.94.94,0,0,0,0,.59s.08.25,0,.54l.08.08,0,0a4.66,4.66,0,0,0,.16.9l0,0c-.06.36.14.25.13.59h0l-.23.07,0,0h-.7c0-.08-.16-.15,0-.28,0,0-.07,0-.12,0h0a6.48,6.48,0,0,0-.36-2l0,0a.14.14,0,0,0,0-.13c-.16,0,0-.41-.12-.51h0l.08-.08c0-.07-.12,0-.08-.12l0-.19h0l0-.2h0s0-.23.19-.15c.08.26.17.54.24.82h.07v.16c0,.06.11,0,.16,0l0,0,0,0c0-.23-.2-.44-.11-.79l.59.25,0,0c0,.06.13,0,.2,0l0,0c.12.18.31,0,.39.23l0,0,0,0c.13,0,.12.15.23.16l0,0,0,0s.16.08.19,0l0,0c.37.1.59.59.78.59s.36.46.47.43c0,.2.07.07.19.2.1-.05.08-.15.08-.23l0,0s.11-.11,0-.16h0c.1-.08-.08,0-.08-.15h-.08c-.19-.28-.7-.38-.73-.84a.51.51,0,0,0,.23-.31c-.16-.15-.15.12-.31.08,0,.15-.13.15-.23.2s-.3-.33-.56-.31c.1-.29-.36-.2-.47-.31a3.72,3.72,0,0,1-.86-.48c0,.07-.24,0-.26-.08h-.08v-.28a1.17,1.17,0,0,1-.7,0s.05,0,.07-.05-.29.05-.23-.15c0,0,0,.05,0,.09a.14.14,0,0,0,0-.13l0,0c0-.08.13-.15,0-.2s-.13,0-.15,0v0a0,0,0,0,1,0,0l0,0c-.06,0-.29,0-.34-.06H99.7v0a4.62,4.62,0,0,1-1.06-.34c-.24-.09-.63-.17-.83-.25h0l0-.11,0,0c0-.15.41-.2.31-.28h.08c-.08-.11,0-.1.11-.25-.28-.2-.26.2-.42.28h-.19V92H97l0,0c-.26,0-.34-.2-.63-.13l0,0-.36,0,0,0-.72,0c.07-.19.33-.36.33-.56l0,0s0-.08,0-.13l.05,0c.18-.18.21-.39.47-.56,0-.13.33-.39.42-.62l0,0c.1-.2.29-.26.39-.48l0,0,0,0a2.54,2.54,0,0,0,.44-.66l0,0a7.28,7.28,0,0,1,.58-1c-.08-.07.15-.25.08-.46,0,0,0,0,.08,0a1.22,1.22,0,0,1,.2-.79c-.07-.17-.16,0-.24,0V87l0,0-.11.43,0,0A12.67,12.67,0,0,1,97.3,89l0,0s0,.08,0,.11l0,0c0,.13-.14.11-.13.22s0,0,0,.06l0-.06,0,0a3.88,3.88,0,0,1-.73.9h0v.11h0a.07.07,0,0,0,0-.06c-.06,0,0,.07,0,.12a0,0,0,0,1,0,0,.17.17,0,0,0,0,0s0,0,0-.06a8.68,8.68,0,0,1-.91,1.07l0,0a2.14,2.14,0,0,1-.83.15l0,.08,0,0-.91,0s.1,0,.13,0a6,6,0,0,0-1,0c.1-.15.73-.44.78-.79l0,0c.28-.34.51-.7.75-1-.08-.07-.23,0-.24,0s-.33.39-.51.59l0,0s-.1,0-.11,0-.2.1-.15.26h-.13v.08h-.06s-.32.28-.36.4c-.16-.07-.08.11-.2.08.06,0-.23.28-.36.23h-.59s0,0,0-.07c-.19-.23-.26.08-.47,0-.85.06-.87,0-1.68.08l.12-.12c-.08-.2-.28,0-.31,0v.07h-.12c-.11.33-1.07,0-1.41.24.31-.46.89-.64,1.22-1l0,0,0,0,.06-.08,0,0c.23,0,.28-.26.47-.39-.5-.12-.73.52-1.17.71-.16.1-.24.21-.36.28-.37.23-.49.46-.9.48,0,.16-.45,0-.42.15-.42-.08-.34.18-.75.08,0,.16-.45,0-.43.16-.29-.08-.37.13-.63.11l0,0c-.15-.08-.34.18-.55.08a3.21,3.21,0,0,1-.39-1.92c-.16,0,0-.49-.16-.48m13.8-15.94-.05,0,.05,0c.29-.43.18-.77.42-1.15l.21-.43-.1.59a0,0,0,0,1,0,0v0l0,0c0,.65,0,1.29-.7,1.57a1.64,1.64,0,0,0,.2-.54m.89-1c.15,0,0-.23.08-.35l0,0c0-.3.16-.52.16-.82h.15c-.16.57.29,1.49-.15,1.85-.23.11-.18,0-.32,0-.16-.26.15-.41,0-.76m1-1.44a2.93,2.93,0,0,1,.44,1.38c-.1.11-.16-.05-.16.15-.1,0-.33,0-.28.08h0a4.26,4.26,0,0,1,0-1.61m14.3,27.28h0l-.07-.07s.13-.08.23-.11v.11c-.07,0-.16,0-.16.07Zm-.13-2.92c0-.28.18-.53.08-.9.19.13.57.06.75.23s-.11.48-.16.72l-.22,0a.05.05,0,0,1-.06,0h.06l0,0c-.08-.08-.36,0-.47,0M112,81.56l0,0c-.08.31.13.66.12,1.07l0,0a1.24,1.24,0,0,0,0,.48l0,0a.53.53,0,0,1,0-.09s0,.07,0,.09c0,.35.15.55.14.89.07,0,0-.12,0-.16.06.59.12.82.2,1.26l0,0c.11.35,0,.72.2,1.07l0,0a.81.81,0,0,0,0,.39l0,0c0,.51.3,1,.34,1.53l0,0c-.08.28.1.48.15.71h0c.55,1.71.91,3.22,1.51,4.84a3,3,0,0,0,.47,1.38h0l.08.36h-.16a1.64,1.64,0,0,0-.47-.19c-.18,0-.18-.2-.39-.12a20.09,20.09,0,0,1-.62-2.41c-.21-.25-.18-.56-.24-.93h-.07c.1-.22-.16-.74-.19-1.1a3.63,3.63,0,0,1-.16-.75c-.07-.25-.23-1.21-.28-1.61h-.08c0-.08.06-.33-.07-.36v-.08h0a9,9,0,0,0-.23-1.3l0,0c.09-.36-.16-.57-.08-.93-.15,0,0-.29-.11-.39-.08-.61-.28-1.86-.42-2.72h-.08c.06-.7-.15-.7-.08-1.38h0c-.1.08,0,0,0,0s-.13-.15,0-.28-.19-.31,0-.51l.12.23,0,0c0,.23,0,.44.08.7Zm3.43,14.57,0,0c-.18,0-.24-.08-.42-.11V95.3c.21-.06.28.1.42.12v.16c-.15,0,0,.18-.11.23.11.11.18.34.08.31m-.55,2.21v-.11c0,.07.15,0,.11.11Zm.16.51-.08-.08c.16-.13.16-.39.42-.23,0,.18-.24.38-.34.31m-28,4v-.11s.13,0,.16,0ZM90,103.93l0,0-.19,0Zm-3.55-1.1h0l0,0,.05,0,.08.28c-.15,0-.12-.21-.16-.26m-1.24.54s0,0,0,0h0s0-.08,0-.08,0,.05,0,.08a0,0,0,0,1,0,0,.15.15,0,0,1,0,0l0,0c-.21.15-.24-.13-.31.06,0-.11-.12-.06-.25-.06.13-.1.08,0,.2-.08l0,0c.11-.15.39,0,.58-.06v0c.13-.06,0,.09.23,0,0,.11-.19.11-.3.16m-1.8-10.55,0,0c0-.1-.42-.23-.23-.46a1.4,1.4,0,0,1,.35.51Zm-.55.48h-.08l.05,0c-.16-.15-.44-.08-.39-.39.15.06,0,.18.28.16l0,0a2.05,2.05,0,0,1,.45.54.13.13,0,0,1,.05.1l-.05-.1c-.09-.08-.24-.15-.25-.3m-.73-.84h.19c-.08.23-.13.23-.19,0M82,91.64l-.11-.24,0,0v-.17c.15.1.34.13.44.28a.38.38,0,0,1-.28.08m.75.67c-.12.13-.21.15-.28-.08Zm.11.23.19.08h0c0,.13.15,0,.16.23s-.21-.15-.28,0c0-.1-.16-.15,0-.28m-1.48-1.21h-.08c-.05-.18.06-.38.19-.36.1.18-.11.23-.11.36m34.87,5.38a1.21,1.21,0,0,1,.58-.06v.26s-.06,0-.08,0v.15l0,0c-.15.16-.18.43-.32.56s0,0,0,.15h-.11c0-.13.08-.2,0-.31-.05.11-.26.11-.34.16a2.1,2.1,0,0,1,.39-.92M118,94.2h.12l0,0c.12.11.21,0,.31,0-.23-.23-.26-.48,0-.67,0,.07.1,0,.15,0l0,0c.16,0,.15.23.34.2l0,0c0,.06.11,0,.16,0s.19-.08.23-.16c.43-.13.24,1,.9.79,0,0,0,.06,0,.08h0c0,.08,0-.1-.15,0l-.39.24c-.3.1-.05.23-.28.2-.47-.23-.58-.74-1.25-.7Zm2.2.62c0,.15.2,0,.31.08l0,0c.16,0,.24.17.32.25a1.86,1.86,0,0,1,.06.7h0c0,.15,0,0,0,.2s-.16.23-.36.2c-.16-.36-.31-.65-.47-1.1l0,0c.07,0,0-.1,0-.15H120c.08-.15.16-.13.25-.24m.06,6.5.21,0a.27.27,0,0,1-.13-.06,2.26,2.26,0,0,1-1.29.16v0c-.1-.09-.18.07-.26,0-.24,0-.4.16-.56.16a.06.06,0,0,1,0-.06l-.06,0c.11-.16-.28-.12-.12-.12l0,0-.39,0v.06a1.1,1.1,0,0,1-.46,0v0h-.47c-.13-.1-.26-.22-.44-.17v.08h-.5l0,0c-.29-.05-.38.34-.72.19l.05,0c-.21,0-.29.2-.47.07a22.35,22.35,0,0,1,1.53-3.41l0,0c-.07-.18.12-.2.12-.36l0,0c0-.07,0-.16,0-.2l0,0c-.06-.18.15-.13.13-.28l0,0c.07-.3.26-.59.36-1-.08-.2-.24-.21-.47-.2v.08c-.15,0-.31,0-.44,0,.13-.05,0-.23.16-.25h0c0-.16.21-.22.18-.4l0,0a3.1,3.1,0,0,1,.59-.95c.15-.07.19-.23.24-.28s.42-.34.7-.2l0,0h.15c.23.16.65.25.75.59s.16.23.34.43c.15-.06.08.15.13,0,.65.08,1,.87,1.17,1.31a2.45,2.45,0,0,0,.42-1.74h-.08a1.46,1.46,0,0,0-.86-.87s0-.05.08,0c-.25,0-.29-.3-.54-.36l0,0c-.16-.1-.15-.3-.39-.28l0,0c-.1,0-.23,0-.31,0s.08,0,.11,0c-.24,0-.31-.16-.42-.31s.13-.09,0-.25a.71.71,0,0,0-.47.48l0,0v.07c-.1,0-.11.21-.24.08.1.3-.36.44-.26.59-.42.26-.54.8-.86,1.18l0,0c-.12.39-.36.46-.54.74-.42.13-.17-.51-.36-.54.11-.56-.24-.43-.23-1l0,0a7,7,0,0,1-.5-1.57s0,.1,0,.11,0-.2,0-.31l0,0a3.8,3.8,0,0,1-.28-.92l0,0c-.06-.26-.23-.75-.28-1l0,0c-.07-.25,0-.48-.19-.59,0-.28-.22-.89-.24-1.23h-.08v-.35l0,0-.08-.28c0-.33-.26-.59-.2-.94l0,0,0,0c-.16-.69-.25-1.08-.39-1.85l0,0c-.16-.61-.15-.8-.31-1.41,0-.31-.2-.52-.12-.76l0,.05-.12-.75h-.08c.08-.59-.13-.52-.11-1.07,0-.11,0-.39-.11-.51l.08-.08,0,.05c-.15-.2.15-.56-.12-.59,0,0,0-.1,0-.11a1.84,1.84,0,0,1,0-.53c.08-.15-.21-.19,0-.26h-.08c0-.41.08-.61.11-1.11a11.1,11.1,0,0,0,.47-2l.08-.39c0-.28.16-.59.16-.92l0,0c-.08-.38.13-.64.11-1,0-.59.26-1,.25-1.57.08-.08,0-.4.06-.56l0,0c.16,0,0-.44.11-.64.16-1,.15-1.87.31-2.82l.08-.64h0s-.15-.1,0-.15l.08-.75h0c0-.28-.06-.44.08-.67a10.32,10.32,0,0,1,.19-2l0,0-.08-.08s0,0,.08,0c0-.18,0-.43.11-.51a2.17,2.17,0,0,1,.9-.67c-.72-.26-1,.28-1.29.48s-.62.54-.94.43l.08.08-.2.16a12.49,12.49,0,0,1-1.72,1c-.26.26-.68.43-.78.56-.15,0-.18.1-.26.15-.28.26-1.11.41-1.3.79a2.23,2.23,0,0,0-.7.39c0,.23-.34.21-.39.31v.09a.67.67,0,0,0-.39.31s0,0,0-.07h0V68h0c-.18.38-.93.54-1.14.79l0,0c0,.06-.05.08-.08.11a3.24,3.24,0,0,0-.62.39.07.07,0,0,1-.05-.08c-.08.33-.88.64-1.09,1-.18.08-.18.16-.31.16l0,0a9.91,9.91,0,0,1-1.29.59c0,.05,0,.13,0,.17l0,0s-.34.13-.2.2c-.2.15-.34.4-.62.36l0,0c-.42.46-.88.54-1.17.95-.39.12-.31-.26-.42-.44l-.05,0-.11-.39a4.33,4.33,0,0,1-.62-2.28h-.08a9.59,9.59,0,0,0,0-1.18l0,0,0,0c-.26,0-.13.54-.28.9l0,0c.15.48-.24,1-.28,1.54l0,0c0,.07,0,.17,0,.23l0,0c0,.07,0,.16,0,.23l0,0c0,.28-.16.31-.19.62l0,0c-.06.23-.18.33-.19.59v0c0,.09-.19.27-.1.28s-.23.18-.15.39a6.22,6.22,0,0,0-.39.92,1.76,1.76,0,0,1-.44.94l0-.07a5,5,0,0,1-1.13,1.16l0,0-.2.11c-.09.08-.28.23-.36.31s-.06.18-.16.08c-.11.11-.36.44-.5.56l0,0a13.3,13.3,0,0,1-1.72,1.38l0,0c-.58.3-.6.59-1.14.83.08,0,0,.11,0,.16s0-.05,0-.08-.11.26-.31.23a2.26,2.26,0,0,1-.89.71l0,.05c-.47.39-.91.73-1.4,1.13l0,.05c-.29.18-.52.46-.7.51l0,0c-.6.41-1.2,1.23-1.79,1.71-.06.07-.32.15-.19.23h-.08a2.47,2.47,0,0,1-.58.48s0,.1,0,.12l0,0c0,.16-.29.2-.31.34s-.1,0-.15,0,0,.12,0,.15l0,0-.11.11,0,0c-.31,0-.28.38-.55.36,0,.18-.26.2-.26.36l-.08-.08c.08.16,0,0,0,.2-.13,0-.31.15-.31.28s-.45.31-.55.65c0,0-.05,0,0-.07h0v.12h0c-.91.67.36,1,.11,1.72.15.67.18,1.18.28,2l0,0c0,.38.16.75.16,1.1h0c.13.15,0,.31,0,.48-.21,0-.21-.18-.39-.2l0,0H83.3l0,0-.31.2c-.1,0-.19,0-.25-.08s0-.18.05-.23l.31-.25a3.62,3.62,0,0,0-.86-1l.05,0h-.13s-.05,0,0-.08-.37.11-.36-.08l-.06.08c-.08-.16-.18,0-.2,0-.19,0-.29.25-.36.4-.13.54.21.82.31,1.23l0,0a4.86,4.86,0,0,0,.59.95l0,0c.21.2.32.69.55.87h0c.21.06.23.31.39.51l0,0c.06.33.34.31.34.59l0,0a8.52,8.52,0,0,0,.9,1.3,9,9,0,0,1,.7,1.13l0,0a3.91,3.91,0,0,1,.59,1l0,0,.28.4c.15.41.59.69.59,1.18-.08,0-.18,0-.25,0s0,0,.05-.08-.28,0-.28.13a1.19,1.19,0,0,0-.58.15c.13.46-.41.2-.47.44-.55.1-.91.26-1.4.34l0,0a5.54,5.54,0,0,1-1.4.43l0,0a3.38,3.38,0,0,1-.67.08s0-.05.08,0c-.15-.1-.32,0-.5-.11l0-.05c-.14,0-.12.16-.26.06s-.25,0-.28.11l-.08-.08v.08H80.4l0,0c-.18,0-.16.19-.39.11v.08h-.19l.05,0-.06,0,.25.07s0,0-.05,0c.07.38-.55.1-.73.25h.11c0,.1.24.11.11.23.29.08.54-.13.75-.16s.64-.41,1-.11l0,0c.49.11.87-.28,1.32,0l0,0,.62,0c.1-.18.41-.29.59-.36s.44-.11.36-.15c.07-.31.38-.3.62-.4.06-.18.47-.24.47-.31a3.22,3.22,0,0,0,1.45-.17s0-.16-.11-.11a.49.49,0,0,1-.39-.44c.1-.15.38-.12.62-.23a1.07,1.07,0,0,1,.44.62l0,0c.1.06,0,.23.11.23-.13,0-.23.23-.39.16l0,0,0,0c.13.29.34-.1.5,0s.28.33.36.51l-.31,0,0,.05c-.06.1-.26-.05-.28.11.14.21.63-.08.78.23h.08c.36.61-.38.1-.54.4l0-.11c0,.21-.49.08-.58.11s0,0,0,.08-.41.12-.39.08c-.34,0-.54.16-.83.16h0c-.24,0-.68.18-.78.12l0,0c-.32,0-.44.16-.78.11,0,0-.22.12-.23.05-.21.18-.27-.44-.36-.31.11-.35-.36-.15-.51-.2v0c-.23.21-.36.12-.62.08l0,0a3.5,3.5,0,0,1-1.34,0v0l0,.07c-.07,0-.16,0-.2,0s0,0-.16,0l0,0a6.36,6.36,0,0,1-.75.11l.05,0-.24.12c.08,0,.08.13.19.15l0,0h.08c.13-.39.49.08.78,0l-.2.16s-.26-.15-.24-.08,0,.08,0,.12l.34,0c.39-.21,1,.1,1.14,0s.09,0,.11,0h0l.39,0c.13-.1.59-.08.67-.23l0,0c.24-.29.47.18.54.26h0c.23.11.18.28.34.33s.2.1.28.11l0,0c.1.22.24.25.47.28l0,0c.31,0,.7-.1.9.13l0,0s.13,0,.16,0,0,0-.08,0h.23l0,0c.1-.12.2,0,.31,0a.08.08,0,0,1-.08,0c.28,0,.11,0,.31-.11-.11-.16-.39,0-.57-.13l0,0a.3.3,0,0,1-.08-.16c.13,0,.11-.2.24-.08l0,0,.11-.11c0-.13,0-.29-.15-.28a.17.17,0,0,1,0-.25s0,.15,0,0,.28.1.42.15-.13,0,0,0,.11.33.34.43c0,.33.37.11.47.31a.08.08,0,0,1-.08,0c.2.12.33,0,.52.15v-.07c.15.1.29,0,.31,0,.56,0,1.2-.08,1.84-.08a.13.13,0,0,1-.13,0c.47.1.57-.21,1,0h.15v0l.08-.08a.1.1,0,0,1,0,.08h.15V104H91V104c-.36-.13-.49.11-.93,0,0,0,0-.1,0-.13.28,0,.24-.11.55-.15,0-.23-.19-.05-.31-.16-.13.07-.36.18-.44.11l0,0a1.87,1.87,0,0,1-.78.08l0,0c-.23.15-.81,0-1.21.08-.21-.57.54,0,.65-.48-.5-.12-1.1.24-1.4,0l0,0c0-.15.24,0,.16,0l.11-.06c.06-.08.2,0,.27,0s.24,0,.11-.31a.29.29,0,0,1,.31-.16v-.07l.75,0c.08,0,.28.12.23.28.13,0,.32.06.36-.08l-.16-.2c.05,0,.16-.12.19-.12l0,0a2.84,2.84,0,0,1,1.4.15c.15.15.63.12.78.25s.32.16.63.15l0,.05c.15-.05.46,0,.47.15-.24-.17-.39.52-.81.28a.27.27,0,0,0-.36.2c.7.1.75-.28,1.37-.23l0,0a16.06,16.06,0,0,1,1.76-.12c.1.09.19-.21.28,0,.08-.16.58,0,.62-.16.11,0,.11.15.2,0,.57,0,1.06-.1,1.56-.06l0-.05c.1-.1.36.05.34,0s.06,0,.08,0l0,.05c.36.13.36,0,.78.11l0,0c.25,0,.53.09.62,0s.37.15.31.08.13,0,.15,0l0,0a.74.74,0,0,1,.47.08c.44.06.86.2,1.12,0v0c.19-.15.52,0,.71-.06v-.08h.42l0,0c.73-.1,1.67-.51,2.37-.06l0,0c.16,0,.29-.06.39.09.51,0,.65.33,1.09.23l-.2-.08c-.09-.16-.13-.06-.16-.31a2,2,0,0,0,.64,0l-.05,0h.17V103c.11,0,.13-.05.23,0l0,0c.37-.08.83-.15,1.2-.23l0,0c.47-.31,1.53,0,2-.11l0,0c.12-.2.21.19.28,0,.73.11.64-.16,1.09-.31l0,0a1.63,1.63,0,0,1,.59-.19s.08,0,.13,0,.08-.07.15-.07c-.37-.48.34-.23.44-.4a.56.56,0,0,1,.62.31h.11v-.05c.06,0,.13-.14.19,0s.41.06.19.36c0-.23,0,.1-.19,0s-.16,0-.15-.08H113v.11c.12,0,.28,0,.37.05.11-.07.21.17.25,0v0H114c0-.12.44-.23.47-.34a.6.6,0,0,1,.28,0v-.07h.11a.1.1,0,0,0,.11-.15l.83,0c.23.06,0,.16.08.31.11,0,.28.08.34-.06.23,0,.39,0,.5-.08s.18,0,.16.08l0-.08a.15.15,0,0,1,.19.08c.08-.13.13.08.17-.08.18.28.54.08.78.2l0,0h.15s0,0,0,.08.29.05.31-.11l0,0c-.1-.05-.26-.05-.31-.15.39-.4,1.11-.23,1.56-.44.23,0,.34-.13.51-.19"/><path class="cls-1" d="M83.45,91.92h0"/><path class="cls-1" d="M84,102.87h0s0,0,0,0"/><path class="cls-1" d="M85.7,103.8h0l0,0Z"/><path class="cls-1" d="M80,101.72h0c-.05,0,0,0,0,0"/><path class="cls-1" d="M121.44,101.24c.07,0,0,0,0,.07l0,0h.39v0a7.35,7.35,0,0,1,.93-.2c-.11,0-.21-.07-.34-.11l0,0c-.16-.33.28-.33.32-.48h-.67c0,.15,0,.33,0,.48-.24,0-.57.06-.73-.08,0-.3-.44-.11-.67-.16v.08c-.11,0-.13,0-.23,0s-.15-.23-.17-.36h-.39c-.15,0-.18-.23-.08-.36l-.28,0c-.26.18-.73,0-1,.15-.19,0-.42,0-.52-.11s0-.4-.23-.43l0,0c-.15,0-.21.11-.31.2a.15.15,0,0,1-.23.05l0,0-.19.16-.08-.08,0,.11c.2,0,.47.07.58-.08.2.06.15.2.28.31a2.3,2.3,0,0,0,.73.2c.44-.2.46.29,1,.13.24.11.15.31.52.23.31-.28.59.23.93-.11.13-.18.06.18.19,0l.08.08a.79.79,0,0,1-.78.2l.11.11,0,0c.36,0,.6.16.93-.07"/><path class="cls-1" d="M121.46,101.31h0"/><path class="cls-1" d="M120.51,101.31h0"/><path class="cls-1" d="M116.34,96.21l0,0c-.11.09.07,0,0,0"/><polygon class="cls-1" points="106.01 68.7 106.06 68.74 106.06 68.73 106.01 68.7"/><path class="cls-1" d="M111.95,102h0s0,0,0,0"/><path class="cls-1" d="M89.6,102.38h0"/><path class="cls-1" d="M98.49,103.09h-.1a.23.23,0,0,0,.1,0"/><path class="cls-1" d="M90.32,103.49h0l.06,0s0,0-.06,0"/><path class="cls-1" d="M103.52,98.57h0"/><path class="cls-1" d="M96.31,97.93l-.06,0,.06,0"/><path class="cls-1" d="M101.45,97.24h0Z"/><path class="cls-1" d="M112.65,74.68v0a.19.19,0,0,0,0,0"/><path class="cls-1" d="M110.16,98.65h0"/><path class="cls-1" d="M110.16,98.65h0"/><path class="cls-1" d="M108.12,90.77a0,0,0,0,0,0,0v0"/><path class="cls-1" d="M111.72,98.49h-.12a.5.5,0,0,0,.12,0"/><path class="cls-1" d="M111.36,80.74h0l.05,0Z"/><path class="cls-1" d="M92.77,97.31h0"/><path class="cls-1" d="M97.08,89.28a.07.07,0,0,0,0-.06l0,.06"/><path class="cls-1" d="M100.3,92.88l0,0s0,0,0,0"/><path class="cls-1" d="M97,92h0"/><path class="cls-1" d="M96.22,90.3a0,0,0,0,0,0,0,.17.17,0,0,1,0,0"/><path class="cls-1" d="M98.08,72.95v0a0,0,0,0,0,0,0"/><polygon class="cls-1" points="111.44 78.85 111.48 79.05 111.48 78.85 111.44 78.85"/><path class="cls-1" d="M109.88,84.36h0v.08h.06s0,0,0-.08"/><path class="cls-1" d="M111.22,79.72a1.73,1.73,0,0,1,0,.19.36.36,0,0,0,0-.19"/><path class="cls-1" d="M109.65,85.22a.17.17,0,0,1,0,0,0,0,0,0,0,0,0"/><path class="cls-1" d="M111.06,80.24a.28.28,0,0,0,0-.06.06.06,0,0,0,0,.06"/><path class="cls-1" d="M109.91,84.44l-.06.26,0,0c0,.11,0,.23,0,.31l-.05,0c0,.1,0,.23,0,.31a.09.09,0,0,1,0,0c0,.11,0,.22,0,.28l0,0c.1.3-.21.57-.11.76,0-.2.1-.23.11-.39l0,0c0-.12.06-.21.06-.3l0,0v-.15a.07.07,0,0,1,.08-.08c.08-.49.24-.88.34-1.29l0,0a2.53,2.53,0,0,1,.15-.67s0-.13.08-.11c-.11-.46.21-.48.2-1,0,0,0,.05,0,.08,0-.51.29-1,.34-1.53l0,0c.06-.42.16-.7.19-1a.94.94,0,0,0-.12.35l0,0c0,.26-.14.26-.12.53l-.05,0c0,.12,0,.26,0,.36l0,0c0,.07,0,.25,0,.31s0,0,0-.06c-.16.9-.6,2.12-.83,3.15"/><path class="cls-1" d="M109.6,85.85v0a0,0,0,0,0,0,0"/><path class="cls-1" d="M112.26,82.9a.5.5,0,0,0,0,.09s0-.07,0-.09"/><path class="cls-1" d="M110.38,81.07v0h0l0,0"/><path class="cls-1" d="M110.43,80.76c0,.1.08.19-.08.2l0,.08c.19,0,.07-.21.06-.29"/><path class="cls-1" d="M110.38,81.07v.06a.06.06,0,0,0,0-.06"/><path class="cls-1" d="M110.43,80.76v0s0,0,0,0"/><path class="cls-1" d="M108.63,85.86l0-.05a.12.12,0,0,0,0,.05"/><path class="cls-1" d="M108.71,85.82a3.43,3.43,0,0,0,.31-.67l0,0c0-.08,0-.18,0-.23l0,0c0-.08,0-.18,0-.23l0,0a3.67,3.67,0,0,1,.31-.87c0-.26.24-.79.24-1,.15,0,0-.15.12-.26l0,0c0-.13.05-.22.05-.31l0,0c0-.44.36-.82.28-1.21l0,.23-.05,0c.08.2-.13.25-.11.48,0,.07,0,.1-.08.15l0,0a4.83,4.83,0,0,1-.36,1.26l0,0a9.14,9.14,0,0,1-.44,1.46l0,0c0,.06,0,.17,0,.23l0,0a3.56,3.56,0,0,1-.28.82l0,0-.06.18,0,0Z"/><path class="cls-1" d="M109.91,82.71v0a0,0,0,0,0,0,0"/><path class="cls-1" d="M107.93,91.6a.07.07,0,0,0,0,0,.07.07,0,0,0,0,0"/><path class="cls-1" d="M112,94.23h0s0,0,0,0"/><path class="cls-1" d="M110.66,84.39a.18.18,0,0,1,0,0s0,0,0,0"/><path class="cls-1" d="M111.61,82.64v0a0,0,0,0,0,0,0"/><path class="cls-1" d="M111.72,82.31l-.11-.12v.11l0,0a.07.07,0,0,0,.08,0"/><path class="cls-1" d="M107.15,85.54a.24.24,0,0,0,0,.28Z"/><path class="cls-1" d="M106.45,87.23l0,0,0-.15,0,0c.08-.44.26-.63.36-1.07l0,0c-.07-.18.11-.21.08-.36l-.16.36,0,0c0,.2-.1.23-.11.39l-.08-.06a4.76,4.76,0,0,1-.47,1.3,3.77,3.77,0,0,0,.28-.48"/><polygon class="cls-1" points="107.54 86.02 107.57 86.13 107.57 86.02 107.54 86.02"/><path class="cls-1" d="M102.63,92.12l0-.05h0Z"/><path class="cls-1" d="M102.68,92.06l.25-.3h0s-.23.24-.21.3"/><path class="cls-1" d="M101.91,92.78l0,0c.05,0,.14,0,.15-.16l0,0c.15-.2.3-.38.45-.56h-.11c-.08.28-.42.51-.59.62"/><path class="cls-1" d="M101.94,92.83h0"/><path class="cls-1" d="M101.6,93.11h-.15v.06h-.13v.08a1.61,1.61,0,0,0,.58-.31.14.14,0,0,1,0-.11c-.15.06-.39.22-.34.27"/><path class="cls-1" d="M103.25,91.45s0,0,0,0a0,0,0,0,0,0,0"/><path class="cls-1" d="M103.24,91.25c-.13.18-.33.37-.31.5l.28-.35,0,.05c0-.16.21-.25.23-.32l0,0c0-.16.26-.33.2-.39.18-.33.46-.64.62-1l0,0a12.29,12.29,0,0,0,.58-1.13l0,0c0-.07,0-.15,0-.2l0,0c.41-.89.65-1.43,1.09-2.25-.06,0-.16,0-.2,0a4.21,4.21,0,0,1-.42,1.18l0,0a1.09,1.09,0,0,0-.08.36c-.14,0,0,.15-.12.2s0-.05,0-.08a10.16,10.16,0,0,1-.78,1.49l0,0c.08.28-.26.38-.31.66l0,0c.1.16-.17.26-.17.36a6,6,0,0,1-.62.82Z"/><path class="cls-1" d="M102.63,92.15v0l0,0Z"/><path class="cls-1" d="M102.69,92.07v0Z"/><path class="cls-1" d="M102.93,91.76h0Z"/><polygon class="cls-1" points="107.42 86.61 107.42 86.48 107.38 86.41 107.42 86.61"/><path class="cls-1" d="M104.06,88.53s0-.13.05-.15l.08-.2s.05,0,0,.07a5.39,5.39,0,0,1,.5-1.13,2.62,2.62,0,0,1,.2-.48h0a6,6,0,0,0-.75,1.49l-.08-.08c.23.23-.26.28,0,.48"/><path class="cls-1" d="M107.42,86.76l-.11-.11s0,.16.11.11"/><path class="cls-1" d="M107.23,86.81l0,0v0Z"/><path class="cls-1" d="M107.18,87.13a1.07,1.07,0,0,1,.05-.22,1.59,1.59,0,0,0-.15.23l.06-.06s0,0,0,.06"/><path class="cls-1" d="M107.07,87.16v0l0,0Z"/><path class="cls-1" d="M107.18,87.13s0,0,0,0a0,0,0,0,0,0,0"/><path class="cls-1" d="M104.92,91.61s0,0,0,0"/><path class="cls-1" d="M104.47,92.22l-.05.05a.11.11,0,0,0,.05-.05"/><path class="cls-1" d="M106.76,87.82c0,.06,0,.16,0,.19l0,0c.08.13-.15.11,0,.23-.15.06-.1.18-.16.31l0,0a5.32,5.32,0,0,1-.55,1.07l0,0c0,.46-.39.77-.55,1.23,0,0,0,0,0-.08h-.05v.11h.05c-.12.07-.06.38-.25.31.06.21-.39.65-.34.84-.11,0-.17.2-.23.29a1.64,1.64,0,0,0,.42-.65s0,0,0,0h0a6,6,0,0,1,.47-.74c0-.07,0-.16,0-.2l0,0c0-.18.08-.18.15-.31.05-.3.28-.43.36-.7l0,0c0-.07,0-.15.05-.2l0,0c0-.08,0-.16,0-.2l0,0c0-.17.11-.21.11-.36l.05,0c0-.49.29-.44.34-.87l0,0a3.63,3.63,0,0,1,.42-1l-.08-.08a5.61,5.61,0,0,0-.28.7Z"/><path class="cls-1" d="M107.25,86.85l0,.05,0,0Z"/><path class="cls-1" d="M109,87.2l0,0c0,.07,0,.17,0,.2l0,0c.08.21-.18.24-.16.34l.08,0,.15-.39a.07.07,0,0,1,0,.08c0-.08,0-.16,0-.2l0,0,0-.2H109s0,.13,0,.16"/><polygon class="cls-1" points="109.09 87.04 109.1 87.04 109.1 86.95 109.09 87.04"/><path class="cls-1" d="M103.83,88.78c.06,0,0-.1,0-.14s-.15.05,0,.14"/><path class="cls-1" d="M103.86,88.63a.07.07,0,0,0,0,0Z"/><rect class="cls-1" x="107.23" y="88.69" width="0.03" height="0.12"/><path class="cls-1" d="M100.35,88.89l0-.11-.08.06s.1,0,.12,0"/><path class="cls-1" d="M105.78,88.78c-.13,0-.1,0-.16.11l0,0,0,.28c0-.11.08-.33.16-.34"/><path class="cls-1" d="M98.53,89.31l0,0,.11.08s-.07,0-.11,0c-.15.31-.47.66-.62,1l0,0-.11.28s0,0,0-.08c0,.18-.19.28-.28.43l0,0c0,.26-.26.31-.39.51.28-.1.44-.39.62-.59a1.52,1.52,0,0,0,.39-.54l0,0a1.7,1.7,0,0,1,.36-.56l0,0c.26-.23.28-.62.54-.87-.15,0-.15.29-.34.39"/><path class="cls-1" d="M100.12,89.17l0,0a.27.27,0,0,0,.08-.16Z"/><path class="cls-1" d="M99.45,90.3l0,0a5.09,5.09,0,0,1,.26-.52s.05,0,.05.08c0-.23.23-.23.2-.48l0,0s0-.13,0-.17a.25.25,0,0,1,.06-.11c-.19,0,0,.16-.19.28s0,0,0-.08c-.08.44-.46.6-.59,1l0,0s0,.1,0,.12l0,0c0,.18-.19.29-.24.36a.81.81,0,0,0,.47-.47"/><path class="cls-1" d="M100.23,88.92c0,.11-.13,0,0,.11l0,0Z"/><path class="cls-1" d="M103.56,89.2a.05.05,0,0,0,0,0l0,0h0a.12.12,0,0,0,0-.08"/><path class="cls-1" d="M103.44,89.41l0,0a0,0,0,0,0,0,0"/><path class="cls-1" d="M103.64,89.12l0,0h0a.05.05,0,0,0,0,0"/><path class="cls-1" d="M100.9,92.47l0,0c-.21,0-.18.26-.39.2l0,0s-.08,0-.11,0l.07.08c.26-.07.42-.33.59-.39a11.32,11.32,0,0,0,1.37-1.57l0,0c.1-.31.42-.56.47-.84.22-.18.18-.44.43-.59a.34.34,0,0,0,0-.1c-.12.15-.24.32-.36.5s-.29.39-.43.59-.41.81-.67.76c.18.18-.2.34-.31.51a8.55,8.55,0,0,1-.78.71"/><path class="cls-1" d="M103.52,89.43a.53.53,0,0,1,0-.15l0,0v.13s0,0,0,.07"/><path class="cls-1" d="M103.59,89.16s0,0,0-.07,0,.08,0,.11a.09.09,0,0,1,0,0"/><path class="cls-1" d="M103.67,89c-.06,0,0,.06,0,.11a.09.09,0,0,0,0-.11"/><path class="cls-1" d="M107.9,89.76a.08.08,0,0,0,0,0,.09.09,0,0,0,0,0"/><path class="cls-1" d="M107.93,89.59h0s0,0,0,0"/><path class="cls-1" d="M107.85,89.68l0,0a.21.21,0,0,1,0-.12l0,0c.13,0,0-.15.11-.2l0,0c0-.08,0-.21,0-.28l0,0v-.08h0c-.07.1-.23.15-.13.23a1.7,1.7,0,0,0-.23.64h0a.38.38,0,0,0,0,.2c-.08-.24.13-.26.11-.47"/><polygon class="cls-1" points="107.03 89.36 107.03 89.23 106.98 89.2 107.03 89.36"/><path class="cls-1" d="M106.79,89.71c.1.16.15-.17.19-.28-.06.1-.17.13-.19.28"/><path class="cls-1" d="M102.46,89.48c-.16-.07-.08.1-.16.15s-.05,0,0-.07l-.08.26c.25-.05.16-.2.28-.35"/><path class="cls-1" d="M100.87,89.83a.07.07,0,0,1,0,0l0,0h0"/><path class="cls-1" d="M101.1,89.56a1,1,0,0,0-.2.25c.11,0,.18-.24.2-.25"/><path class="cls-1" d="M100,91l0,0c-.33.21-.15.39-.5.52l.11,0a5.06,5.06,0,0,0,.75-1,.39.39,0,0,0,.15-.23s0,0,0,.08c0-.28.33-.36.28-.61a1.79,1.79,0,0,1-.2.3l0,0a7.74,7.74,0,0,1-.5.87Z"/><path class="cls-1" d="M103.21,92.75v0"/><path class="cls-1" d="M104.06,91.84h0c0,.06,0,0,0,0"/><path class="cls-1" d="M103.83,92.19c0-.25.24-.15.19-.39,0,0,0,0,0,0,.18-.39.62-.74.75-1.18l0,0c.13-.38.32-.57.44-1l0,0a.18.18,0,0,1,.08-.2h-.11l-.44.85-.07-.07a1.35,1.35,0,0,1-.24.59l0,0s0,.13,0,.16l0,0c0,.08,0,.16,0,.2l0,0c-.23.61-.44.52-.73,1.18l0,0c0,.16-.2.28-.33.42a2.86,2.86,0,0,0,.57-.58Z"/><path class="cls-1" d="M103.24,92.78l0,0a.46.46,0,0,0-.13.23Z"/><path class="cls-1" d="M94,91.05c.11,0-.07.18,0,.08a1.71,1.71,0,0,0,1.2-.75l0,0s0-.1,0-.11l0,0c.11-.31.41-.49.56-.72-.2,0-.28.2-.39.36l0,0c-.24.31-.47.64-.78.74v.08c0,.05-.06,0-.11,0v.08c-.23,0-.34.24-.58.16"/><path class="cls-1" d="M89.93,91a3.43,3.43,0,0,1,.39-.23l0,0a3.05,3.05,0,0,0,1-1l-.59.56,0,0c-.1.18-.36.11-.36.36l0-.05c0,.05-.39.38-.36.36h-.11l0,0-.34.2c.23.15.26-.15.39-.2"/><path class="cls-1" d="M91.75,91.09l-.18.16a.8.8,0,0,0,.18-.16"/><path class="cls-1" d="M92.54,90.27c.1-.11.13-.39.32-.44-.15-.18-.23.34-.36.28l0,0c.06.17-.2.13-.17.35l0,0s0,0,0,0l0,0c-.33.2-.37.43-.53.63.29-.27.59-.66.79-.83"/><path class="cls-1" d="M92.23,90.42h0c-.06,0,0,0,0,0"/><path class="cls-1" d="M106.17,91.05c.23-.11.18-.46.39-.59,0-.07,0-.16,0-.2l0,0s0-.13,0-.15l0,0c0-.16.06-.28.06-.39-.45.9-.59,1.17-1,2a1.41,1.41,0,0,0,.42-.74"/><path class="cls-1" d="M101.29,91.05c0-.16.34-.18.19-.28.23.07,0-.11.2-.08,0-.08,0-.18,0-.23,0,.24-.36.23-.36.51l0,0-.13.11,0,0,0,0c.1,0,.08-.18.16-.08"/><path class="cls-1" d="M101,91.37s0-.05.08,0,0-.1,0-.13l0,0v-.12l-.19.2Z"/><polygon class="cls-1" points="98.83 90.97 98.85 91.01 98.87 90.97 98.83 90.97"/><polygon class="cls-1" points="98.83 91.06 98.87 91.05 98.85 91.01 98.83 91.06"/><polygon class="cls-1" points="98.72 91.09 98.79 91.17 98.83 91.06 98.72 91.09"/><path class="cls-1" d="M105.86,93.53c.11-.19.23-.62.34-.82l.05,0c0-.18.23-.31.19-.51l0,0c0-.06,0-.15,0-.2l0,0c.08-.18.16-.43.23-.52a11.41,11.41,0,0,0-1,1.93Z"/><path class="cls-1" d="M92.66,95.7v0a0,0,0,0,0,0,0"/><path class="cls-1" d="M92.11,95.73h0"/><path class="cls-1" d="M87.54,94.71h0"/><path class="cls-1" d="M85.65,93.95h0s0,0,0,0"/><path class="cls-1" d="M99.06,92l.2-.2c-.2,0-.08.15-.28.15v.08s0,0,0-.08Z"/><path class="cls-1" d="M94.45,96.68h0"/><polygon class="cls-1" points="99.62 92.32 99.62 92.44 99.81 92.32 99.62 92.32"/><path class="cls-1" d="M100.09,97.44h0l0,0Z"/><path class="cls-1" d="M104.84,93.17l0,0c-.12.26-.52.54-.7.9h0l0,.09s0-.09,0-.12l0,0c.23-.57.85-1,1-1.38-.08.23-.31.22-.39.51"/><path class="cls-1" d="M104.11,94l-.05.05,0,0s0-.06,0-.08"/><path class="cls-1" d="M104.14,94.16s0,0,0,0a.14.14,0,0,1,0,0"/><path class="cls-1" d="M104,93c-.18,0-.13.28-.19.35.21-.15.19-.31.34-.59,0,.08-.29.16-.15.24"/><path class="cls-1" d="M83.11,93.6l.05.1a.13.13,0,0,0-.05-.1"/><path class="cls-1" d="M102.77,93.3s.09-.11.16-.08v-.11c0,.06-.15.06-.16.19"/><polygon class="cls-1" points="102.38 93.57 102.5 93.57 102.58 93.45 102.38 93.57"/><path class="cls-1" d="M118.12,94.2h0"/><path class="cls-1" d="M103,94.09c.25-.22.2-.08.36-.28-.15,0-.33.15-.36.28"/><path class="cls-1" d="M105.43,94.09v.31l.08-.2,0,0v-.12s-.1,0-.13,0"/><path class="cls-1" d="M85.95,95.89h0"/><path class="cls-1" d="M114.07,95.89H114a.05.05,0,0,0,.06,0"/><path class="cls-1" d="M85.2,95.78a.94.94,0,0,0,.31.51c0-.23-.15-.32-.31-.51"/><path class="cls-1" d="M85.28,96.65s0,0,0,0v0"/><path class="cls-1" d="M87.32,97.55h0Z"/><path class="cls-1" d="M112.29,99.83h0"/><polygon class="cls-1" points="95.44 101.69 95.43 101.68 95.4 101.72 95.44 101.69"/><path class="cls-1" d="M112.65,99.94h0s0,0,0,0"/><path class="cls-1" d="M96.57,98.68h0l-.08,0s0,0,.08,0"/><path class="cls-1" d="M103.58,98.77h0"/><path class="cls-1" d="M94.13,98.47H94s.07,0,.1,0"/><path class="cls-1" d="M93.09,100.06h0Z"/><path class="cls-1" d="M116.91,98.17l-.08.08c.1-.13.39-.08.55,0,0,.1-.15.07-.24.07v.13c.11,0,.37.06.33-.08s.1,0,.11,0l0,0c.15-.08.37-.15.36-.36a1.62,1.62,0,0,1-.51,0l0,0c-.06,0-.15,0-.19,0s-.23,0-.34,0l0,0-.16.08c0,.1.08.1.16.15"/><path class="cls-1" d="M120.54,98.45c-.24,0-.76,0-.7.08l0,0a.24.24,0,0,0-.23.31l.08-.07s0,0,.08,0l-.05,0c.28-.07.46.2.64,0v0h0v-.11h0c.1-.07.26,0,.39,0v-.08c.33.08.18-.15.5-.08l0,0a1.14,1.14,0,0,1,.91-.17l0,0a2.32,2.32,0,0,0,.67,0v0l.12-.11-.82,0,0,0c-.15,0-.23-.07-.34-.07v.07l-.39,0a5.54,5.54,0,0,0-.83.15Z"/><path class="cls-1" d="M118.31,98.93h0v-.24h0c-.19,0-.16-.12-.28-.31a3,3,0,0,0-.78.28c.08,0,.13.13.23,0s.32-.2.59-.06c-.07.06,0,.31-.2.23,0,0,.1.06.08.11s.26.15.31,0"/><path class="cls-1" d="M113.75,98.73h0"/><path class="cls-1" d="M97.58,98.93l-.08.15.11,0c0-.07,0-.2,0-.2"/><path class="cls-1" d="M98.17,99H98l0,.2a1.18,1.18,0,0,0,.19-.2"/><path class="cls-1" d="M117.92,99.4c.08-.1.29,0,.33-.13l0,.05s0,0-.07,0l0,0c0-.31-.44-.05-.59-.25l0,0c-.39.13-.52-.08-.85-.12-.08.2-.49.12-.55.35h.19a3,3,0,0,1,1.6,0"/><path class="cls-1" d="M118.12,99.27h0l0,0Z"/><path class="cls-1" d="M99.31,99.27l1.28,0-.7,0v0H99v.11l.19-.06c.07,0,.13,0,.13.06"/><path class="cls-1" d="M85.28,99.24h0Z"/><path class="cls-1" d="M84.53,99.6h.24v-.08c.23,0,.18-.12.42-.08,0-.11.17-.05.08-.19a1.09,1.09,0,0,1-.67,0c0,.15-.15,0-.22.08s0,.13-.05.15,0,0,0-.06c-.07.21.23,0,.23.2"/><path class="cls-1" d="M100.79,99.27l0,0c-.21.08,0,0-.19.11,0,0,.13,0,.16,0l0,0c.1,0,.21,0,.28,0l0,0a1.51,1.51,0,0,0,1.17,0,10.28,10.28,0,0,0-1.45-.13"/><path class="cls-1" d="M118.78,99.83v-.08h.11c0-.21.13-.23.08-.43,0,0-.2,0-.28,0l0,0h-.08c-.16.18.15.31,0,.59Z"/><path class="cls-1" d="M102.93,99.52c.06-.15-.11-.16-.16-.2-.05.15-.34,0-.43.12.11.15.49,0,.58.08"/><path class="cls-1" d="M122.35,99.4c-.23,0-.06,0-.2.12.24-.05.69.13.73-.16l-.54,0Z"/><path class="cls-1" d="M81.18,99.55l0,0h.39c0-.24-.52,0-.52-.2l-.23.2c.21,0,.21-.1.39,0"/><path class="cls-1" d="M103.16,99.47a3,3,0,0,0,1.45-.07,5.3,5.3,0,0,0-1.45.07"/><path class="cls-1" d="M105.75,99.55c-.08,0,.21,0,.11-.15h-.31c-.25-.13-.33.23-.47,0h-.28v.12c.49.19.62-.18.94,0"/><path class="cls-1" d="M106.76,99.55l.28,0c0-.15,0-.23-.16-.2v.07c-.08,0-.18,0-.23,0l0,0h-.15l0,.07h-.08c.08.06.36.05.28.08"/><path class="cls-1" d="M106.68,99.4h0"/><path class="cls-1" d="M110.16,99.47V99.4h-.47c.06.17-.33,0-.28.07s0,0-.08,0l0,0a.59.59,0,0,0-.47.12,7.6,7.6,0,0,0,1.25-.05"/><path class="cls-1" d="M125.22,99.75c.05,0,.1-.1.16-.08,0-.22-.24-.05-.39-.15a.1.1,0,0,1,.08-.05c-.31,0-.28-.13-.58-.07,0,.07.07.23-.08.23s0-.11,0-.2l0,0c-.06,0-.15,0-.19,0l-.42.2v.08c-.13,0-.23.07-.2.2.28,0,.6-.21.9-.2.34-.18.63.13.86.28a.51.51,0,0,0,.39-.05c-.11-.1-.32-.1-.47-.2"/><path class="cls-1" d="M79.93,99.63l0,0c.09,0,.11.11.13.17a1,1,0,0,0,.67-.28c-.23.15-.67,0-1-.08l0,.05-.34,0c.18.26.33-.08.54.08"/><path class="cls-1" d="M95.13,99.47a.26.26,0,0,0,0,.06h0Z"/><path class="cls-1" d="M97,99.64h0"/><path class="cls-1" d="M97.78,99.87s0,0,0,0"/><path class="cls-1" d="M101,99.94l0,.05h0a.14.14,0,0,0,0-.05"/><path class="cls-1" d="M99.17,99.91h0l.08-.05s-.05,0-.08,0"/><path class="cls-1" d="M97.51,99.71h0"/><path class="cls-1" d="M97.19,99.67h0l.06,0s-.06,0-.08,0"/><path class="cls-1" d="M99.31,100.11l.23-.08c.13.18.33,0,.5.08s.49.08.47,0c.08.13.38.1.47,0v0a.36.36,0,0,0,.31-.08s0,0,0,.08l.13-.11s-.1,0-.13,0l.05-.05c-.13,0-.2.16-.43.05a.41.41,0,0,1-.35,0,.08.08,0,0,1,.08-.05,11.33,11.33,0,0,1-1.49,0c-.33.17-.76-.17-1.1-.17l.05,0c-.26,0-.49,0-.67,0a.1.1,0,0,1,0,0c-.11,0-.22,0-.3,0s-.06,0-.25,0l0,0c-.43.06-.91-.17-1.16.16-.11-.32-.59,0-.69-.27l-.18.11a2.5,2.5,0,0,0-1.06-.11c.18.33.63,0,.86.28l0,0c.29-.13.65.15.86-.12.17.41.47,0,.62.15h0l0,0c.1,0,.28,0,.31.08,0-.18.24,0,.31,0s0-.13.05-.16l.19.16c.08.1.13-.25.2,0,.2-.07.23.1.34.15s0-.17,0-.23,0,0,0,0h0c.24-.15,0,.28.23.2,0-.07.09-.12.13-.2.15.38.31-.13.46.2.28-.36.36.31.75.08Z"/><path class="cls-1" d="M108.29,99.47H108c.09.25.13.06.28,0"/><path class="cls-1" d="M121.57,99.82l.22,0v-.25h-.31v.08h-.11a.08.08,0,0,1,0-.08c0,.15-.1,0-.2.08l0,0c-.47.29-.73-.16-1.06.24.1,0,.3,0,.23.08,0-.15.54-.05.63-.08l0,0c.29,0,.39-.21.67-.06l0,0"/><path class="cls-1" d="M80.71,99.83c.24.06.24-.13.47-.08-.16-.13-.41.1-.47,0Z"/><path class="cls-1" d="M110.11,100.85c.13.13.08,0,.19,0s.13-.39.28-.56l0,0v-.13c0-.07.15,0,.23,0v-.11c0-.07.11,0,.16,0a.62.62,0,0,1,0,.64l.11.08c0-.08,0-.18,0-.25l0,0c0-.13-.07-.33.08-.36v-.28h-.67c0,.48-.38.59-.47.9"/><path class="cls-1" d="M103.83,100.22v0c.08-.08.37,0,.31,0v0c-.18.06-.34-.15-.39,0v0c-.42,0-1,0-1.45,0-.06.2.08,0,0,.23l0,0,.16.11v-.11c.15-.18.1.15.28,0s.07-.11.11-.16c.1.13.54.1.7,0s.06.18.19.11"/><path class="cls-1" d="M101.84,100.14l-.08-.08,0,0h-.15v.12h0l.08.08c.11.07,0-.11.16-.08"/><path class="cls-1" d="M107.51,100.31c.24.13.15-.1.39-.08,0,0,0,0,0,.08.21.06.26-.11.39-.16s.23.11.36.16c0-.26.36-.1.45-.2s-.1,0-.11,0c-.49-.2-.86.21-1.32.08v0h-.24c0,.06,0,.15,0,.2"/><path class="cls-1" d="M109.52,100.26c.1,0,.08-.15.08-.23h-.28a.21.21,0,0,0,.19.23"/><path class="cls-1" d="M116.29,100.19c-.06,0-.13,0-.13-.08-.2,0-.41,0-.43.2l.78.08v-.08h.11a.22.22,0,0,0-.15-.28c-.13.13,0,0-.08.16Z"/><path class="cls-1" d="M105.47,100.22v0c-.11,0-.26,0-.2.11l.39.08c.39-.2.75,0,1.06-.17.28.41.31-.16.62.08v-.11c-.37.08-.51-.18-.81-.08-.24.33-.76-.17-1.06.11"/><path class="cls-1" d="M107.65,100.81s-.07.11-.15.08-.1,0-.08-.08h-.19c-.21.21-.62-.16-.67.08-.08,0-.11-.08-.16-.08-.6.23-1.19-.11-1.82,0l0,0,0,0c0,.1-.08.38.11.28-.06-.17.1-.17.15-.25s0,.15,0,.05l0-.05c0,.15.29,0,.19.25h.11V101c.18-.15.25,0,.44,0l-.05,0a5,5,0,0,0,1,0v0h.16V101a.39.39,0,0,0,.2,0c.08,0,.18.13.16.06a1.73,1.73,0,0,0,.7-.2c.13,0,0,.15.08,0,.31,0,.77.15.85-.11.25.15.43,0,.71.06,0-.26.41-.08.46-.19h-1.28c-.25.18-.73,0-1,.16"/><path class="cls-1" d="M97.61,100.81c-.36-.18-.49.1-1,0v.11a2.67,2.67,0,0,1,.19.31v-.12s0-.13.08-.11l.08-.08a.3.3,0,0,1,.23.25.3.3,0,0,1,.47-.08l.16-.36c-.15,0-.2.08-.25.08"/><path class="cls-1" d="M99.11,100.81c-.2-.08-.49.06-.63,0,0,.23.18.1.24.23,0-.08.25,0,.31,0s-.06-.07,0-.17Z"/><path class="cls-1" d="M99.53,100.85s0,0,0-.06l-.26,0c0,.51.34,0,.42.36l0-.05.05,0s.23,0,.15-.19-.31,0-.42,0"/><path class="cls-1" d="M100.93,101.18l0-.05Z"/><path class="cls-1" d="M101.52,100.93a.41.41,0,0,1-.39,0v0c-.1,0-.24.15-.39,0l0,0s-.13,0-.16,0l0,0c-.18,0-.28-.08-.44,0s-.13.28-.19.43l.39-.23c.24,0,.16.23.24.4,0-.13-.1-.22,0-.31s.21,0,.28,0l0,0a.68.68,0,0,1,.55.15l.11-.2-.2-.15Z"/><path class="cls-1" d="M85.7,101.41c.18,0,.49.1.52-.12a.14.14,0,0,1-.13,0l0,0-.31-.12,0,0c-.08,0,0-.1,0-.15h-.12l0,.08H85.7a.31.31,0,0,0,0,.43"/><path class="cls-1" d="M102.82,100.93s0,.05-.08.05V101c.08.11.39-.06.31.2l.16-.15,0,0s0,0,0-.06l0,0v-.11h-.55Z"/><path class="cls-1" d="M104.14,100.9l.08,0-.58.05a.19.19,0,0,0,.19.26c0-.05,0-.12,0-.15s.18,0,.25,0l-.05.05a.3.3,0,0,0,.16-.28Z"/><path class="cls-1" d="M101.79,101c0,.08.16.16.24.2-.08,0,0-.3-.24-.2"/><path class="cls-1" d="M112.39,101.91V102c.11.16.36.13.5.08h-.11a.1.1,0,0,1-.13-.11c-.15.16-.1-.15-.26,0"/><path class="cls-1" d="M112.26,103.21c.11-.1.44,0,.39-.11a.09.09,0,0,1,0,.08l.11,0,0,0c.13.21.24,0,.36-.08l-.62-.06-.28.06a1.19,1.19,0,0,1-.75-.06c0-.05,0-.13,0-.17a.14.14,0,0,1,.23,0c.21-.23.65-.08,1-.13l0,0,.15-.08a3,3,0,0,1-1-.08,1.09,1.09,0,0,1-.74.28s-.16,0-.23,0-.29.11-.16.26.58.1.58.33a2.57,2.57,0,0,1-.93.2c0-.15-.15,0-.19-.13a4.27,4.27,0,0,1-.64,0l0,0a2.33,2.33,0,0,0-.36.17.39.39,0,0,1-.08.28.8.8,0,0,1-.47-.08s0,.06,0,.08l-.08-.08c-.15.15-.52.05-.62.08v.08c.25,0,.2.11.43,0,.21.26.89-.1,1.22,0,.21-.43,1,.16,1.4-.2.28-.15.73,0,.81-.31s.47,0,.39-.16"/><path class="cls-1" d="M115.24,102.59c-.26-.35-.59,0-.39.28-.05-.18.36-.08.39-.28"/><path class="cls-1" d="M86.44,102.82h0"/><path class="cls-1" d="M89.22,103.17c.13,0,.32.07.39-.08a.15.15,0,0,0-.19-.11c-.08.11-.36.1-.42.16l.16.06,0,0Z"/><path class="cls-1" d="M85.12,103.38a.15.15,0,0,0,0,0,0,0,0,0,0,0,0"/><path class="cls-1" d="M116.44,103.49a5.08,5.08,0,0,0,1.45-.28,4.74,4.74,0,0,1-1,0l0,0s.1,0,.11,0-.1,0-.15,0a1.71,1.71,0,0,0-.83.31c-.51.24-1.19-.49-1.63,0-.41.17-.26-.25-.63-.16l-.47.08c.13.06,0,.11,0,.2s0,0,0-.08-.23,0-.43.08l0,0-.36.13c-.28-.15.21-.18,0-.48-.06.1-.31.11-.28.28a.2.2,0,0,0,.19.26l0,0c.28,0,.67-.26.85-.08v-.08a.52.52,0,0,0,.39,0v0l.83,0,0,0,.14-.06c.18,0,.46-.27.62-.08a3.79,3.79,0,0,0,1.3,0c.18,0-.16-.11-.16-.11l0,0c-.11-.13.08-.15.08-.25"/><path class="cls-1" d="M114.43,104l-.06,0,.06,0"/><path class="cls-1" d="M82.71,103.26v0c-.16.18.11.08.11.19v-.06a.83.83,0,0,0,.5-.13,1.65,1.65,0,0,1-.62,0"/><path class="cls-1" d="M123.39,103.41h0s0,0,0,0"/><path class="cls-1" d="M123.78,103.54l.05-.08c-.1,0-.3,0-.44,0s-.08.06-.12,0v0c-.19-.06-.39.11-.5,0l-.08.08c-.18-.21-.37-.15-.7-.16v.11c-.47.3-.73.23-1.17.53,0,0,.07,0,0-.08a3,3,0,0,0-.91,0c0,.16.13-.05.16,0l0,0a.71.71,0,0,1,.57.14,3.27,3.27,0,0,1,1.33,0v0l.2-.11a1.08,1.08,0,0,1-.39,0,1.6,1.6,0,0,1,1.53-.35c.06-.13.18.07.15,0,.19-.08.18.07.31,0"/><path class="cls-1" d="M97.81,103.93a8.77,8.77,0,0,0-2-.2l.05,0h-.7c-.11-.25-.49.18-.72-.11l0,0c-.26-.1-.37.17-.5.07l0,0c-.23,0-.28.17-.5.15,0-.06-.21,0-.16-.15l-.34,0,0,0c-.21,0-.39.18-.59.12l0,0-.81.08v0l-.08.2,1.45,0c.1.11.08,0,.19,0s0,0,0,0h0l0,0,.08.08V104a2,2,0,0,1,.62,0v0l.81,0v0l.08-.07c.1,0,.11.07.16.07v-.07c.06,0,.15,0,.19,0l0,0c.18,0,.32,0,.44,0l0,0,.16,0a4,4,0,0,1,.9,0c.19,0,.4-.15.63,0v0c.24.05.31-.1.53,0s0-.18.16,0,.57.1.67,0c-.44,0-.42-.39-.91-.11"/><path class="cls-1" d="M93.32,104.09s0,0,0,0"/><path class="cls-1" d="M102.54,103.69c.42,0,.24-.2.7-.11-.36-.17-.86.13-1.17,0v0c-.31-.1-.42.17-.7.07l0,0c0,.06-.1,0-.15,0a2.89,2.89,0,0,0,1.24,0s0,.13,0,0"/><path class="cls-1" d="M117.33,103.77c-.06,0-.21,0-.26.08s.17.07.23.11l0,0c.18-.15.3.16.39-.08l0,0c-.1-.06-.24,0-.28-.11"/><path class="cls-1" d="M117.85,103.88h.28l.11,0c-.11-.16-.26,0-.39,0"/><path class="cls-1" d="M124,103.77c0,.15-.18,0-.26.08a.17.17,0,0,1,0,.09l.44.06c.06-.15-.12-.23-.16-.23"/><path class="cls-1" d="M122.5,103.94a1.21,1.21,0,0,0,.43,0v0l.42,0s-.06,0-.08,0c-.22,0-.67-.12-.77.05"/><path class="cls-1" d="M102.1,104.35a4.81,4.81,0,0,0,1.3,0c.16-.12.14,0,.19,0v-.07a5.09,5.09,0,0,0-1.5.11"/><polygon class="cls-1" points="64.58 118.41 65.31 119.26 66.17 118.54 65.42 117.68 64.58 118.41"/><polygon class="cls-1" points="114.34 78.79 114.38 78.82 114.38 78.82 114.34 78.79"/><polygon class="cls-1" points="64.58 118.41 65.31 119.26 66.17 118.54 65.42 117.68 64.58 118.41"/><polygon class="cls-1" points="114.34 78.79 114.38 78.82 114.38 78.82 114.34 78.79"/><polygon class="cls-1" points="64.58 118.41 65.31 119.26 66.17 118.54 65.42 117.68 64.58 118.41"/><polygon class="cls-1" points="114.34 78.79 114.38 78.82 114.38 78.82 114.34 78.79"/></svg>