<svg id="Layer_1" data-name="Layer 1" xmlns="http://www.w3.org/2000/svg" viewBox="0 0 200 200"><defs><style>.cls-1{fill:#727988;}</style></defs><title>Pfizer</title><path class="cls-1" d="M153,100c0,18.41-23.73,33.33-53,33.33a79.13,79.13,0,0,1-24-3.6l9.38-35H90l-4.15,15.59h6.73l4.74-17.82H86L89.6,79c.45-1.69,2.28-4.25,4.77-4.25,1.48,0,3.31.74,3.4,1.68a3.7,3.7,0,0,0-3.44,3.77,3.54,3.54,0,0,0,3.44,3.6,4.23,4.23,0,0,0,3.82-4.42c-.1-1.88-1.2-5.6-7.22-5.74-7-.16-11.81,6.08-13.53,12.39-1,3.75-3.55,12.71-5.71,20.85L69.6,127.3c-13.67-6-22.6-16-22.6-27.3,0-18.41,23.73-33.33,53-33.33S153,81.59,153,100ZM60.26,110.35l2.2-8.22c11.27.17,13.45-2.55,15-9.6,1.1-4.93-1.62-8.74-6.55-8.74H57.48L56.88,86h3l-6.46,24.33ZM66.73,86c3.53-.14,4.89.7,3.53,6.51-1.77,7.49-3.92,7.37-7.2,7.37L66.73,86ZM150,95.69A3.53,3.53,0,0,0,146.65,92a6.48,6.48,0,0,0-5.12,3.41l.74-2.9h-9.19l-.59,2.23H135l-4.15,15.59h6.73s2.52-9.4,2.51-9.42c1-2.91,2.85-6.3,3.4-5.84a3.33,3.33,0,0,0,3.21,4.27A3.53,3.53,0,0,0,150,95.69Zm-31.12,6.44h11.33a5.62,5.62,0,0,0,.18-.77c1.25-5.91-1.69-9.68-6.36-9.68-5.05,0-9.73,1.71-11.68,9.68-1.3,5.28,1.53,9.51,6.53,9.68,4.49.15,8.74-1.1,10.86-7.2h-6.89l-.41,1.54c-.82,3.09-1.92,3.43-3.13,3.43s-1.81-1.54-1.3-3.43l.87-3.25Zm1.26-4.8c.51-1.89,1.64-3.51,3.13-3.43s1.81,1.54,1.3,3.43l-.64,2.4h-4.43l.64-2.4ZM109.9,108.13h-5.74l9.89-15.59H99.62L99,94.76h5.74L95,110.35h14.27l.59-2.23Z"/></svg>