<svg id="Layer_1" data-name="Layer 1" xmlns="http://www.w3.org/2000/svg" viewBox="0 0 200 200"><defs><style>.cls-1{fill:#727988;fill-rule:evenodd;}</style></defs><title>TBWA</title><polygon class="cls-1" points="58.95 116.93 55.17 116.93 55.17 86.57 47 86.57 47 83.07 67.21 83.07 67.21 86.57 58.95 86.57 58.95 116.93 58.95 116.93"/><path class="cls-1" d="M68.21,83.07h5.57c6.15,0,11.32,2.25,11.32,9.16a7.51,7.51,0,0,1-3.32,6.6,8.61,8.61,0,0,1,6.42,8.67c0,6.74-5.43,9.43-12.12,9.43H68.21V83.07ZM72,113.43h3.77c4.22,0,8.67-1,8.67-6.2s-5-6-9.16-6H72v12.21ZM72,98h1.44c4.27,0,7.9-.49,7.9-5.75s-3.23-5.66-7.86-5.66H72V98Z"/><path class="cls-1" d="M130.37,107.32l-4.09,9.61h-4.13l15.63-35.48L153,116.93h-4.18l-4-9.61Zm7.32-17.06-5.79,13.56h11.45l-5.66-13.56Z"/><polygon class="cls-1" points="96.61 108.44 107.56 81.32 118.52 108.44 127.41 83.07 131.5 83.07 118.52 118.68 107.56 91.42 96.61 118.68 83.63 83.07 87.72 83.07 96.61 108.44 96.61 108.44"/></svg>