<svg id="Layer_1" data-name="Layer 1" xmlns="http://www.w3.org/2000/svg" viewBox="0 0 200 200"><defs><style>.cls-1{fill:#727988;}</style></defs><title>WhiteCase</title><path id="path14999" class="cls-1" d="M103.51,102.12a1.32,1.32,0,0,1-.25-.77,1.18,1.18,0,0,1,.07-.41,2.27,2.27,0,0,1,1.27-1.24l2,2.31a2.2,2.2,0,0,1-.92.64,1.83,1.83,0,0,1-2.15-.53m-1-6v1.09l1.26,1.52a3.6,3.6,0,0,0-1.79,2,2.2,2.2,0,0,0-.12.74,2.43,2.43,0,0,0,.46,1.43,3.36,3.36,0,0,0,3.86,1,4.05,4.05,0,0,0,1.2-.82l.72.85H110l-5.42-6.44h3.87v-1.3Z"/><path id="path15003" class="cls-1" d="M96.27,97.34H90.73V99.1h3.73v1.34H90.73v2h5.63v1.34H89.07V96.09h7.2Z"/><path id="path15007" class="cls-1" d="M152.91,97.34h-5.54V99.1h3.73v1.34h-3.73v2H153v1.34h-7.29V96.09h7.2Z"/><path id="path15011" class="cls-1" d="M52.12,96.17l-1.75,5.13-1.79-5.12H47l2.72,7.52H51l1.85-5.55,1.91,5.55H55.9l2.64-7.52H57l-1.71,5.12-1.75-5.13Z"/><path id="path15015" class="cls-1" d="M68.14,99.06v-3h1.68v7.65H68.14v-3.25H63.45v3.25H61.77V96.09h1.67v3Z"/><path id="path15017" class="cls-1" d="M73.67,96.09h1.65v7.65H73.67Z"/><path id="path15021" class="cls-1" d="M83.07,103.74H81.41V97.45h-3V96.09h7.76v1.36h-3Z"/><path id="path15025" class="cls-1" d="M115.31,97.16a3.81,3.81,0,0,0-1.08,2.77c0,2.71,2.14,3.92,4.25,3.92a6.09,6.09,0,0,0,3.07-1l0,0-.63-1.14,0,0a4.14,4.14,0,0,1-2.43.72,2.55,2.55,0,0,1-2.74-2.57,2.6,2.6,0,0,1,2.74-2.63,5.7,5.7,0,0,1,2.43.65l0,0,.61-1.23a6.69,6.69,0,0,0-3.07-.74,4.42,4.42,0,0,0-3.17,1.2"/><path id="path15029" class="cls-1" d="M125.78,103.74l.76-1.64H130l.8,1.64h2.08l-4.06-7.65h-1.23l-3.81,7.65Zm2.5-5.67,1.11,2.71h-2.25Z"/><path id="path15033" class="cls-1" d="M135.36,103l.53-1.23a5.9,5.9,0,0,0,2.78.81c.64,0,2.35-.14,2.36-1,0-1.78-5.93.39-5.89-3.17,0-1.21,1.16-2.4,3.57-2.37a7.64,7.64,0,0,1,3.4.81L141.51,98a6.39,6.39,0,0,0-2.76-.72c-.86,0-1.93.22-1.93.87,0,1.84,5.92-.24,5.88,3.25,0,2-2.43,2.46-4,2.45a5.73,5.73,0,0,1-3.33-.83"/></svg>