<svg id="Layer_2" data-name="Layer 2" xmlns="http://www.w3.org/2000/svg" viewBox="0 0 2106 67.9"><defs><style>.cls-1,.cls-2,.cls-3,.cls-4{fill:none;stroke-miterlimit:10;stroke-width:0.55px;}.cls-1{stroke:#2e3192;}.cls-2{stroke:#fff200;}.cls-3{stroke:#00a651;}.cls-4{stroke:#da1c5c;}</style></defs><title>lines_seperator_3</title><path class="cls-1" d="M-1.63,23.21c47.25-8.75,102.18,6.06,156.86,6.69,52.19.61,106.4-13.36,156.58-8.92,51.52,4.56,102.55,27.46,155.13,30.73C519.23,55,571.72,38.59,623.84,35.25c49.87-3.2,99.44,7,147.46,1.11S866.79,8.32,917,10.84c44.26,2.22,82.87,27.36,123.45,34.07s82.39-5,127-6.2c29.19-.79,57.55,13,84.14,8.88,26.86-4.17,51.51-26.26,80.3-28.44,45.36-3.44,90.47,16.79,135.88,20.75,44.92,3.92,91.21-8.46,136.86-6.4C1690,37.36,1776.45,47.63,1862,41.14c86.86-6.6,173.21-29.91,257.21-22"/><path class="cls-2" d="M-25.55,50.14c37.49-9.5,84.71,3.75,131.49,2.85,43.19-.83,88.48-16.53,130.61-13.43,44,3.25,86.7,25.2,130.87,28.38,43.85,3.15,88.3-12.48,132.87-13.73,34.11-1,68.37,13.81,101,10.27,33.34-3.61,64.32-25.5,97.51-29.22,32.82-3.68,68.52,10.84,102.9,9.57S871.29,26.51,904.18,30.2c29.24,3.28,53,26.32,79.68,31.69,26.41,5.32,55.48-7,85.09-4.56,59.06,4.93,116.71,16.28,174.29,8.39C1299.91,57.94,1355.46,30.95,1415,29c40.89-1.36,80.72,18.48,120.79,21.77,40.34,3.31,81.87-9.9,122.26-6.85,79.54,6,162.26,24.08,242.5,19.34,85.5-5.05,165.55-33.44,237.93-49.8"/><path class="cls-3" d="M-22.93,45.59C2.34,33.24,44.68,40.31,87,34.51c34.12-4.68,70.53-24.47,107.56-23.6,48.2,1.14,93.13,24.64,139.25,29.87s93.16-7.77,141.4-9.19C524.57,30.14,571.73,40,617.29,33S707.44,2,757,3.2c32.85.79,61.72,22.48,91.92,26.92,30.44,4.48,62.59-8.27,95.09-6.1,50.31,3.35,100.73,17.74,151.32,13.84,50.05-3.86,99.79-26,150.58-25.4,31.68.39,61.79,20.41,92.68,22.85s62.7-12.7,94.35-12c38.27.8,76.4,16.55,114.07,14.05S1621.46,14,1659.57,12.49c81.61-3.34,161.95,18,241.15,25.27,82,7.51,164.32,1.24,242.06,12.4"/><path class="cls-4" d="M-27.58,11.19C29.42,9.39,82,33.92,135.68,41.52,189.14,49.1,244,39.75,301,40.66c47.28.76,93.38,14.07,138.45,8.89,45.28-5.21,88.86-28.91,135.7-31.63,94.13-5.47,188.28,20.46,282.56,28.58,94.52,8.13,189.08-1.55,283-7.87,40.11-2.7,80,9.66,118.25,4.65,38.08-5,74.72-27.35,115.08-29.19,61.15-2.78,121.19,19,181.69,23.9,60.17,4.88,121.26-7.13,182.63-6.74,32.55.2,65.21,16.6,97.49,15.09s64-20.92,96.49-21.63c30.35-.66,61.54,17.42,91.36,19.62,34,2.51,69.11-9.88,93.76-1.73"/></svg>