<svg id="Layer_2" data-name="Layer 2" xmlns="http://www.w3.org/2000/svg" viewBox="0 0 2106 56.94"><defs><style>.cls-1,.cls-2,.cls-3,.cls-4{fill:none;stroke-miterlimit:10;stroke-width:0.55px;}.cls-1{stroke:#2e3192;}.cls-2{stroke:#fff200;}.cls-3{stroke:#00a651;}.cls-4{stroke:#da1c5c;}</style></defs><title>lines_seperator_2</title><path class="cls-1" d="M-1.63,16.16c47.25-8.75,102.18,6.06,156.86,6.69,52.19.61,106.4-13.36,156.58-8.92,51.52,4.56,102.55,27.46,155.13,30.73,52.29,3.25,104.78-13.11,156.89-16.45,49.87-3.2,99.44,7,147.46,1.11S866.79,1.27,917,3.79C961.29,6,999.89,31.15,1040.48,37.87s82.39-5,127-6.2c29.19-.79,57.55,13,84.14,8.88,26.86-4.17,51.51-26.26,80.3-28.44,45.36-3.44,90.47,16.79,135.88,20.75,44.92,3.92,91.21-8.46,136.86-6.4C1690,30.31,1776.45,40.58,1862,34.08c86.86-6.6,173.21-29.91,257.21-22"/><path class="cls-2" d="M-25.55,28.09c37.49-9.5,84.71,3.75,131.49,2.85,43.19-.83,88.48-16.53,130.61-13.43,44,3.25,86.7,25.2,130.87,28.38,43.85,3.15,88.3-12.48,132.87-13.73,34.11-1,68.37,13.81,101,10.27,33.34-3.61,64.32-25.5,97.51-29.22,32.82-3.68,68.52,10.84,102.9,9.57S871.29,4.46,904.18,8.14c29.24,3.28,53,26.32,79.68,31.69,26.41,5.32,55.48-7,85.09-4.56,59.06,4.93,116.71,16.28,174.29,8.39C1299.91,35.89,1355.46,8.9,1415,6.92c40.89-1.36,80.72,18.48,120.79,21.77,40.34,3.31,81.87-9.9,122.26-6.85,79.54,6,162.26,24.08,242.5,19.34,85.5-5.05,165.55-33.44,237.93-49.8"/><path class="cls-3" d="M-4.1-.78C21.17,11.58,53.33,37.91,95.61,43.71c34.12,4.68,72.52-10.72,109.55-11.6,48.2-1.14,95.55,10.61,141.67,5.38S438.52,10,486.75,11.43c49.39,1.46,93.33,26.72,138.9,33.75S718.06,41,767.59,39.82c32.85-.79,64.72,12.7,94.92,8.26C893,43.6,921.36,21.2,953.87,19c50.31-3.35,100.54,17.54,151.13,21.44,50.05,3.86,100.94-9.3,151.73-9.92,31.68-.39,63.39,14.9,94.29,12.46s60.93-22.61,92.59-23.27c38.27-.8,75.6,18.77,113.27,21.27S1633.24,29,1671.35,30.54c81.61,3.34,162.83,17.26,242,10C1995.36,33,2073.58,4.19,2151.32-7"/><path class="cls-4" d="M-27,47.81c57,1.8,111.55,12.46,165.19,4.85,53.46-7.58,105.59-33.42,162.58-34.33C348,17.58,392.39,39.51,437.46,44.7c45.28,5.21,91.91-6.31,138.75-3.59,94.13,5.47,188.77,14.81,283,6.7C953.78,39.67,1048,14.1,1141.91,20.41c40.11,2.7,76.51,25.52,114.76,30.53,38.08,5,77.82-7.84,118.18-6,61.15,2.78,121.82,16.3,182.32,11.39,60.17-4.88,119.72-28.18,181.09-28.57,32.55-.2,64.49,18.75,96.78,20.26s65.2-14.42,97.7-13.72C1963.09,35,1995.19,52.19,2025,50c34-2.51,62.26-24.54,86.91-32.69"/></svg>