<?xml version="1.0" encoding="utf-8"?>
<!-- Generator: Adobe Illustrator 22.1.0, SVG Export Plug-In . SVG Version: 6.00 Build 0)  -->
<svg version="1.1" id="Layer_1" xmlns="http://www.w3.org/2000/svg" xmlns:xlink="http://www.w3.org/1999/xlink" x="0px" y="0px"
	 viewBox="0 0 132 25" style="enable-background:new 0 0 132 25;" xml:space="preserve">
<style type="text/css">
	.st0{fill:#EE3361;}
	.st1{fill:#393D44;}
	.st2{fill:#364798;}
	.st3{fill:url(#SVGID_1_);}
	.st4{clip-path:url(#SVGID_3_);fill:#364798;}
	.st5{fill:url(#SVGID_4_);}
	.st6{fill:url(#SVGID_5_);}
	.st7{fill:url(#SVGID_6_);}
	.st8{fill:url(#SVGID_7_);}
	.st9{fill:url(#SVGID_8_);}
	.st10{fill:url(#SVGID_9_);}
</style>
<g>
	<path class="st2" d="M48.4,18.7c-0.3,0.2-0.3,0.6-0.1,0.8c1.7,1.5,4.4,1.5,6.4-0.4c0.7-0.7,1.3-1.6,1.7-2.6
		c0.3-0.5,0.4-0.8,1.1-0.9c0.8-0.1,1.6-0.3,2.5-0.4c0.2,0,0.4,0.1,0.5,0.3c0.3,3.4-3.1,7.4-7.2,8.6c-4.3,1.2-8.9-1.3-10.6-5.8
		C41,14,42.7,9.4,47.4,7.1c4-2,8.5-0.6,11.4,3.6c0.2,0.2,0.1,0.6-0.1,0.7C55.3,13.8,51.8,16.2,48.4,18.7z M46.8,15.7
		c2.1-1.5,4.2-2.9,6.3-4.4c0.3-0.2,0.3-0.7-0.1-0.9c-1.7-0.9-3.5-0.7-5.2,0.5c-1.5,1.1-2.2,2.8-1.9,4.5C46,15.8,46.5,16,46.8,15.7z"
		/>
	<path class="st2" d="M63.7,6.8h3c0.3,0,0.5,0.2,0.5,0.5l0,0.4c0,0.3,0.4,0.4,0.6,0.3c0.5-0.4,1-0.7,1.5-1C72,5.7,75,6.2,76.9,8.3
		c0.9,1,1.3,2.4,1.3,3.7c0.1,3.8,0,7.7,0,11.5c0,0.1,0,0.1-0.1,0.2h-3.5c-0.3,0-0.5-0.2-0.5-0.5c0-2.4,0-4.8,0-7.2
		c0-1.3-0.1-2.5-0.4-3.7c-0.5-2.1-3.1-2.7-4.7-1.3c-1.2,1-1.6,2.4-1.6,3.9c0,2.6,0,5.2,0,7.9c0,0.2,0,0.3,0,0.5
		c0,0.3-0.2,0.5-0.5,0.5h-3.1c-0.3,0-0.5-0.2-0.5-0.5V7.4C63.2,7.1,63.4,6.8,63.7,6.8z"/>
	<path class="st2" d="M40.3,23.7h-9.5c-0.3,0-0.5-0.2-0.5-0.5V1.3c0-0.3,0.2-0.5,0.5-0.5H34c0.3,0,0.5,0.2,0.5,0.5v17.9
		c0,0.3,0.2,0.5,0.5,0.5h5.2c0.3,0,0.5,0.2,0.5,0.5v3C40.8,23.5,40.5,23.7,40.3,23.7z"/>
	<path class="st2" d="M86.2,0.4c0.3,0,0.5,0.2,0.5,0.5c0,1.6,0,3.2,0,4.8c0,0.9,0.3,1.2,1.1,1.1c0.3,0,0.6,0,0.9,0
		c0.3,0,0.5,0.2,0.5,0.5v2.6c0,0.3-0.2,0.5-0.5,0.5c-0.3,0-0.5,0-0.7,0c-1.3,0-1.3,0-1.3,1.2c0,3.7,0,7.5,0,11.2c0,0.1,0,0.2,0,0.4
		c0,0.3-0.2,0.5-0.5,0.5h-3.1c-0.3,0-0.5-0.2-0.5-0.5V17V11c0-0.3-0.2-0.5-0.5-0.5H81c-0.3,0-0.5-0.2-0.5-0.5V7.3
		c0-0.3,0.2-0.5,0.5-0.5h1.1c0.3,0,0.5-0.2,0.5-0.5V0.9c0-0.3,0.2-0.5,0.5-0.5H86.2z"/>
	<path class="st2" d="M98.5,7.2c-0.3,0.9-0.6,1.8-1,2.6c-0.1,0.2-0.3,0.4-0.5,0.3c-1.9-0.2-2.9,0.5-3,2.6c-0.2,3.3-0.2,6.6-0.2,10
		c0,0.2,0,0.3,0,0.5c0,0.3-0.2,0.5-0.5,0.5l-3.1,0c-0.3,0-0.5-0.2-0.5-0.5V7.4c0-0.3,0.2-0.5,0.5-0.5h2.5c0.3,0,0.5,0.2,0.5,0.5
		l0,0.5c0,0.2,0.2,0.3,0.4,0.2C94.3,7.5,95,7,95.7,6.6c0.8-0.4,1.7-0.4,2.5,0C98.5,6.7,98.6,6.9,98.5,7.2z"/>
	<linearGradient id="SVGID_1_" gradientUnits="userSpaceOnUse" x1="125.3112" y1="12.5129" x2="133.3664" y2="4.4577">
		<stop  offset="1.006390e-07" style="stop-color:#D21E46"/>
		<stop  offset="0.9967" style="stop-color:#334798"/>
	</linearGradient>
	<path class="st3" d="M131.7,7.6c-1.7,2.3-3.2,4.5-4.9,6.8c-0.1,0.1-0.2,0.1-0.3,0c-0.8-1-1.6-1.9-2.4-2.9c-0.1-0.1-0.1-0.2,0-0.2
		c0.9-1.2,1.7-2.4,2.5-3.5c0.1-0.2,0.4-0.5,0.6-0.5c1.4,0,2.7,0,4.2,0C131.7,7.3,131.7,7.5,131.7,7.6z"/>
	<g>
		<defs>
			<rect id="SVGID_2_" x="96.7" y="6.7" width="17.7" height="17.9"/>
		</defs>
		<clipPath id="SVGID_3_">
			<use xlink:href="#SVGID_2_"  style="overflow:visible;"/>
		</clipPath>
		<path class="st4" d="M110,23.6c0-0.4,0-0.7-0.1-1.1c-0.2,0.1-0.3,0.1-0.4,0.2c-4.6,4.2-11.4,1.1-12.7-4.6c-0.8-3.9-0.1-7.4,3.3-10
			c2.6-2,6.2-2,8.8,0c0.3,0.2,0.5,0.4,1,0.7c0-0.5,0.1-0.9,0.1-1.3c0-0.3,0.3-0.5,0.5-0.5c1.1,0,2.3,0,3.4,0c1.3,0,2.5,0.1,3.8,0.1
			c0.7,0,1,0.3,1.3,0.7c2.9,4,5.7,7.9,8.6,11.9c0.9,1.3,1.8,2.5,2.8,3.9c0.1,0.2,0,0.5-0.2,0.5c-1.4,0-2.8,0-4.1,0
			c-0.2,0-0.4-0.3-0.5-0.4c-1.2-1.6-2.4-3.3-3.7-5.1c-0.7,0.9-1.3,1.8-2,2.7c-0.7,0.9-1.2,2.2-2.1,2.7c-0.9,0.5-2.1,0.2-3.2,0.2
			c-1.4,0-2.7,0-4.1,0C110.3,24.1,110,23.9,110,23.6z M110.2,15.7c0-0.2,0-0.3,0-0.5c0-1.9-1.1-3.6-2.9-4.3
			c-1.8-0.7-3.7-0.3-5.1,1.1c-1.3,1.3-1.6,2.9-1.3,4.6c0.4,3.2,3.4,5.1,6.5,3.8C109.4,19.5,110.2,17.8,110.2,15.7z M114.4,21.9
			c0.1,0,0.1,0,0.2,0.1c1.6-2.2,3.2-4.4,4.7-6.6c0.1-0.2,0-0.6-0.2-0.8c-1.1-1.6-2.2-3.1-3.4-4.7c-0.4-0.5-0.8-1-1.3-1.7V21.9z"/>
	</g>
	<path class="st2" d="M116.2,8.5c-0.1-0.1-0.1-0.1-0.2-0.2v0L116.2,8.5z"/>
	<path class="st2" d="M116.4,21.8c-0.1,0.1-0.1,0.2-0.2,0.3h0l-0.1,0.2C116.1,22.1,116.3,21.9,116.4,21.8z"/>
	<path class="st2" d="M131.7,24.2c-1.4,0-2.8,0-4.1,0c-0.2,0-0.4-0.3-0.5-0.4c-1.2-1.6-2.4-3.3-3.7-5.1c-0.7,0.9-1.3,1.8-2,2.7
		c-0.7,0.9-1.2,2.2-2.1,2.7c-0.9,0.5-2.1,0.2-3.2,0.2c-0.1,0-0.1,0-0.2,0v0c-0.3,0-0.6,0-0.9,0c-0.2,0-0.4-0.3-0.2-0.5
		c0.4-0.5,0.7-1,1.1-1.4l0.1-0.2h0c0.1-0.1,0.1-0.2,0.2-0.3c0,0,0,0,0,0c1.5-2.1,3-4.2,4.5-6.3c0.1-0.2,0-0.6-0.2-0.8
		c-1.1-1.6-2.2-3.1-3.4-4.7c-0.3-0.5-0.7-0.9-1.1-1.5l0,0l-0.2-0.2l-0.5-0.7c-0.3-0.4,0.1-0.5,0.1-0.5l0.4,0c1.1,0,2.2,0.1,3.4,0
		c0.7,0,1,0.3,1.3,0.7c2.9,4,5.7,7.9,8.6,11.9c0.9,1.3,1.8,2.5,2.8,3.9C132.1,23.9,131.9,24.2,131.7,24.2z"/>
</g>
<g>
	<linearGradient id="SVGID_4_" gradientUnits="userSpaceOnUse" x1="0.8834" y1="15.2055" x2="21.6921" y2="15.2055">
		<stop  offset="1.006390e-07" style="stop-color:#D21E46"/>
		<stop  offset="0.9967" style="stop-color:#334798"/>
	</linearGradient>
	<path class="st5" d="M0.9,16.8c0.8,0.7,1.6,1.6,2.5,2.2c2.3,1.4,4.8,1.3,7.2,0.3c4.6-2,7.4-5.5,8.2-10.5c0.1-0.7,0.4-0.8,0.9-0.7
		c0.3,0.1,0.5,0.2,0.8,0.2c1.2,0.2,1.1,0.6,1,1.5C21.1,15.4,16,21.1,9.8,22.2C5.8,22.9,2,20.7,0.9,16.8C0.9,16.8,0.9,16.7,0.9,16.8z
		"/>
	<linearGradient id="SVGID_5_" gradientUnits="userSpaceOnUse" x1="-5.456968e-12" y1="14.2177" x2="16.3988" y2="14.2177">
		<stop  offset="1.006390e-07" style="stop-color:#D21E46"/>
		<stop  offset="0.9967" style="stop-color:#334798"/>
	</linearGradient>
	<path class="st6" d="M0.3,10.5c0.1,0.6,0.2,1.1,0.2,1.5c0.4,2.4,2.8,4,5.2,3.6c3.2-0.5,5.5-2.2,7-5c0.5-0.9,0.6-0.9,1.6-0.5
		c0.5,0.2,1,0.4,1.4,0.6c0.7,0.3,0.8,0.5,0.5,1.1c-1.9,3.6-4.7,6-8.9,6.8c-3.9,0.7-6.4-1.9-7.1-4.5C-0.1,12.9-0.1,12,0.3,10.5z"/>
	<linearGradient id="SVGID_6_" gradientUnits="userSpaceOnUse" x1="4.6406" y1="14.8285" x2="24.2551" y2="14.8285">
		<stop  offset="1.006390e-07" style="stop-color:#D21E46"/>
		<stop  offset="0.9967" style="stop-color:#334798"/>
	</linearGradient>
	<path class="st7" d="M4.6,22.1c1.1,0.3,2.1,0.7,3.1,0.9c2,0.4,3.8-0.2,5.6-0.9c5.1-2.1,8-6,9.2-11.3c0.4-1.7,0.1-3.4-0.4-5.1
		c0-0.1-0.1-0.2-0.1-0.3c0.7,0,1.1,0.3,1.4,1c2.6,7-0.7,14.5-7.7,17.2c-3.6,1.4-7.2,1.3-10.5-0.9C5,22.4,4.8,22.3,4.6,22.1z"/>
	<radialGradient id="SVGID_7_" cx="6.033" cy="7.6559" r="5.7576" gradientUnits="userSpaceOnUse">
		<stop  offset="1.006390e-07" style="stop-color:#D21E46"/>
		<stop  offset="0.9967" style="stop-color:#334798"/>
	</radialGradient>
	<path class="st8" d="M11.4,2.9c-0.9,0.4-1.7,0.8-2.5,1.2C8.7,4.2,8.4,4.1,8.3,4C7.3,2.9,6.2,3.1,5,3.6c-1.8,0.8-3.2,3-3,4.8
		c0.2,1.4,1.4,2.3,2.8,1.9c0.8-0.2,1.6-0.7,2.2-1.1c0.4-0.3,0.7-0.4,1.1,0c0.6,0.5,1.2,0.9,1.8,1.3c0.3,0.2,0.4,0.5,0.1,0.8
		c-1.8,1.9-4,2.9-6.7,2.4c-1.5-0.3-2.5-1.6-2.6-3C0.5,6.2,3.9,2.1,8.2,1.5C9.5,1.4,10.7,1.9,11.4,2.9z"/>
	<linearGradient id="SVGID_8_" gradientUnits="userSpaceOnUse" x1="11.6392" y1="17.1475" x2="25.1205" y2="17.1475">
		<stop  offset="1.006390e-07" style="stop-color:#D21E46"/>
		<stop  offset="0.9967" style="stop-color:#334798"/>
	</linearGradient>
	<path class="st9" d="M24.6,9.3c2.4,7.4-3.9,16.4-13,15.6C19.9,24.5,25.8,17.3,24.6,9.3z"/>
	<linearGradient id="SVGID_9_" gradientUnits="userSpaceOnUse" x1="8.0979" y1="0.5378" x2="13.1873" y2="0.5378">
		<stop  offset="1.006390e-07" style="stop-color:#D21E46"/>
		<stop  offset="0.9967" style="stop-color:#334798"/>
	</linearGradient>
	<path class="st10" d="M8.1,0.8c1.6-0.6,3.2-1,5.1-0.5c-0.7,0.6-1.4,0.9-2.4,0.6C9.9,0.8,9,0.8,8.1,0.8z"/>
</g>
</svg>
