<svg xmlns="http://www.w3.org/2000/svg" viewBox="0 0 40.32 45.37"><defs><style>.cls-1{fill:none;stroke:#ffca76;stroke-linecap:round;stroke-linejoin:round;}</style></defs><title>s4_icon_b</title><g id="Layer_2" data-name="Layer 2"><g id="Layer_3" data-name="Layer 3"><circle class="cls-1" cx="20.16" cy="17.96" r="10.56"/><path class="cls-1" d="M39.82,18c0,3.22-4.59,5.23-6.09,7.83S32.67,33.44,30,35s-6.62-1.37-9.83-1.37S12.92,36.49,10.33,35s-2.18-6.52-3.73-9.2S.5,21.18.5,18s4.59-5.23,6.09-7.83S7.65,2.49,10.33.94,16.94,2.3,20.16,2.3,27.39-.57,30,.94s2.18,6.52,3.73,9.2S39.82,14.75,39.82,18Z"/><path class="cls-1" d="M13.45,35.62v7.81a1.3,1.3,0,0,0,2.21.92l3.51-3.51a1.3,1.3,0,0,1,1.83,0l3.65,3.65a1.3,1.3,0,0,0,2.21-.92V35.85"/></g></g></svg>