<svg xmlns="http://www.w3.org/2000/svg" viewBox="0 0 132.3 105.64"><defs><style>.cls-1{fill:#444a57;}.cls-2{fill:#ed3763;}.cls-3{font-size:44.88px;fill:#fff;font-family:Moon-Bold, Moon;font-weight:700;}.cls-4{opacity:0.9;}.cls-5,.cls-6,.cls-7{fill:none;stroke-linecap:round;stroke-linejoin:round;}.cls-5{stroke:#fff;stroke-width:4px;}.cls-6{stroke:#444a57;}.cls-6,.cls-7{stroke-width:3px;}.cls-7{stroke:#3a3e45;}</style></defs><title>s1_icon_a</title><g id="Layer_2" data-name="Layer 2"><g id="Layer_3" data-name="Layer 3"><path class="cls-1" d="M56.07,15l52.43.26a9.24,9.24,0,0,1,9,7.27L132.24,90a2.11,2.11,0,0,1-3.4,2.09h0A62.35,62.35,0,0,0,89.37,78H68.73a9.24,9.24,0,0,1-8.89-6.71L47.14,26.78A9.24,9.24,0,0,1,56.07,15Z"/><path class="cls-2" d="M76.22,0,23.8.26a9.24,9.24,0,0,0-9,7.27L.05,75a2.11,2.11,0,0,0,3.4,2.09h0A62.35,62.35,0,0,1,42.92,63H63.57a9.24,9.24,0,0,0,8.89-6.71L85.16,11.78A9.24,9.24,0,0,0,76.22,0Z"/><text class="cls-3" transform="translate(30.13 46.94)">G</text><g class="cls-4"><line class="cls-5" x1="80.17" y1="36.54" x2="103.17" y2="36.54"/><path class="cls-5" d="M97.17,38.54A31.91,31.91,0,0,1,84.48,62.28"/><path class="cls-5" d="M85,46.15c1.41,5.76,5.91,14.2,17,18.59"/><line class="cls-5" x1="91.67" y1="31.44" x2="91.67" y2="36.54"/></g><path class="cls-6" d="M23.23,91.16a59,59,0,0,0,73.86,0"/><polyline class="cls-7" points="23.85 97.84 23.27 91.12 29.99 90.53"/><polyline class="cls-7" points="96.5 97.88 97.09 91.16 90.37 90.57"/></g></g></svg>