<svg xmlns="http://www.w3.org/2000/svg" viewBox="0 0 139.28 99.7"><defs><style>.cls-1{fill:#434a57;}.cls-2{fill:#fff;}.cls-3,.cls-4,.cls-5{fill:none;stroke-width:8px;}.cls-3,.cls-5{stroke:#434a57;}.cls-3{stroke-miterlimit:10;}.cls-4{stroke:#ef3768;stroke-linecap:round;}.cls-4,.cls-5{stroke-linejoin:round;}</style></defs><title>s4_icon_a</title><g id="Layer_2" data-name="Layer 2"><g id="Section_4" data-name="Section 4"><path class="cls-1" d="M21.62,8H92.5A21.62,21.62,0,0,1,114.11,29.6V46.69A21.62,21.62,0,0,1,92.5,68.3H29.32a16.92,16.92,0,0,0-12,5L6.3,84.32A3.69,3.69,0,0,1,0,81.71V29.6A21.62,21.62,0,0,1,21.62,8Z"/><circle class="cls-2" cx="25.18" cy="38.08" r="7.71"/><circle class="cls-2" cx="48.77" cy="38.08" r="7.71"/><circle class="cls-2" cx="71.32" cy="38.08" r="7.71"/><path class="cls-2" d="M135.28,36.65c0,6.18-5.38,11-8.27,16-3,5.15-4.54,12.17-9.69,15.15-5,2.89-11.79.81-18,.81s-13,2.08-18-.81c-5.15-3-6.71-10-9.69-15.15-2.89-5-8.27-9.78-8.27-16s5.38-11,8.27-16c3-5.15,4.54-12.17,9.69-15.15,5-2.89,11.79-.81,18-.81s13-2.08,18,.81c5.15,3,6.71,10,9.69,15.15C129.89,25.67,135.28,30.47,135.28,36.65Z"/><path class="cls-3" d="M135.28,36.65c0,6.18-5.38,11-8.27,16-3,5.15-4.54,12.17-9.69,15.15-5,2.89-11.79.81-18,.81s-13,2.08-18-.81c-5.15-3-6.71-10-9.69-15.15-2.89-5-8.27-9.78-8.27-16s5.38-11,8.27-16c3-5.15,4.54-12.17,9.69-15.15,5-2.89,11.79-.81,18-.81s13-2.08,18,.81c5.15,3,6.71,10,9.69,15.15C129.89,25.67,135.28,30.47,135.28,36.65Z"/><polyline class="cls-4" points="85.92 36.65 95.74 46.47 115.39 26.82"/><polyline class="cls-5" points="87.16 70.57 87.16 95.43 99.91 82.68 112.93 95.7 112.93 71.01"/></g></g></svg>