<svg xmlns="http://www.w3.org/2000/svg" xmlns:xlink="http://www.w3.org/1999/xlink" viewBox="0 0 133.7 117.34"><defs><style>.cls-1,.cls-5{fill:none;}.cls-2{isolation:isolate;}.cls-3{fill:#434a57;}.cls-4{fill:#fff;}.cls-5{stroke:#434a57;stroke-linecap:round;stroke-miterlimit:10;stroke-width:6px;}.cls-6{clip-path:url(#clip-path);}.cls-7{fill:#ee3263;}.cls-10,.cls-8{opacity:0.3;mix-blend-mode:soft-light;}.cls-8{fill:url(#linear-gradient);}.cls-11,.cls-9{opacity:0.4;mix-blend-mode:multiply;}.cls-9{fill:url(#linear-gradient-2);}.cls-10{fill:url(#linear-gradient-3);}.cls-11{fill:url(#linear-gradient-4);}</style><clipPath id="clip-path"><rect class="cls-1" x="36.13" y="19.16" width="57.96" height="48.69"/></clipPath><linearGradient id="linear-gradient" x1="66.01" y1="45.38" x2="66.01" y2="78.91" gradientUnits="userSpaceOnUse"><stop offset="0" stop-color="#fff"/><stop offset="1"/></linearGradient><linearGradient id="linear-gradient-2" x1="49.36" y1="47.21" x2="82.88" y2="47.21" xlink:href="#linear-gradient"/><linearGradient id="linear-gradient-3" x1="66.01" y1="6.41" x2="66.01" y2="39.93" xlink:href="#linear-gradient"/><linearGradient id="linear-gradient-4" x1="49.36" y1="9.11" x2="82.88" y2="9.11" xlink:href="#linear-gradient"/></defs><title>s3_icon_a</title><g class="cls-2"><g id="Layer_2" data-name="Layer 2"><g id="Layer_1-2" data-name="Layer 1"><path class="cls-3" d="M29.72,43H99.11a20.32,20.32,0,0,1,20.32,20.32V79a24.31,24.31,0,0,1-24.31,24.31h-60A24.31,24.31,0,0,1,10.79,79V61.93A18.92,18.92,0,0,1,29.72,43Z"/><rect class="cls-3" y="63.45" width="25.32" height="18.03" rx="6.07" ry="6.07"/><rect class="cls-3" x="27.95" y="95.44" width="28.04" height="15.76" rx="6.07" ry="6.07" transform="translate(145.29 61.35) rotate(90)"/><rect class="cls-3" x="73.11" y="95.44" width="28.04" height="15.76" rx="6.07" ry="6.07" transform="translate(190.45 16.19) rotate(90)"/><circle class="cls-4" cx="25.98" cy="62.62" r="3.23"/><rect class="cls-4" x="42.61" y="57.8" width="49.22" height="9.58" rx="1.81" ry="1.81"/><line class="cls-1" x1="128.24" y1="67.38" x2="111.11" y2="67.38"/><path class="cls-5" d="M130.7,57a16.27,16.27,0,0,1-16.27,16.27"/><g class="cls-6"><circle class="cls-7" cx="66.01" cy="57.6" r="16.76"/><circle class="cls-8" cx="66.01" cy="57.6" r="16.76"/><path class="cls-7" d="M66.12,41a16.76,16.76,0,0,1,16.69,15.3c0-.48.07-1,.07-1.46a16.76,16.76,0,0,0-33.52,0c0,.49,0,1,.07,1.46A16.76,16.76,0,0,1,66.12,41Z"/><path class="cls-9" d="M66.12,41a16.76,16.76,0,0,1,16.69,15.3c0-.48.07-1,.07-1.46a16.76,16.76,0,0,0-33.52,0c0,.49,0,1,.07,1.46A16.76,16.76,0,0,1,66.12,41Z"/></g><circle class="cls-7" cx="66.01" cy="18.63" r="16.76"/><circle class="cls-10" cx="66.01" cy="18.63" r="16.76"/><path class="cls-7" d="M66.12,2.93a16.76,16.76,0,0,1,16.69,15.3c0-.48.07-1,.07-1.46a16.76,16.76,0,0,0-33.52,0c0,.49,0,1,.07,1.46A16.76,16.76,0,0,1,66.12,2.93Z"/><path class="cls-11" d="M66.12,2.93a16.76,16.76,0,0,1,16.69,15.3c0-.48.07-1,.07-1.46a16.76,16.76,0,0,0-33.52,0c0,.49,0,1,.07,1.46A16.76,16.76,0,0,1,66.12,2.93Z"/></g></g></g></svg>