<svg xmlns="http://www.w3.org/2000/svg" viewBox="0 0 45.93 46.79"><defs><style>.cls-1,.cls-2{fill:none;stroke:#9dc6fd;stroke-linecap:round;stroke-linejoin:round;}.cls-2{stroke-width:0.25px;}</style></defs><title>s2_icon_b</title><g id="Layer_2" data-name="Layer 2"><g id="Layer_3" data-name="Layer 3"><path class="cls-1" d="M22.68,10,21.27,21.9A1.71,1.71,0,0,0,23,23.83h0a1.71,1.71,0,0,0,1.7-1.92L23.34,10A.33.33,0,0,0,22.68,10Z"/><ellipse class="cls-1" cx="22.97" cy="23.39" rx="22.47" ry="22.89"/><path class="cls-2" d="M23,9.25"/><path class="cls-1" d="M23,36"/><path class="cls-1" d="M35.3,23.39"/><path class="cls-1" d="M10,20.77A15.33,15.33,0,0,1,18.54,9.86"/><path class="cls-1" d="M10.15,27.81a15.65,15.65,0,0,1-.5-3.94"/><path class="cls-1" d="M12,32.17a15.41,15.41,0,0,1-.84-1.5"/></g></g></svg>