<svg xmlns="http://www.w3.org/2000/svg" viewBox="0 0 121.33 81"><defs><style>.cls-1{fill:#434a57;}.cls-2{fill:none;stroke:#fff;stroke-linecap:round;stroke-miterlimit:10;stroke-width:4.02px;}.cls-3{fill:#ee3263;}</style></defs><title>s2_icon_a</title><g id="Layer_2" data-name="Layer 2"><g id="Layer_2-2" data-name="Layer 2"><path class="cls-1" d="M95.23,0H28a4.5,4.5,0,0,0-4.32,3.44,3.1,3.1,0,0,0,3.09,3.83H50.14a3.18,3.18,0,0,1,3.36,3,4.3,4.3,0,0,1-4.19,4.29H38.58A4.5,4.5,0,0,0,34.26,18a3.1,3.1,0,0,0,3.09,3.83H56.64a3.18,3.18,0,0,1,3.36,3,4.3,4.3,0,0,1-4.19,4.29h-29a4.5,4.5,0,0,0-4.32,3.44,3.1,3.1,0,0,0,3.09,3.83H47.48v0h4.24a3.19,3.19,0,0,1,3.35,3.43,4.32,4.32,0,0,1-4.15,3.84h-10a4.5,4.5,0,0,0-4.21,3,3.13,3.13,0,0,0,3,4.29h3.06A2.28,2.28,0,0,1,45,53.63L42,75a5.1,5.1,0,0,0,5.17,6h57.47a7.17,7.17,0,0,0,6.87-6l9.76-69a5.1,5.1,0,0,0-5.17-6Z"/><line class="cls-2" x1="89.32" y1="16.42" x2="104.32" y2="16.42"/><line class="cls-2" x1="75.76" y1="27.42" x2="102.76" y2="27.42"/><line class="cls-2" x1="80.7" y1="38.42" x2="101.2" y2="38.42"/><line class="cls-2" x1="74.15" y1="49.42" x2="99.65" y2="49.42"/><line class="cls-2" x1="82.59" y1="60.42" x2="98.09" y2="60.42"/><path class="cls-3" d="M13.84,7.27H8.66A3.08,3.08,0,0,1,5.54,3.64h0A4.33,4.33,0,0,1,9.69,0h5.17A3.08,3.08,0,0,1,18,3.64h0A4.33,4.33,0,0,1,13.84,7.27Z"/><path class="cls-3" d="M8.33,36.37H3.16A3.08,3.08,0,0,1,0,32.73H0A4.33,4.33,0,0,1,4.19,29.1H9.36a3.08,3.08,0,0,1,3.12,3.64h0A4.33,4.33,0,0,1,8.33,36.37Z"/><path class="cls-3" d="M26,21.82H10.83a3.08,3.08,0,0,1-3.12-3.64h0a4.33,4.33,0,0,1,4.15-3.64H27a3.08,3.08,0,0,1,3.12,3.64h0A4.33,4.33,0,0,1,26,21.82Z"/></g></g></svg>