<svg xmlns="http://www.w3.org/2000/svg" xmlns:xlink="http://www.w3.org/1999/xlink" viewBox="0 0 621 320"><defs><style>.cls-1{filter:url(#luminosity-noclip-2);}.cls-10,.cls-12,.cls-18,.cls-2,.cls-7,.cls-8,.cls-9{fill:none;}.cls-3{isolation:isolate;}.cls-4{clip-path:url(#clip-path);}.cls-11,.cls-14,.cls-5{fill:#e0dfe6;}.cls-17,.cls-6{fill:#75f0a0;}.cls-10,.cls-12,.cls-17,.cls-18,.cls-7,.cls-8,.cls-9{stroke:#5a6684;}.cls-10,.cls-12,.cls-7,.cls-8,.cls-9{stroke-linecap:round;}.cls-12,.cls-17,.cls-18,.cls-7,.cls-8,.cls-9{stroke-miterlimit:10;}.cls-10,.cls-12,.cls-17,.cls-18,.cls-7,.cls-8{stroke-width:3px;}.cls-8{stroke-dasharray:7.26 7.26;}.cls-9{stroke-width:2.5px;}.cls-10{stroke-linejoin:round;}.cls-11{opacity:0.2;}.cls-12{stroke-dasharray:7;}.cls-13{fill:#525d7d;}.cls-14{mix-blend-mode:multiply;}.cls-15{mask:url(#mask);}.cls-16{mask:url(#mask-2);}.cls-19{filter:url(#luminosity-noclip);}</style><clipPath id="clip-path"><rect class="cls-2" x="-24.9" y="-25.99" width="679.79" height="393.97"/></clipPath><filter id="luminosity-noclip" x="503.15" y="140.88" width="107.04" height="127.87" filterUnits="userSpaceOnUse" color-interpolation-filters="sRGB"><feFlood flood-color="#fff" result="bg"/><feBlend in="SourceGraphic" in2="bg"/></filter><mask id="mask" x="503.15" y="140.88" width="107.04" height="127.87" maskUnits="userSpaceOnUse"><g class="cls-19"><path d="M608.51,165.6c-2.37-7.49,2.57-19.35-6.29-23.62-3.95-1.9-9.18-.81-13.42-.61-5.72.28-11.42.66-17.12,1.1-8.5.65-8.75,13.51,0,13.42,7.11-.07,14.2-.28,21.3-.54,0,.21,0,.37,0,.48,0,3.67.74,6.21-.16,9.77C589.41,179.2,612.49,178.18,608.51,165.6Z"/><path d="M544.33,256.86c-6.58-4.19-12.53-9.71-18.64-14.48-.65-.51-3.51-2.82-5.87-4.33a6.28,6.28,0,0,0-.23-1.09,10.57,10.57,0,0,0-2.48-4,6.6,6.6,0,0,0-6.54-1.73l-.72.22a7.92,7.92,0,0,0-5.53,5.53c-.74,3.51-.91,7.07,1,10.29,2.14,3.61,6.23,5.07,9.59,7.24,7.39,4.78,15.84,8.16,23.1,13.18C544.61,272.22,551.15,261.2,544.33,256.86Z"/></g></mask><filter id="luminosity-noclip-2" x="266.54" y="108.59" width="53.2" height="65.29" filterUnits="userSpaceOnUse" color-interpolation-filters="sRGB"><feFlood flood-color="#fff" result="bg"/><feBlend in="SourceGraphic" in2="bg"/></filter><mask id="mask-2" x="266.54" y="108.59" width="53.2" height="65.29" maskUnits="userSpaceOnUse"><path class="cls-1" d="M290.58,108.7a4.06,4.06,0,0,0-4.5,2,4.12,4.12,0,0,0-2.54,3.6,20.83,20.83,0,0,0,.8,8c1,3.42,6.63,3.88,7.39,0q.87-4.42,1.53-8.87C293.56,111.37,292.74,109.3,290.58,108.7Z"/></mask></defs><title>Artboard 1</title><g class="cls-3"><g id="Layer_1" data-name="Layer 1"><g class="cls-4"><path class="cls-5" d="M84.51,202.84c-3.28-5.13-10.36-1.67-9.42,4,1.14,6.81-.19,13-7.7,15.18-7.27,2.06-12.9-2.72-17.93-7.21-3.93-3.51-10.07.9-7.4,5.71,6,10.84,19.62,15.91,31.16,11C83.58,227.11,91.19,213.3,84.51,202.84Z"/><path class="cls-6" d="M76.1,197.32c-5.77-3-14.65-3.21-20.47-.19-4.17,2.16-7.59,7.16-6.76,11.72a8.55,8.55,0,0,0-1.41,4.59c-.21,8.25,8.73,10.32,15.21,10.39,7.3.08,15.16-2.24,18.76-9.15A12.84,12.84,0,0,0,76.1,197.32Z"/><line class="cls-7" x1="352.65" y1="198.12" x2="356.15" y2="198.12"/><line class="cls-8" x1="363.42" y1="198.12" x2="490.52" y2="198.12"/><line class="cls-7" x1="494.15" y1="198.12" x2="497.65" y2="198.12"/><path class="cls-5" d="M448.9,46.65a254.56,254.56,0,0,1-42.64.09c-.76-.07-4,.06-4.42-.48,0,.06.35-4.74.34-4.63l.18-9.47c.13-6.91,1-14.24-.92-21-1-3.55-6-3.41-7.07,0-2.54,8.21-1.46,17.73-1.54,26.24-.06,6-1.76,14.61,5.24,17.31,3.14,1.21,7,1,10.31,1.18,5,.31,10,.45,14.94.34a227.39,227.39,0,0,0,26.6-2C454.2,53.63,453.23,46.31,448.9,46.65Z"/><path class="cls-5" d="M452.45,2.92c-17.67,1-35.28,1.15-53,1.52-1.93,0-1.93,3.73,0,3.82a517.72,517.72,0,0,0,53-.76C454.75,7.37,454.77,2.79,452.45,2.92Z"/><path class="cls-6" d="M412,11.54l-.32-.09A.48.48,0,0,0,412,11.54Z"/><path class="cls-6" d="M416.6,12.72A5.38,5.38,0,0,0,413,11.47c-.21,0-.72.08-1.06.07.27.08.25.08,0,0l-.68-.15A10.89,10.89,0,0,0,408.4,11c-2.75.15-5,2.55-5.41,6.07-.34,3.18,1.24,7.06,3.94,7.69a33.41,33.41,0,0,0,4.47.32c.54.06,1.08.21,1.62.26a5.43,5.43,0,0,0,3.57-1.09c1.62-1,2.59-3.54,2.59-5.76A7.39,7.39,0,0,0,416.6,12.72Z"/><path class="cls-6" d="M440.6,32.2c-3.77.59-7.49-.29-11.22.2a5.74,5.74,0,0,0-5,4.81c-.56,2.59.32,6.21,2.36,7.4,4.37,2.53,9.11,2.39,13.81,1.66,3-.46,5.53-2.9,5.53-7C446.12,35.79,443.58,31.74,440.6,32.2Z"/><path class="cls-7" d="M397.42,48.25c-.14-9-1.18-30.22.1-40.3a2.5,2.5,0,0,1,2-2.35c17.63-1.43,35.07.58,52.3-1.37A2.15,2.15,0,0,1,454,6.51c.86,15.19-.85,26.63-.34,40.61.07,1.8-1,3.32-2.45,3.38l-50.45,1.83C399,52.39,397.46,50.56,397.42,48.25Z"/><path class="cls-9" d="M403.47,20.95a3.64,3.64,0,0,0,.36,1.81,2.05,2.05,0,0,0,1.93.73l9.93-.12a1.65,1.65,0,0,0,1.39-1.84c-.05-2.61,0-5.95,0-7.92a1.57,1.57,0,0,0-1.32-1.72c-3-.07-10.2-.2-10.85.13C402.38,13.28,403.39,18.25,403.47,20.95Z"/><line class="cls-9" x1="427.68" y1="13.15" x2="442.76" y2="13.15"/><line class="cls-9" x1="427" y1="19.26" x2="443.45" y2="19.26"/><path class="cls-9" d="M426.45,25.84c1.22.17,2.45.23,3.67.4h12.65"/><path class="cls-9" d="M441.65,33.64c1.38,0,2.52,1.39,2.55,3.15l.08,4.39a1.88,1.88,0,0,1-1.53,2.07c-3,.14-9.8.45-14,.56-2,.05-3.71-2-3.73-4.59,0-.7,0-1.38,0-2,0-2,1.31-3.57,2.87-3.54C431,33.74,437.92,33.68,441.65,33.64Z"/><path class="cls-5" d="M75.69,72.08c-3.43-3.1-9.76-1.78-13.92-1.79-12.66,0-26.78-1.69-39.21,1-2.56.54-2.54,4.6,0,5.15,8.12,1.78,17,1.09,25.31,1.13l12.83.07,6.42,0c3.21,0,3.79-.05,4.18,3.33.29,2.53,4.09,4.43,5.46,1.48C78.35,79,78.78,74.87,75.69,72.08Z"/><path class="cls-5" d="M83.46,68.88c-2.7-4.52-7.32-4.44-12-4.51-14.37-.2-29.65-1.79-43.9.35-2.32.35-2.24,4.19,0,4.61,10.5,2,21.65,1.38,32.29,1.63l8.44.2c1.94,0,6.38-.7,8.08.27,4.27,2.45,2.32,11.66,1.87,15.63-.52,4.59,6.59,4.5,7.16,0C86.11,81.16,86.67,74.25,83.46,68.88Z"/><path class="cls-5" d="M71,133.52a6.63,6.63,0,0,0-4.47-3.28l-.44-.07c-3.06-1.08-5.83-.11-8.37,1.85l-.36.28A7.92,7.92,0,0,0,55,138a8.52,8.52,0,0,0,1,3.7c.14.52.31,1,.5,1.55-13.52.5-30,.41-40.74-.55-.76-.07-4,.06-4.42-.48,0,.06.35-4.74.34-4.63l.18-9.47c.13-6.91,1-36.31-.92-43-1-3.55-6-3.41-7.07,0-2.54,8.21-1.46,39.8-1.54,48.31-.06,6-1.76,14.61,5.24,17.31,3.14,1.21,7,1,10.31,1.18,5,.31,19.88.45,24.87.34,3.81-.08,7.61-.26,11.41-.51l0,0a3,3,0,0,0,2.91.42c3.15-1.39,5.93-4.31,8.54-6.54s5.62-4.67,7.71-7.57C74.72,136.09,73,133.72,71,133.52Z"/><path class="cls-5" d="M71.89,76.76c-17.67,1-45.21,1.15-62.89,1.52-1.93,0-1.93,3.73,0,3.82,17.56.82,45.33.23,62.89-.76C74.2,81.21,74.21,76.63,71.89,76.76Z"/><path class="cls-6" d="M34.18,112.27c-3.77.59-7.49-.29-11.22.2a5.74,5.74,0,0,0-5,4.81c-.56,2.59.32,6.21,2.36,7.4,4.37,2.53,9.11,2.39,13.81,1.66,3-.46,5.53-2.9,5.53-7C39.71,115.86,37.17,111.81,34.18,112.27Z"/><path class="cls-10" d="M6.93,144.17c-.14-9-1.18-52.3.1-62.38a2.5,2.5,0,0,1,2-2.35c17.63-1.43,45,.58,62.23-1.37a2.15,2.15,0,0,1,2.15,2.27c.66,11.75-.4,50.62-.4,50.62l-16,15.85-46.8,1.42C8.48,148.31,7,146.48,6.93,144.17Z"/><line class="cls-9" x1="19.54" y1="89.21" x2="62.21" y2="89.21"/><line class="cls-9" x1="18.85" y1="97.51" x2="62.89" y2="97.51"/><path class="cls-9" d="M18.3,105.45c1.22.17,2.45.23,3.67.4H62.21"/><path class="cls-9" d="M35.24,113.71c1.38,0,2.52,1.39,2.55,3.15l.08,4.39a1.88,1.88,0,0,1-1.53,2.07c-3,.14-9.8.45-14,.56-2,.05-3.71-2-3.73-4.59,0-.7,0-1.38,0-2,0-2,1.31-3.57,2.87-3.54C24.57,113.81,31.5,113.75,35.24,113.71Z"/><path class="cls-9" d="M43,114.35l18-.83"/><path class="cls-9" d="M43.39,122.25a124.43,124.43,0,0,0,20.58.29"/><path class="cls-9" d="M18.75,132.53l31-.64"/><path class="cls-10" d="M57.1,146.83s-2-11.61-.84-15l16.8-.81Z"/><path class="cls-10" d="M13.46,78.29c0-1.42.1-.72.07-2.14a5,5,0,0,1,1.25-3.93,5.33,5.33,0,0,1,3.16-1,400,400,0,0,1,56.85-.26,5.12,5.12,0,0,1,2.77.76c1.2.92,1.34,2.64,1.38,4.15.11,5.12.15,9.51.11,14.64"/><path class="cls-10" d="M19.39,68.91c.16-2.21.95-2.7,1.65-3.11,1.61-1,3.6-1,5.48-.95L77,65c2,0,4.17.08,5.65,1.41,1.31,1.18,1.71,3.05,2,4.8,1.22,7.77,0,13.51.5,21.58"/><path class="cls-5" d="M332.56,122.4a.09.09,0,0,0,0,.18A.09.09,0,0,0,332.56,122.4Z"/><path class="cls-5" d="M332.13,120.53a.11.11,0,0,0,0,.21A.11.11,0,0,0,332.13,120.53Z"/><path class="cls-5" d="M467.72,263.4c0-.5-.3-2-.62-1.7-1.24,1.27-1.21,3.75-1.75,5.47a26.49,26.49,0,0,1-3.29,6.75,18.45,18.45,0,0,1-15.41,7.93c-5.3,0-11.36-1.22-15.75-4.38-5.12-3.69-5.94-9.3-8.16-14.71-.37-.9-1.84-.89-1.82.25.08,6.18,2.3,13.58,7.33,17.49s12.29,5.7,18.4,5.39A22.44,22.44,0,0,0,463,278C465.87,274.71,467.55,266.65,467.72,263.4Z"/><path class="cls-5" d="M456.64,257.78c-1-3.22-1.42-5.41-4.14-7.67a13.36,13.36,0,0,0-9.24-3.11c-5,.31-12.4,4.43-12.63,10a.71.71,0,0,0,1.19.49c3.95-3.13,6-6.59,11.79-6.07,4,.36,9.55,3.2,11.46,7A.86.86,0,0,0,456.64,257.78Z"/><path class="cls-6" d="M461.88,245.58c-4.28-5.34-10.81-7-17.37-7.32-5.88-.29-13.68.7-18.12,5-2.5,2.43-3.35,5.62-3.77,9-.47,3.81-1,7.87,1.53,11,1.63,2,4.87,1.14,6.07-.78,1.55-2.49.9-5.35,1.14-8.15.13-1.5.17-3.6,1.38-4.68,2.67-2.39,8.44-2.63,11.78-2.34s7.53,1.69,9.72,4.44c2.46,3.09,2.08,7.59,3.8,11a3.12,3.12,0,0,0,4.86.63C467.73,258.6,465.69,250.34,461.88,245.58Z"/><path class="cls-11" d="M459.83,258.23a38.8,38.8,0,0,0-3.84,5.64c-1.31,2-2.67,4-3.91,6.06-1.1,1.81-1.56,2.88-3.85,3.11a26.46,26.46,0,0,1-6-.19,17.23,17.23,0,0,1-10.18-4.69c-2.82-2.87-3.2-7.24-5.87-10a2.06,2.06,0,0,0-3.4.9c-1.95,4.78,1.15,11.09,4.53,14.44,3.84,3.8,9.08,5.92,14.35,6.8,5.49.92,11.62,1.5,15.83-2.87,2.16-2.24,3.71-5.09,5.37-7.7s3.63-5.26,3.91-8.57C467.1,257.56,462.14,255.76,459.83,258.23Z"/><path class="cls-7" d="M428.32,242.33a25.27,25.27,0,0,1,7.83-3.58c6.28-1.86,13.35-2.53,19.17.48a19.49,19.49,0,0,1,8.94,10.35,28.14,28.14,0,0,1,1.39,13.77,21.38,21.38,0,0,1-3,8.88c-2.67,4.14-11.57,14-28.59,6.09s-11.44-28.83-10.29-30.49C425.23,245.75,426.22,243.86,428.32,242.33Z"/><path class="cls-7" d="M433.29,249.65a16,16,0,0,1,4.95-2.26c4-1.18,8.43-1.6,12.11.3a12.32,12.32,0,0,1,5.65,6.54,17.78,17.78,0,0,1,.88,8.7,13.51,13.51,0,0,1-1.87,5.61c-1.69,2.62-7.31,8.85-18.07,3.85s-7.23-18.22-6.51-19.27A12.5,12.5,0,0,1,433.29,249.65Z"/><path class="cls-10" d="M436.27,261l5.14,4.81c3.25-3.7,5.81-6.66,9.06-10.35"/><path class="cls-12" d="M396,204.27v32.54a24.1,24.1,0,0,0,24.1,24.1h0"/><path class="cls-6" d="M307.43,234c-3-6.93-7.72-12.27-14.87-15-6.92-2.63-16.63-2.49-22.31,2.66a4.28,4.28,0,0,0-1.36,2.84,26.13,26.13,0,0,0-5.06,5.6,24.23,24.23,0,0,0-2.75,20.95c4.59,13.67,20.31,21.66,33.71,16C307.6,261.68,312.76,246.56,307.43,234Zm-17,25.91c-10,2.49-20.29-4-21.52-14.5a20.48,20.48,0,0,1,3.34-13,21.33,21.33,0,0,1,1.82-2.35c4.83-.48,9-2.36,14-2.12,5.17.24,10.32,2,13.39,6.45C308.51,244.47,301.36,257.24,290.45,260Z"/><path class="cls-5" d="M305.37,178c-5.23-2.58-10.83-2.35-16.56-2.62s-11.49-.54-17.27-.45c-11.4.18-11.33,17.17,0,17.66,5.77.25,11.5.14,17.27,0s11.21.18,16.56-2.27C310.13,188.13,309.93,180.24,305.37,178Z"/><path class="cls-5" d="M349.64,183.2a6.18,6.18,0,0,0-6.3-1.54l0-.12a7.58,7.58,0,0,0-2.08.81,7.07,7.07,0,0,0-2.53,2.53l0,.07-.5.6-.13.19a5.94,5.94,0,0,0-2.73,4.4,8.94,8.94,0,0,0-.41,1.13,4,4,0,0,0,3.06,5.08,7.6,7.6,0,0,0,5.4,1,7.85,7.85,0,0,0,1.78-.52,7.17,7.17,0,0,0,2.95-1.34,9.88,9.88,0,0,0,2.46-2.85A7.68,7.68,0,0,0,349.64,183.2Z"/><path class="cls-5" d="M237.87,188a8.06,8.06,0,0,0-1-3.17,9.87,9.87,0,0,0-2.95-2.93,7.45,7.45,0,0,0-.94-.67l0,0h0a7.6,7.6,0,0,0-1.79-.76l-2-.27a7.21,7.21,0,0,0-5.89,3,7.11,7.11,0,0,0-1.48,5.54,5.58,5.58,0,0,0,.89,2.79,7.54,7.54,0,0,0,2.69,2.69,9.06,9.06,0,0,0,4.17,1.78,5.61,5.61,0,0,0,3-.13l.35-.06.7-.12a6.17,6.17,0,0,0,3.71-2.85A7.1,7.1,0,0,0,237.87,188Z"/><path class="cls-5" d="M249.46,295.45c-1.1,2.34-2,4.74-3.64,6.78-1.39,1.71-3.18,2.5-4.81,3.84a4.58,4.58,0,0,1-.95.32l-.12-.15a14.74,14.74,0,0,1-.49-2.68c.11-2.87,1.82-4.8,3.15-7.18a3.13,3.13,0,0,0-4.25-4.25c-7.88,4.35-12.16,21.43-1.61,25.13,11.11,3.9,22-9.08,23.21-19C260.63,292.79,251.76,290.54,249.46,295.45Z"/><path class="cls-5" d="M339.24,291.76c-4.28-4.31-12.23,0-10.38,6a31.11,31.11,0,0,0,2.67,6.46c-.47-.21-1.08-.39-1.39-.56-4.31-2.36-6.35-7.1-10.49-9.55-3.29-1.95-6.89.61-7.16,4.11-.72,9.44,13.08,20,21.91,18.63C346.72,315,346.36,298.94,339.24,291.76Z"/><path class="cls-5" d="M368.47,236.34c-.55-5.28-2.73-10.07-4.43-15.06-2.77-8.18-7.25-21-16.16-24-2.63-.89-4.69,1.82-4.2,4.2.72,3.48,2.79,5.74,4.66,8.66a47.85,47.85,0,0,1,5.23,10.63c2.4,7.27,1.68,15.37,1.19,23-1,16-8.48,29.53-23.55,36.28-7.89,3.54-17,4.79-25.51,5.68a139.55,139.55,0,0,1-29,.17C261,284.2,245.21,278,234,266.5c-12.44-12.85-16.09-31.6-14.59-48.81a1.72,1.72,0,0,0-2.91-1.21c-12.68,14.85-9.31,36.69,1.13,51.88,11.08,16.11,29.06,26.52,47.93,30.76a114.75,114.75,0,0,0,33.91,2.22c11-.84,22.64-2.19,33-6,18.77-7,31-24.72,35.05-44.06A49.54,49.54,0,0,0,368.47,236.34Z"/><path class="cls-7" d="M295.65,169.22c30.73,3.63,57.73,28.61,63.73,59,4,20.09-1.59,42.86-17.44,55.83-10.77,8.82-25,12.33-38.86,13.42-25.82,2-53.43-4.33-71.9-22.49-17-16.74-21.65-47.11-10-70.44C234.18,178.65,265.95,165.71,295.65,169.22Z"/><path class="cls-7" d="M228.59,193.35c-3.68-3-6.71-8.22-3-11.25s8.3-.76,10.73,3.61"/><path class="cls-7" d="M337.12,187.17c3-3.44,4.67-5.63,7.93-6.14s5.87,1,6.3,4.25-4.2,6.25-7.41,8.63"/><path class="cls-7" d="M242.38,286.46c-3.15,5.84-5.8,8.47-7.39,13s-.43,10.34,3.8,12.51,9.59-.25,12.33-4.1,4.93-9,7.69-14.46"/><path class="cls-7" d="M334.46,289c3.15,5.84,4.33,5.89,5.92,10.38s.43,10.34-3.8,12.51-9.59-.25-12.33-4.1-4-7-6.74-12.54"/><path class="cls-7" d="M305.11,245.65A18.32,18.32,0,0,1,291.94,260c-16.25,4.28-28.87-16.13-17.62-28.79C285.29,218.84,307.83,229.11,305.11,245.65Z"/><path class="cls-7" d="M293.07,216.73a27.06,27.06,0,1,1-18.53,50.06,29.19,29.19,0,0,1-14.14-23.9C259.64,223.41,274.65,213.21,293.07,216.73Z"/><path class="cls-7" d="M264.21,200.33a4,4,0,1,1-2.07,6.59,4.2,4.2,0,0,1,2.07-6.59"/><path class="cls-7" d="M307.71,200.61a4.21,4.21,0,1,0,1-.44"/><path class="cls-7" d="M281.84,240.81a1.32,1.32,0,1,1-.68,2.18,1.39,1.39,0,0,1,.68-2.18"/><path class="cls-7" d="M291.81,240.9a1.39,1.39,0,1,0,.32-.15"/><path class="cls-7" d="M269.69,176.71c-2.44,1.14-4,4.51-2.33,6.63,1.24,1.57,3.53,1.72,5.54,1.74l28.06.23c5.34.09,6.5-1.28,7.46-3.35s-.38-5.13-5-5.62-9-.57-16.57-.69c-3,0-6,.2-8.84.24S272.25,175.52,269.69,176.71Z"/><path class="cls-7" d="M278.35,280.55a39.84,39.84,0,0,0,34-3.57"/><path class="cls-7" d="M309.65,272.9a7.32,7.32,0,0,1,4.39,7.79"/><path class="cls-5" d="M179.08,81.26c-1.05,3.24-1.66,6.6-3.75,9.42-2.44,3.28-5.43-1.49-6.61-3.64-.74-1.35-2.44-.55-2.61.71-.67,5.07,4.81,10.84,10,9.68,5.62-1.26,9.16-10.23,9.46-15.29C185.79,78.29,180.19,77.85,179.08,81.26Z"/><path class="cls-13" d="M177.19,94.42a1.66,1.66,0,0,1-.91-.27L174.46,93c-2.72-1.78-5.53-3.62-8.2-5.61a1.65,1.65,0,0,1-.33-2.33l1.29-1.68a70.69,70.69,0,0,0,6.08-8.78,1.66,1.66,0,0,1,2.32-.61l1.19.74a77.32,77.32,0,0,0,8.05,4.57,1.66,1.66,0,0,1,.7,2.4c-2.6,4.05-5,8.3-6.91,11.91a1.65,1.65,0,0,1-1.46.87Zm-7.6-8.75c2.19,1.57,4.47,3.06,6.68,4.51l.32.21c1.54-2.81,3.28-5.91,5.18-9-2.23-1.15-4.37-2.47-6.45-3.77a86.16,86.16,0,0,1-5.48,7.69Z"/><path class="cls-5" d="M404.64,289.2c-1.05,3.24-1.66,6.6-3.75,9.42-2.44,3.28-5.43-1.49-6.61-3.64-.74-1.35-2.44-.55-2.61.71-.67,5.07,4.81,10.84,10,9.68,5.62-1.26,9.16-10.23,9.46-15.29C411.34,286.23,405.75,285.79,404.64,289.2Z"/><path class="cls-13" d="M402.74,302.36a1.66,1.66,0,0,1-.91-.27L400,300.9c-2.72-1.78-5.53-3.62-8.2-5.61a1.65,1.65,0,0,1-.33-2.33l1.29-1.68a70.69,70.69,0,0,0,6.08-8.78,1.66,1.66,0,0,1,2.32-.61l1.19.74a77.32,77.32,0,0,0,8.05,4.57,1.66,1.66,0,0,1,.7,2.4c-2.6,4.05-5,8.3-6.91,11.91a1.65,1.65,0,0,1-1.46.87Zm-7.6-8.75c2.19,1.57,4.47,3.06,6.68,4.51l.32.21c1.54-2.81,3.28-5.91,5.18-9-2.23-1.15-4.37-2.47-6.45-3.77a86.16,86.16,0,0,1-5.48,7.69Z"/><path class="cls-5" d="M413,87.95c-1,1.7-1.5,4.11-3.59,4.85-2.4.85-4.16-1-5.26-2.9-.6-1-2.6-1-2.79.36-.62,4.5,2.8,8.1,7.25,8.42,5,.36,8.8-3.82,10.28-8.24C420.06,86.89,414.83,84.9,413,87.95Z"/><path class="cls-13" d="M409.69,93c-3.66,0-7.44-2.34-7.44-6.25a7.53,7.53,0,0,1,5-6.82,3.77,3.77,0,0,1,1.15-.17c3.81,0,8.08,3.21,8.08,7.52C416.49,90.66,413.75,93,409.69,93Zm-1.92-11.49.5,1.58a4.17,4.17,0,0,0-2.71,3.66c0,1.81,2.14,2.94,4.13,2.94,1,0,3.49-.23,3.49-2.41,0-2.53-2.87-4.21-4.76-4.21h-.14Z"/><path class="cls-5" d="M118.93,160c-1,1.7-1.5,4.11-3.59,4.85-2.4.85-4.16-1-5.26-2.9-.6-1-2.6-1-2.79.36-.62,4.5,2.8,8.1,7.25,8.42,5,.36,8.8-3.82,10.28-8.24C126,158.91,120.8,156.92,118.93,160Z"/><path class="cls-13" d="M115.66,165c-3.66,0-7.44-2.34-7.44-6.25a7.53,7.53,0,0,1,5-6.82,3.77,3.77,0,0,1,1.15-.17c3.81,0,8.08,3.21,8.08,7.52C122.46,162.68,119.73,165,115.66,165Zm-1.92-11.49.5,1.58a4.17,4.17,0,0,0-2.71,3.66c0,1.81,2.14,2.94,4.13,2.94,1,0,3.49-.23,3.49-2.41,0-2.53-2.87-4.21-4.76-4.21h-.14Z"/><path class="cls-7" d="M106.53,102.69v13.58H142.7a11,11,0,0,1,11,11v56.91a22.07,22.07,0,0,0,22.12,22.07h38"/><path class="cls-12" d="M188.15,193.13H178a11,11,0,0,1-11-11V124.77a22.07,22.07,0,0,0-22.07-22.07H106.53"/><path class="cls-5" d="M75.28,98.92s9.19,2,10.28,7.25c.08.4-1.39-.11-1.8-.11-.79,0-1.58,0-2.37-.1a4.23,4.23,0,0,1-.86-.14,2.68,2.68,0,0,1-1.91.35l-3.41-.42Z"/><path class="cls-5" d="M81.72,114.51c.39.28,1.65,1.16,2,1.37.73.46,7.17,1.07,8.91.19a24,24,0,0,0,4.46-2.64c2.56-1.59,6.08-1.21,8.9-.82-2.08-.28,4.89,2.5-.68,3.77a11.66,11.66,0,0,1-3.9-.07c-2.27-.19-3.09,1.07-4.94,2a8.82,8.82,0,0,1-4.36,1.3,12.06,12.06,0,0,1-6-.21,5,5,0,0,1-2.2-1.39,8.83,8.83,0,0,0-2-1.52C80.34,115.79,80.33,113.52,81.72,114.51Z"/><path class="cls-7" d="M74,91.14a33.54,33.54,0,0,1,21,6.77c3.38,2.8,11.56,4.77,11.56,4.77v13.58s-5.46-.08-7.52.55c-5.81,5.65-17,2-18.4-2.87-2.3,0-4.66.09-7,.1-1.45,0-6.29.23-6.3-4.09s4.18-4.48,5.32-4.4c4,.27,8,.24,12,.51"/><path class="cls-5" d="M509.42,80c-.31-6.51-5,4.89-12.65,9-7.29,3.86-12.13.79-16.92,1.57-2.11.34-3.64,1.6-5.59,2.32-2-3.74-6.18-7.33-10.13-10.35a4,4,0,0,0-.42-.26A12.08,12.08,0,0,0,461.78,81c-2.17-1.12-5.29.76-4.41,3.39.05.15.12.3.17.45a4.21,4.21,0,0,0,.19,4.09,14.38,14.38,0,0,0,3.38,3.76c1.59,2,3.81,7.55,3,10-1.8,5.61,6.15,6.53,10.7,4.44s8-1.68,13-2.76a37.4,37.4,0,0,0,12.39-5.17C504.89,96.1,509.82,88.33,509.42,80Z"/><path class="cls-10" d="M469.43,104.76a25.81,25.81,0,0,0,0-11.23c-3.92-.4-7.41-3.16-9.38-6.57a15.77,15.77,0,0,1-1.5-11.44c1.43-6,6.08-11,11.67-13.72s12-3.24,18.2-2.45a30.41,30.41,0,0,1,13.21,4.59,18.58,18.58,0,0,1,8,11.21c1.56,7.34-2.72,15.14-9.15,19s-14.52,4.21-21.79,2.37C477.81,100.91,473.85,104,469.43,104.76Z"/><path class="cls-10" d="M471.22,76.2a1.41,1.41,0,0,1,2.21-.53,2.11,2.11,0,0,1,.34,2.5,2.3,2.3,0,0,1-1.64,1.27,1.69,1.69,0,0,1-1.78-.91,1.34,1.34,0,0,1,.73-1.77"/><path class="cls-10" d="M483.94,77.06a1.93,1.93,0,0,1,1.6-2.47,2,2,0,0,1,2,2.41,2,2,0,0,1-3.74.36"/><path class="cls-10" d="M495.32,76a1.51,1.51,0,1,1,0,.3"/><path class="cls-6" d="M612.11,145.83c2.41-3.3-.39-8.26-4.46-8.37v-.1a29.26,29.26,0,0,0-9,1.77c-1,0-2-.07-3-.08a40.6,40.6,0,0,0-2-13.2c-2.57-7.84-14.89-4.57-12.45,3.43a26.89,26.89,0,0,1-1.37,15.82,9.84,9.84,0,0,0-6.94,4.31c-3,4.39-2.23,10-.47,14.77,4.47,12.1,18.84,11.14,29.51,10.12a7.79,7.79,0,0,0,7.4-8.46A7.59,7.59,0,0,0,612,155.29,5.76,5.76,0,0,0,612.11,145.83Z"/><path class="cls-14" d="M587,132.95c-.12-2.09-1-4.1-1.1-6.19s.94-3.58.82-5.55a2.27,2.27,0,0,0-1.63-2.14l-.66-.13a3.31,3.31,0,0,0-3.6,1.47c-3.16,5.36.76,10.94-1.3,16.54-2.32,6.29-10.39,7-15.5,9.71a3.9,3.9,0,0,0,0,6.68c7.4,3.87,17.16-1.32,20.19-8.62C585.66,141.17,587.19,136.83,587,132.95Z"/><path class="cls-14" d="M615.68,141.9a8.33,8.33,0,0,0,.58-2.56,3.75,3.75,0,0,0-2.75-3.61c-3.8-.8-8.3,1.95-11.21,4.1-.06,0-.07.16,0,.18a31.85,31.85,0,0,0,3.69.07c-.32.23-.62.46-.86.68-2.85,2.54-.76,8.57,3.34,8.06,1.15-.14-3,10.72-3.1,11-.21,1.07.65,2.62.44,3.39-.87,3.26-3.75,2.29-6.22,2.28-4.62,0-9.24-.58-13.84,0-5.79.71-9.64,3.5-15,5.16-4.28,1.32-3.78,8.82,1.11,8.23,10.78-1.3,23.81,5.63,34.27,0a16.2,16.2,0,0,0,8.17-17.31C616.68,156.39,618.49,146.72,615.68,141.9Z"/><path class="cls-7" d="M565,148.25A15.81,15.81,0,0,0,582,129.63a37.23,37.23,0,0,1-1.08-5.56c-.06-1.89.7-4,2.42-4.77a4.41,4.41,0,0,1,4.32.69,10.11,10.11,0,0,1,2.77,3.61,30.14,30.14,0,0,1,3.16,16.86"/><path class="cls-7" d="M593.64,140.46c4.35-1,11.07-3.66,13.7-4.3s7.35-1.94,8.23,1.94-2.61,6-3.8,6.7a35.8,35.8,0,0,1-12.25,4.75"/><path class="cls-7" d="M611.77,144.8c1.39-.52,3.07.37,4.16,1.38a4.14,4.14,0,0,1,1.15,4.07c-.5,1.8-2.15,3-3.76,4a37.54,37.54,0,0,1-11.54,4.43"/><path class="cls-7" d="M613.33,154.21c1-.66,2.2,1,2.78,2.06a3.47,3.47,0,0,1-.28,3.42,7.69,7.69,0,0,1-2.67,2.37A20.56,20.56,0,0,1,603.5,165"/><path class="cls-7" d="M611.93,163.81a3.79,3.79,0,0,1,.81,4.28,7.69,7.69,0,0,1-3.13,3.36c-5.54,3.54-12.59,3.44-19.14,2.89s-13.38-1.4-19.52,1"/><path class="cls-10" d="M570.23,147.84a38.15,38.15,0,0,0,5.51,26.24"/><g class="cls-15"><path class="cls-5" d="M579.55,245.38c-12.69,2.84-27.05,2.59-40,2.67-6.48,0-13,.28-19.46.65-.76,0-1.77,0-2.77,0-.08-2.5-.2-5-.19-5.44,0-13.22-.18-26.45-.08-39.67.05-7,.13-14,.2-20.94.06-6.6.47-13.67-1.13-20.11l-.08,0c-1.45-4.53-8.48-5.44-9.93,0-1.91,7.1-1.44,15-1.51,22.32-.07,7.71-.08,15.43-.25,23.14-.34,15.34-1.57,30.94-1.05,46.28.19,5.58,3.72,8.91,9.22,9.21,7.47.41,15.25-.42,22.7-1,15.19-1.11,31.31-3.37,46.48-1.5C592.31,262.34,591.88,242.62,579.55,245.38Z"/><path class="cls-10" d="M589.64,247.06c.11,1.55-.11,11.44,0,13-25.85,1.07-55.76,2.17-81.58.67-1.2-14.5-2.36-85.61-1.54-101l4.24-.71"/><path class="cls-10" d="M515.45,249.13s-3.73-95.42-5.15-101.35c0,0,67.86,2.16,92.82-1.16,0,0,2.08,51.31,5.58,88.49l-14.87,10S537.31,249,515.45,249.13Z"/><path class="cls-10" d="M525.76,165.62l33.11-1.45"/><path class="cls-10" d="M526.68,177.1c12.26-.78,24.52-.39,36.78-1.17"/><path class="cls-10" d="M525.76,189.13c19.13,0,38.26-1.46,57.39-1.46"/><path class="cls-10" d="M525.76,202.32c23-.47,45-1.77,68.07-2.24"/><path class="cls-10" d="M526.68,215.2c15.94-1.05,31.87-.53,47.81-1.58"/><path class="cls-10" d="M528.88,228.45c20-1.41,40-.71,60-2.12"/><path class="cls-10" d="M593.82,245.1a68.2,68.2,0,0,0-1-13.35c5.29,0,10.26,1.7,15.54,2"/></g><path class="cls-5" d="M553.63,266.93c-7.65.57-11.58-2.78-18-6.11-3-1.58-6.38-2.58-9.27-4.44-2.65-1.7-5-3.92-7.62-5.7-5.16-3.53-9.64-7.76-14.56-11.6a22.57,22.57,0,0,0-3.75-2.47q-1.32-.59-2.67-1.11-1.38-.33,0-.4c-2.63-3.16-3.9-4.78-8.3-5.09-2.36-.16-5.41,2-5.79,4.41-.77,5,.54,6.3,3.54,9.89,1.31,1.58,2.84,5.83,5.06,8.3,4.82,5.37,11.32,9.77,17.53,13.35,3.36,1.93,6.84,3,10.44,4.28,3.27,1.21,6.4,3,9.78,3.88s6.71.71,10.1.94a43.23,43.23,0,0,1,12,2.83C559.88,280.69,561.94,266.31,553.63,266.93Z"/><path class="cls-6" d="M550.39,264.27a23.85,23.85,0,0,0-2.12-1.4,11.48,11.48,0,0,0-1.81-.77,5.23,5.23,0,0,0-3.5-1.34,5.43,5.43,0,0,0-4.69,8.17,5.24,5.24,0,0,0,2.83,2.32,14.17,14.17,0,0,0,1.52,1.27c.69.49,1.39,1,2.07,1.47a5.66,5.66,0,0,0,4.34.57,5.64,5.64,0,0,0,1.35-10.3Z"/><path class="cls-10" d="M489.84,239.06c-.49,5.19,41.45,35.14,66.53,35,0,0-7-21.89-56.71-47.12C499.66,227,490.66,230.35,489.84,239.06Z"/><path class="cls-10" d="M498.15,246.27a13.78,13.78,0,0,1,9-14.06"/><path class="cls-10" d="M496.45,228a5.29,5.29,0,1,0-6.31,7"/><path class="cls-10" d="M544.23,258.39a12.92,12.92,0,0,0-8.1,10.76"/><path class="cls-10" d="M507.78,231.25a24.33,24.33,0,0,1,6-1.06,8.19,8.19,0,0,1,5.65,1.92,12,12,0,0,1,2.48,3.92,12.84,12.84,0,0,0,2.43,4,4.26,4.26,0,0,0,4.26,1.21c1.46-.53,2.33-2.54,1.38-3.77s-3.48-.42-3.25,1.12"/><g class="cls-16"><path class="cls-6" d="M305.31,122.25a7,7,0,0,0-3.21-2.4l0,0-.63-.17h0l-3.21-.85a19.48,19.48,0,0,0-5.25-1.11c-3.68.12-6.82,1.94-7.65,5.76a7.08,7.08,0,0,0,.09,3.37c-6.68,4.42-12,22.44-12.92,29.71-.55,4.14,19.3,7,20.34,7.44,3.64,1.7,4.59-2,5.69-5.81,2.64-9,6.91-17.13,10.74-25.66C311.4,127.83,308.95,124,305.31,122.25Z"/><path class="cls-14" d="M319.57,128.26c-.55-3.77-5.84-6-8.69-3.15-5,4.95-6.56,12.68-9,19.15-1.9,5.12-3.81,10.19-6,15.17-6.38-2.19-12.8-4.36-19.45-5.41-8.71-1.38-11.6,12.46-3.27,15.13s17.08,3.41,25.6,4.67c2.87.42,5.54-1.74,6.57-4.24,2.87-7,6.09-13.84,8.91-20.85C316.83,142.43,320.59,135.19,319.57,128.26Z"/><path class="cls-14" d="M297,139.34a7.55,7.55,0,0,0-10-3.63,7.55,7.55,0,0,0-3.63,10,7.55,7.55,0,0,0,10,3.63,7.55,7.55,0,0,0,3.63-10Z"/><path class="cls-10" d="M313.44,119.55a155.29,155.29,0,0,0-27.09-6.8l-.28.68c-6.25,15.27-11.91,30.13-17.83,45.54-.28-.25-.2.29-.13.66l30,8.72a262.43,262.43,0,0,1,17.22-47.86c-.19-.52-1.16-.27-1.08.27S313.42,120.1,313.44,119.55Z"/><path class="cls-10" d="M299.1,122.36a23.74,23.74,0,0,0,7.29,2.07l-2.83,10"/><path class="cls-10" d="M279.24,146.71l-2.75,7.74,8.68,2.82"/><path class="cls-10" d="M297.87,152.47l-2.91,6.4a14.35,14.35,0,0,0-5.08-1.16"/><path class="cls-10" d="M290.32,133a5.56,5.56,0,1,0,.92-.06l-.93.14"/></g><path class="cls-7" d="M295.53,84.54H282V35.14A22.07,22.07,0,0,1,304,13.07H357.8a22.07,22.07,0,0,1,22.07,22.12V83.65a39.66,39.66,0,0,0,39.66,39.67h34.75"/><path class="cls-12" d="M366.71,58.53V37.32a11,11,0,0,0-11-11h-49.1a11,11,0,0,0-11,11V84.54"/><path class="cls-5" d="M296.57,116.21c.1,0,.84,1.19.93,1.14.88-.19,2.22,0,1.8-1.09.07-.31-2-9.66-7.25-10.76-.4-.08.11,1.39.11,1.8,0,.79,0,1.58.1,2.37a4.23,4.23,0,0,0,.14.86,2.68,2.68,0,0,0-.35,1.91c.09.79.07,3.78.54,4.44C293.46,118.1,295.08,116.6,296.57,116.21Z"/><path class="cls-5" d="M283.7,109.34c-.28-.39-1.16-1.65-1.37-2-.46-.73-1.07-7.17-.19-8.91A24,24,0,0,1,284.78,94c1.59-2.56,1.21-6.08.82-8.9.28,2.08-2.5-4.89-3.77.68a11.66,11.66,0,0,0,.07,3.9c.19,2.27-1.07,3.09-2,4.94a8.82,8.82,0,0,0-1.3,4.36,12.06,12.06,0,0,0,.21,6,5,5,0,0,0,1.39,2.2,8.83,8.83,0,0,1,1.52,2C282.43,110.72,284.7,110.73,283.7,109.34Z"/><path class="cls-7" d="M307.07,117.05a33.54,33.54,0,0,0-6.77-21c-2.8-3.38-4.77-11.56-4.77-11.56H282s.08,5.46-.55,7.52c-5.65,5.81-2,17,2.87,18.4,0,2.3-.09,4.66-.1,7,0,1.45-.23,6.29,4.09,6.3s4.48-4.18,4.4-5.32c-.27-4-.24-8-.51-12"/><path class="cls-12" d="M461.22,123.32l23.11,0A45.87,45.87,0,0,0,530.2,77.47h0a45.87,45.87,0,0,0-45.87-45.87H458.53"/><path class="cls-5" d="M364.43,84.89c-2.19,2.06-4.14,4.07-6.86,5.46a25.59,25.59,0,0,1-9.26,2.44c-3.36.34-6.36-.85-9.35-2.33-2.56-1.26-4.62-3.81-7.27-4.63A1.39,1.39,0,0,0,330,87.52c.65,3.17,4.94,5.77,7.67,7.1A29.31,29.31,0,0,0,348.8,97.1c6.95.29,15.19-3.75,18.9-9.69C369,85.36,366.12,83.3,364.43,84.89Z"/><path class="cls-5" d="M354.89,88.79c-.24,2-5.35,1.56-6.64,1.49a18.11,18.11,0,0,1-6.53-1.69,1,1,0,0,0-1.5.86c-.57,5.16,5,6.17,9,6.07,4.8-.11,8.71-1.28,10.43-6.09C360.79,86.31,355.34,85.06,354.89,88.79Z"/><path class="cls-17" d="M341.4,84.45a5.76,5.76,0,0,1,5.14-4,7,7,0,0,1,5.94,3,5.85,5.85,0,0,1,1.06,4.85,5.3,5.3,0,0,1-4.14,3.61C345.48,92.64,340.17,88.79,341.4,84.45Z"/><path class="cls-10" d="M328,88.22s13.58-28,40.88-2.83C368.92,85.39,351.13,111.31,328,88.22Z"/><path class="cls-5" d="M230.7,136.66c-4.09,4.21-8.93,2-13.91,3.87-2.18.82-5.05,3-4.82,5.48l-.52.38a15.27,15.27,0,0,0-5.16-5c-4.16-2.35-10.49-.87-14.14-3.68-3.49-2.68.58-25.62-6.33-23.65-4.32,1.23-3.88,7-4,10.65-.11,4.82-.56,10.91,1.78,15.35.1.19.23.36.34.55.35,3.84,4.6,6,8.14,6.43,3.16.41,6.15-.53,9.18.83,2.22,1,3.38,2.84,5,4.27.55.83,1.06,1.68,1.57,2.47a3.56,3.56,0,0,0,6.58-1.78c.37-4.64,8.91-4.64,12.08-5.9a12.39,12.39,0,0,0,1.89-.94l.8-.11c2.18-.28,3.59-3.08,4.24-4.76a12.56,12.56,0,0,0,1.14-1.46C236.1,137.29,232.64,134.67,230.7,136.66Z"/><path class="cls-18" d="M186.26,109c-2.19,3.18-1.24,17.71-1.38,21.57s-.16,7.75,2.07,10.73c1.68,2.23,10.22,2.56,14.9,2.36a4.83,4.83,0,0,1,3.93,1.74l6.43,7.76,3.61-7.38a4.18,4.18,0,0,1,3.45-2.33l8.76-.66a5.66,5.66,0,0,0,5.1-4.39,61.25,61.25,0,0,0,1.67-10.27c.07-3.32.64-17.78-1.32-20.46-2.36-3.21-13.4-.87-23.8-.89S188.53,105.72,186.26,109Z"/><path class="cls-6" d="M221.65,123.77a10.77,10.77,0,0,0-6-6.92c-3.56-2.57-8.67-2.45-12.6-.22a10.81,10.81,0,0,0-5.29,12.57,13.42,13.42,0,0,0,9.18,8.63,12.54,12.54,0,0,0,11.57-3A11.31,11.31,0,0,0,221.65,123.77Z"/><path class="cls-18" d="M200.08,128.39a9.28,9.28,0,0,1,2.19-8.9,10.48,10.48,0,0,1,9.81-3.14,9.72,9.72,0,0,1,7.24,7.21,9.23,9.23,0,0,1-3.26,9C211.49,136.16,202,134.23,200.08,128.39Z"/><path class="cls-7" d="M208.32,122.07l-.43,4.21c1.59.11,3.1.27,5.88.42"/><path class="cls-5" d="M141.82,217.79l-.44.35a4.93,4.93,0,0,0-1.38,5.7,18.61,18.61,0,0,0,8.3,9.28,2.17,2.17,0,0,0,0,3.14c.5.52,1,1,1.57,1.5-4.58-.25-9.17-.41-13.75-.34-2.73,0-2.82,4.16-.59,5.05,9.84,3.93,19.18,6.53,29.9,6.39,9.41-.12,21.86-1.5,29.65-7.27,2.11-1.57.76-5.22-1.74-5.17a3.46,3.46,0,0,0-2.8-1.08c-2.16.17-4,1.17-6.23,1-2.82-.19-5.66-1.72-8.23-2.77-4.93-2-9.86-4-14.83-5.9s-8.88-3.45-12.23-7.5C147.31,218.15,144.61,215.61,141.82,217.79Z"/><path class="cls-6" d="M129,219.82c-.49.35-1,.74-1.41,1.13-.21-.46-.42-.92-.64-1.35-1.82-3.57-8.39-2.26-7.22,2.1.94,3.53.58,4.72-2.31,6.93-2.71,2.07-.76,7.54,2.85,6.5,2.5-.72,4.56.12,4.8,2.48,0,.46-.05.93,0,1.42,0,4.36,6.09,5.33,6.88.83,0-.09,0-.18,0-.28a3.53,3.53,0,0,0,2-.46,7.09,7.09,0,0,1,5.7-.76c4,.92,6.57-5.5,3-7.51a41.34,41.34,0,0,0-3.87-1.94c.11-.37.23-.74.34-1.11a4.89,4.89,0,0,0-.74-4l1-1.79c1.7-3.11-2.36-6.38-5.25-5.05A30.52,30.52,0,0,0,129,219.82Z"/><path class="cls-10" d="M129.38,249.24l-7.45-12.94-13.43-.82a72.1,72.1,0,0,1,9.65-9.85c.18-4.32.48-13.51.48-13.51s7.92,5.62,11.45,8.31a78.55,78.55,0,0,1,12.53-6.71,78.91,78.91,0,0,0-4.37,15.21,45.53,45.53,0,0,1,11.43,8.67c-3.22.74-14,.84-15.4,1.73C131.35,241.14,130.48,246,129.38,249.24Z"/><path class="cls-10" d="M201.75,236.31c-7.6,7.76-29.43,24.19-72.38,12.94"/><path class="cls-10" d="M149.66,237.6c17.83,7.49,35.25,5.61,52.1-1.29"/><path class="cls-10" d="M142.6,213.72c15.77,14.11,38,23.07,59.15,22.59"/><path class="cls-5" d="M392.83,164.88l.32-.47a4.93,4.93,0,0,0-.42-5.85A18.61,18.61,0,0,0,382,152.25a2.17,2.17,0,0,0-.92-3c-.63-.34-1.29-.66-2-1,4.44-1.15,8.86-2.39,13.2-3.86,2.59-.87,1.43-4.82-1-5-10.57-.75-20.25-.39-30.43,3-8.93,3-20.37,8.07-26,15.94-1.54,2.13.87,5.2,3.22,4.39a3.46,3.46,0,0,0,3,.18c2-.82,3.47-2.33,5.62-2.86,2.74-.67,5.91-.08,8.68.14,5.3.42,10.61.81,15.92,1.11s9.51.59,13.93,3.43C387.5,166.21,390.83,167.81,392.83,164.88Z"/><path class="cls-6" d="M404.45,159c.36-.48.68-1,1-1.5.34.38.68.75,1,1.09,2.82,2.85,8.68-.4,6.24-4.2-2-3.08-2-4.32.09-7.31,2-2.8-1.57-7.42-4.69-5.32-2.16,1.45-4.38,1.27-5.33-.91-.11-.45-.23-.9-.38-1.37-1.35-4.15-7.43-3.23-6.8,1.3,0,.09,0,.18.05.27a3.53,3.53,0,0,0-1.75,1,7.09,7.09,0,0,1-5.2,2.46c-4.05.33-4.59,7.24-.56,8.06a41.34,41.34,0,0,0,4.28.68c0,.39,0,.77,0,1.16a4.89,4.89,0,0,0,1.92,3.61l-.39,2c-.67,3.48,4.19,5.36,6.53,3.22A30.52,30.52,0,0,0,404.45,159Z"/><path class="cls-10" d="M395.13,131.14l11,10.07,13-3.3a72.1,72.1,0,0,1-6.2,12.32c1.15,4.17,3.65,13,3.65,13s-9.26-2.94-13.43-4.44a78.55,78.55,0,0,1-9.9,10.2,78.91,78.91,0,0,0-.45-15.82,45.53,45.53,0,0,1-13.52-4.79c2.84-1.68,13.06-5,14.15-6.33C395.71,139.45,395.06,134.56,395.13,131.14Z"/><path class="cls-10" d="M330.11,165.46c4.88-9.7,20.68-32,65-34.32"/><path class="cls-10" d="M379.35,148.4c-19.26-1.72-35.28,5.37-49.24,17.06"/><path class="cls-10" d="M393.33,169c-19.32-8.65-43.21-10.43-63.22-3.55"/><path class="cls-7" d="M210.83,98.92c0-30.52,30-51.31,63.14-50"/><path class="cls-5" d="M194.79,278.09c-.67,1.21-1.91,3.71-3.22,4.2-1.95.72-3.9-.78-5.51-1.58s-3.37-2-5.37-1.74c-3.66.44-9.16,8.29-12.36,5.77-.81-.64-1-2.79-1.83-3.67a4.78,4.78,0,0,0-3.81-1.45c-4.06.13-8.42,4.6-11.31,7.15-2.12,1.87.58,4.69,2.82,3.66,1.18-.54,7.07-4.84,8-4.44a19.42,19.42,0,0,0,2.24,4.3c3.32,2.73,7.72,1.75,11-.5,2.1-1.45,3.69-4.1,6.41-4,2.26.06,4.86,2.95,7.35,3.28,5.34.71,8.67-3.68,11.15-7.71C202.5,277.81,196.79,274.48,194.79,278.09Z"/><path class="cls-10" d="M152.94,286.89c2.23-.81,11.62-6.34,11.62-6.34l6.37,8.22s4.35-3.5,6.16-4.87,3.41-3.11,5.53-3.9l8.68,7.13,9.25-8.4"/><path class="cls-5" d="M480.46,164.64c-.67,1.21-1.91,3.71-3.22,4.2-1.95.72-3.9-.78-5.51-1.58s-3.37-2-5.37-1.74c-3.66.44-9.16,8.29-12.36,5.77-.81-.64-1-2.79-1.83-3.67a4.78,4.78,0,0,0-3.81-1.45c-4.06.13-8.42,4.6-11.31,7.15-2.12,1.87.58,4.69,2.82,3.66,1.18-.54,7.07-4.84,8-4.44a19.42,19.42,0,0,0,2.24,4.3c3.32,2.73,7.72,1.75,11-.5,2.1-1.45,3.69-4.1,6.41-4,2.26.06,4.86,2.95,7.35,3.28,5.34.71,8.67-3.68,11.15-7.71C488.18,164.35,482.47,161,480.46,164.64Z"/><path class="cls-10" d="M438.62,173.43c2.23-.81,11.62-6.34,11.62-6.34l6.37,8.22s4.35-3.5,6.16-4.87,3.41-3.11,5.53-3.9l8.68,7.13,9.25-8.4"/><path class="cls-10" d="M43.24,206.12c1.19-4.6,4.51-8.45,8.46-11.09,5.7-3.8,13.08-5.33,19.6-3.22s11.82,8.14,12.24,15c.5,8.1-6,15.64-13.84,17.72C58.6,227.45,39.59,220.29,43.24,206.12Z"/><path class="cls-10" d="M66.31,197.24a9.74,9.74,0,0,0-9.4,3.9c-1.14,1.62-1.66,4-.3,5.46,1.1,1.15,2.92,1.15,4.51,1a43.37,43.37,0,0,0,5.79-1,8.15,8.15,0,0,1,4-.36c2.34.62,3.51,3.57,2.75,5.87a7.68,7.68,0,0,1-5.27,4.58,11.74,11.74,0,0,1-10-1.66"/><path class="cls-10" d="M62.24,203.69,72.57,219l0-.54"/><path class="cls-12" d="M28.78,157.58c-.37,7-.67,14.15,1,21s5.68,13.38,11.94,16.59"/></g></g></g></svg>