<svg xmlns="http://www.w3.org/2000/svg" xmlns:xlink="http://www.w3.org/1999/xlink" viewBox="0 0 663.97 388.61"><defs><style>.cls-1,.cls-7{fill:#e0dfe6;}.cls-2{filter:url(#luminosity-noclip-2);}.cls-3{fill:#232528;}.cls-4{filter:url(#luminosity-noclip-6);}.cls-5{mask:url(#mask);}.cls-13,.cls-20,.cls-6{fill:#ffda6a;}.cls-7{opacity:0.2;}.cls-15,.cls-16,.cls-18,.cls-19,.cls-24,.cls-8,.cls-9{fill:none;}.cls-12,.cls-13,.cls-15,.cls-16,.cls-18,.cls-19,.cls-20,.cls-24,.cls-8,.cls-9{stroke:#5a6684;}.cls-18,.cls-19,.cls-20,.cls-24,.cls-8,.cls-9{stroke-linecap:round;}.cls-12,.cls-13,.cls-15,.cls-16,.cls-18,.cls-20,.cls-24,.cls-8,.cls-9{stroke-miterlimit:10;}.cls-12,.cls-13,.cls-16,.cls-18,.cls-19,.cls-20,.cls-24,.cls-8{stroke-width:3px;}.cls-15,.cls-9{stroke-width:2.5px;}.cls-10{opacity:0.1;}.cls-11{mask:url(#mask-2);}.cls-12{fill:#fff;}.cls-14{fill:#5a6684;}.cls-17{mask:url(#mask-3);}.cls-18{stroke-dasharray:7;}.cls-19{stroke-linejoin:round;}.cls-21{mask:url(#mask-4);}.cls-22{mask:url(#mask-5);}.cls-23{mask:url(#mask-6);}.cls-24{stroke-dasharray:6.92 6.92;}.cls-25{filter:url(#luminosity-noclip-5);}.cls-26{filter:url(#luminosity-noclip-4);}.cls-27{filter:url(#luminosity-noclip-3);}.cls-28{filter:url(#luminosity-noclip);}</style><filter id="luminosity-noclip" x="391.26" y="111.16" width="76.3" height="87.19" filterUnits="userSpaceOnUse" color-interpolation-filters="sRGB"><feFlood flood-color="#fff" result="bg"/><feBlend in="SourceGraphic" in2="bg"/></filter><mask id="mask" x="391.26" y="111.16" width="76.3" height="87.19" maskUnits="userSpaceOnUse"><g class="cls-28"><path class="cls-1" d="M410.93,172.61c-.11-3.56-5.62-5.75-7.3-2-2.69,6.06-6.94,12.37-8.16,18.93a3.15,3.15,0,0,0,.79,2.88c-.72,3.95,4.11,7.58,7.25,4.18C408.93,190.76,411.18,180.38,410.93,172.61Z"/><path d="M404.43,170.2c-2.12,4.08-4,8.32-6.16,12.34-1.17,2.14-3,4.9-3.47,7.58a15.54,15.54,0,0,0-1.35,3.16c-.93,3.25,2.89,6.39,5.84,4.49,3.94-2.53,6.29-7.63,8.18-11.78a44.74,44.74,0,0,0,4.17-13.84C412.05,168.29,406.13,166.92,404.43,170.2Z"/></g></mask><filter id="luminosity-noclip-2" x="187.53" y="0" width="149.84" height="187.59" filterUnits="userSpaceOnUse" color-interpolation-filters="sRGB"><feFlood flood-color="#fff" result="bg"/><feBlend in="SourceGraphic" in2="bg"/></filter><mask id="mask-2" x="187.53" y="0" width="149.84" height="187.59" maskUnits="userSpaceOnUse"><path class="cls-2" d="M291.52,162.53c-.38-.76-.8-1.5-1.23-2.23a2.81,2.81,0,0,0-3.48-1.34,5.28,5.28,0,0,0-4,.07c-.33-.35-.66-.71-1-1a2.18,2.18,0,0,0-3.41,2.64h0c.54,1-.37,2.92.25,3.83.38.85,7.17,15.38,7.44,16.22.34,1,4.17.69,4.13.52.65,0-1.21-13.4.18-14.21A3.33,3.33,0,0,0,291.52,162.53Z"/></mask><filter id="luminosity-noclip-3" x="362.85" y="77.51" width="73.39" height="229.64" filterUnits="userSpaceOnUse" color-interpolation-filters="sRGB"><feFlood flood-color="#fff" result="bg"/><feBlend in="SourceGraphic" in2="bg"/></filter><mask id="mask-3" x="362.85" y="77.51" width="73.39" height="229.64" maskUnits="userSpaceOnUse"><g class="cls-27"><path d="M393.38,222.59l-.15-.06a1.87,1.87,0,0,0-.46-.43V222a1.71,1.71,0,0,0-2.17-1.59,2.17,2.17,0,0,0-1.45.09,2.14,2.14,0,0,0-1.54.84,2.27,2.27,0,0,0-.17,2.42,2.64,2.64,0,0,0,3.64,1.08,1.68,1.68,0,0,0,.51-.4l.13,0A3.23,3.23,0,0,0,393,224h.17A.69.69,0,0,0,393.38,222.59Z"/><path d="M432.76,252.42a24.71,24.71,0,0,0-1.42,2.76c.21-2.72.41-5.44.47-8.17,1,0,2-.1,2-1.15v-.35a1.53,1.53,0,0,0-.78-1.35,7.85,7.85,0,0,0-3-.72,1.73,1.73,0,0,0-1.66,1.27c-.77,4.68-1.09,9.41-1.47,14.13-.3,3.71-.5,7.55,3,9.8a2.06,2.06,0,0,0,3.07-1.76,34.88,34.88,0,0,1,3.06-13.05C436.92,251.88,433.79,250.7,432.76,252.42Z"/></g></mask><filter id="luminosity-noclip-4" x="123.09" y="55.79" width="56.61" height="106.5" filterUnits="userSpaceOnUse" color-interpolation-filters="sRGB"><feFlood flood-color="#fff" result="bg"/><feBlend in="SourceGraphic" in2="bg"/></filter><mask id="mask-4" x="123.09" y="55.79" width="56.61" height="106.5" maskUnits="userSpaceOnUse"><g class="cls-26"><path d="M139.27,105.48c-8.53-2.74-4.91-7.43-4.1-10.88.93-4,2.15-7.94,2.2-11.92,0-1-2.93-1.58-5.81-1.39l-2.22.15c-3,.19-3.06,1.26-1.43,1.85-2.09,4.61-3,9.27-4.22,13.91-1,3.81-1.94,7.91,7.82,10.73C136.7,109.43,144.25,107.08,139.27,105.48Z"/><path d="M134,101.41c0-.66,0-1.32,0-2a1.26,1.26,0,0,0-.06-.34c0-.18,0-.36,0-.54,0-.37-.57-.46-.66-.12a1.17,1.17,0,0,0-1.5.7,23.74,23.74,0,0,0-1.19,9.05,1.65,1.65,0,0,0,3.29,0c.09-1.6.23-3.22.21-4.82C134.16,102.73,134.1,102.07,134,101.41Z"/><path d="M178.41,153.11c-2.38-1.14-4.85-.81-7.27-.92-.76,0-1.51-.09-2.27-.11-2.51-1.78-5.55-1.31-8.07-1.22a22.8,22.8,0,0,0-7.95,1.52c-.42-.5-1-.19-1.31.58l-.3.68c-.81,1.83-.14,5.14.86,5.2,3.08.18,6.17-.09,9.25.28a16,16,0,0,1,1.8.35,2,2,0,0,0,.76,1.18c2.37,1.27,4.81,1.17,7.23,1.33s4.87.7,7.27-.17C180.16,161.16,180.09,153.91,178.41,153.11Z"/></g></mask><filter id="luminosity-noclip-5" x="11.42" y="158.07" width="168.77" height="152.31" filterUnits="userSpaceOnUse" color-interpolation-filters="sRGB"><feFlood flood-color="#fff" result="bg"/><feBlend in="SourceGraphic" in2="bg"/></filter><mask id="mask-5" x="11.42" y="158.07" width="168.77" height="152.31" maskUnits="userSpaceOnUse"><g class="cls-25"><path class="cls-3" d="M105,255.21a12.45,12.45,0,0,0-4.47,4.37c-1.1,1.74,1.63,3,2.55,1.83a12.25,12.25,0,0,0,4-4.1A1.55,1.55,0,0,0,105,255.21Z"/><path d="M161.81,255.43c-10-.44-19.93-.21-29.89-.22-4.82,0-9.64,0-14.46,0l-7.71-.05c-2.36,0-4.88-.57-7.16,1-1.47,1-1.48,5.83,0,6.83,2.29,1.56,4.8,1,7.16,1l7.71-.05c4.82,0,9.64,0,14.46,0,10,0,19.93.22,29.89-.22C164.12,263.51,164.12,255.53,161.81,255.43Z"/><path d="M72.82,203.74c-1.66-2.25-5.18-1.88-8.15-1.75a18.48,18.48,0,0,0-6,.95,3.75,3.75,0,0,0-2.87.72,3.69,3.69,0,0,0-1,1.07h0l-.08.15a3.54,3.54,0,0,0-3.61,1.64,5,5,0,0,0-.43,3.67,3.61,3.61,0,0,0,1.66,2.15,3.68,3.68,0,0,0,2.78.36,3.81,3.81,0,0,0,1.35-.79,3.74,3.74,0,0,0,1.58.31,4.72,4.72,0,0,0,2.3-.67,3.83,3.83,0,0,0,2.47-.43,4.86,4.86,0,0,0,1.63-1.67,7.58,7.58,0,0,0,1-1.7c.43,0,.85,0,1.29,0,1.84,0,3.84.18,5.28-.86C73.1,206.12,73.61,204.81,72.82,203.74Z"/></g></mask><filter id="luminosity-noclip-6" x="463.14" y="45.26" width="154.67" height="80.33" filterUnits="userSpaceOnUse" color-interpolation-filters="sRGB"><feFlood flood-color="#fff" result="bg"/><feBlend in="SourceGraphic" in2="bg"/></filter><mask id="mask-6" x="463.14" y="45.26" width="154.67" height="80.33" maskUnits="userSpaceOnUse"><path class="cls-4" d="M559.33,104c-5.24-3.19-14.6-1.86-20.54-1.36a26.1,26.1,0,0,0-4.65.86c1.65-7.12.57-15.64.44-22.6-.12-6.21-9.54-6.22-9.66,0-.15,8.22-1.66,18.65,1.63,26.34.7,1.63,2.88,2.16,4.55,1.6,2.64,3.09,7.85,2.77,11.64,2.88,5.21.14,12,1.24,16.6-1.56A3.61,3.61,0,0,0,559.33,104Z"/></mask></defs><title>sec_ill_01</title><g id="Layer_2" data-name="Layer 2"><g id="Section_01" data-name="Section 01"><path class="cls-1" d="M442.74,263.34c-6.48-.23-12.94-.66-19.4-1.23-4.09-.36-5.42-2.3-5.19-6.26.17-2.84.39-5.2-.54-7.92s-5.67-2.5-5.33.72c.66,6.31-2.84,15.27,4.56,18.89,3.24,1.59,7.62,1.4,11.13,1.56,4.92.22,9.86.27,14.78.37C446.69,269.55,446.67,263.47,442.74,263.34Z"/><path class="cls-1" d="M495.05,282.08c-2.72-2.7-3.72-9.14-3.59-13.06.12-3.52.38-7,.58-10.54.41-7.14,1.29-14.27,1.37-21.42.14-13.41-.68-27.14-.41-41.86.13-6.81.52-13.61-.13-20.38-.56-5.9-.78-12.39-3.08-17.93-3.23-7.78-12.76-12.44-20.61-8.61-2,1-.44,3.46,1.35,3.21,6.75-.95,12.79,1.33,15.16,8.2,2.07,6,1.86,12.77,2.42,19,1.18,13.24-.29,26.56-.65,39.85-.35,13,.13,26-.65,39-.32,5.4-3.88,28.74,6.79,27.59C495.24,284.91,496.38,283.39,495.05,282.08Z"/><path class="cls-1" d="M522.15,219.71c-11.68,4.53-9.65,21.95-9.77,31.8-.1,8-.11,15.93-.25,23.9-.07,3.88-.12,8.47-2.22,11.9-2.39,3.91-7,4.28-11,5.35-2.71.72-2.24,5.15.67,5,5.78-.31,11.18-2.05,14.8-6.81,4.62-6.07,3.88-14.16,3.95-21.36q.11-13,.17-26c0-8.24.78-14.88,5-22.09C523.95,220.62,523.14,219.33,522.15,219.71Z"/><path class="cls-1" d="M327,322.86c-.31-4.07-3.9-3.2-3.48.82,1,9.73-9.26,21.45-20.86,17.49-3.56-1.22-6.8-3.62-9.93-5.66-3.67-2.4-7.54-4.9-9.42-9.05-3.81-8.38-2.79-19-3.57-28-.43-5-1.16-9.79-1.35-14.78-.09-2.27.12-4.57.19-6.87.16-5.32,1.73-6.74,2.62-8.79,1.18-2.73-1.71-2.68-4.11-.52-3.66,3.28-4.1,9.26-4.63,13.88A184.7,184.7,0,0,0,271,302.29c0,12-.56,26.87,8.89,35.78,7.47,7.05,17.82,10,28.94,9.34C321.27,346.65,327.8,333.81,327,322.86Z"/><path class="cls-1" d="M351.25,249.32c-.09-3.52-.53-7.06-.81-10.58-.59-7.21-.77-14.44-1.57-21.64-.73-6.58-1.16-13.18-3.5-19.44-1.54-4.13-4.88-10.14-9.72-10.87a1.63,1.63,0,0,0-1.57,2.7c1.7,1.75,3.78,2.9,5.25,4.92a19.28,19.28,0,0,1,3.24,7.66c1.26,6.34,1,12.94,1.59,19.36s1.37,12.81,1.92,19.23c.28,3.24.44,6.5.95,9.71s.66,6.73,1.5,9.92c.45,1.7,2.76,1.2,2.9-.39A94.17,94.17,0,0,0,351.25,249.32Z"/><path class="cls-1" d="M407,348.12a.34.34,0,0,0-.14,0,1.15,1.15,0,0,0-.69-.62,53.43,53.43,0,0,1-6.24-2.26,19.67,19.67,0,0,1-5.12-4,49.59,49.59,0,0,1-7.74-9.41,132.06,132.06,0,0,1-11.44-22.57c-3.07-8-5.87-16.15-8.81-24.23-1.47-4-3-8.06-4.51-12.06-1.49-3.85-3-10.07-6.92-12.09-1.82-.94-4.88-.29-5.25,2.13-.58,3.8,1.66,7.14,3.27,10.46s3.1,6.62,4.44,10c2.62,6.68,5,13.44,7.64,20.13a202.18,202.18,0,0,0,9.12,19.95,68.16,68.16,0,0,0,11.82,17,29.08,29.08,0,0,0,9.42,6.27c3.27,1.42,6.38,2.93,10,3a1.06,1.06,0,0,0,1.11-1h0A.34.34,0,0,0,407,348.12Z"/><path class="cls-1" d="M240,192.93a3.26,3.26,0,0,0-3.65-1.49c-2.18.55-3.26,2.37-5,3.64-.83.59-1.75,1-2.62,1.52-.52.32-1.42,1.34-1.8,1.41a1,1,0,0,0,0,1.85c.85.15,1.46,1,2.4,1.15a6.67,6.67,0,0,0,2.28-.05,2.4,2.4,0,0,0,1.2,1.53c2.62,1.43,5.32.06,6.83-2.3A7.32,7.32,0,0,0,240,192.93Z"/><path class="cls-1" d="M239.32,194.27c-3.59,2.05-6.77,3.82-10.88,4.67-4.57.95-9.28,1.25-13.9,1.87-9.33,1.24-18.66,3-27.32,6.8-12.13,5.37-27.35,18.44-25.38,33.3a2,2,0,0,0,.07.52c0,.06,0,.12,0,.19l0,0a2.42,2.42,0,0,0,4.62,0c2.94-7.31,5.29-13.63,11.23-19.14,6.26-5.81,14.25-9.18,22.42-11.3,8.5-2.2,17.2-2.89,25.86-4.08,6.64-.91,13.77-2.43,17.94-8.11C246.2,196.09,242.12,192.68,239.32,194.27Z"/><path class="cls-1" d="M534.08,217.19c-3.44-1.13-9.66-.3-12.87,2.08-4,2.95-5.32,7.42-5.88,12.17-.83,7.15-.59,14.52-.62,21.71,0,7.43-.18,14.88,0,22.3a1.76,1.76,0,0,0,3.53,0c.38-11.13.24-22.32.16-33.46,0-5.07-1.37-11.88,1.12-16.53,2.9-5.41,7.75-5.5,13.07-6C533.6,219.33,535.14,217.54,534.08,217.19Z"/><g class="cls-5"><path class="cls-1" d="M461.62,164.58c-.51,1.73-1.07,3.48-1.72,5.17-.8,2.05-2.29,3.19-3.66,4.76a40.29,40.29,0,0,1-8.16,7.63,28.24,28.24,0,0,1-10.49,4.14,46.91,46.91,0,0,1-6.31.5c-2,.09-4.19.58-6.18.3a54.53,54.53,0,0,1-6-1.72,19.58,19.58,0,0,1-5.59-2c-2.81-1.7-5.18-5-6.92-7.79-2-3.26-3.24-6.92-4.93-10.35S398,158,395.83,154.57c-1.65-2.64-5.87-.2-4.19,2.45,2.65,4.19,4,8.52,5.93,13A62.73,62.73,0,0,0,404,181.27a27.18,27.18,0,0,0,9.22,7.57,22.94,22.94,0,0,0,2.24,1c2.3,1.85,6.13,2.35,8.94,2.86,3,.54,5.94,1.11,8.63-.44a32.21,32.21,0,0,0,6-.56A37.53,37.53,0,0,0,451.56,187a29.8,29.8,0,0,0,9.22-8.53c1.31-1.92,1.92-4.36,3-6.46a27.89,27.89,0,0,0,2.33-6.16C466.83,162.9,462.47,161.7,461.62,164.58Z"/><path class="cls-6" d="M465.76,148.34c-.29-5.69-1.9-10-4.61-14.91a3.89,3.89,0,0,0-5.24-1.37c-1.35.77-2.7,1.51-4,2.37a4.29,4.29,0,0,0-1.55,2,5.22,5.22,0,0,0-1.43,4.49c.42,2.81,1.61,5.3,1.77,8.2a21.35,21.35,0,0,1-.75,7.19,22.49,22.49,0,0,1-7.4,11.05c-1.79,1.46-4.5,2.25-6.07,3.88s-1.55,3.9-1.35,6c.54,5.39,5.1,8.85,10.41,7,4.21-1.48,8.13-5.44,10.9-8.82a42.2,42.2,0,0,0,7-12.25A37.68,37.68,0,0,0,465.76,148.34Z"/><path class="cls-7" d="M431.43,175.31c-1.13-2.83-2.19-2.08-5-2.58-4.23-.74-6.25-2.51-9.23-5.56-8.06-8.24-15.15-18.14-6.59-30.81.06-.09,0-.21,0-.32.26,0,.52-.11.78-.18,2.31-.67,3-4.13.7-5.32-1.34-.7-4.1-1.58-4.6-3.06-1.06-3.1-4.62-3.24-6.46-.84-9.49,12.34-7.49,29.4.65,42a6,6,0,0,0,1.26,5.63,40.17,40.17,0,0,0,13.65,10.33c1.33.57,9.7,3,11,2.76,6-.2,6-.2,6.21-3.73C434,181.34,432.28,177.44,431.43,175.31Z"/><path class="cls-8" d="M466,150.34a36.06,36.06,0,0,1-34,37.06c-19.4,1-36.23-15.82-37.6-37.6s13.84-38.38,34-37.06S465.4,130.89,466,150.34Z"/><path class="cls-8" d="M452,149.42a22.17,22.17,0,0,1-20.88,22.78c-11.92.63-22.27-9.72-23.11-23.11s8.51-23.59,20.88-22.78S451.6,137.46,452,149.42Z"/><path class="cls-9" d="M433.56,163.63a7,7,0,0,1-8.46-1.23c-1.69-1.57-2.51-2.68-2.57-7.75,0-4.32.4-9.33.58-13.64a14.08,14.08,0,0,1,1.4-5.48c.82-1.58,3.45-2.29,5.2-1.93,1.38.29,3.38,1.23,3.84,2.57a18,18,0,0,1,.58,5.07c-.05,4.16,0,8.49-.06,12.65a4.68,4.68,0,0,1-.93,3.09,4.79,4.79,0,0,1-3.11,1.19,2.86,2.86,0,0,1-2.5-1.83,8.41,8.41,0,0,1-.51-3.22l-.25-9.47a5.29,5.29,0,0,1,.3-2.38,1.81,1.81,0,0,1,1.94-1.12c1.11.28,1.35,1.73,1.37,2.88l.11,8.74"/><line class="cls-8" x1="403.79" y1="124.11" x2="413.12" y2="131.59"/><line class="cls-8" x1="433.14" y1="172.55" x2="436.74" y2="185.45"/><line class="cls-8" x1="447.48" y1="135.33" x2="457.51" y2="129.32"/><path class="cls-10" d="M437.49,178.88c-.67-2.6-1.51-5.26-3.41-7.23a3.23,3.23,0,0,0-5.13.71,23.93,23.93,0,0,1-9.8-3.46c-1.46-1-4.91-3.39-6-4.75-1.31-1.59-2.52-4.62-3.63-6.35-5.2-8.15,0-18.29,3.9-25.06,1.32-2.29-3.13-4.35-4.38-1.95-3.43,4.26-4.9,9.67-5.65,15a32.6,32.6,0,0,0,1.58,15.72c1,2.59,3,4.41,4.71,6.51a24,24,0,0,0,5.48,5.22,23.18,23.18,0,0,0,13.47,3.63c.24,1.4.63,2.8.86,4.17.44,2.56.64,4.86,3,6.38a3.47,3.47,0,0,0,4.15-.54C438.8,184.71,438.2,181.65,437.49,178.88Z"/><path class="cls-10" d="M464.19,143.51c-.62-4.42-1-12.27-5.7-14.45a2.36,2.36,0,0,0-3.5,2c-.16,2.27,2.36,2.7,3.19,4.77.93,2.32,3,4.74,3.24,7.23.5,4.72,1.75,12.36,0,16.87a52.22,52.22,0,0,1-9.5,14.32c-3.77,3.74-9.4,6.28-14.18,7.5-5.15,1.32-.55,6,3.58,4.13,5.38-2.39,11.11-7.08,15-11.36,3.72-4.08,7.21-8.86,8.21-14.4C465.5,154.75,464.95,148.9,464.19,143.51Z"/></g><path class="cls-1" d="M409.74,176.21c.06-.36-.43-.63-.62-.26-1,1.79-1.85,3.6-2.71,5.45a16.7,16.7,0,0,0-1.88,4.75.7.7,0,0,0,.19.58c0,.72,0,1.44,0,2.15-.51,2.15-1.37,4.29-2.06,6.36s-2.57,2.79-3.23,4.78c-.47,1.43,1.17,2.23,2.23,1.62a1,1,0,0,0,1.35,0,1.1,1.1,0,0,0,.34-.92,3.67,3.67,0,0,0-.09-.44,6.13,6.13,0,0,0,1.27-1,7.13,7.13,0,0,0,1.32-3.13,13.73,13.73,0,0,0,.31-2.67c.94-2.53,1.49-5.15.59-7.63a20.7,20.7,0,0,0,1.45-3.66A37.65,37.65,0,0,0,409.74,176.21Z"/><g class="cls-11"><path class="cls-1" d="M281.76,177.59c-.41-3.27-3.72-4.79-6.34-2.62-2.12,1.76-3.05,4.33-6.31,3.16-2.32-.83-4-3-6.42-3.92a9.66,9.66,0,0,0-6.9-.12c-1.93.71-3.87,3.64-5.68,3.91-1.43.21-4.33-3-5.45-3.71a12.68,12.68,0,0,0-6.56-2.37c-5.05-.13-9.41,3.69-13.51,6.14-2.52,1.5-2.37,6.17.88,6.73a11.4,11.4,0,0,0,7.88-1.53c3.4-1.8,4.39-2.48,7.57-.17,4.65,3.38,9.26,5.93,14.67,2.31.89-.59,1.77-1.91,2.74-2.32,1.77-.74,2.47.29,4.11,1.37,2.45,1.62,5,3,8,3C275.48,187.47,282.48,183.33,281.76,177.59Z"/><path class="cls-1" d="M329.78,22.76h0a6.44,6.44,0,0,0-1.57-.39C316.91,21,305,22,293.66,22h-68c-11.43,0-23.43-1-34.76.5-4.44.6-4.44,8.37,0,9,11,1.48,22.66.5,33.77.5h68c11.66,0,23.92,1.07,35.5-.31,3.11-.37,4.44-2.45,4.44-4.55A4.3,4.3,0,0,0,329.78,22.76Z"/><path class="cls-6" d="M231.81,9.15a4.39,4.39,0,0,0-3.72,2,4,4,0,0,0,0,4.17,4.88,4.88,0,0,0,1.55,1.48A4.43,4.43,0,0,0,236,14.38,4.22,4.22,0,0,0,231.81,9.15Z"/><path class="cls-1" d="M209.72,10.27a6.6,6.6,0,0,0-9,0,4.57,4.57,0,0,0-1.32,2,4.45,4.45,0,0,0-.55,2.36,6.05,6.05,0,0,0,1.87,4.33,6.6,6.6,0,0,0,9,0,4.57,4.57,0,0,0,1.32-2,4.45,4.45,0,0,0,.55-2.36A6.05,6.05,0,0,0,209.72,10.27Z"/><path class="cls-1" d="M238.7,13.79a3.19,3.19,0,0,0-.47-1.67,3.28,3.28,0,0,0-.89-1.46,5.15,5.15,0,0,0-1.94-1.71l-1.65-.67L231.9,8l-1.84.24-1.65.67L227,10a5,5,0,0,0-1.43,2.13,3.19,3.19,0,0,0-.47,1.67,4.91,4.91,0,0,0-.1.58l-.2-1.44a6.11,6.11,0,0,0-1.66-2.72,4.86,4.86,0,0,0-2.07-1.28,6.07,6.07,0,0,0-5,0A4.86,4.86,0,0,0,214,10.21a6.11,6.11,0,0,0-1.66,2.72,6.68,6.68,0,0,0,0,3.42l.65,1.47,1,1.24.16.13a6.2,6.2,0,0,0,1.93,1.2,3,3,0,0,0,1.47.38,2.29,2.29,0,0,0,.83.1h.13a12.13,12.13,0,0,0,1.73-.22l1.53-.62,1.3-1a5,5,0,0,0,1.08-1.38,5.94,5.94,0,0,0,.84-2.47,5,5,0,0,0,.24,1.22,8.56,8.56,0,0,0,.76,1.71q.26.36.56.69a4.9,4.9,0,0,0,1.85,1.62,7.23,7.23,0,0,0,5.36.6l1.65-.67,1.4-1a5,5,0,0,0,1.43-2.13,3.19,3.19,0,0,0,.47-1.67A3.2,3.2,0,0,0,238.7,13.79Z"/><path class="cls-1" d="M256.7,174.45a98.38,98.38,0,0,0-9.5,9.36c-1.82,2,1.15,3.49,3.24,2.34,4.46-2.44,5.1-5.29,9.2-8.18C261.58,176.61,258.4,172.93,256.7,174.45Z"/><path class="cls-1" d="M233.27,173.28a98.38,98.38,0,0,0-9.5,9.36c-1.82,2,1.15,3.49,3.24,2.34,4.46-2.44,5.1-5.29,9.2-8.18C238.16,175.44,235,171.76,233.27,173.28Z"/><path class="cls-1" d="M281.71,175.84a100,100,0,0,0-8.61,9.59c-1.63,2.05,1.53,2.82,3.52,1.5,4.25-2.82,4.59-5.38,8.44-8.53C286.88,176.92,283.28,174.26,281.71,175.84Z"/><path class="cls-1" d="M337.33,41.43c-.19-5.51-.08-11-.47-16.55-.37-5.3-.74-10.26-4-14.65a.37.37,0,0,0-.65.08c-1.3,5.08-.54,10-.34,15.2a146.18,146.18,0,0,1-.26,16.55c-.42,5.64-.3,11.29-.66,16.94s-.46,11.37-.44,17-.57,11.3,0,17a46.3,46.3,0,0,1,.45,7.85c-.21,3.05-.28,6.11-.36,9.16-.15,5.67-.23,11.34-.34,17-.1,5.11,0,40,.94,45.07-.75,1.08.31,2.43,2.09,2.43s1.65-1.08,1.12-2.18c1.2-5.1.42-40.12.55-45.32.14-5.67.31-11.34.41-17,.05-3.05.11-6.11,0-9.16a48.32,48.32,0,0,1,.8-7.85c.81-5.91.54-11.75.79-17.67.23-5.62.5-11.4.28-17S337.52,47.09,337.33,41.43Z"/><path class="cls-8" d="M331.15,173.12c-.69-6.87-.11-25.76-.11-32.36C329,99.18,331.73,57.6,331,16c0-7.92-6.89-13.86-15.17-14.52q-55.85,0-111.7,2c-3.45.66-7,1-9.9,3.27-2.67,2.09-3.89,4-3.89,7.29-1.38,17.82,0,76.77-1.1,94.46"/><path class="cls-8" d="M260.77,44.48c12.2.09,45.44.6,54.81-.39"/><path class="cls-8" d="M260,54.15c11.2-.58,38.43.58,49.62,0"/><path class="cls-8" d="M261.44,64.85,314.57,64"/><path class="cls-8" d="M205,82.06c19.55-1.15,37.57-1,57.12-2.17"/><path class="cls-8" d="M272.92,79c15.41-.43,25.66-.21,41.06-.64"/><path class="cls-8" d="M205,92.14c19.48-.52,25.41-.42,44.9-.94"/><path class="cls-8" d="M256.55,91.51c15.36-1.7,44-2.27,59.28-.32"/><path class="cls-8" d="M203.07,102.17q57.14-.92,114.28-1.72"/><path class="cls-8" d="M288,115.15c14.17.15,17.56.15,27.68.09"/><path class="cls-8" d="M303.31,127.31c14.17.15,6.61.12,16.73.06"/><path class="cls-8" d="M305.45,142.68c14.17.15,5.84.11,16,.05"/><path class="cls-8" d="M299.08,160.41c14.17.15,12.84.11,23,.05"/><path class="cls-8" d="M222.79,160.38c7.15.67,8.93.24,26-.17"/><path class="cls-8" d="M222.45,147.22c7.15.67,5.32.26,22.41-.14"/><path class="cls-8" d="M230.17,135.2c7.15.67-1.68.26,15.41-.14"/><path class="cls-8" d="M247.16,116.6c7.15.67-11.68.26,5.41-.14"/><path class="cls-6" d="M245.55,40.69c-1.09-1.85-8.4-3.46-9.65-1.55-1.59-1.35-4.19-.55-6.73-.66-2.27-.1-4.67-.49-6.47.66-3-.15-5.74.75-8.7.83a10.67,10.67,0,0,0-1.12.09c-1.48-1.21-6.7-1.34-7.89.77-1.59,2.79-.43,3.91-.27,7s-.79,12.44.27,15.51c2.34,6.78,14.69,3.39,20.32,3.16,5.83-.24,16.22,3.07,19.94-2.26S248.53,45.76,245.55,40.69Z"/><path class="cls-1" d="M252.36,42.07c-1.07-2.63-2.23-3.9-5.09-2.08-.73.46.08,7.74-.06,12.09,0,1.29,0,2.9,0,4.19,0,.79-.75,11-.47,11.81-1.2-.18-4.58,0-5.77,0-10.68-.18-25.28.17-36,0-1.42,0,3.34,5,3.34,5a206.34,206.34,0,0,0,21.42-.66c3.57-.27,13.12,0,16.68-.38,3.14-.33,5.81-3.41,6.31-6.55C253.28,62.16,253.61,45.15,252.36,42.07Z"/><path class="cls-8" d="M247.27,39.36l-.12,25.17a3.65,3.65,0,0,1-3.77,3.54l-37-.49a3.24,3.24,0,0,1-3.27-3.15L203,51.68c0-3.3-1.52-10.14,1.21-12.75,2-1.9,5.67-1.53,8.16-1.55,5.38,0,11-.11,16.37-.43l14.88-.87A3.35,3.35,0,0,1,247.27,39.36Z"/><path class="cls-8" d="M231.77,46.35a7.3,7.3,0,0,0-4.84-3.74,6,6,0,0,0-3.86.33,3.87,3.87,0,0,0-2.24,2.92c-.21,1.92,1.38,3.64,3.17,4.52s3.84,1.2,5.69,2,3.65,2.17,3.88,4.09a4.35,4.35,0,0,1-2.14,4,8,8,0,0,1-4.72,1,7.74,7.74,0,0,1-3.89-1.15,4.15,4.15,0,0,1-2-3.3"/><path class="cls-8" d="M283.08,174.95l-8.38,8.68a3.08,3.08,0,0,1-5,.52c-4.32-3.16-8-6.26-12.37-9.43-4.29,3.21-6.33,3.6-9.43,7.89l-13.83-9.49-10.86,8.35"/><path class="cls-8" d="M190.64,26.91c47.07-1.9,93.4-2.27,140.5-1.09"/><path class="cls-9" d="M202.28,11.87a3.36,3.36,0,0,1,5-1.3,3,3,0,0,1-.59,4.88,3.2,3.2,0,0,1-4.4-2.47,3.13,3.13,0,0,1,4.21-2.72"/><path class="cls-9" d="M215.39,12.47A3.32,3.32,0,0,1,219,10.11a3.21,3.21,0,0,1,2.67,3.35,3.24,3.24,0,0,1-6.27.52,3.11,3.11,0,0,1,1.21-3.37"/><path class="cls-9" d="M227.8,12.05a3.54,3.54,0,0,1,4-2A3.07,3.07,0,0,1,234,13.78a3,3,0,0,1-4,1.66,2.7,2.7,0,0,1-.38-4.45"/><path class="cls-12" d="M287.69,120c9.23,4.51,14.55,15.77,12.32,25.8s-11.67,17.95-21.93,18.54a25.24,25.24,0,0,1-24.24-15.64c-3.22-8.21-1.7-19.73,4.79-26.11S279.82,116.18,287.69,120Z"/><path class="cls-13" d="M285.42,131.37a12.32,12.32,0,0,1,2.34,13.85,11,11,0,0,1-12.66,5.45c-5.69-1.84-12.24-10.91-9.9-16.94C268.33,125.69,280.08,126,285.42,131.37Z"/></g><path class="cls-6" d="M138.69,30a9.6,9.6,0,0,0-6.7-1.94c-3,.16-6.19,1.06-8.09,3.57a11.16,11.16,0,0,0-2.32,2.89,5.59,5.59,0,0,0-.68,3.5,5.83,5.83,0,0,0-1.57,7,9.12,9.12,0,0,0,5.11,4.26,2.08,2.08,0,0,0,1.2,2.09c6,3.17,13.7-.71,16.83-6.28A11.15,11.15,0,0,0,138.69,30Z"/><path class="cls-1" d="M147,35.88c-.36-1.56-2.6-.87-2.36.65,1.31,8.12-3.82,16.3-12.57,16.58A13.87,13.87,0,0,1,122,49.26a13.62,13.62,0,0,1-3.16-5.79,36.11,36.11,0,0,0-1.33-5,.56.56,0,0,0-1,.13c-.7,4.27,1.72,9.53,4.56,12.63a14.23,14.23,0,0,0,12.13,4.61C142.69,54.72,149.14,45.13,147,35.88Z"/><path class="cls-1" d="M144.36,39.83a2.07,2.07,0,0,0-1.87.11,2.37,2.37,0,0,0-.7.41,1.18,1.18,0,0,0-.27.31l-.07.17v0a.42.42,0,0,0,.07.5,1.86,1.86,0,0,0,.46.35,2.22,2.22,0,0,0,.86.17,2.11,2.11,0,0,0,1.73-.5A1,1,0,0,0,144.36,39.83Z"/><path class="cls-1" d="M123.33,39.25c-.31-.59-1-.63-1.63-.59a6.14,6.14,0,0,0-.78.11c-.31.06-.58.21-.89.28a.31.31,0,0,0-.07.55,10.35,10.35,0,0,0,1.52.74c.57.16,1.32.31,1.75-.19A.77.77,0,0,0,123.33,39.25Z"/><path class="cls-1" d="M132.72,27.76a.87.87,0,0,0-1.34-.17,1.66,1.66,0,0,0-.4,1.28,1.79,1.79,0,0,0,.21,1.22.78.78,0,0,0,1.21.16,1.83,1.83,0,0,0,.45-1.23A1.62,1.62,0,0,0,132.72,27.76Z"/><path class="cls-1" d="M133.23,50.26a1.07,1.07,0,0,0-2.14,0c-.07.66-.12,1.69.39,2.17a1,1,0,0,0,1.37,0C133.35,51.94,133.3,50.92,133.23,50.26Z"/><path class="cls-1" d="M131.51,37c-.12-1.17.1-2.33-.47-3.39a.75.75,0,0,0-1.29,0c-.6,1.13-.27,2.3-.21,3.53a12.92,12.92,0,0,0,.5,3.9,1,1,0,0,0,1.92-.26A30.31,30.31,0,0,0,131.51,37Z"/><path class="cls-1" d="M139.74,44.79c-2.57-1.35-5-3-7.69-4.12a1.17,1.17,0,0,0-1.18,2,54.22,54.22,0,0,0,7.9,3.76C139.88,46.93,140.87,45.38,139.74,44.79Z"/><path class="cls-1" d="M92.36,230.25c-3.71,3.81-8.09,1.8-12.6,3.51-2,.75-4.58,2.73-4.36,5l-.47.35a13.84,13.84,0,0,0-4.68-4.56c-3.77-2.13-9.51-.79-12.82-3.33S58,208,51.69,209.75c-3.91,1.12-3.52,6.39-3.59,9.65-.1,4.37-.51,9.89,1.62,13.91.09.18.21.33.31.5.31,3.48,4.17,5.41,7.37,5.82,2.87.37,5.58-.48,8.32.75,2,.91,3.07,2.57,4.51,3.87.5.75,1,1.52,1.42,2.23a3.23,3.23,0,0,0,6-1.61c.34-4.2,8.08-4.21,10.94-5.35a11.23,11.23,0,0,0,1.71-.85l.72-.1c2-.25,3.25-2.79,3.84-4.31a11.38,11.38,0,0,0,1-1.32C97.25,230.82,94.11,228.45,92.36,230.25Z"/><path class="cls-1" d="M74.38,202.51c-5.92.48-11.86,1.31-17.8,1.42-3.37.06-5.29.63-5,2.82,0,.23.44.33.71.17,1.38-.85,5.89-1,7.59-1.06,3.51-.2,7,0,10.54,0,3.24-.07,6.49,0,9.73-.12,1.83,0,12.61-.6,13.16,1.06s2.06,1.08,2.47-.49C97.49,199.61,80,202.06,74.38,202.51Z"/><path class="cls-14" d="M88.95,131.72a.74.74,0,0,1,0-1.48l1.75,0c2.34,0,4.77-.07,7.15-.15a.75.75,0,0,1,.76.71.74.74,0,0,1-.71.76c-2.4.08-4.83.11-7.18.15Z"/><path class="cls-1" d="M401.49,203.75c-.25-1.44-2.74-1.12-2.57.35,1.57,14.08,4.57,29.57-3.34,42.36-8.07,13-23.48,13.5-37.26,13.16-2.08-.05-2.08,3.2,0,3.23,14.42.24,29.06-.84,37.92-13.81C405.24,235.85,404,218.7,401.49,203.75Z"/><path class="cls-8" d="M350.08,244.89h19.08a18.94,18.94,0,0,0,18.94-18.94V202.38s15-.69,15,0v28.08a32.36,32.36,0,0,1-32.36,32.36h-15"/><path class="cls-8" d="M430.52,316.4v17.39c-1.37,8-9.4,13.43-18.06,14.12-28.1,4.18-41.44-57.75-55.77-84.72a4.17,4.17,0,0,0-4.08-2.18c-17.19,1.63-33.07,11.07-39.28,15.18a4.14,4.14,0,0,0-1.59,4.94c2.69,7,9.32,24.93,12.65,39.71a17.11,17.11,0,0,1-15.81,20.88l-5.13,0a26.82,26.82,0,0,1-27-26.62L276.12,275a12.14,12.14,0,0,1,12.14-12.14h22.57"/><path class="cls-7" d="M244.72,368.54a9.15,9.15,0,0,0-1.19-3.27,7.4,7.4,0,0,0-3.39-3.25,6.27,6.27,0,0,0-.12-1.13.63.63,0,0,0-.92-.37c-2.44,1.63-4.47,4.65-6.09,7.07-.56.83-1.16,1.76-1.68,2.73-1.05-1-2.16-1.87-3.18-2.78-2.5-2.21-5.14-4.56-8.35-5.64a.77.77,0,0,0-.94.94c0,.11.09.21.14.32-5.89,4.76-6.52,13.66-6.38,20.9.1,5.19,13.69.94,17.37.42,4.58-.65,18.66.28,17.83-2.71C246.69,377.74,246.59,372.06,244.72,368.54Z"/><path class="cls-1" d="M236,335.26c-.12.06-.29,0-.43,0l-.15,0a2.26,2.26,0,0,0-.74-.71l-.4-.21a2,2,0,0,0-.73-.85c-3-2-9-1.7-11.53.9a.76.76,0,0,0-.2.39,2.63,2.63,0,0,0-2.31,0,.94.94,0,0,0-.81.37c-2.68,3.79-6.5,6.87-6.4,11.91a2.43,2.43,0,0,0,4.49,1.22c1.22-1.74,2.35-3.54,3.49-5.33a26.76,26.76,0,0,0,2.55-4.3,9.69,9.69,0,0,0,3.77,1,26.47,26.47,0,0,0,3.87-.31c1.59-.12,2.78,0,4.19-.89a2.3,2.3,0,0,0,1.1-2.11l.06,0a.72.72,0,1,0,.15-1.14Z"/><path class="cls-1" d="M239.52,351.74a18.85,18.85,0,0,1-2.92,2.71l-.19.06c-3.4,1.47-8,.05-11.37-.81-2.94-.75-6-2.73-9.08-2.62a.83.83,0,0,0-.79.6c-1.21,5,5.17,8.73,9.3,9.26,4.55.58,11.14-.48,13.61-4.75a1.41,1.41,0,0,0,.12-.28,11.38,11.38,0,0,0,2.38-3.34C240.89,351.92,240.06,351.11,239.52,351.74Z"/><path class="cls-6" d="M235.87,335c-1.8-2.88-5.27-4.14-8.53-4.51s-8.43.24-9,4.19a5.29,5.29,0,0,0,0,1.6,3,3,0,0,0-.7.44,15.72,15.72,0,0,0-1.85,2.39,21.08,21.08,0,0,0-3,4.81c-1.12,3,3.06,5,5.1,3a21.51,21.51,0,0,0,3.1-4.76,11.3,11.3,0,0,0,1.32-2.87c1.52,0,2.9-.78,4.65-1.06,2.06-.33,3.78.54,5.75.93C235,339.61,237.25,337.25,235.87,335Z"/><path class="cls-6" d="M259.48,301.93c-.49-1-1.63-4.31-2.91-5.09-4.68-2.86-13.92-2.65-19-2.84-6.42-.24-19-1.79-25-.21-5.27,1.4-4.22,5.93-4.75,10-.61,4.76-.42,8.78,2.15,11,2.4,2,8.4,2.13,14.46,2.6,1,.08,1.78,2.82,3,2.87,2.46.1,5.58-2.56,8.62-2.59,6.27-.07,15.85,3.85,21,.81C261,316.07,259.88,304.32,259.48,301.93Z"/><path class="cls-1" d="M206.66,306.66c0-.75,1.25-1,1.42-.18.76,3.43-.42,7.9,3.78,9.52.62.24.84.2,1,.68.87.17,1.89.84,2.76,1,2.85.43,4.27-1.11,7-.34.17-.07.58,1.44.77,1.55,1.22.8,1.66,3.72,2.44,4.9.35.54,2.59-.39,2.93.17a14.44,14.44,0,0,1,2.26-2.24c1.12-.9.77-2.17,2.1-2.45-.08-.68,2-.83,2.81-.82,3.09,0,9.7,1.55,14.91,1.83,2,.11,4-.82,5.24-.83,2.82,0,3.42-1.61,4-3.88.52-2.06-.11-3.73.6-5.74.12-.33,2.63,10.11-2.27,12.38-4.61,2.13-17.71.88-22.27-1.08a19.3,19.3,0,0,0-3.4,3.13c-.78.87-1.58,2.28-2.69,2.92-.25,1-3.49,2.42-4.16,1.35-.78-1.26-1.83-3.06-2.54-4.36a24,24,0,0,1-1.69-3.46c-2.69.61-3.19.14-5.93-.05-2.58-.18-8.69-2.93-8.21-3.45a6.4,6.4,0,0,1-1.31-2.39C205.46,312.13,206.65,309.32,206.66,306.66Z"/><path class="cls-15" d="M250.31,320.37c2.57.35,5.48.61,7.48-1s2.3-4.61,2.43-7.22l.62-12.76c.08-1.65.09-3.5-1.05-4.69s-2.7-1.25-4.21-1.35l-29.27-1.85-13.6-.86a5.67,5.67,0,0,0-3.7.61c-1.41,1-1.58,3-1.62,4.74l-.29,13.43a8.72,8.72,0,0,0,.79,4.75c1.34,2.22,4.3,2.78,6.89,2.67s5.26-.65,7.71.2l4,8.13,5-5c1.75-1.75,2.11-2,4.58-1.69Z"/><path class="cls-9" d="M232.59,298.5c-3.48.87-12.13,6-12.74,6.64a3.32,3.32,0,0,0-.87,2.61,4.13,4.13,0,0,0,1.62,3.11c1.42,1.33,9.93.58,14.72,1"/><path class="cls-9" d="M237.48,310.35a1.93,1.93,0,0,1-1.69,1.55c-.93,0-1.61-.85-2.06-1.66a17.43,17.43,0,0,1-2.2-9.36c.05-1.06.41-2.35,1.45-2.57s3.4,1.13,4.34,5.45S237.68,309.55,237.48,310.35Z"/><path class="cls-9" d="M240.79,299.35l3.34-1.57"/><path class="cls-9" d="M242.16,303.27c1.42-.18,5.79-.94,7.21-1.12"/><path class="cls-9" d="M242.5,307.22a33.51,33.51,0,0,0,4.52,1.34"/><path class="cls-9" d="M212.62,344.79a15.33,15.33,0,0,0,26,12.26,14.65,14.65,0,0,0,3.62-5.72,15,15,0,0,0-3.51-14.88c-3.43-3.55-8.16-5-13-4.89a9.92,9.92,0,0,0-5.87,1.53,16.08,16.08,0,0,0-4.77,4.7A15.15,15.15,0,0,0,212.62,344.79Z"/><path class="cls-9" d="M239.38,337.18a67,67,0,0,1-17.06,3.44"/><path class="cls-9" d="M223,335.75A21.21,21.21,0,0,1,213,351.46"/><path class="cls-9" d="M237.11,358.54a28,28,0,0,1,11,22.64,3.54,3.54,0,0,1-.24,1.55c-.55,1.15-2,1.43-3.3,1.57l-28.26,3a4.31,4.31,0,0,1-4.77-4.34,33.09,33.09,0,0,1,9.69-22.93"/><path class="cls-9" d="M238.48,360,228.32,371.6l-6.6-7.2"/><path class="cls-14" d="M402.69,201.77"/><path class="cls-8" d="M388.1,202.23V185.5a29.29,29.29,0,0,1,6.26-18.1l.87-1.11"/><path class="cls-8" d="M399.37,182.63a52.41,52.41,0,0,1,2.44-5.28c1.54-2.91,2.74-5.48,2.74-5.48.71-1.58,2.92-3.35,4.31-2.78a3.64,3.64,0,0,1,1.84,3.9c-.55,3.33-2.77,10.2-4.33,12.64,0,0,2.67,9.68-3,16.64"/><path d="M48.09,135.18a0,0,0,0,0,0,0A0,0,0,0,0,48.09,135.18Z"/><path class="cls-1" d="M95.69,141.43c-.36,1.22-.75,2.45-1.21,3.63-.56,1.44-1.61,2.24-2.57,3.35a28.31,28.31,0,0,1-5.73,5.36,19.84,19.84,0,0,1-7.37,2.91,33,33,0,0,1-4.43.35,24.48,24.48,0,0,1-4.34.21A38.31,38.31,0,0,1,65.82,156a13.76,13.76,0,0,1-3.93-1.4c-2-1.2-3.64-3.53-4.86-5.48a79.15,79.15,0,0,1-3.47-7.27c-1.24-2.51-3.64-4.24-4-7-.33-2.41-1.57-2.41-1.77.37-.25,3.47,1.53,6.88,2.91,10a44.07,44.07,0,0,0,4.54,7.91,19.09,19.09,0,0,0,6.48,5.32,16.12,16.12,0,0,0,1.57.72c1.62,1.3,12.4,2,16.58,1.31a26.37,26.37,0,0,0,8.77-3.35,20.94,20.94,0,0,0,6.48-6,41.35,41.35,0,0,0,2.1-4.54c.73-1.42.79-4.36,1.17-5.91C98.88,138.66,96.28,139.4,95.69,141.43Z"/><path class="cls-1" d="M75.37,124.77a22.34,22.34,0,0,0-4.44-.13c-1.9,0-3.83-.12-5.74-.14s-1.9,2,0,1.93,3.85-.18,5.74-.15a22.34,22.34,0,0,0,4.44-.14C76.41,126,76.41,125,75.37,124.77Z"/><path class="cls-1" d="M83.14,130.46c-3.19-.06-6.4,0-9.59,0s-6-.48-9,.17c-1.32.29-1.22,1.38,0,1.69,2.95.74,5.93.33,9,.33s6.41,0,9.59-.1C85.2,132.48,85.24,130.5,83.14,130.46Z"/><path class="cls-1" d="M81.68,137.19c-3.16-.16-6.24.06-9.36,0-2.63-.07-5.74-.32-8.11.61-.76.3-.83,1.09,0,1.39,2.25.79,5.22.64,7.69.43,3.22-.27,6.51-.11,9.78-.38C83.63,139,83.71,137.29,81.68,137.19Z"/><path class="cls-6" d="M98.59,130a22.71,22.71,0,0,0-3.24-10.47,2.73,2.73,0,0,0-3.68-1c-.95.54-1.9,1.06-2.8,1.66a3,3,0,0,0-1.09,1.39,3.66,3.66,0,0,0-1,3.15c.3,2,1.13,3.72,1.24,5.76a15,15,0,0,1-.53,5.05,15.8,15.8,0,0,1-5.2,7.77C81,144.4,79.13,145,78,146.1s-1.09,2.74-.95,4.19c.38,3.79,3.58,6.22,7.31,4.91,3-1,5.71-3.82,7.66-6.2A29.65,29.65,0,0,0,97,140.4,26.47,26.47,0,0,0,98.59,130Z"/><path class="cls-7" d="M74.48,149c-.79-2-1.54-1.46-3.53-1.81-3-.52-4.39-1.77-6.48-3.91-5.66-5.79-10.64-12.74-4.63-21.65,0-.06,0-.15,0-.22.18,0,.36-.07.55-.13a2.07,2.07,0,0,0,.49-3.74c-.94-.5-2.88-1.11-3.23-2.15-.74-2.17-3.24-2.28-4.54-.59-6.67,8.67-5.26,20.66.46,29.49a4.23,4.23,0,0,0,.88,4A28.22,28.22,0,0,0,64,155.47c.93.4,6.82,2.08,7.75,1.94,4.18-.14,4.18-.14,4.36-2.62C76.26,153.21,75.07,150.47,74.48,149Z"/><path class="cls-8" d="M98.86,131.44a25.34,25.34,0,0,1-23.87,26c-13.63.72-25.46-11.11-26.42-26.42s9.72-27,23.87-26S98.42,117.77,98.86,131.44Z"/><path class="cls-8" d="M89,130.79a15.57,15.57,0,0,1-14.67,16c-8.38.44-15.65-6.83-16.24-16.24s6-16.58,14.67-16S88.72,122.39,89,130.79Z"/><line class="cls-8" x1="55.06" y1="112.99" x2="61.61" y2="118.25"/><line class="cls-8" x1="75.68" y1="147.03" x2="78.21" y2="156.09"/><line class="cls-8" x1="85.76" y1="120.88" x2="92.8" y2="116.66"/><path class="cls-9" d="M64.45,124.49l10.35,0"/><path class="cls-9" d="M64.45,130.39c6.6.32,11.87.43,18.57.36"/><path class="cls-9" d="M64.7,137.12c5.49-.32,11.82.61,17.22.14"/><path class="cls-10" d="M78.73,151.48a11,11,0,0,0-2.4-5.08,2.27,2.27,0,0,0-3.6.5,16.81,16.81,0,0,1-6.88-2.43,27.8,27.8,0,0,1-4.24-3.34,50.3,50.3,0,0,1-2.55-4.46c-3.66-5.73,0-12.85,2.74-17.61.93-1.61-2.2-3.06-3.08-1.37-2.41,3-3.44,6.79-4,10.57a22.9,22.9,0,0,0,1.11,11c.73,1.82,2.08,3.1,3.31,4.57A16.86,16.86,0,0,0,63,147.55a16.29,16.29,0,0,0,9.47,2.55c.17,1,.44,2,.61,2.93.31,1.8.45,3.41,2.1,4.48a2.44,2.44,0,0,0,2.92-.38C79.65,155.57,79.23,153.43,78.73,151.48Z"/><path class="cls-10" d="M97.49,126.63c-.44-3.11-.73-8.62-4-10.15A1.66,1.66,0,0,0,91,117.89c-.11,1.6,1.66,1.9,2.24,3.35.65,1.63,2.09,3.33,2.27,5.08.35,3.31,1.23,8.68,0,11.85a36.69,36.69,0,0,1-6.68,10.06,22.74,22.74,0,0,1-10,5.27c-3.62.93-.38,4.19,2.52,2.9a34.9,34.9,0,0,0,10.55-8c2.61-2.86,5.06-6.22,5.77-10.12A37.61,37.61,0,0,0,97.49,126.63Z"/><path class="cls-16" d="M52.09,205.2c-2,2.88-1.13,16.05-1.25,19.55s-.15,7,1.88,9.72c1.52,2,9.26,2.32,13.5,2.14a4.38,4.38,0,0,1,3.56,1.57l5.83,7,3.27-6.68A3.79,3.79,0,0,1,82,236.42l7.94-.59a5.13,5.13,0,0,0,4.62-4,55.5,55.5,0,0,0,1.51-9.3c.06-3,.58-16.11-1.2-18.54-2.14-2.91-12.14-.79-21.57-.81S54.14,202.21,52.09,205.2Z"/><path class="cls-6" d="M84.15,218.57a9.76,9.76,0,0,0-5.42-6.27c-3.23-2.33-7.85-2.22-11.42-.2a9.79,9.79,0,0,0-4.79,11.39,12.16,12.16,0,0,0,8.32,7.82,11.36,11.36,0,0,0,10.49-2.74A10.25,10.25,0,0,0,84.15,218.57Z"/><path class="cls-16" d="M64.61,222.76a8.41,8.41,0,0,1,2-8.06,9.5,9.5,0,0,1,8.89-2.85A8.81,8.81,0,0,1,82,218.38a8.37,8.37,0,0,1-3,8.2C75,229.79,66.33,228,64.61,222.76Z"/><path class="cls-8" d="M72.08,217l-.39,3.81c1.44.1,2.81.24,5.33.38"/><path class="cls-6" d="M71.27,245.39a0,0,0,0,0,0,0A0,0,0,0,0,71.27,245.39Z"/><g class="cls-17"><line class="cls-18" x1="430.28" y1="305.65" x2="430.28" y2="266.7"/><path class="cls-8" d="M405.74,222.51A24.44,24.44,0,0,1,430.18,247"/><path class="cls-18" d="M391.8,162a27.45,27.45,0,0,0-27.45,27.45v5.62a27.45,27.45,0,0,0,27.45,27.45"/><line class="cls-8" x1="428.34" y1="79.01" x2="428.34" y2="106.52"/></g><path class="cls-8" d="M340.46,134.13a52.84,52.84,0,0,1,35.68,15.37"/><path class="cls-19" d="M375.38,141.45l1.51,8.87-8.76-.82"/><path class="cls-8" d="M507.87,150.55a52.84,52.84,0,0,1,38.41-5.86"/><path class="cls-19" d="M541.37,138.26l6,6.73-7.86,3.94"/><path class="cls-19" d="M440.32,196.88a19.4,19.4,0,0,0,29.15-.74"/><path class="cls-19" d="M462.87,195.85l7.28-.74,1.3,7.8"/><path class="cls-8" d="M133.62,25.77a14.59,14.59,0,0,1,12.21,15,14.59,14.59,0,0,1-14.39,13C111.78,53.28,114,23.22,133.62,25.77Z"/><path class="cls-8" d="M130.8,33.16l.73,7.68c2.68,1.44,5.25,3.21,7.92,4.65"/><path class="cls-8" d="M120.28,38.76l2.14.17"/><path class="cls-8" d="M131.33,49.37l.21,1.79"/><path class="cls-8" d="M142,40l1.7-.18"/><line class="cls-8" x1="131.66" y1="27.71" x2="131.66" y2="29.17"/><path class="cls-1" d="M306.92,192.29c-1.73-4.3-4-8.39-6.09-12.53-2-3.89-3.76-7.88-5.87-11.69a31.58,31.58,0,0,0-6.56-8.87c-1.9-1.64-5.57-4.43-8.09-2.58a.73.73,0,0,0-.25,1c.58,1.28,1.87,1.89,3,2.57a21.27,21.27,0,0,1,3.73,2.7,29.08,29.08,0,0,1,6.12,8.82c3.58,7.29,6.41,15.07,10.38,22.15C304.37,195.71,307.78,194.41,306.92,192.29Z"/><path class="cls-1" d="M314.93,185.89a7.21,7.21,0,0,0-7.09-.34.66.66,0,0,0,.33,1.23,9.54,9.54,0,0,1,5.34,2.06c1.33,1.11,1.68,3.32,3.34,3.86a1.37,1.37,0,0,0,1.51-.62C319.91,190,316.6,186.88,314.93,185.89Z"/><path class="cls-1" d="M331.17,190.7c-.52-3.52-5.58-7.7-9.05-5.36a1.42,1.42,0,0,0-.28,2.2c1.15.93,2.42,1.17,3.7,1.85a14.16,14.16,0,0,1,3.25,2.7C329.87,193.21,331.37,192,331.17,190.7Z"/><path class="cls-1" d="M296.57,216.09c.28-.64.51-1.65-.07-1.57,0-.47-4.18,1.9-4.56,1.62-1.72-1.27-3.9-1.62-5.6-3-1.42-1.18-2.43-2.76-3.89-3.85a17.44,17.44,0,0,0-1.64-1.95c-2.47-2.46-9.6-5.95-11.51-1.14a1.31,1.31,0,0,0,.61,1.49,6.18,6.18,0,0,0,2.75.36,8.85,8.85,0,0,1,3.87,1.14c2.5,1.35,4.51,3.61,6.47,5.61,3,3,6.36,5.93,10.85,4.17C295.38,218.35,295.7,218,296.57,216.09Z"/><path class="cls-8" d="M306,191c-.69-1.91-9.17-21.52-16.2-30.53s-15.49-3.26-11.09,5.86c5,10.25,14.63,31.19,16,35.17,2.16,6,3.1,11.77.32,13.84-4.13,3.08-8.95-3.15-11.43-5.68-9.4-9.56-18.72-5.58-16.35,2s14.48,13.72,27.78,30.49c12.22,15.4,14.87,14.62,18.7,27.86l1.35,5"/><path class="cls-8" d="M319.3,187.47A8.57,8.57,0,0,1,333.35,191"/><path class="cls-8" d="M304.91,188a8.31,8.31,0,0,1,8.49-3.6c3.2.66,5.49,2.91,7.18,6.58"/><path class="cls-8" d="M332.67,189.5a7,7,0,0,1,6.37-.31,11,11,0,0,1,4.84,4.38c1.17,1.87,8.7,26.81,5.92,54.34-.3,3,.9,6.6,2.7,13"/><path class="cls-1" d="M664,311.62c0-.45-.27-1.84-.56-1.54-1.12,1.16-1.09,3.4-1.59,5a24,24,0,0,1-3,6.12,16.72,16.72,0,0,1-14,7.19c-4.8,0-10.3-1.11-14.27-4C626,321,625.23,316,623.21,311c-.34-.82-1.66-.8-1.65.22.07,5.6,2.09,12.31,6.64,15.85s11.14,5.17,16.68,4.88a20.33,20.33,0,0,0,14.81-7.19C662.29,321.86,663.82,314.56,664,311.62Z"/><path class="cls-1" d="M653.93,306.52c-.95-2.92-1.28-4.91-3.75-6.95a12.11,12.11,0,0,0-8.37-2.82c-4.52.28-11.24,4-11.44,9.05a.64.64,0,0,0,1.08.45c3.58-2.83,5.44-6,10.68-5.5,3.66.33,8.65,2.9,10.39,6.36A.78.78,0,0,0,653.93,306.52Z"/><path class="cls-6" d="M658.68,295.47c-3.88-4.84-9.8-6.34-15.74-6.63-5.33-.26-12.4.64-16.42,4.55-2.27,2.21-3,5.09-3.41,8.13-.43,3.46-.92,7.13,1.38,10,1.48,1.82,4.41,1,5.5-.71,1.4-2.25.82-4.84,1-7.39.11-1.36.16-3.26,1.25-4.24,2.42-2.17,7.65-2.38,10.67-2.12s6.82,1.53,8.81,4c2.23,2.8,1.89,6.88,3.45,10a2.83,2.83,0,0,0,4.4.57C664,307.27,662.13,299.78,658.68,295.47Z"/><path class="cls-7" d="M656.82,306.94a35.16,35.16,0,0,0-3.48,5.11c-1.18,1.82-2.42,3.63-3.55,5.49-1,1.64-1.41,2.61-3.49,2.82a24,24,0,0,1-5.41-.17,15.61,15.61,0,0,1-9.22-4.25c-2.56-2.6-2.9-6.56-5.32-9.09a1.87,1.87,0,0,0-3.08.81c-1.76,4.33,1,10.05,4.1,13.08a24,24,0,0,0,13,6.16c5,.84,10.53,1.36,14.35-2.6a42.9,42.9,0,0,0,4.87-7c1.57-2.47,3.29-4.77,3.55-7.76C663.41,306.33,658.91,304.7,656.82,306.94Z"/><path class="cls-8" d="M628.26,292.53a22.9,22.9,0,0,1,7.1-3.24c5.69-1.69,12.09-2.29,17.37.43a17.66,17.66,0,0,1,8.1,9.38,25.5,25.5,0,0,1,1.26,12.47,19.38,19.38,0,0,1-2.68,8c-2.42,3.75-10.49,12.7-25.9,5.52S623.14,299,624.18,297.5C625.47,295.63,626.36,293.92,628.26,292.53Z"/><path class="cls-8" d="M632.77,299.16a14.47,14.47,0,0,1,4.48-2c3.6-1.07,7.64-1.45,11,.27a11.16,11.16,0,0,1,5.12,5.93,16.11,16.11,0,0,1,.79,7.88,12.25,12.25,0,0,1-1.69,5.08c-1.53,2.37-6.63,8-16.37,3.49s-6.55-16.51-5.89-17.46A11.33,11.33,0,0,1,632.77,299.16Z"/><path class="cls-19" d="M635.47,309.41l4.66,4.36c2.95-3.35,5.26-6,8.21-9.38"/><path class="cls-1" d="M449.65,65.38a230.67,230.67,0,0,1-38.64.08c-.68-.06-3.58.05-4-.44,0,0,.31-4.3.31-4.19l.16-8.58c.12-6.26.87-12.9-.83-19a3.35,3.35,0,0,0-6.4,0c-2.3,7.44-1.32,16.06-1.39,23.78-.05,5.41-1.59,13.24,4.75,15.69,2.85,1.1,6.35.88,9.34,1.07,4.51.28,9,.41,13.54.31a206.05,206.05,0,0,0,24.1-1.84C454.45,71.7,453.57,65.07,449.65,65.38Z"/><path class="cls-1" d="M452.86,25.75c-16,.9-32,1-48,1.38-1.75,0-1.75,3.38,0,3.46a469.13,469.13,0,0,0,48-.69C455,29.78,455,25.63,452.86,25.75Z"/><path class="cls-6" d="M416.18,33.56l-.29-.08A.44.44,0,0,0,416.18,33.56Z"/><path class="cls-6" d="M420.38,34.63a4.88,4.88,0,0,0-3.23-1.14c-.19,0-.65.08-1,.06.24.07.23.07,0,0l-.61-.13a9.87,9.87,0,0,0-2.58-.38c-2.49.14-4.56,2.31-4.9,5.5-.3,2.88,1.13,6.4,3.57,7a30.28,30.28,0,0,0,4.05.29c.49.05,1,.19,1.47.24a4.92,4.92,0,0,0,3.23-1c1.47-.92,2.35-3.21,2.35-5.21A6.7,6.7,0,0,0,420.38,34.63Z"/><path class="cls-6" d="M442.12,52.29c-3.41.53-6.79-.27-10.16.18a5.2,5.2,0,0,0-4.5,4.36c-.51,2.35.29,5.63,2.14,6.7,4,2.29,8.25,2.17,12.52,1.51,2.68-.42,5-2.63,5-6.37C447.13,55.54,444.83,51.87,442.12,52.29Z"/><path class="cls-8" d="M403,66.83c-.13-8.16-1.07-27.39.1-36.52a2.27,2.27,0,0,1,1.85-2.13c16-1.3,31.78.52,47.39-1.24A1.94,1.94,0,0,1,454.29,29c.78,13.77-.77,24.13-.3,36.8.06,1.63-.94,3-2.22,3.06L406,70.52C404.4,70.58,403,68.93,403,66.83Z"/><path class="cls-9" d="M408.48,42.09a3.3,3.3,0,0,0,.33,1.64,1.86,1.86,0,0,0,1.75.66l9-.1a1.5,1.5,0,0,0,1.26-1.67c0-2.37,0-5.39,0-7.18a1.43,1.43,0,0,0-1.2-1.56c-2.74-.06-9.24-.19-9.84.11C407.49,35.14,408.41,39.65,408.48,42.09Z"/><line class="cls-9" x1="430.42" y1="35.03" x2="444.09" y2="35.03"/><line class="cls-9" x1="429.8" y1="40.56" x2="444.71" y2="40.56"/><path class="cls-9" d="M429.3,46.52c1.11.15,2.22.21,3.33.36h11.46"/><path class="cls-9" d="M443.08,53.59c1.25,0,2.28,1.26,2.31,2.85l.07,4a1.71,1.71,0,0,1-1.39,1.88c-2.75.13-8.88.41-12.69.51-1.84,0-3.36-1.82-3.38-4.16,0-.64,0-1.25,0-1.82,0-1.8,1.19-3.24,2.6-3.21C433.42,53.68,439.7,53.62,443.08,53.59Z"/><path class="cls-1" d="M444.28,268.17c-2.54-.35-3.67.11-6.27.19-2.82.08-5.65.15-8.47.26-5.49.21-8.09.13-13.58.41l-.18-.09c-1.69-.6-1.53-1.93-1.69-3.05a30.76,30.76,0,0,1-.25-3.65,23.91,23.91,0,0,1,.17-3.37c.13-1.05.64-10.64.18-11.67a.86.86,0,0,0-1.24-.11c-1.1,1.15-1,11.29-1.13,12.61a36.25,36.25,0,0,0-.1,5.34c.08,1.24-.12,4.11,1.79,5,0,.4.45.78,1.28.81,6,.23,9.14-.35,15.14-.48,2.83-.06,5.65-.16,8.47-.25,2.55-.08,3.82.13,6.12-.67C445.31,269.17,445.17,268.29,444.28,268.17Z"/><path class="cls-1" d="M445.45,243.1c-11.29.5-17.7.58-29,.76a1,1,0,0,0,0,1.92c11.22.41,17.78.11,29-.38C446.93,245.34,446.93,243,445.45,243.1Z"/><path class="cls-6" d="M437,257.65l-.21,0A.37.37,0,0,0,437,257.65Z"/><path class="cls-8" d="M415.13,265.87c-.09-4.53-.75-15.18.07-20.24a1.42,1.42,0,0,1,1.31-1.18c11.27-.72,17.57.29,28.58-.69a1.25,1.25,0,0,1,1.37,1.14c.55,7.63-.54,13.37-.21,20.4a1.62,1.62,0,0,1-1.56,1.7l-27.4.92A2.09,2.09,0,0,1,415.13,265.87Z"/><path class="cls-20" d="M439.82,257.42a2,2,0,0,1-.23,1.08,1.37,1.37,0,0,1-1.24.43c-1.82,0-14,0-16-.07a1,1,0,0,1-.89-1.09c0-1.55,0-3.53,0-4.7a1,1,0,0,1,.84-1c1.93,0,16.21-.12,16.63.08C440.52,252.87,439.87,255.82,439.82,257.42Z"/><path class="cls-1" d="M143.25,101.74c-6.09,0-13,1-19,0-3.86-.6-3.79-3-3.93-6.51a47.08,47.08,0,0,0-.9-8.7c-.66-2.92-5.45-3-6,0a61.75,61.75,0,0,0-.66,13.08c.1,3.5.64,6.69,3.58,8.93,3.35,2.55,7.77,2.13,11.75,2.17,5.08,0,10.15,0,15.23,0C149.06,110.77,149.07,101.74,143.25,101.74Z"/><path class="cls-1" d="M146.81,107.12c-2.54-.35-3.67.11-6.27.19-2.82.08-5.65.15-8.47.26-5.49.21-8.09.13-13.58.41l-.18-.09c-1.69-.6-1.53-1.93-1.69-3.05a30.76,30.76,0,0,1-.25-3.65,23.91,23.91,0,0,1,.17-3.37c.13-1.05.64-10.64.18-11.67a.86.86,0,0,0-1.24-.11c-1.1,1.15-1,11.29-1.13,12.61a36.25,36.25,0,0,0-.1,5.34c.08,1.24-.12,4.11,1.79,5,0,.4.45.78,1.28.81,6,.23,9.14-.35,15.14-.48,2.83-.06,5.65-.16,8.47-.25,2.55-.08,3.82.13,6.12-.67C147.83,108.12,147.69,107.24,146.81,107.12Z"/><path class="cls-1" d="M147,83.05c-11.29.5-17.7.58-29,.76a1,1,0,0,0,0,1.92c11.22.41,17.78.11,29-.38C148.45,85.29,148.46,83,147,83.05Z"/><path class="cls-8" d="M116.66,105.82c-.09-4.53-.75-15.18.07-20.24A1.42,1.42,0,0,1,118,84.4c11.27-.72,17.57.29,28.58-.69A1.25,1.25,0,0,1,148,84.86c.55,7.63-.54,13.37-.21,20.4a1.62,1.62,0,0,1-1.56,1.7l-27.4.92A2.09,2.09,0,0,1,116.66,105.82Z"/><path class="cls-20" d="M140.66,93.09a3.56,3.56,0,0,0-.22-1.41,1.09,1.09,0,0,0-1.15-.56c-1.69,0-13,.06-14.92.09-.47,0-.84.65-.83,1.42,0,2,0,4.61,0,6.14,0,.73.35,1.32.78,1.34,1.8.06,15.07.16,15.46-.1C141.31,99,140.71,95.18,140.66,93.09Z"/><path class="cls-1" d="M562.78,206.43c0-.09,1.08-.76,1-.84-.18-.8,0-2-1-1.63-.28-.06-8.76,1.78-9.75,6.57-.08.36,1.26-.1,1.64-.1.72,0,1.43,0,2.15-.09a3.83,3.83,0,0,0,.78-.12,2.43,2.43,0,0,0,1.73.32c.72-.09,3.42-.07,4-.49C564.49,209.24,563.13,207.78,562.78,206.43Z"/><path class="cls-1" d="M556.55,218.09c-.36.25-1.49,1.05-1.79,1.24-.66.42-6.5,1-8.07.18a21.72,21.72,0,0,1-4-2.39c-2.32-1.44-5.51-1.09-8.07-.74,1.88-.26-4.43,2.26.61,3.42a10.57,10.57,0,0,0,3.54-.06c2.06-.17,2.8,1,4.48,1.85a8,8,0,0,0,4,1.18,10.92,10.92,0,0,0,5.41-.19,4.54,4.54,0,0,0,2-1.26,8,8,0,0,1,1.84-1.37C557.81,219.25,557.81,217.19,556.55,218.09Z"/><path class="cls-8" d="M563.54,196.91a30.4,30.4,0,0,0-19,6.14c-3.06,2.54-10.47,4.32-10.47,4.32v12.3s4.95-.07,6.82.5c5.26,5.12,15.38,1.79,16.67-2.6,2.09,0,4.22.08,6.31.09,1.31,0,5.7.21,5.71-3.71s-3.78-4.06-4.82-4c-3.62.24-7.25.22-10.87.46"/><path class="cls-8" d="M533.89,207.27a56,56,0,0,0-13.64,1.49c-12.82,3.36-13.64,14.63-13.64,22.23,0,16.35-.2,34.82-.33,45a7.83,7.83,0,0,1-7.84,7.73h0a7.84,7.84,0,0,1-7.84-7.84V163.49a14.08,14.08,0,0,0-14.08-14.08H465.87"/><path class="cls-8" d="M533.91,219.67c-10.49.4-16.26,1.07-16,13.75.39,21-.16,21.83-.24,42.81v1a19.29,19.29,0,0,1-19.29,19.29h0a19.29,19.29,0,0,1-19.29-19.29V166.6a6.69,6.69,0,0,0-6.69-6.69h-6.51"/><path class="cls-1" d="M622.31,217.09c-3.81-1.09-8.07-.61-12-.64-4.2,0-8.4,0-12.6,0s-8.4,0-12.6.1c-3.5.08-6.9-.21-10.16,1.17a.92.92,0,0,0,0,1.59c3.25,1.39,6.65,1.1,10.16,1.17,4.2.09,8.4.1,12.6.1s8.4,0,12.6,0c4,0,8.21.45,12-.64A1.48,1.48,0,0,0,622.31,217.09Z"/><path class="cls-1" d="M623.22,226.94c-8.32-.19-16.65-.13-25-.12-7.77,0-15.69-.31-23.32,1.37a1,1,0,0,0,0,1.92c7.63,1.68,15.55,1.36,23.32,1.37,8.32,0,16.65.06,25-.12A2.21,2.21,0,0,0,623.22,226.94Z"/><path class="cls-1" d="M623.6,237.37c-8.34-.24-16.73.29-25.08.25-7.37,0-16.34-1.49-23.45.58a1.12,1.12,0,0,0,0,2.15c6.91,2.65,16.15,1.64,23.45,1.61,8.31,0,16.82,0,25.08-.95C625.87,240.73,626,237.43,623.6,237.37Z"/><path class="cls-1" d="M621,246.44c-6.32-2.52-14.37-1.07-20.9-.16a132.2,132.2,0,0,1-24.14,1.54c-1.65-.07-1.71,2.16-.36,2.69,6.82,2.68,14.6,1.83,21.7,1,3.73-.43,7.46-.91,11.21-1.13,4-.24,7.92.39,11.91.36C623,250.71,623.18,247.31,621,246.44Z"/><path class="cls-8" d="M576.2,217c16.77-.28,29.11-.55,45.88-.83"/><path class="cls-8" d="M576.2,226.83c16.64,0,30.85,0,47.49,0"/><path class="cls-8" d="M575.76,237.34a265.69,265.69,0,0,0,47.48-1.09"/><path class="cls-8" d="M576.16,247.64a387.19,387.19,0,0,0,45.85-.9"/><path class="cls-1" d="M630.62,134.47c-7.6,0-15.2-.14-22.79.14-6.43.23-14.25-.16-20.08,3a1.14,1.14,0,0,0,.57,2.11c5.26-.12,10.43-1.4,15.74-1.47,5.67-.08,11.37.32,17,.42q8.09.15,16.19.25c3.52,0,16.4-1.2,14.74,5a.53.53,0,0,0,1,.28C656.6,131.8,636.91,134.5,630.62,134.47Z"/><path class="cls-1" d="M645.12,195.39q0-15.55,0-31.09c0-6.35,1.55-16.33-6.06-18.93a1.43,1.43,0,0,0-1.87,1.16c-2-.29-4.09-.24-6-.33q-6-.29-12-.52c-7.4-.3-14.77-.39-22.17,0-6.43.36-13.73.66-19.63,3.39-.95.44-.46,2,.52,1.93,5.16-.14,10.26-1.41,15.43-1.76,5.54-.37,11.06-.26,16.61-.1q7.85.23,15.69.58c2.51.11,10.27-.46,13.89,1.43,2.38,5.8.93,14.25.92,19.93l-.06,23.32q0,11.72,0,23.44c0,3.58,0,7.17,0,10.75,0,2.69,1.63,12.33-1.64,13.65-2.06.83-1.31,4.09.95,3.43,7-2,5.23-12.51,5.27-18.05C645.1,216.88,645.11,206.13,645.12,195.39Z"/><path class="cls-1" d="M655.51,157.36c-.33-6,.76-15.64-3.56-20.39a1.28,1.28,0,0,0-2.17.9c-.14,3.58,1,7.16,1.14,10.79q.25,5.82.3,11.66.12,12.29.12,24.58,0,11.8-.41,23.6c-.28,8.15.09,16.92-2.09,24.83-.72,2.62,3.38,4.55,4.53,1.91,3-6.84,2.12-15.48,2.41-22.81q.54-13.76.55-27.53C656.36,175.7,656,166.54,655.51,157.36Z"/><path class="cls-8" d="M563.54,220.05c.13,13.15.35,14.48-.25,24.38-.21,3.43-.26,7.23,1.94,9.88,2.51,3,7,3.35,10.89,3.44,15.45.35,29.07-.51,44.52-.16,4.18.1,9.08-.15,11.46-3.59,1.36-2,1.51-4.5,1.61-6.9,1.09-26.29-.87-55.63.21-81.92.08-2,.13-4.07-.9-5.75-1.78-2.9-5.8-3.2-9.2-3.19l-47.4.22c-5.61,0-10.5.9-11.57,6.86-.73,4.06-.89,39-.94,44.18"/><path class="cls-8" d="M649,235.17a7.64,7.64,0,0,0,4.13-2.86c1.36-2,1.51-4.5,1.61-6.9,1.09-26.29-.79-57.6.3-83.89.08-2-.75-7-6.78-7-16.61,0-34.19.14-50.8.22-4.91,0-9.26.7-11,4.85"/><path class="cls-8" d="M639.13,245.71a7.64,7.64,0,0,0,4.13-2.86c1.36-2,1.51-4.5,1.61-6.9,1.09-26.29-.79-57.6.3-83.89.08-2-.75-7-6.78-7-16.61,0-34.19.14-50.8.22-4.91,0-9.26.7-11,4.85"/><path class="cls-20" d="M618.15,192c-9.53,26.67-47.93,9.91-39.47-15.35C587.36,150.8,627.27,166.52,618.15,192Z"/><path class="cls-12" d="M611.23,189.39c-6.17,17.29-31.06,6.42-25.58-9.95C591.28,162.66,617.14,172.85,611.23,189.39Z"/><g id="_8VReB8" data-name="8VReB8"><path class="cls-9" d="M593.93,191a9.47,9.47,0,0,0,4.76-3,9.85,9.85,0,0,0,2.23-5.27"/><path class="cls-9" d="M593.23,179.36l10.84-.18"/><path class="cls-9" d="M598.72,177l.07,1.8"/><path class="cls-9" d="M596.71,185.16a12.3,12.3,0,0,0,6.53,5.68"/></g><path class="cls-1" d="M240,240.32a27.47,27.47,0,0,1-6.22,5,23.19,23.19,0,0,1-8.39,2.21c-3,.3-5.76-.77-8.47-2.11-2.32-1.14-4.19-3.46-6.59-4.2a1.26,1.26,0,0,0-1.54,1.54c.58,2.88,4.48,5.23,6.95,6.44a26.56,26.56,0,0,0,10.09,2.24c6.29.26,13.76-3.4,17.12-8.78C244.14,240.75,241.55,238.88,240,240.32Z"/><path class="cls-1" d="M231.37,243.85c-.22,1.82-4.84,1.41-6,1.35a16.41,16.41,0,0,1-5.92-1.53.92.92,0,0,0-1.36.78c-.51,4.68,4.5,5.59,8.17,5.5,4.35-.1,7.89-1.16,9.46-5.52C236.72,241.61,231.78,240.47,231.37,243.85Z"/><path class="cls-13" d="M219.14,239.92a5.22,5.22,0,0,1,4.66-3.6,6.35,6.35,0,0,1,5.38,2.69,5.3,5.3,0,0,1,1,4.39,4.8,4.8,0,0,1-3.75,3.27C222.84,247.35,218,243.85,219.14,239.92Z"/><path class="cls-19" d="M207,243.34s12.3-25.41,37-2.56C244.09,240.78,228,264.26,207,243.34Z"/><path class="cls-1" d="M34.48,173.24a27.47,27.47,0,0,1-6.22,5,23.19,23.19,0,0,1-8.39,2.21c-3,.3-5.76-.77-8.47-2.11-2.32-1.14-4.19-3.46-6.59-4.2a1.26,1.26,0,0,0-1.54,1.54c.58,2.88,4.48,5.23,6.95,6.44a26.56,26.56,0,0,0,10.09,2.24c6.29.26,13.76-3.4,17.12-8.78C38.6,173.67,36,171.8,34.48,173.24Z"/><path class="cls-1" d="M25.83,176.78c-.22,1.82-4.84,1.41-6,1.35a16.41,16.41,0,0,1-5.92-1.53.92.92,0,0,0-1.36.78c-.51,4.68,4.5,5.59,8.17,5.5,4.35-.1,7.89-1.16,9.46-5.52C31.17,174.53,26.24,173.4,25.83,176.78Z"/><path class="cls-13" d="M13.6,172.84a5.22,5.22,0,0,1,4.66-3.6,6.35,6.35,0,0,1,5.38,2.69,5.3,5.3,0,0,1,1,4.39,4.8,4.8,0,0,1-3.75,3.27C17.3,180.27,12.49,176.78,13.6,172.84Z"/><path class="cls-19" d="M1.5,176.26s12.3-25.41,37-2.56C38.55,173.7,22.42,197.18,1.5,176.26Z"/><path class="cls-1" d="M567.44,299.62a27.47,27.47,0,0,1-6.22,5,23.19,23.19,0,0,1-8.39,2.21c-3,.3-5.76-.77-8.47-2.11-2.32-1.14-4.19-3.46-6.59-4.2a1.26,1.26,0,0,0-1.54,1.54c.58,2.88,4.48,5.23,6.95,6.44a26.56,26.56,0,0,0,10.09,2.24c6.29.26,13.76-3.4,17.12-8.78C571.56,300.05,569,298.19,567.44,299.62Z"/><path class="cls-1" d="M558.79,303.16c-.22,1.82-4.84,1.41-6,1.35a16.41,16.41,0,0,1-5.92-1.53.92.92,0,0,0-1.36.78c-.51,4.68,4.5,5.59,8.17,5.5,4.35-.1,7.89-1.16,9.46-5.52C564.13,300.92,559.2,299.78,558.79,303.16Z"/><path class="cls-13" d="M546.56,299.23a5.22,5.22,0,0,1,4.66-3.6,6.35,6.35,0,0,1,5.38,2.69,5.3,5.3,0,0,1,1,4.39,4.8,4.8,0,0,1-3.75,3.27C550.26,306.65,545.45,303.16,546.56,299.23Z"/><path class="cls-19" d="M534.46,302.64s12.3-25.41,37-2.56C571.51,300.08,555.38,323.56,534.46,302.64Z"/><g class="cls-21"><path class="cls-8" d="M171.9,154.72H152.14a20.47,20.47,0,0,1-20.47-20.47V101.88"/><line class="cls-18" x1="131.18" y1="57.29" x2="131.18" y2="99.46"/></g><path class="cls-1" d="M239.09,195.28c-1,.94-1.76,2-3,2.65a2.76,2.76,0,0,0-3.38-3.15c-4.64.78-9.11,2.15-13.8,2.7-4.51.53-9,.55-13.54.8-7.8.42-15.72,1.76-22.82,5.1-12.14,5.71-24.84,19.07-24.64,33.29a2.79,2.79,0,0,0,1.77,2.51,2.16,2.16,0,0,0,4.21-.13c4.38-13.76,14.68-23.78,26.93-29.81,7.43-2.27,15.36-2.77,23-3.63,4.68-.52,9.79-1,14.41-2.48a15,15,0,0,0,7.11-.55c2.55-1,5.72-3.09,5.81-6.33A1.25,1.25,0,0,0,239.09,195.28Z"/><path class="cls-1" d="M240.78,116.51a1,1,0,0,0-.47-.83c0-.12.08-.25.11-.37a5.24,5.24,0,0,0-.33-3.44c-.52-1-1.23-1-2-1.56a1,1,0,0,0-1.5,1.15s-.11,1.86-.16,2.34a6.49,6.49,0,0,1-1.71,3.9,87.62,87.62,0,0,1-6.66,6.28A78.86,78.86,0,0,0,216,137.29c-3.29,4.86-6.54,9.82-8.67,15.32a27.73,27.73,0,0,0-2,8.53c-.13,2.38-.42,5.88,1,7.92.4.58,1.5.8,1.84,0a11.37,11.37,0,0,0,.56-3.83,32.79,32.79,0,0,1,.78-4.76,62.55,62.55,0,0,1,2.55-9.14c2.47-6.28,6.46-11.21,11-16.11q2.69-2.91,5.39-5.81c2.78-1.38,5-3.68,7.08-5.95a1.49,1.49,0,0,0,.76.15,5.29,5.29,0,0,0,4.25-2.72,4.55,4.55,0,0,0,.72-2.41A19.38,19.38,0,0,0,240.78,116.51Z"/><path class="cls-1" d="M219.15,115c-2.87-1.41-5.78,2.21-7.6,4a97.71,97.71,0,0,0-7.14,7.71,61.09,61.09,0,0,0-5.9,8.35,36.89,36.89,0,0,0-2.1,4.64c-.65,1.7-.64,3.57-1.24,5.23a.41.41,0,0,0,.75.32c.77-1.54,2.28-2.93,3.28-4.37s2.1-3,3.09-4.51a68,68,0,0,1,6.17-8.35A53.21,53.21,0,0,1,216,121c1.2-.92,3-1.92,3.63-3.36C219.92,116.87,220.06,115.49,219.15,115Z"/><path class="cls-1" d="M195,119c-2.21,1.25-3.51,3.39-5,5.39s-2.94,3.91-4.24,6a54.67,54.67,0,0,0-3.48,6.09c-1.08,2.37-2.45,4.64-3.43,7-.64,1.56,1.92,2.59,2.7,1.14a57,57,0,0,1,3.46-6.34c1.32-1.86,2.52-3.78,3.9-5.6s2.87-3.81,4.46-5.56,3.46-3.15,4.5-5.26A2.13,2.13,0,0,0,195,119Z"/><path class="cls-1" d="M173.21,129.64c-2.46,1.53-3.36,3.67-4.94,6-1.3,1.89-3.33,4.48-2,6.8a1.73,1.73,0,0,0,2.33.61c1.89-1.08,1.79-3.49,2.67-5.29s3.06-3.17,4.54-4.72C177.45,131.29,175.34,128.32,173.21,129.64Z"/><path class="cls-8" d="M122.39,225.33c7.16-27.42,34-98.8,54.24-95"/><path class="cls-8" d="M167,145.26a83.26,83.26,0,0,1,15.56-21.55c6.36-6.5,12.86-6.07,16.26-2.52"/><path class="cls-8" d="M178.24,147.54A226.1,226.1,0,0,1,195,125.45c3.24-3.78,6.86-7.64,11.12-10.19,6.6-3.94,13-1.55,14.06,1.35"/><path class="cls-8" d="M191.46,154.55c7.43-17.18,20.22-31.68,35.44-42.58,4.09-2.93,9.76-3.18,11.58-1.05,3,3.47,2.47,7.58.66,9.73s-11,10.35-13.06,12.22a55.49,55.49,0,0,0-17.66,30.75c-2.27,11.24,2.29,20.66,6.61,22.41a43.31,43.31,0,0,0,13.67,2.61c2.88.17,5.86.26,8.48,1.46s4.84,3.86,4.51,6.73c-.3,2.61-2.61,4.62-5.11,5.42s-5.19.64-7.82.53c-14.06-.56-28.46.83-41.33,6.53s-20.74,18.61-25.09,32"/><path class="cls-1" d="M174.57,346.67c-2.19,0-4.25,1.67-6.41,2.09-2.51.49-5,0-7.58-.1s-4.44-1.37-6.76-2.16l-.17-.06a3.66,3.66,0,0,0-.27-.29,56.51,56.51,0,0,1-4.74-5,3,3,0,0,0-.32-.33,15.11,15.11,0,0,0-.11-4.74,3.48,3.48,0,0,0-.62-1.45q-.08-.62-.21-1.24h1.85c0-1,0-2.06,0-3.07q.23-6.42.9-12.81a243.76,243.76,0,0,1,4-25.6c3.43-16.14,8.82-31.62,13.27-47.46a.77.77,0,0,0-1.11-.86,7.57,7.57,0,0,0-.76.42,9,9,0,0,0-2-2.41,1.59,1.59,0,0,0-2.47.32c-6.34,14.77-10.48,30.67-13.93,46.42-1.61,5.38-3.18,10.78-4.64,16.19a124.75,124.75,0,0,0-3.93,20.73v0c-.18,1.93-.47,14.68.93,19.58,2.27,6,6.54,8.44,10.89,8.71h.17c.53.17,1.06.33,1.59.46a19.94,19.94,0,0,0,5.27.15c3.42-.07,6.79,0,10.15-.8a15,15,0,0,0,4.49-2.06c1.61-1,4.78-5.72,5.79-7.39C178.3,343.17,175.42,346.68,174.57,346.67Z"/><path class="cls-8" d="M44.16,332.56c.61,9.54,5.25,22.34,21.86,18.7S87.58,318.81,88.43,312c4.86-39,19.19-70.88,25.22-83a7.3,7.3,0,0,1,8.74-3.69c10.79,3.41,29.85,11.55,40,16a7.28,7.28,0,0,1,3.82,9.48c-16.24,38.48-17.58,81.78-17.58,81.78-.53,9.18,2,14.76,13.43,16.17s19.07-6,18.57-16.64l-.35-12.2"/><line class="cls-18" x1="44.45" y1="329.55" x2="42.95" y2="290.35"/><path class="cls-13" d="M39.34,269.35a9.15,9.15,0,0,1,8.24,1.29A11.29,11.29,0,0,1,52,277.88a7,7,0,0,1-1,5.43,6.88,6.88,0,0,1-2.86,2.07,12.08,12.08,0,0,1-7.37.61,8.48,8.48,0,0,1-7.25-6.35C31.86,274.07,36.64,270.31,39.34,269.35Z"/><g class="cls-22"><path class="cls-18" d="M12.92,234.13a25.59,25.59,0,0,1,25.59-25.59h19a16,16,0,0,0,15.95-15.95v-33"/><path class="cls-8" d="M159.78,259.92h-121a25.59,25.59,0,0,1-25.59-25.59h0"/><path class="cls-18" d="M178.68,308.88V278.95a19.08,19.08,0,0,0-19.08-19.08"/></g><path class="cls-13" d="M181.16,312.45c-6.41,1.74-10.09-8.31-3.67-10.52C184.53,299.51,188.47,310.46,181.16,312.45Z"/><path class="cls-1" d="M656.89,310a.08.08,0,0,0,0,.16A.08.08,0,0,0,656.89,310Z"/><path class="cls-1" d="M656.51,308.33a.1.1,0,0,0,0,.19A.1.1,0,0,0,656.51,308.33Z"/><path class="cls-18" d="M599,258v29.48a21.84,21.84,0,0,0,21.84,21.84h0"/><g class="cls-23"><line class="cls-8" x1="464.64" y1="46.76" x2="468.14" y2="46.76"/><path class="cls-24" d="M475.06,46.76h38.49a16.75,16.75,0,0,1,16.75,16.75V91.34a16.75,16.75,0,0,0,16.75,16.75h53.25a16,16,0,0,1,14.51,9.25"/><path class="cls-8" d="M615.93,120.61a16.06,16.06,0,0,1,.38,3.48"/></g><path class="cls-1" d="M545.61,84.11c-8.44-4.59-24.87-3.54-28.18,7.36-.18.07-.41.1-.53.27-7.55,11-1.77,22.39,5.5,27.8,9.43,7,24.27,5.36,29.61-5.81C557.09,103.11,557.36,90.5,545.61,84.11Zm-2.69,27.09c-5.46,4.68-11.33,4.83-16.41.45-2.48-2.15-6-5.27-6.71-8.5a27,27,0,0,1-.15-5.67c2.83-9.4,7.15-10.22,9.7-11.49,3.14-1.55,9.89.59,13.13,1.64,3.78,1.22,9.47,8.36,6.71,16.71C548.12,107.54,546,108.51,542.91,111.2Z"/><path class="cls-1" d="M554.85,95.85c-.47-2-3.41-1.14-3.08.85,1.72,10.63-5,21.35-16.46,21.71a18.16,18.16,0,0,1-13.17-5A17.83,17.83,0,0,1,518,105.8c-.64-2.19-.8-4.49-1.74-6.57a.74.74,0,0,0-1.34.17c-.92,5.59,2.25,12.48,6,16.53a18.63,18.63,0,0,0,15.88,6C549.21,120.52,557.65,108,554.85,95.85Z"/><path class="cls-1" d="M523.86,100.26c-.41-.77-1.35-.82-2.14-.77a8,8,0,0,0-1,.15c-.4.08-.76.27-1.16.36a.4.4,0,0,0-.09.73,13.55,13.55,0,0,0,2,1c.75.22,1.73.4,2.29-.25A1,1,0,0,0,523.86,100.26Z"/><path class="cls-1" d="M536.15,85.22A1.14,1.14,0,0,0,534.4,85a2.17,2.17,0,0,0-.52,1.68,2.34,2.34,0,0,0,.27,1.6,1,1,0,0,0,1.58.2,2.4,2.4,0,0,0,.59-1.6A2.12,2.12,0,0,0,536.15,85.22Z"/><path class="cls-1" d="M534.56,97.33c-.16-1.53.13-3.05-.62-4.44a1,1,0,0,0-1.69,0c-.78,1.48-.35,3-.27,4.62a16.92,16.92,0,0,0,.66,5.11,1.28,1.28,0,0,0,2.51-.34A39.69,39.69,0,0,0,534.56,97.33Z"/><path class="cls-1" d="M545.35,107.51c-3.36-1.76-6.58-3.87-10.06-5.39a1.54,1.54,0,0,0-1.55,2.65,71,71,0,0,0,10.34,4.92C545.52,110.33,546.82,108.29,545.35,107.51Z"/><path class="cls-8" d="M537.33,82.62c9.25,1.2,16.71,10.4,16,19.69s-9.52,17.22-18.84,17C508.73,118.63,511.59,79.27,537.33,82.62Z"/><path class="cls-9" d="M533.64,92.29l1,10.06c3.51,1.88,6.87,4.21,10.38,6.09"/><path class="cls-9" d="M519.86,99.62l2.81.23"/><path class="cls-9" d="M534.33,113.51l.28,2.35"/><path class="cls-9" d="M548.28,101.31l2.22-.23"/><line class="cls-9" x1="534.77" y1="85.16" x2="534.77" y2="87.06"/></g></g></svg>