<svg xmlns="http://www.w3.org/2000/svg" xmlns:xlink="http://www.w3.org/1999/xlink" viewBox="0 0 606.76 323.43"><defs><style>.cls-1{filter:url(#luminosity-noclip);}.cls-2{filter:url(#luminosity-noclip-2);}.cls-3{filter:url(#luminosity-noclip-3);}.cls-4{isolation:isolate;}.cls-10,.cls-5{fill:#e0dfe6;}.cls-13,.cls-6{fill:#ffca76;}.cls-14,.cls-16,.cls-18,.cls-19,.cls-7,.cls-9{fill:none;}.cls-13,.cls-14,.cls-16,.cls-18,.cls-19,.cls-7,.cls-9{stroke:#5a6684;}.cls-14,.cls-16,.cls-19,.cls-7,.cls-9{stroke-linecap:round;}.cls-13,.cls-14,.cls-16,.cls-18,.cls-19,.cls-7{stroke-miterlimit:10;}.cls-13,.cls-14,.cls-16,.cls-18,.cls-7,.cls-9{stroke-width:3px;}.cls-8{mask:url(#mask);}.cls-9{stroke-linejoin:round;}.cls-10{mix-blend-mode:multiply;}.cls-11{mask:url(#mask-2);}.cls-12{mask:url(#mask-3);}.cls-14{stroke-dasharray:7;}.cls-15{mask:url(#mask-4);}.cls-16{stroke-dasharray:7.32 7.32;}.cls-17{fill:#525d7d;}.cls-19{stroke-width:2.5px;}.cls-20{filter:url(#luminosity-noclip-4);}</style><filter id="luminosity-noclip" x="360.35" y="0" width="83.12" height="88.45" filterUnits="userSpaceOnUse" color-interpolation-filters="sRGB"><feFlood flood-color="#fff" result="bg"/><feBlend in="SourceGraphic" in2="bg"/></filter><mask id="mask" x="360.35" y="0" width="83.12" height="88.45" maskUnits="userSpaceOnUse"><path class="cls-1" d="M414.89,80.49a26.46,26.46,0,0,0-3.8-13.12,4.36,4.36,0,0,0-4.85-2c3.51-1.19,0-8.12-1.54-9.86a4.29,4.29,0,0,0-5.17-.67c-.31-.42-.63-.84-1-1.26-2.31-2.67-7.66-.63-7.28,3,0,.49.16,1.1.28,1.76a4.46,4.46,0,0,0-2.21,1c-4.08-1-6.32,5.08-3.11,7.62-.7,4.39-1.55,11.07,2.26,14.27A5.76,5.76,0,0,0,392,82.69a5,5,0,0,0,3.34,1.77,4.46,4.46,0,0,0,3.44.76,4.46,4.46,0,0,0,4.64.82,4.94,4.94,0,0,0,.37.85,2.59,2.59,0,0,0,1.61,1.28,3.49,3.49,0,0,0,1.78.24,3.44,3.44,0,0,0,.45-.1c2.06.4,3.8-1.67,3.71-3.64A4.16,4.16,0,0,0,414.89,80.49Z"/></mask><filter id="luminosity-noclip-2" x="164.94" y="52.21" width="70.87" height="75.96" filterUnits="userSpaceOnUse" color-interpolation-filters="sRGB"><feFlood flood-color="#fff" result="bg"/><feBlend in="SourceGraphic" in2="bg"/></filter><mask id="mask-2" x="164.94" y="52.21" width="70.87" height="75.96" maskUnits="userSpaceOnUse"><path class="cls-2" d="M214.91,115.28c-1.1-1.41-5.66-.54-6.28-.75-6.1-2.07-22.2,3.54-19,3.8,1.8.14-.4,10.63.3,9.65,3.45-.18,9-2.06,12.2-1.18.27.8,5.89,1,6.89,1.25,1.89.43,2.63-.36,4.53.07C217.3,129,217.29,118.32,214.91,115.28Z"/></mask><filter id="luminosity-noclip-3" x="271.32" y="257.75" width="66.61" height="58.68" filterUnits="userSpaceOnUse" color-interpolation-filters="sRGB"><feFlood flood-color="#fff" result="bg"/><feBlend in="SourceGraphic" in2="bg"/></filter><mask id="mask-3" x="271.32" y="257.75" width="66.61" height="58.68" maskUnits="userSpaceOnUse"><path class="cls-3" d="M315,259c-4-1.47-9-.9-13.19-1-3.8-.11-7.54-1-10.64,1.47a2.15,2.15,0,0,0,0,3c2.86,2.65,6.93,2,10.64,2.11,4.24.17,9.09,1,13.19-.15C317.82,263.63,317.54,260,315,259Z"/></mask><filter id="luminosity-noclip-4" x="401.3" y="27.84" width="160.91" height="204.75" filterUnits="userSpaceOnUse" color-interpolation-filters="sRGB"><feFlood flood-color="#fff" result="bg"/><feBlend in="SourceGraphic" in2="bg"/></filter><mask id="mask-4" x="401.3" y="27.84" width="160.91" height="204.75" maskUnits="userSpaceOnUse"><g class="cls-20"><path d="M404.6,97.59a136.89,136.89,0,0,1-3.12-37.75,149.24,149.24,0,0,1,2.08-19.09c.73-4.14-2.57-10.13,2.89-12.68.55-.26,4.32-.33,4.67,0,4.45,3.92.63,11.69,0,16.28A150.63,150.63,0,0,0,409.74,61c-.31,12,1.34,23.86,3.36,35.8C413.63,100,405.35,100.78,404.6,97.59Z"/><path d="M558.62,231.16c3.21-8.68,4-33.6,3.4-42.37a68.46,68.46,0,0,0-2.27-13.32c-.79-2.89-.21-6.12-6.16-7.9a2.46,2.46,0,0,0-1.71.19c-4.85,2.73-1,7-.35,10.2a68.34,68.34,0,0,1,1.5,11.66c.34,8.39-1.46,32.68-3.66,41C548.78,232.85,557.79,233.38,558.62,231.16Z"/></g></mask></defs><title>sec_ill_04</title><g class="cls-4"><g id="Layer_2" data-name="Layer 2"><g id="Section_04" data-name="Section 04"><path class="cls-5" d="M288,195.38c-.48-2.36-3.63-2.93-5.21-1.38-3.13,3.07-5,2.91-9.16,3.43a15.6,15.6,0,0,0-5.32,1.4,9.61,9.61,0,0,0-3.33,2.76,5.89,5.89,0,0,0-1.16,1.87c-5.48-5.66-13.2-8.36-20.67-4.31a1.88,1.88,0,0,0,0,3.21c2.88,1.61,5.74,2,8.86,3,3.31,1,4.69,2.77,7,5,2.58,2.5,6.25,3.45,9.21.9,1.61-1.39,1.87-3.51,3.53-4.84,2.64-2.11,6.48-1,9.69-1.93C286,203.26,289,200,288,195.38Z"/><path class="cls-5" d="M594.94,219c-1.95,8-7.79,14.35-13.51,20.35-6.73,7.06-15.54,8-25,8.33a53,53,0,0,1-27.09-5.82c-3.77-2-8.4-7.24-11.47-10.19-2.89-2.78-5.81-6-7.39-10.22-.68-1.81-2.56,1.16-2.51,3,.21,8.73,8.2,17,15.14,21.37,9.69,6.15,21.48,8.57,32.72,9.89,10.78,1.27,21.16-.3,29.54-7.61,7.16-6.24,13.68-16.22,15.71-25.54C601.8,219.36,596.36,213.24,594.94,219Z"/><path class="cls-5" d="M599.51,171.91c-1.91-3.64-7.84-1.16-6.57,2.84,4.89,15.45,6.22,32.17,1.17,47.75-2.38,7.33-6.11,14.62-11.49,20.1-6.32,6.44-14.44,8.33-23.11,8.41-13.41.13-29.41-1.71-39.46-11.82-10.49-10.56-15.75-32.54-12.05-46.63,1.23-4.68-3.3-7.49-5.37-2.78-3.87,8.81-2.81,19-1.46,28.33,1.32,9.12,4.17,18.11,10,25.27,11.51,14.06,31.34,17.33,48.3,17.17,9.44-.09,18.73-2,26.29-8.12C593,246.6,598,238.3,601.43,229.65,608.84,211.09,608.82,189.66,599.51,171.91Z"/><path class="cls-5" d="M582.51,191.59c-1.29-.86,1.27,5.25.46,6.36-2.39,3.27-1.34,7.65-2.18,11.48a26,26,0,0,1-5.66,11.49c-6.06,7-15.58,10.47-24.7,10.05-8.21-.37-16.58-4-21.46-10.8-5.43-7.54-5.6-16.13-3.43-24.8.52-2.06-2.13-3.8-3.67-2.14-7.56,8.12-7,21.47-1.33,30.5,6.06,9.71,17,15.19,28.13,16.23,12,1.12,24.86-3.46,33-12.54C587.2,221.17,592,197.92,582.51,191.59Z"/><path class="cls-6" d="M582.34,192.6c-2.78-8-10-13.94-18-16.85-7.45-4.17-17.62-6.54-22.43-.38A26.7,26.7,0,0,0,523.86,196a7.5,7.5,0,0,0-3.12,6.63c3.25,25.64,33.45,34.15,52.41,18.1C581.11,214,585.87,202.83,582.34,192.6Zm-43.27,4.5c2.68-8.41,13-14.81,24-5.51,3.13,4.55,6.13,12.35,2.88,17.13-.62.91-4.78,4-5.52,4.7-8.08,4-11.42.74-15.86-.75C540.47,210.26,537.14,203.16,539.07,197.1Z"/><path class="cls-7" d="M560,187.74a16.25,16.25,0,0,1,7.55,17c-1.46,6.46-7.81,11.57-14.43,11.27a15.54,15.54,0,0,1-10.54-5.16C530.8,198,543.71,178.06,560,187.74Z"/><path class="cls-7" d="M582.15,197.09c5.51,36.77-52.47,49.64-59.35,11.65C515.21,166.83,576,155.72,582.15,197.09Z"/><path class="cls-7" d="M591.46,165.68c6.55,8.72,9.91,19.52,11.06,30.37,1,9.81.31,19.93-3.2,29.15s-9.93,17.49-18.58,22.24c-7.43,4.08-16.05,5.41-24.51,5.93-10.4.64-21.34,0-30.36-5.18A41.34,41.34,0,0,1,512,234.37c-11.48-18-11.19-42.82.72-60.56C530,148.07,571.08,138.57,591.46,165.68Z"/><g class="cls-8"><path class="cls-5" d="M442.37,45.92c-5.82,7.41-12.08,18-18.87,24.59-5,4.83-15.62,16.06-23.38,15.2S387.68,75.3,382.25,70.46c-6.35-5.67-18-24.35-21.59-32.2-1-2.26.72-5.65,3.57-4.65,6.17,2.17,15,17.67,19.82,21.94q4.28,3.76,8.58,7.5c3,2.6,1.66,5.51,5.14,7.41,4.6,2.51,9.65-3.92,13-7,2.68-2.44,6.11-6,8.64-8.61,5.33-5.43,11.47-9.74,16.17-15.73C439.4,34.3,446.14,41.12,442.37,45.92Z"/><path class="cls-9" d="M400.67,3c-10.75,9.39-23.79,21.31-33.73,30.83a3.53,3.53,0,0,0-.29,4.79c9.72,11.8,19.88,26.09,29.91,37.07a3.57,3.57,0,0,0,4.78.46c12.37-9.26,25.79-21.71,37.21-33a4.28,4.28,0,0,0-.06-6.19c-10.45-9.8-20-21.55-29.21-33.17A6,6,0,0,0,400.67,3Z"/><path class="cls-6" d="M419.42,35.7c0-8.55-6.75-14.62-14.23-15.9a10.41,10.41,0,0,0-6.67.19,15.25,15.25,0,0,0-2.42.79c-4.58,1.66-8.66,5.26-10,9.93a15.38,15.38,0,0,0,1.68,11.38,14,14,0,0,0,10.79,8.75,12.63,12.63,0,0,0,7.06-.66C412.88,49.07,419.43,44,419.42,35.7Z"/><path class="cls-10" d="M417.89,23.14a2.62,2.62,0,0,0-3.81,2.93c1.47,5.66,1.17,9.25-1.7,14.52s-6.79,7.13-12.56,5.79c-4.56-1.05-9.38-3.3-10.46-8.33-.84-3.92,1.62-7.28,1.06-11.2-.24-1.66-2.31-2.47-3.74-2.13-7.53,1.83-7.56,12.7-5,18.46C385,51,393.24,54.82,401.35,55.61c8.73.86,15.43-3.62,19-11.42C423.45,37.57,425.08,27.6,417.89,23.14Z"/><path class="cls-7" d="M385.51,30.43C394.85,7.38,428.8,19.37,417.64,44,410.53,59.76,377.5,50.21,385.51,30.43Z"/><path class="cls-9" d="M399.13,29.95l0,7.82c3,0,5.09.06,8.15,0"/><path class="cls-9" d="M384.29,35.7c1.86.1,3.61-.09,5.47,0"/><path class="cls-9" d="M402.63,18.11c-.44,1.1.08,2.77-.08,4.87"/><path class="cls-9" d="M419.42,34.09a32,32,0,0,1-5.35.21"/><path class="cls-9" d="M403.41,51.9c0-1.53-.09-3.19,0-5.1"/></g><path class="cls-5" d="M339,285.33c-.33-2.33-3.59-3.56-5.14-1.26-4.3,6.36-2,14.28-5.73,20.55-3.35,5.63-16.09,3-21.84,2.84q-6.41-.22-12.81-.47c-2.76-.11-8.58.63-10.93-1.11-2.53-1.87-2.89-8.11-2.87-10.66,0-4.48.62-8.36-.39-12.83-1.06-4.66-8.58-4.19-9.92,0-1.9,5.92-.31,11.46-.78,17.47-.4,5.11-2.1,10,1.16,14.73,6.54,9.43,23.5,9.16,34,8.22,11.33-1,28.3,4.46,35-5.45C345.15,308,340.53,295.75,339,285.33Z"/><path class="cls-6" d="M205.28,100.63c.51-.41,1-.85,1.48-1.3.25.49.51,1,.77,1.44,2.17,3.8,9.25,2,7.76-2.66-1.21-3.8-.87-5.11,2.16-7.66,2.84-2.39.45-8.25-3.43-6.93-2.68.91-5,.1-5.35-2.46,0-.5,0-1,0-1.55-.25-4.75-6.9-5.5-7.53-.55,0,.1,0,.2,0,.3a3.85,3.85,0,0,0-2.14.6A7.72,7.72,0,0,1,192.81,81c-4.36-.8-6.88,6.32-2.87,8.32a45,45,0,0,0,4.31,1.92c-.1.41-.21.82-.31,1.23a5.33,5.33,0,0,0,1,4.34l-1,2c-1.69,3.47,2.9,6.82,6,5.23A33.26,33.26,0,0,0,205.28,100.63Z"/><g class="cls-11"><path class="cls-5" d="M233.4,82.69c-.83-4-6.79-2.91-6.9.93-.37,12.91-12,24.86-25,25A23.37,23.37,0,0,1,185.94,103c-5.69-4.95-9.6-11.59-12.3-18.34-3.58-8.95-8.93-7.72-8.69,2,.27,11,2.25,22.48,11,29.61a39,39,0,0,0,27.85,8.57c10.64-1,18.42-5.87,24.26-14.65,2.64-4,5.4-8.19,6.23-13S234.35,87.27,233.4,82.69Z"/><path class="cls-7" d="M181.1,59.59A35.47,35.47,0,0,1,203,53.8c12.87.91,25,9.66,29.44,21.78s.6,26.94-9.47,35c-11.28,9-29.79,10-40.65,1.4-9.91-7.88-16.45-17.23-14.7-31.75C168.67,71.78,174.12,64.23,181.1,59.59Z"/><path class="cls-9" d="M201.64,64.25,210,77.35l14,.2a75,75,0,0,1-9.56,10.71c0,4.51.15,14.07.15,14.07s-8.51-5.46-12.3-8.09a81.75,81.75,0,0,1-12.7,7.59,82.14,82.14,0,0,0,3.81-16,47.39,47.39,0,0,1-12.3-8.46c3.31-.92,14.49-1.55,15.93-2.54C200,72.77,200.65,67.68,201.64,64.25Z"/></g><g class="cls-12"><path class="cls-7" d="M279.62,262.38l52-1.29a4.67,4.67,0,0,1,4.79,4.72L336,306.68c0,1.71-.11,3.6-1.29,4.84s-3.48,1.41-5.39,1.35c-12.43-.42-48.59,4.82-53.42,0-4.09-4.07-2.95-32.07-2.75-44A6.67,6.67,0,0,1,279.62,262.38Z"/></g><path class="cls-5" d="M322.12,285.85c-2.39,2.24-4.51,4.43-7.48,6a27.89,27.89,0,0,1-10.09,2.66c-3.66.37-6.93-.93-10.19-2.54-2.79-1.38-5-4.15-7.92-5a1.52,1.52,0,0,0-1.85,1.85c.7,3.46,5.39,6.28,8.36,7.74a31.94,31.94,0,0,0,12.13,2.69c7.57.31,16.55-4.09,20.59-10.56C327.08,286.36,324,284.12,322.12,285.85Z"/><path class="cls-5" d="M311.73,290.1c-.26,2.19-5.82,1.7-7.23,1.62a19.73,19.73,0,0,1-7.12-1.84,1.1,1.1,0,0,0-1.63.94c-.62,5.62,5.41,6.72,9.82,6.62,5.23-.12,9.49-1.4,11.37-6.63C318.15,287.41,312.21,286,311.73,290.1Z"/><path class="cls-13" d="M297,285.37a6.27,6.27,0,0,1,5.6-4.33,7.64,7.64,0,0,1,6.47,3.24,6.37,6.37,0,0,1,1.16,5.28,5.77,5.77,0,0,1-4.51,3.94C301.47,294.3,295.68,290.1,297,285.37Z"/><path class="cls-9" d="M282.47,289.48s14.8-30.55,44.55-3.08C327,286.4,307.62,314.64,282.47,289.48Z"/><path class="cls-5" d="M189.37,38.28a39.44,39.44,0,0,0-18.69,7c-4.89,3.29-11.64,8.64-13.16,14.6-.81,3.19,2.43,5.73,5.23,3.68,4.43-3.24,7.32-8.1,12.08-11.21s10.31-5,15.94-6.52A3.82,3.82,0,0,0,189.37,38.28Z"/><path class="cls-5" d="M158.43,67.49a1.91,1.91,0,0,0-2.38-1.81c-3.91,1-6,5.9-7.36,9.26-1.1,2.78,2,4.89,4.43,4.43a3.14,3.14,0,0,0,1-.28,3.32,3.32,0,0,0,2.19-4.16q.5-1.41,1-2.8A10.9,10.9,0,0,0,158.43,67.49Z"/><path class="cls-7" d="M190.25,40.74a46.5,46.5,0,0,0-30.93,20"/><path class="cls-7" d="M154.41,68.81a9.06,9.06,0,0,0-1.92,3.71"/><path class="cls-5" d="M590.5,136.52a39.44,39.44,0,0,0-17.89-8.81c-5.75-1.3-14.28-2.53-19.65.46-2.87,1.6-2.49,5.7.91,6.33,5.4,1,10.92-.25,16.44,1.08,5.7,1.37,10.74,4,15.68,7.1A3.82,3.82,0,0,0,590.5,136.52Z"/><path class="cls-5" d="M548,134.1a1.91,1.91,0,0,0-.32-3c-3.39-2.18-8.43-.33-11.79,1-2.77,1.11-2.16,4.84-.18,6.26a3.14,3.14,0,0,0,.87.52,3.32,3.32,0,0,0,4.53-1.27q1.36-.61,2.74-1.18A10.9,10.9,0,0,0,548,134.1Z"/><path class="cls-7" d="M589.22,139.13a46.5,46.5,0,0,0-35.78-8.74"/><path class="cls-7" d="M544.2,132.37a9.06,9.06,0,0,0-4,1.15"/><path class="cls-5" d="M189.33,137a62.53,62.53,0,0,0,7.07,16.6c1.71,2.71,5.48.36,4.22-2.47a53.54,53.54,0,0,1-5-16.91c-.47-4.29-.21-7.25-3.3-10.48a1.23,1.23,0,0,0-1.73,0C186.92,127.62,188,132.11,189.33,137Z"/><path class="cls-5" d="M197.19,125.56a7.53,7.53,0,0,1,1.8-2.51c1.85,2.42,3.22-8,4.73-11.12.34,0,3.76,9.83,4.09,9.75.49,1,4.21.25,5.23.74,4.41,2.14,1.8,9,3.33,12.26.55,1.16-1,.49,0,0,3-1.43,4-4.55,3.86-7.73-.2-4-3.09-6.09-4.15-9.51-.9-2.9-.66-5.63-3.56-7.52a5.84,5.84,0,0,0-3-1c-2.33-2.83-5.35-5-9.36-4.47a8,8,0,0,0-5,2.71,6.55,6.55,0,0,0-1.51,3.49c-4.54,2.54-4.57,6.81-5.33,12.42C187.49,129,195,131.21,197.19,125.56Z"/><line class="cls-7" x1="196.94" y1="154.63" x2="211.73" y2="154.63"/><path class="cls-7" d="M196.94,154.63V182a12,12,0,0,1-12,12H148.32a12,12,0,0,1-12-12V99.44a12,12,0,0,1,12-12h10.12"/><path class="cls-7" d="M211.78,154.63s4.11-14.79,5.19-19.89c1.13-5.38.62-13.45-5.22-13.45"/><path class="cls-7" d="M210.75,128.81V115.74c0-1.56-.28-4.39-3.33-4.51s-3.61,2.25-3.61,4.51v13.07"/><path class="cls-7" d="M196.87,128.81v-7.46c0-1.56-.28-4.39-3.33-4.51s-3.61,2.25-3.61,4.51v8.4c0,12.94,7,17.5,7,24.89"/><path class="cls-7" d="M203.81,126.28V113.21c0-1.56-.28-4.39-3.33-4.51s-3.61,2.25-3.61,4.51v15.6"/><path class="cls-14" d="M211.73,154.63v30.93a24,24,0,0,1-24,24.06H144.93a24,24,0,0,1-24-24V166.78a12,12,0,0,0-12-12H99.74"/><path class="cls-5" d="M318.36,247.83a62.53,62.53,0,0,0-7.07-16.6c-1.71-2.71-5.48-.36-4.22,2.47a53.54,53.54,0,0,1,5,16.91c.47,4.29.21,7.25,3.3,10.48a1.23,1.23,0,0,0,1.73,0C320.76,257.17,319.65,252.68,318.36,247.83Z"/><path class="cls-5" d="M310.49,259.23a7.53,7.53,0,0,1-1.8,2.51c-1.85-2.42-3.22,8-4.73,11.12-.34,0-3.76-9.83-4.09-9.75-.49-1-4.21-.25-5.23-.74-4.41-2.14-1.8-9-3.33-12.26-.55-1.16,1-.49,0,0-3,1.43-4,4.55-3.86,7.73.2,4,3.09,6.09,4.15,9.51.9,2.9.66,5.63,3.56,7.52a5.84,5.84,0,0,0,3,1c2.33,2.83,5.35,5,9.36,4.47a8,8,0,0,0,5-2.71,6.55,6.55,0,0,0,1.51-3.49c4.54-2.54,4.57-6.81,5.33-12.42C320.19,255.84,312.68,253.58,310.49,259.23Z"/><path class="cls-7" d="M295.91,230.16s-4.11,14.79-5.19,19.89c-1.13,5.38-.62,13.45,5.22,13.45"/><path class="cls-7" d="M296.94,256v13.07c0,1.56.28,4.39,3.33,4.51s3.61-2.25,3.61-4.51V256"/><path class="cls-7" d="M310.82,256v7.46c0,1.56.28,4.39,3.33,4.51s3.61-2.25,3.61-4.51V255c0-12.94-7-17.5-7-24.89"/><path class="cls-7" d="M303.88,258.52v13.07c0,1.56.28,4.39,3.33,4.51s3.61-2.25,3.61-4.51V256"/><path class="cls-7" d="M310.39,229.64,296,229.58V141a33.66,33.66,0,0,0-33.66-33.66h0A33.66,33.66,0,0,0,228.63,141l0,112a24,24,0,0,0,24,24h10.54"/><path class="cls-14" d="M246,87.42h15.83a48.37,48.37,0,0,1,48.58,48.16v86.85"/><path class="cls-5" d="M385,80.57a62.53,62.53,0,0,0,7.07,16.6c1.71,2.71,5.48.36,4.22-2.47a53.54,53.54,0,0,1-5-16.91c-.47-4.29-.21-7.25-3.3-10.48a1.23,1.23,0,0,0-1.73,0C382.64,71.23,383.75,75.72,385,80.57Z"/><path class="cls-5" d="M392.91,69.17a7.53,7.53,0,0,1,1.8-2.51c1.85,2.42,3.22-8,4.73-11.12.34,0,3.76,9.83,4.09,9.75.49,1,4.21.25,5.23.74,4.41,2.14,1.8,9,3.33,12.26.55,1.16-1,.49,0,0,3-1.43,4-4.55,3.86-7.73-.2-4-3.09-6.09-4.15-9.51-.9-2.9-.66-5.63-3.56-7.52a5.84,5.84,0,0,0-3-1c-2.33-2.83-5.35-5-9.36-4.47a8,8,0,0,0-5,2.71,6.55,6.55,0,0,0-1.51,3.49c-4.54,2.54-4.57,6.81-5.33,12.42C383.21,72.56,390.72,74.82,392.91,69.17Z"/><path class="cls-7" d="M406.77,98.76a54.76,54.76,0,0,0,6.39-9.05c2.8-5.28,1.57-16.89-.75-21.88-1.16-2.49-3-2.92-4.95-2.92"/><path class="cls-7" d="M406.46,72.42V59.35c0-1.56-.28-4.39-3.33-4.51s-3.61,2.25-3.61,4.51V72.42"/><path class="cls-7" d="M392.58,72.42V65c0-1.56-.28-4.39-3.33-4.51s-3.61,2.25-3.61,4.51v8.4c0,12.94,6.68,18.08,6.68,25.46"/><path class="cls-7" d="M399.52,69.88V56.82c0-1.56-.28-4.39-3.33-4.51s-3.61,2.25-3.61,4.51v15.6"/><path class="cls-14" d="M406.77,200.23V228.9a48.37,48.37,0,0,1-48.58,48.16H346"/><path class="cls-7" d="M474.86,159.53v22a20,20,0,0,0,20,20h61.62"/><g class="cls-15"><line class="cls-7" x1="445.82" y1="39.59" x2="449.32" y2="39.57"/><path class="cls-16" d="M456.59,40.26a24.06,24.06,0,0,1,18.27,23.35v81.55"/><line class="cls-7" x1="474.86" y1="148.81" x2="474.86" y2="152.31"/></g><path class="cls-7" d="M550.4,193.5l5.21,4.87c.78.73,1.63,1.63,1.54,2.69a3.38,3.38,0,0,1-.82,1.67A32.08,32.08,0,0,1,550,209"/><path class="cls-5" d="M507.28,118.58c-1.15,3.53-1.81,7.19-4.08,10.26-2.65,3.58-5.91-1.62-7.2-4-.81-1.47-2.66-.6-2.85.77-.73,5.52,5.24,11.82,10.88,10.55,6.12-1.38,10-11.15,10.31-16.66C514.59,115.34,508.49,114.86,507.28,118.58Z"/><path class="cls-17" d="M505.21,132.92a1.81,1.81,0,0,1-1-.3l-2-1.3c-3-1.94-6-3.95-8.94-6.12a1.8,1.8,0,0,1-.36-2.54l1.4-1.83a77,77,0,0,0,6.62-9.56,1.8,1.8,0,0,1,2.53-.66l1.29.8a84.25,84.25,0,0,0,8.77,5,1.8,1.8,0,0,1,.76,2.61c-2.84,4.42-5.4,9-7.53,13a1.8,1.8,0,0,1-1.59.95Zm-8.28-9.53c2.39,1.71,4.87,3.33,7.28,4.91l.35.23c1.68-3.06,3.58-6.44,5.65-9.77-2.43-1.26-4.76-2.7-7-4.1a93.88,93.88,0,0,1-6,8.38Z"/><path class="cls-5" d="M273.18,38.29c-1.15,3.53-1.81,7.19-4.08,10.26-2.65,3.58-5.91-1.62-7.2-4-.81-1.47-2.66-.6-2.85.77-.73,5.52,5.24,11.82,10.88,10.55,6.12-1.38,10-11.15,10.31-16.66C280.49,35,274.38,34.57,273.18,38.29Z"/><path class="cls-17" d="M271.11,52.63a1.81,1.81,0,0,1-1-.3l-2-1.3c-3-1.94-6-3.95-8.94-6.12a1.8,1.8,0,0,1-.36-2.54l1.4-1.83A77,77,0,0,0,266.87,31a1.8,1.8,0,0,1,2.53-.66l1.29.8a84.25,84.25,0,0,0,8.77,5,1.8,1.8,0,0,1,.76,2.61c-2.84,4.42-5.4,9-7.53,13a1.8,1.8,0,0,1-1.59.95Zm-8.28-9.53c2.39,1.71,4.87,3.33,7.28,4.91l.35.23c1.68-3.06,3.58-6.44,5.65-9.77-2.43-1.26-4.76-2.7-7-4.1a93.88,93.88,0,0,1-6,8.38Z"/><path class="cls-5" d="M446.54,99.62c-1.13,1.85-1.64,4.48-3.91,5.28-2.62.93-4.53-1.1-5.73-3.17-.65-1.12-2.83-1.08-3,.4-.68,4.9,3,8.83,7.9,9.17,5.46.39,9.59-4.16,11.21-9C454.27,98.47,448.57,96.3,446.54,99.62Z"/><path class="cls-17" d="M443,105.08c-4,0-8.1-2.55-8.1-6.81a8.21,8.21,0,0,1,5.46-7.43,4.11,4.11,0,0,1,1.25-.18c4.15,0,8.8,3.5,8.8,8.19C450.38,102.57,447.4,105.08,443,105.08Zm-2.09-12.52.55,1.72a4.54,4.54,0,0,0-2.95,4c0,2,2.33,3.2,4.5,3.2,1.14,0,3.8-.26,3.8-2.62,0-2.75-3.12-4.58-5.19-4.58h-.15Z"/><path class="cls-5" d="M172,254.77c-1.13,1.85-1.64,4.48-3.91,5.28-2.62.93-4.53-1.1-5.73-3.17-.65-1.12-2.83-1.08-3,.4-.68,4.9,3,8.83,7.9,9.17,5.46.39,9.59-4.16,11.21-9C179.75,253.62,174,251.45,172,254.77Z"/><path class="cls-17" d="M168.45,260.23c-4,0-8.1-2.55-8.1-6.81a8.21,8.21,0,0,1,5.46-7.43,4.11,4.11,0,0,1,1.25-.18c4.15,0,8.8,3.5,8.8,8.19C175.86,257.72,172.88,260.23,168.45,260.23Zm-2.09-12.52.55,1.72a4.54,4.54,0,0,0-2.95,4c0,2,2.33,3.2,4.5,3.2,1.14,0,3.8-.26,3.8-2.62,0-2.75-3.12-4.58-5.19-4.58h-.15Z"/><path class="cls-5" d="M283.31,190.73c-3.23,4.14-10.41,2-14.46,3.78-1.77.8-4.1,2.92-3.91,5.31l-.42.37a13.76,13.76,0,0,0-4.19-4.87c-3.38-2.27-8.52-.85-11.49-3.56s-2.84-29.87-8.45-28a7.77,7.77,0,0,0-5.73,6.77c-1,9.63-.06,27.78,0,27.9,2.94,5.4,11.41,3.51,14.28,4,2.57.4,4.74-.78,7.2.54,1.81,1,2.88,1.38,4.18,2.77.44.81.86,1.63,1.28,2.39,1.61,2.94,5.11,1.65,5.34-1.73.3-4.49,15.34-5.2,15.55-5.23,7,.18,7.49-8.42,7.76-8.92.8-1.46-2.38-18.09-3.71-18.44C285.78,173.62,285.65,187.74,283.31,190.73Z"/><path class="cls-18" d="M239.85,160.38c-2.17,3.08-1.23,20.77-1.36,24.51s-.16,7.51,2.05,10.39c1.66,2.16,10.12,2.48,14.75,2.29a4.83,4.83,0,0,1,3.89,1.68l6.37,7.52,3.57-7.15a4.14,4.14,0,0,1,3.41-2.26l8.67-.63a5.57,5.57,0,0,0,5-4.25,58.17,58.17,0,0,0,1.65-9.95c.07-3.21.64-20.84-1.31-23.43-2.34-3.11-13.26-.84-23.56-.87S242.1,157.18,239.85,160.38Z"/><path class="cls-6" d="M276.07,175a11.68,11.68,0,0,0-6-7.71c-3.55-2.86-8.64-2.73-12.55-.25a12.61,12.61,0,0,0-5.27,14,14.11,14.11,0,0,0,9.15,9.6A11.59,11.59,0,0,0,273,187.28,13.58,13.58,0,0,0,276.07,175Z"/><path class="cls-18" d="M254.58,180.15a11.21,11.21,0,0,1,2.18-9.9,9.79,9.79,0,0,1,9.77-3.49,10.31,10.31,0,0,1,7.22,8,11,11,0,0,1-3.25,10.07C265.95,188.79,256.47,186.64,254.58,180.15Z"/><path class="cls-7" d="M262.79,173.11l-.42,4.68c1.59.12,3.09.3,5.86.47"/><path class="cls-5" d="M378.89,220.63a237.7,237.7,0,0,1-39.82.09c-.71-.06-3.69.06-4.13-.45,0,.05.32-4.43.32-4.32l.17-8.85c.12-6.46.89-13.3-.86-19.59a3.45,3.45,0,0,0-6.6,0c-2.37,7.67-3.08,38.14,3.46,40.67,2.93,1.13,6.54.9,9.62,1.1,4.65.29,9.29.42,13.95.32a212.33,212.33,0,0,0,24.84-1.89C383.84,227.15,382.93,220.32,378.89,220.63Z"/><path class="cls-5" d="M382.2,179.8c-16.5.93-32.94,1.08-49.45,1.42-1.81,0-1.8,3.48,0,3.56a483.43,483.43,0,0,0,49.45-.71C384.35,184,384.37,179.68,382.2,179.8Z"/><path class="cls-6" d="M344.4,187.85l-.3-.08A.45.45,0,0,0,344.4,187.85Z"/><path class="cls-6" d="M348.73,189a5,5,0,0,0-3.33-1.17c-.19,0-.67.08-1,.07.25.07.24.07,0,0l-.63-.14a10.17,10.17,0,0,0-2.65-.39c-2.57.14-4.7,2.38-5,5.67-.31,3,1.16,6.59,3.68,7.18a31.2,31.2,0,0,0,4.18.3c.51.05,1,.2,1.51.25a5.07,5.07,0,0,0,3.33-1c1.51-.95,2.42-3.3,2.42-5.37A6.9,6.9,0,0,0,348.73,189Z"/><path class="cls-6" d="M371.14,207.14c-3.52.55-7-.27-10.47.19a5.36,5.36,0,0,0-4.63,4.49c-.52,2.42.3,5.8,2.21,6.91,4.08,2.36,8.5,2.24,12.9,1.55,2.77-.43,5.16-2.71,5.16-6.57C376.3,210.5,373.92,206.71,371.14,207.14Z"/><path class="cls-7" d="M330.82,222.13c-.13-8.41-1.1-28.22.1-37.63a2.34,2.34,0,0,1,1.91-2.19c16.46-1.34,32.75.54,48.84-1.28a2,2,0,0,1,2,2.12c.8,14.19-.79,24.86-.31,37.92.06,1.68-1,3.1-2.29,3.15L334,225.94C332.26,226,330.85,224.29,330.82,222.13Z"/><path class="cls-19" d="M336.47,196.64a3.4,3.4,0,0,0,.34,1.69,1.92,1.92,0,0,0,1.81.68l9.28-.11a1.54,1.54,0,0,0,1.3-1.72c0-2.44,0-5.55,0-7.4a1.47,1.47,0,0,0-1.23-1.61c-2.82-.07-9.52-.19-10.14.12C335.45,189.47,336.4,194.12,336.47,196.64Z"/><line class="cls-19" x1="359.08" y1="189.36" x2="373.16" y2="189.36"/><line class="cls-19" x1="358.44" y1="195.06" x2="373.8" y2="195.06"/><path class="cls-19" d="M357.92,201.21c1.14.16,2.29.21,3.43.37h11.81"/><path class="cls-19" d="M372.12,208.49c1.29,0,2.35,1.3,2.38,2.94l.07,4.1a1.76,1.76,0,0,1-1.43,1.94c-2.84.13-9.15.42-13.08.53-1.89,0-3.46-1.88-3.48-4.29,0-.65,0-1.29,0-1.88,0-1.86,1.22-3.33,2.68-3.31C362.16,208.58,368.63,208.52,372.12,208.49Z"/><line class="cls-7" x1="359.08" y1="180.29" x2="359.08" y2="158.71"/><path class="cls-5" d="M468.51,237.22c-.73,1.32-2.08,4-3.51,4.58-2.12.79-4.25-.85-6-1.72-1.92-.95-3.67-2.15-5.85-1.89-4,.47-10,9-13.47,6.28-.88-.7-1.07-3-2-4a5.2,5.2,0,0,0-4.15-1.58c-4.43.14-9.18,5-12.33,7.8-2.31,2,.63,5.11,3.07,4,1.28-.59,7.71-5.27,8.75-4.84a21.16,21.16,0,0,0,2.44,4.68c3.62,3,8.41,1.9,12-.54,2.29-1.58,4-4.47,7-4.39,2.46.07,5.3,3.21,8,3.57,5.81.77,9.45-4,12.15-8.4C476.92,236.9,470.7,233.27,468.51,237.22Z"/><path class="cls-9" d="M422.92,246.8c2.43-.89,12.66-6.91,12.66-6.91l6.94,9s4.74-3.81,6.71-5.31,3.71-3.38,6-4.25l9.45,7.77,10.08-9.16"/><path class="cls-5" d="M92.46,76.6c-.73,1.32-2.08,4-3.51,4.58-2.12.79-4.25-.85-6-1.72-1.92-.95-3.67-2.15-5.85-1.89-4,.47-10,9-13.47,6.28-.88-.7-1.07-3-2-4a5.2,5.2,0,0,0-4.15-1.58c-4.43.14-9.18,5-12.33,7.8-2.31,2,.63,5.11,3.07,4,1.28-.59,7.71-5.27,8.75-4.84a21.16,21.16,0,0,0,2.44,4.68c3.62,3,8.41,1.9,12-.54,2.29-1.58,4-4.47,7-4.39,2.46.07,5.3,3.21,8,3.57,5.81.77,9.45-4,12.15-8.4C100.87,76.29,94.65,72.66,92.46,76.6Z"/><path class="cls-9" d="M46.86,86.18c2.43-.89,12.66-6.91,12.66-6.91l6.94,9s4.74-3.81,6.71-5.31,3.71-3.38,6-4.25l9.45,7.77,10.08-9.16"/><path class="cls-5" d="M80.15,125.11c-3.74-4-10.63-2.32-15.17-2.33-13.8,0-34.32-1.37-47.86,2.08-2.79.71-5.58,7.39-2.81,8.11,8.84,2.32,26.52-.82,35.53-.76l14,.09,7,0c2.77,0,4.46-.17,5.25,1.95.21.56.35,53,.44,53.9.32,3.3,4.46,5.77,6,1.93.61-1.58.92-55,.92-56.62A12.28,12.28,0,0,0,80.15,125.11Z"/><path class="cls-5" d="M88.62,120.94c-2.94-5.89-8-5.79-13.11-5.87-15.66-.26-39.52-1.13-55,1.66-2.53.45-2.44,5.46,0,6,11.44,2.57,30.8.59,42.4.93l9.2.26c2.11.06,7-.91,8.8.36,4.65,3.2,2.31,49.91,1.82,55.08-.56,6,7.18,5.86,7.8,0C91.29,171.65,92.11,127.93,88.62,120.94Z"/><path class="cls-5" d="M75.07,205.17a7.48,7.48,0,0,0-4.87-4.28l-.48-.09c-3.34-1.4-6.36-.15-9.12,2.41l-.39.36c-1.57,1.46-2.65,5.11-2.56,7.39a12.84,12.84,0,0,0,1.06,4.82c.15.68.34,1.36.55,2-14.74.65-32.64.53-44.39-.72-.82-.09-4.31.08-4.81-.63.05.07.38-6.18.37-6l.2-12.35c.14-9,1-47.32-1-56.09-1.08-4.63-6.55-4.45-7.7,0-2.77,10.7-1.59,51.86-1.68,63C.18,212.71-1.68,224,6,227.49c3.42,1.58,7.63,1.26,11.23,1.53,5.42.41,21.66.59,27.1.45,4.15-.11,8.29-.34,12.44-.66l0,0a2.81,2.81,0,0,0,3.18.55c3.43-1.81,6.47-5.62,9.31-8.52s6.12-6.08,8.4-9.87A4,4,0,0,0,75.07,205.17Z"/><path class="cls-5" d="M76,131.2c-19.25,1.29-49.26,1.5-68.52,2-2.11.05-2.1,4.86,0,5,19.13,1.07,49.4.3,68.52-1C78.52,137,78.54,131,76,131.2Z"/><path class="cls-6" d="M34.92,177.48c-4.11.76-8.17-.38-12.22.26-2.49.39-4.71,2.38-5.41,6.26-.61,3.38.35,8.1,2.58,9.64,4.77,3.3,9.92,3.12,15.05,2.17,3.23-.6,6-3.78,6-9.16C40.95,182.16,38.18,176.88,34.92,177.48Z"/><path class="cls-9" d="M5.23,219c-.15-11.74-1.28-68.15.11-81.28.18-1.68,1.11-3,2.23-3.06,19.21-1.87,49,.75,67.81-1.78,1.19-.16,2.25,1.14,2.34,3,.72,15.31-.43,66-.43,66l-17.4,20.66-51,1.85C6.92,224.44,5.27,222.06,5.23,219Z"/><line class="cls-19" x1="18.97" y1="147.42" x2="65.46" y2="147.42"/><line class="cls-19" x1="18.22" y1="158.24" x2="66.21" y2="158.24"/><path class="cls-19" d="M17.62,168.6c1.33.22,2.67.3,4,.52H65.46"/><path class="cls-19" d="M36.07,179.35c1.51,0,2.75,1.81,2.78,4.11l.09,5.72c0,1.45-.72,2.65-1.67,2.7-3.31.19-10.67.59-15.26.73-2.21.07-4-2.62-4.06-6,0-.91,0-1.8,0-2.62,0-2.59,1.43-4.65,3.13-4.61C24.46,179.48,32,179.4,36.07,179.35Z"/><path class="cls-19" d="M44.51,180.18l19.65-1.08"/><path class="cls-19" d="M45,190.47a113.47,113.47,0,0,0,22.42.38"/><path class="cls-19" d="M18.11,203.88,51.86,203"/><path class="cls-9" d="M59.89,222.51s-2.2-15.12-.91-19.6l18.31-1.06Z"/><path class="cls-9" d="M12.35,133.19c0-1.85.11-.93.08-2.78s.2-3.9,1.37-5.12a5.21,5.21,0,0,1,3.44-1.35c17.17-1.57,41.32-2.25,61.94-.34a4.91,4.91,0,0,1,3,1c1.31,1.19,1.46,3.44,1.5,5.41.12,6.67.16,55.94.12,62.61H80.64"/><path class="cls-9" d="M18.81,121c.18-2.87,1-3.52,1.79-4.06,1.76-1.25,3.92-1.24,6-1.24l55,.19c2.17,0,4.54.11,6.15,1.84,1.43,1.54,1.87,4,2.17,6.25,1.33,10.13,0,50.69.54,61.2H87.35"/><path class="cls-14" d="M392.33,100v22.45a33.66,33.66,0,0,1-33.66,33.66h0A33.66,33.66,0,0,1,325,122.47L325,61a24,24,0,0,1,24-24h10.54"/><polyline class="cls-7" points="406.46 192.97 406.46 100.02 392.33 100.02"/></g></g></g></svg>