<svg xmlns="http://www.w3.org/2000/svg" xmlns:xlink="http://www.w3.org/1999/xlink" viewBox="0 0 606.98 450.21"><defs><style>.cls-1{filter:url(#luminosity-noclip);}.cls-2{fill:#fff;}.cls-3{filter:url(#luminosity-noclip-3);}.cls-4{filter:url(#luminosity-noclip-5);}.cls-5{isolation:isolate;}.cls-6{mask:url(#mask);}.cls-12,.cls-7{fill:#e0dfe6;}.cls-16,.cls-18,.cls-19,.cls-21,.cls-8{fill:#a1c8ff;}.cls-10,.cls-15,.cls-22,.cls-23,.cls-9{fill:none;}.cls-10,.cls-15,.cls-16,.cls-18,.cls-19,.cls-21,.cls-22,.cls-23,.cls-9{stroke:#5a6684;}.cls-10,.cls-15,.cls-16,.cls-19,.cls-21,.cls-22,.cls-23,.cls-9{stroke-linecap:round;}.cls-10,.cls-16,.cls-19,.cls-9{stroke-linejoin:round;}.cls-10,.cls-15,.cls-16,.cls-18,.cls-21,.cls-23,.cls-9{stroke-width:3px;}.cls-10,.cls-23{stroke-dasharray:7;}.cls-11{mask:url(#mask-2);}.cls-12{mix-blend-mode:multiply;}.cls-13{fill:#5a6684;}.cls-14{mask:url(#mask-3);}.cls-15,.cls-18,.cls-21,.cls-22,.cls-23{stroke-miterlimit:10;}.cls-17{mask:url(#mask-4);}.cls-19{stroke-width:2.41px;}.cls-20{mask:url(#mask-5);}.cls-22{stroke-width:2.5px;}.cls-24{filter:url(#luminosity-noclip-4);}.cls-25{filter:url(#luminosity-noclip-2);}</style><filter id="luminosity-noclip" x="199.42" y="340.58" width="73.96" height="109.63" filterUnits="userSpaceOnUse" color-interpolation-filters="sRGB"><feFlood flood-color="#fff" result="bg"/><feBlend in="SourceGraphic" in2="bg"/></filter><mask id="mask" x="199.42" y="340.58" width="73.96" height="109.63" maskUnits="userSpaceOnUse"><path class="cls-1" d="M220.41,343.26c.07-1.25-.29-2.67-1.49-2.46-.28,0-.53.11-.78.18a3.12,3.12,0,0,0-3.72.5,2.61,2.61,0,0,0-3.87.3,2,2,0,0,0-.67.83,5.45,5.45,0,0,0-.21.63h0s0,0,0,0a3.48,3.48,0,0,0,.26,2.64c.84,3.07,3.46,5.87,6.68,6.15,2.06.18,2.64-.88,3.44-2.73S220.29,345.33,220.41,343.26Z"/></mask><filter id="luminosity-noclip-2" x="92.68" y="1.59" width="93.62" height="29.6" filterUnits="userSpaceOnUse" color-interpolation-filters="sRGB"><feFlood flood-color="#fff" result="bg"/><feBlend in="SourceGraphic" in2="bg"/></filter><mask id="mask-2" x="92.68" y="1.59" width="93.62" height="29.6" maskUnits="userSpaceOnUse"><g class="cls-25"><path d="M155.82,6.58c-3.23-2.08-7.23-2-10.93-1.72-2.46.2-4.92.48-7.36.82a4.52,4.52,0,0,0-3.46-1.26,4.8,4.8,0,0,0-.63-.1,4.18,4.18,0,0,0-5.26,3.38l-.35,1.8a6.36,6.36,0,0,0-.11.84A5.31,5.31,0,0,0,134,16.65c3.12-.65,6.24-1.22,9.41-1.59,1.74-.2,6.12-1.38,7.71-.5l0,0c2.38,1.47,5.85.85,6.74-2.47l.07-.26A4.74,4.74,0,0,0,155.82,6.58Z"/><path d="M158.11,12.6a3.63,3.63,0,0,0-1-1.56l-1-.76a3.61,3.61,0,0,0-1.8-.58,2.44,2.44,0,0,0-1.29,0,3.61,3.61,0,0,0-1.8.58l-.18.13,0,0-1,.76-.76,1a3.63,3.63,0,0,0-.58,1.81,2.46,2.46,0,0,0,0,1.3,2.43,2.43,0,0,0,.33,1.23,2.44,2.44,0,0,0,.63,1.08A3.69,3.69,0,0,0,151,18.85l.06,0a4.87,4.87,0,0,0,4.95,0,5,5,0,0,0,1.84-1.84,4.91,4.91,0,0,0,.67-2.59A3.65,3.65,0,0,0,158.11,12.6Z"/><path d="M149.69,12.25a5.55,5.55,0,0,0-7.85,0,5.55,5.55,0,0,0,0,7.85,5.55,5.55,0,0,0,7.85,0,5.55,5.55,0,0,0,0-7.85Z"/><path d="M139.91,16.93a1.4,1.4,0,0,0-1.34-1h-.06a1.36,1.36,0,0,0-1.32,1.32v.06a1.4,1.4,0,0,0,2.37,1A1.45,1.45,0,0,0,139.91,16.93Z"/><path d="M138.57,11.37c-7.63,0-7.64,11.85,0,11.85S146.21,11.37,138.57,11.37Z"/><path d="M136.54,12.88a5.79,5.79,0,0,0-4.17-1.73h-.12a4.44,4.44,0,0,0-2.27.51,4.41,4.41,0,0,0-1.9,1.22,4.41,4.41,0,0,0-1.22,1.9,4.44,4.44,0,0,0-.51,2.27,6,6,0,0,0,1.73,4.16l1.19.92a5.86,5.86,0,0,0,3,.8h.12a4.44,4.44,0,0,0,2.27-.51,4.42,4.42,0,0,0,1.9-1.22,4.42,4.42,0,0,0,1.22-1.9,4.44,4.44,0,0,0,.51-2.27A6,6,0,0,0,136.54,12.88Z"/><path class="cls-2" d="M125.8,2.94a5,5,0,0,0-1.49-1,4.39,4.39,0,0,0-1.81-.37,4.74,4.74,0,0,0-4.34,2.86,4.5,4.5,0,0,0-.23,2.91v0A4.38,4.38,0,0,0,121,10.47a4.61,4.61,0,0,0,2.42,0l.35-.14a3.72,3.72,0,0,0,1.13-.48A4.36,4.36,0,0,0,127,6.64,4.18,4.18,0,0,0,125.8,2.94Z"/><path d="M129.11,6.31a3.17,3.17,0,0,0-1.4-1.82,3.07,3.07,0,0,0-4.46,1.82,3.32,3.32,0,0,0,.24,2.57,3.08,3.08,0,0,0,2.5,1.47,3,3,0,0,0,2.34-1.08A3.09,3.09,0,0,0,129.11,6.31Z"/><path d="M127.35,4.88A3.09,3.09,0,0,0,124.59,3a12.9,12.9,0,0,0-4.13.71c-1.61.45-3.34.76-4.1,2.46a3.24,3.24,0,0,0,1.13,4.31c1.74,1.06,3.29.41,5-.2a13.85,13.85,0,0,0,4.2-2.13A3,3,0,0,0,127.35,4.88Z"/></g></mask><filter id="luminosity-noclip-3" x="202.39" y="310.42" width="36.06" height="48.31" filterUnits="userSpaceOnUse" color-interpolation-filters="sRGB"><feFlood flood-color="#fff" result="bg"/><feBlend in="SourceGraphic" in2="bg"/></filter><mask id="mask-3" x="202.39" y="310.42" width="36.06" height="48.31" maskUnits="userSpaceOnUse"><path class="cls-3" d="M230.74,348.66a2.63,2.63,0,0,0-.47-.92,2.06,2.06,0,0,0-2.09-2.38c-1.36,0-6.7.21-6.7.21s0,.65,0,1.28.06,1.33.06,1.33-.07,4,2.13,4.61a5.41,5.41,0,0,0,2.57-.28c.85-.2,1.68-.36,2.55-.48C230.29,351.81,231.09,350,230.74,348.66Z"/></mask><filter id="luminosity-noclip-4" x="265.46" y="66.59" width="212.32" height="280.46" filterUnits="userSpaceOnUse" color-interpolation-filters="sRGB"><feFlood flood-color="#fff" result="bg"/><feBlend in="SourceGraphic" in2="bg"/></filter><mask id="mask-4" x="265.46" y="66.59" width="212.32" height="280.46" maskUnits="userSpaceOnUse"><g class="cls-24"><path d="M427.13,228.73a2.26,2.26,0,0,0-3.3-1.34c-3.23,2.18-4.8,6.34-6.7,9.65-2.28,4-4.66,7.85-7.18,11.66-2.07,3.11,2.2,7.74,5.34,5.34l.67-.51a4.15,4.15,0,0,0,1.42-2,97.46,97.46,0,0,0,6.53-11.45C425.6,236.55,427.72,232.73,427.13,228.73Z"/><path d="M402,267a2.78,2.78,0,0,0-2.66-2.83c-8.08-.81-16.21,7.32-19.7,13.79a3.94,3.94,0,0,0,5.34,5.34,84.51,84.51,0,0,0,17.14-11.49C404,270.27,403.43,268.2,402,267Z"/><path d="M477.6,176.49c-.33-4.12-6.87-5.73-7.75-1-1.11,5.94-1,12.17-1.29,18.2-.35,6.67-.74,13.34-1,20-.23,5.19-.36,10.39-1.51,15.47-1.21,5.36-4.25,9.14-6.34,14l.15,0c-1,1.81.23,4.58,2.69,3.72,10-3.47,12-18.06,12.9-27,.7-6.79.89-13.63,1.24-20.44C477.05,191.87,478.21,184,477.6,176.49Z"/></g></mask><filter id="luminosity-noclip-5" x="460.2" y="178.42" width="130.12" height="144.92" filterUnits="userSpaceOnUse" color-interpolation-filters="sRGB"><feFlood flood-color="#fff" result="bg"/><feBlend in="SourceGraphic" in2="bg"/></filter><mask id="mask-5" x="460.2" y="178.42" width="130.12" height="144.92" maskUnits="userSpaceOnUse"><path class="cls-4" d="M471.19,230.57c-2.64-.84-6,.32-6.76,3.18-.1.38-2.18-.75-2.15-.4-.77.15.53,1.86-.23,2.21a3.82,3.82,0,0,0,2.94,7,9.31,9.31,0,0,0,.92-.22c.29,0,.5-1.35.79-1.35a22.6,22.6,0,0,0,3.62-.3c2.36-.45,4-.76,4.55-3.13A5.88,5.88,0,0,0,471.19,230.57Z"/></mask></defs><title>sec_ill_02</title><g class="cls-5"><g id="Layer_2" data-name="Layer 2"><g id="Section_02" data-name="Section 02"><g class="cls-6"><path class="cls-7" d="M272.39,387.3c-1.63-5.6-9.21-3.1-8.47,2.33,1.18,8.63-.14,18.18-8,23.48a21.39,21.39,0,0,1-11.76,3.3c-4.19,0-8.24-1.76-12.39-1.22a5.68,5.68,0,0,0-.66.13,3.78,3.78,0,0,0-1.61.21c-3.36,1.19-16.08,21.86-20.2,23.42-.52.2-1.06.39-1.59.59a3.26,3.26,0,0,1-.64-.28,4.51,4.51,0,0,0-4.37-.29l-.23.12a4.22,4.22,0,0,0-2.08,3.62c-.14,5.56,6,8.13,10.78,7.36,5.38-.86,22-23.62,23.8-25.3,8.69,5.41,19.68-.42,26.61-6C270.49,411.52,275.66,398.53,272.39,387.3Z"/><path class="cls-7" d="M256.87,386.43c-1.57-9.29-14.14-10.83-21.11-7.35a17.19,17.19,0,0,0-8.43,9.53c-1.57,4.43-1.71,11,2.33,14.11a6,6,0,0,0,2.28,1.06c2.49,1.67,5.52,1.6,8.55,1.64,3.59.05,7.93.24,11.4-.81,2.84-.86,4-3.24,4.32-6,.32-2.91.74-6.33,0-9.29A4.12,4.12,0,0,0,256.87,386.43ZM240.08,397l-2.34.34c-.07-3.55-.46-7.09,3.35-9.17,2.82-1.53,5.44-.67,8,.52-.4,2.52,0,5.52-.65,7.79C245.81,396.93,242.52,396.67,240.08,397Z"/><path class="cls-7" d="M258.5,359.85c-.38-3.55-.58-6.76-2.25-10a3.14,3.14,0,0,0-.79-1,6.2,6.2,0,0,0-5.35-6.05c-8.19-.77-16.91.45-25.12.95-7.09.43-15.16.19-21.62,3.39-3,1.49-1.74,5.49.85,6.49,7.07,2.75,16,1.44,23.42,1.2,6.84-.22,13.91,0,20.74-.9a39.49,39.49,0,0,0-.63,6.52c-.16,4-.56,7.77,2.39,10.83,2.33,2.42,5.81,1.46,7.58-1C260,367.23,258.88,363.45,258.5,359.85Z"/><path class="cls-7" d="M219.68,400.93a4.66,4.66,0,0,0-4.1-2.35,52.89,52.89,0,0,0-10.25.9c-3.56.72-3.12,5.82,0,6.78a36.46,36.46,0,0,0,4.9.91c1.8.29,3.53.73,5.35.9a4.65,4.65,0,0,0,4.1-2.35A4.76,4.76,0,0,0,219.68,400.93Z"/><path class="cls-8" d="M229.16,418.24a5.55,5.55,0,0,0-2-2.05,7,7,0,0,0-2.22-1.1,5.35,5.35,0,0,0-3-.58,5,5,0,0,0-3.11,1.39l-.84,1a5.25,5.25,0,0,0-.77,2.57,5.46,5.46,0,0,0-.06.55,5.53,5.53,0,0,0,3.78,5.35,4.18,4.18,0,0,1,.38.25,5.54,5.54,0,0,0,4.2.67,5.65,5.65,0,0,0,3.44-2.5,5.59,5.59,0,0,0,.67-4.2Z"/><path class="cls-9" d="M250.44,362.45l.42-16.32c-6.11,1.05-49.08,1.26-49.08,1.26.84,4,1.05,51.81,1.05,51.81,3.83.64,8,.39,9.26.53"/><path class="cls-9" d="M213.79,363.4l25.9-1.77"/><path class="cls-9" d="M214,370.09c6.47-.34,2.26-.09,8.73-.43"/><circle class="cls-9" cx="243.3" cy="393.75" r="25.7"/><circle class="cls-9" cx="243.3" cy="393.75" r="16.24"/><path class="cls-9" d="M233.47,399.32c.39.13,15.59-.79,15.59-.79l.66-13"/><path class="cls-9" d="M221.57,412.2S202.89,431,201.43,433.87s.13,9.48,5.51,11.21,27-27.64,27-27.64"/><path class="cls-9" d="M215.76,420.25c1.54,1.92,5.39,6.17,9.76,7.55"/></g><path class="cls-10" d="M370.45,73.11c-18.05,16.69-31.73,37.81-38.13,64.84"/><path class="cls-7" d="M449.89,20.23v0a2,2,0,0,0,.2-1,1.69,1.69,0,0,0-1.36-1.45l-.1,0A1.56,1.56,0,0,0,446.85,19v.1a1.74,1.74,0,0,0,.9,1.74c-.47,1.1-.2,2.09-.41,3.38a7.6,7.6,0,0,1-3.59,5.09c-3.62,2.47-6.73,1.19-10.68.89a2,2,0,0,0-1.85.7l-.24.37,0,.05a2,2,0,0,0,.55,2.33c4.17,3.78,12.22,2.87,16.17-.82C450.22,30.44,453.58,22.83,449.89,20.23Z"/><path class="cls-7" d="M469.56,7.19c-1.45-.13-2.11-.18-3,1.45-.69,1.28-8.9,9.62-10.92,11.82a61.21,61.21,0,0,1-10.12,8.78,63.77,63.77,0,0,1-11.12,6.13c-2.11.91-7.42,3-8.08,3.45-1.85,1.61-8.77-6.86-9.1-5.58-.39,1.49,5.94,10.65,6.43,12-2.26-.64-6.08.48-4.56,2.88,2.45,3.86,9.34,6.88,13,10.53,2.29,2.29,13-8.52,17.93-13.25A97.77,97.77,0,0,0,464,29.48c3.57-5.31,7.85-12.19,8.22-18.73C472.35,8,471.64,6.37,469.56,7.19Z"/><path class="cls-7" d="M413.25,23.13c-.76-1.57-.88-3.34-1.61-4.91-1.4-3-5-4.65-8-2.74a2.53,2.53,0,0,0,.44,4.32c1.58.67,1.61,4.2,2.18,5.67,1,2.67,2.41,4.92,5.25,5.74,2.1.6,3.94-1.63,3.77-3.53S414,24.7,413.25,23.13Z"/><path class="cls-7" d="M236.92,149.78c-8,.9-14.05-4.74-14.82-12.44-.63-6.4.94-12.84.79-19.25-.31-13.23-8.79-22.14-21.78-24.21-8.14-1.3-16.39-.08-24.58-.36a89.45,89.45,0,0,1-24.8-4.46c-3.38-1.11-7.83-2.35-10.22-5.23-2.73-3.31-2.24-8.46-2.27-12.46q-.06-6.87-.15-13.75c-.06-4.21.35-8.68-1-12.69a3.45,3.45,0,0,0-6.59,0c-1.51,4.6-.84,9.87-.83,14.66,0,5.12,0,10.25.14,15.37.26,7.51,2.2,14.07,9,18.2,15.13,9.22,34.87,8.77,51.8,8.29,8.27-.23,19.08.9,22.47,9.89,2.42,6.41.66,14,.5,20.61-.15,6.2.59,12.69,4.57,17.7,4.73,6,11.46,7.59,18.62,5.84C240.8,154.74,240.24,149.41,236.92,149.78Z"/><g class="cls-11"><path class="cls-8" d="M174.86,14.09a2.66,2.66,0,0,0-2.06-1.18c-10.81-1-21.91-.43-32.75-.28s-21.84.39-32.74.89a3,3,0,0,0-2.83,2.16c-.32,2-.63,4-.9,6-.23,1.72,1.49,2.76,3,2.63a2.58,2.58,0,0,0,2.42-.45c3.85,1,8.26.15,12.12,0,5.94-.3,11.87-.63,17.81-.91,12-.58,23.71-1.77,35.64-3.25C178,19.21,178.23,14.57,174.86,14.09Z"/><path class="cls-8" d="M181.14,14a3.45,3.45,0,0,0-2.2.79,3,3,0,0,0-.64.94,1,1,0,0,0-.67,1.12,1,1,0,0,0,.73.84s0,.06,0,0a2.36,2.36,0,0,0,.68.74,3.22,3.22,0,0,0,2.07.63,2.58,2.58,0,0,0,2.55-2.55C183.63,15.36,182.56,13.86,181.14,14Z"/><path class="cls-12" d="M177,18c-2.3,3.24-7,3.33-10.82,3.55a20.57,20.57,0,0,0,2.25-.58,2.48,2.48,0,0,0,1.61-2.36c1.27.63,3,.55,4.41.63,2,.11,2-3.14,0-3-1.39.08-3.15,0-4.42.64a.87.87,0,0,0-.41.45,1.92,1.92,0,0,0-1.2-.7c-5-.95-10.53.11-15.54.42l-16.51,1c-10.39.63-21.77.42-31.79,3.44-1.12.34-1.32,2.25,0,2.47,10.29,1.73,21.44.18,31.79-.48l15.73-1c1.65-.1,3.4-.13,5.18-.17-2.81.26-5.62.53-8.43.84-4.7.52-21.22.15-21.77,6.94a.75.75,0,0,0,.38.66c1.67.83,2.78.29,4.58-.1a54,54,0,0,1,8.57-1.12c5.83-.33,11.65-.52,17.47-.91,7.78-.52,19.87.56,24.45-7.36C184.65,17.63,179.37,14.72,177,18Z"/><path class="cls-7" d="M102.15,18.4c-.81.28-1.63.54-2.46.75-.38.1-.76.18-1.14.29l-.56.18h0a.44.44,0,0,0-.34-.39c-1.36-.37-1.66,1.51-.81,2.25a4,4,0,0,0,2.69.54,29.09,29.09,0,0,0,3.55-.4C105.14,21.29,104.22,17.68,102.15,18.4Z"/><path class="cls-13" d="M106,26.32a4,4,0,0,1-4-3.74c-.19-2.82-.29-5.66-.36-7.82a3.74,3.74,0,0,1,3.57-3.84c3-.12,6-.14,8.57-.14h5.75c8.14,0,18.54-.7,27.72-1.32,6.76-.46,12.59-.85,16-.85,4.72,0,7.5,1.09,15.27,5.13a1.2,1.2,0,0,1,.65,1.05c0,1.41.07,2.79.16,4.1a1.2,1.2,0,0,1-.68,1.17c-7.67,3.68-19.36,4.1-40.59,4.86-8.57.31-19.25.69-31.83,1.37Zm7.78-13.14c-2.51,0-5.48,0-8.48.14A1.33,1.33,0,0,0,104,14.69c.07,2.14.17,5,.36,7.73a1.61,1.61,0,0,0,1.6,1.5h.09c12.61-.68,23.29-1.07,31.87-1.37,20.22-.73,31.65-1.14,38.91-4.29-.05-.88-.09-1.78-.11-2.69-7.37-3.8-9.6-4.53-13.53-4.53-3.31,0-9.11.39-15.82.84-9.22.62-19.66,1.33-27.88,1.33Z"/><path class="cls-13" d="M101.1,23.33A45.68,45.68,0,0,1,96.25,23l-2-.2a1.2,1.2,0,0,1-1.09-1.11c-.06-.87-.14-1.74-.21-2.61s-.16-1.91-.23-2.86a1.2,1.2,0,0,1,1-1.27c1.41-.22,2.81-.38,4.15-.53s3-.35,4.58-.6a1.2,1.2,0,1,1,.39,2.37c-1.61.27-3.18.45-4.7.62-1,.11-2,.22-3,.36q.07.86.14,1.72t.14,1.62l1.07.11a43.18,43.18,0,0,0,4.59.33,17.66,17.66,0,0,0,1.91-.1,1.2,1.2,0,1,1,.26,2.39A20,20,0,0,1,101.1,23.33Z"/><path class="cls-13" d="M178.53,19.76a1.2,1.2,0,0,1-.18-2.39l.36,0c3.25-.42,4.47-1,4.92-1.35a15.62,15.62,0,0,0-3.8-.33h-1.78a1.2,1.2,0,0,1,0-2.4h1.77a26.21,26.21,0,0,1,3.1.16c.92.12,3.38.42,3.38,2.25,0,3.11-5.1,3.77-7.28,4l-.3,0Z"/><path class="cls-13" d="M105.42,12.51A1.2,1.2,0,0,1,105,10.2c7-3,15.11-4.43,25.47-4.63h.09c2,0,3.3,1.08,3.3,2.7a4.43,4.43,0,0,1-4.45,4.18,4.22,4.22,0,0,1-3.6-2,1.2,1.2,0,0,1,2-1.3,1.83,1.83,0,0,0,1.58.89,2.06,2.06,0,0,0,2.05-1.78c0-.29-.89-.3-.9-.3-10.1.19-17.91,1.6-24.63,4.44A1.19,1.19,0,0,1,105.42,12.51Z"/></g><path class="cls-8" d="M310.85,180a5.08,5.08,0,0,0-6.68,3.84,5,5,0,0,0,.78,3.84,2.06,2.06,0,0,0-2.36.16,18.67,18.67,0,0,0-3.84,5.05c-.84,1.46-1.7,3.35-1.36,5.06a.49.49,0,0,0,.61.34c1.55-.63,2.69-2.13,3.7-3.41,1.27-1.6,2.73-3,3.87-4.75a1.61,1.61,0,0,0,.21-1.56,4.45,4.45,0,0,0,1.1.7c2.13,1.58,5.39.55,6.8-1.53C315.55,185,313.78,181.16,310.85,180Z"/><path class="cls-8" d="M235.54,156.23a.66.66,0,0,0-1-.13c-2.06,2.51-1.86,5.28-2,8.44q-.45,7.47-.76,14.95-.61,14.45-1.21,28.9c-.15,3.65,5.74,3.07,5.25-.21q.43-13.85.83-27.69c.14-4.65.26-9.3.32-14C236.93,163,237.67,159.26,235.54,156.23Z"/><path class="cls-7" d="M215,173.39c-1-3.58-5.87-3.31-7,0-.54,1.58-.36,2.36-2.09,2.65-1.12.18-3.83-.88-4.48.38-.73,1.43,0,3.14,1,4.26a6.53,6.53,0,0,0,5.34,2.13C212.13,182.53,216.24,177.84,215,173.39Z"/><path class="cls-7" d="M329.71,106.63a1.86,1.86,0,0,0-2.91.37c-1.76,3.53-2.79,7.07-6.16,9.48-3.09,2.2-6.88,3.43-10.45,4.55-7.21,2.26-15.49,2.29-22.34,5.36a.88.88,0,0,0,0,1.5,14.38,14.38,0,0,0,1.68,1,4.14,4.14,0,0,0-1.57.82,3.37,3.37,0,0,0-.64.77.16.16,0,0,0-.15.26c-.66,1.28-.5,2.84-.81,4.3a16.18,16.18,0,0,1-2.17,5.47c-.25.39-1.71,2.06-.88,2.6,2.24,1.43,6-2,7.23-3.56a10.85,10.85,0,0,0,2-4.37,5.13,5.13,0,0,0,.89-.22,3.33,3.33,0,0,0,2.24-4l0-.19a2.08,2.08,0,0,0-.09-.3c8,.79,17.35-2.48,23.75-5.2C326,122.42,335.91,114.44,329.71,106.63Z"/><path class="cls-7" d="M373.42,185.27a13.78,13.78,0,0,0,2.18-10.19c-.61-4.12-2.05-9.72-5.6-12.44a9.44,9.44,0,0,0-4.07-9.42.79.79,0,0,0-1.16.34,4,4,0,0,0-6,1c-1.43,2.12-7.64,1.82-10.16,2.59a20.68,20.68,0,0,1-9.27,1c-.58-.07-.95.52-1,1-.74,6.16,7.65,6.37,11.63,5.71s9.59-.19,13.13-2.43c-.1.37-.19.75-.31,1.11a3.47,3.47,0,0,0,2.4,4.22c2,.47,3,5.71,3.31,7.34,0,.25.08.49.11.74a3.31,3.31,0,0,0-1.54-1.82l-.57-.29a2.68,2.68,0,0,0-2.72,0c-1.87,1.42-4.1,1.07-6.33,1.07a48.35,48.35,0,0,0-8.5.68,40.07,40.07,0,0,0-13.54,4.88.76.76,0,0,0-.15,1.18c4.51,4.41,12.91,1.84,18.48,1.72,3.72-.08,9.92,1,13.12-1.31a5.37,5.37,0,0,1-.44.32,3.62,3.62,0,0,0,0,6.18,8.26,8.26,0,0,1,3.47,8.76c-1.78-1.38-4.82-1.26-5.91,1a17.61,17.61,0,0,0-.76,1.64q-.3,1.27-.7-.43a27.85,27.85,0,0,1-3.38-1.38,35.38,35.38,0,0,0-8.43-1.86c-5-.47-12.13-.19-16.38,2.83a.63.63,0,0,0-.22.83c1.6,3,4.71,3.58,7.87,3.9l.39,0c3.29.72,6.75.95,9.85,2.56,3.45,1.79,5.5,4.46,9,3.87l0,.07a2.24,2.24,0,0,0-.12.37,3.39,3.39,0,0,0-1.35,2.78c0,.61,0,1.2-.07,1.78-1.73-1.24-4.08-1.47-5.64.53-1.72,2.21-8,1.5-10.51,1.38-3.15-.15-6.25-1-9.32,0a1.08,1.08,0,0,0-.74,1.3,9.59,9.59,0,0,0,4.9,5.58c-.83.14-1.72.34-2.72.53-3.77.72-7.54,1.45-11.32,2.18a201.56,201.56,0,0,1-24.62,3.7c-13.29.91-25-1.72-36.8-7.21-2.27-2.7-5.24-5.11-7.48-7.55-3.94-4.29-7.19-8.29-8.5-14.08-2.16-9.55-1.41-19.44-4.22-28.92a.59.59,0,0,0-1.13,0c-2.74,10.28-4,22.75-1,33.12a25.22,25.22,0,0,0,1.18,3.24c-3.18-.06-7.91.49-10.23,2.2-.18-2.06-.44-4.07-.56-5.88-.4-6.25-.46-13-2.85-18.9,0-.06-.06-.12-.09-.18a68.42,68.42,0,0,0-1.09-13.71.78.78,0,0,0-1.41-.18c-2.27,4.54-3.15,9.54-3.7,14.54-.4,3.67-.86,7.67,0,11.32,0,4.67.35,9.4.54,13.82,0,.87.84,4.54.23,5.31s-6.38,1-7.3,1.14c-3.21.39-26.09,1.61-29.57,1.95-6.61.64-14,1.26-19,6.21-10.91,10.81-5.2,27,6.84,30.64,14.66,4.45,30.68-4,42.87,7.9,11.6,11.35,8.37,28,8.73,43.11.11,4.74,6.56,4.42,7.15,0,3.2-23.92-4.86-55.49-33.54-57.2-7.52-.45-8.52,0-16-.51-6.52-.42-13.57-4.4-13.74-12.21-.06-3,2.63-7.7,9.67-9,15.64-3,44,0,49.23-.87,3.25-.53,6.74-.78,8.24-4.11,1.14-2.53.5-5.49.38-8.28,1.39-.42,2.83-.62,4.26-.91,1,5,5.78,9.5,9.46,12.62a61.32,61.32,0,0,0,15.33,9.5c13.58,5.89,28.44,7.41,43.09,8,13.2.54,27,.14,39.24-5.31,10.27-4.56,21.09-14.25,19.46-26.46,5.48-2.35,9.34-9.46,10.11-14.95A16.73,16.73,0,0,0,373.42,185.27Zm-60.5,51.78,2.67-.43a.8.8,0,0,0,.42.24c.54.1,1.08.18,1.63.26C316.07,237.12,314.49,237.1,312.92,237.05Zm39.94-9.42a2.49,2.49,0,0,0-.25-1.52,19.72,19.72,0,0,0,2.43-.58A23,23,0,0,1,352.86,227.64Z"/><path class="cls-7" d="M318.84,183.84a1.91,1.91,0,0,0-2.68,0c-1.44,1.72-1.76,3.72-2.93,5.6-1.77,2.84-4.94,4.64-7.67,6.42-4.16,2.7-8.73,5-12.47,8.29a2.08,2.08,0,0,0,.91,3.45c3,.73,6-1.09,8.66-2.4a74.9,74.9,0,0,0,10.2-6.26C317,195.93,324,188.92,318.84,183.84Z"/><path class="cls-7" d="M333.73,164.62c-2-3.06-5.86-5.07-9-7a29.53,29.53,0,0,0-9.44-3.79,31.63,31.63,0,0,0-20.86,2.64c-12,6.1-21.16,20.84-20.23,34.44a.64.64,0,0,0,1.24.17c3.64-12.75,9.11-25,23.06-28.89,5.65-1.56,12-1.83,17.55.34,5.35,2.1,9.53,8.41,15.64,7A3.4,3.4,0,0,0,333.73,164.62Z"/><path class="cls-13" d="M206.31,179.39h-.15A6.2,6.2,0,0,1,202.9,168a5.82,5.82,0,0,1,3-.92,9.85,9.85,0,0,1,1.91.1,6.17,6.17,0,0,1,4.85,5.32,6.6,6.6,0,0,1-1.8,4.93A6.2,6.2,0,0,1,206.31,179.39Zm0-9.27H206a2.88,2.88,0,0,0-1.48.44,3.2,3.2,0,0,0,1.68,5.83h.09a3.18,3.18,0,0,0,2.36-1,3.56,3.56,0,0,0,1-2.65,3.18,3.18,0,0,0-2.29-2.55A7.07,7.07,0,0,0,206.32,170.11Z"/><path class="cls-13" d="M259.38,132c8.09-14,17.25-29.78,58.39-29.78l2.54,0c5.21,0,9-.08,11.25,2.17,1.35,1.34,2,3.27,2,6.09,0,16-25.37,20.19-38.79,20.19a50.9,50.9,0,0,1-7.72-.56,1.56,1.56,0,0,1-1.35-1.47,1.5,1.5,0,0,1,1.73-1.51,47.89,47.89,0,0,0,7.35.54c14.39,0,35.79-4.58,35.79-17.19,0-1.94-.36-3.23-1.09-4-1.38-1.37-4.63-1.34-9.11-1.3l-2.57,0c-39.41,0-47.74,14.38-55.8,28.29"/><path class="cls-13" d="M287.43,144a1.5,1.5,0,0,1-.91-2.69,35.67,35.67,0,0,0,10.21-12.94,1.5,1.5,0,1,1,2.7,1.31,38.66,38.66,0,0,1-11.1,14A1.49,1.49,0,0,1,287.43,144Z"/><path class="cls-13" d="M314,239.59c-24.43,0-58-3-68.95-28.28l-2.54.18a90,90,0,0,0-11.39,1.29,1.5,1.5,0,1,1-.59-2.94,92.29,92.29,0,0,1,11.77-1.34c1.2-.08,2.4-.17,3.6-.27a1.51,1.51,0,0,1,1.52.94c9.81,24.57,42.7,27.42,66.59,27.42a77.83,77.83,0,0,0,13.49-1.14l1.39-.24c12.14-2.12,30.49-5.32,30.49-19.86,0-3-5.18-5.37-8.55-5.37a1.5,1.5,0,0,1,0-3c4.71,0,11.55,3.26,11.55,8.37,0,17.06-20.64,20.67-33,22.82l-1.39.24A80.78,80.78,0,0,1,314,239.59Z"/><path class="cls-13" d="M346.67,227.16a24.67,24.67,0,0,1-10.79-2.55c-3.9-2-6.05-4.9-6.05-8.14,0-5,5.38-9,9.84-9a1.5,1.5,0,0,1,0,3c-3,0-6.84,2.9-6.84,6,0,4.76,8.06,7.69,13.84,7.69,2.68,0,4.2-.21,5.26-.74a1.5,1.5,0,1,1,1.34,2.68C351.51,227,349.36,227.16,346.67,227.16Z"/><path class="cls-13" d="M361.17,213.14a1.5,1.5,0,0,1-.29-3,11.53,11.53,0,0,0,8.93-11.49c0-11.25-14.38-12.46-20.56-12.46s-18.15,2.44-18.15,8.3c0,.44,0,.87,0,1.28s0,.68,0,1c0,3.69,3.51,7.63,13.37,7.63.93,0,1.84,0,2.72-.06a1.52,1.52,0,0,1,1.56,1.44,1.5,1.5,0,0,1-1.44,1.56c-.92,0-1.87.06-2.85.06-12.07,0-16.37-5.49-16.37-10.63,0-.39,0-.78,0-1.18s0-.73,0-1.12c0-2.66,1.43-6.37,8.22-9a38.8,38.8,0,0,1,12.94-2.32c15,0,23.56,5.64,23.56,15.46a14.52,14.52,0,0,1-11.34,14.43A1.49,1.49,0,0,1,361.17,213.14Z"/><path class="cls-13" d="M362.81,187.76a1.5,1.5,0,0,1-.75-2.8c3.78-2.16,6.08-3.73,6.08-7.34,0-5.7-1.21-10.41-16-10.41-7.29,0-22.35,2.27-22.35,9.27,0,5.36,3.75,6.49,7.27,7.14l.59.11a1.5,1.5,0,1,1-.59,2.94l-.54-.1c-2.66-.49-9.73-1.78-9.73-10.09,0-3.22,1.92-7.61,11.05-10.27a57.11,57.11,0,0,1,14.3-2c13.69,0,19,3.76,19,13.41,0,5.61-4.21,8-7.59,9.95A1.49,1.49,0,0,1,362.81,187.76Z"/><path class="cls-13" d="M341.74,167.56a1.49,1.49,0,0,1-.4-.05c-10-2.73-12.25-9.77-12.25-12,0-7,8.25-10.49,24.51-10.49,6,0,14,1.13,14,10.94,0,6-2.21,9.48-7.17,11.13a1.5,1.5,0,0,1-.95-2.85c3.16-1.05,5.12-2.81,5.12-8.29,0-5.71-3.09-7.94-11-7.94-9.81,0-21.51,1.3-21.51,7.49,0,1.35,1.7,6.86,10,9.13a1.5,1.5,0,0,1-.39,2.95Z"/><path class="cls-13" d="M307.21,231.23l-1.34,0a42.76,42.76,0,0,1-41.75-41.46c-.59-24.12,18.56-45,41.81-45.69,8.42-.23,17.2,2,26,6.67l.26.14a1.5,1.5,0,0,1-1.43,2.64l-.23-.12C322.19,149,314,146.84,306,147.06c-21.63.6-39.44,20.12-38.89,42.61A39.76,39.76,0,0,0,306,228.21a42.05,42.05,0,0,0,25.4-7.6,1.5,1.5,0,1,1,1.71,2.46A45,45,0,0,1,307.21,231.23Z"/><path class="cls-13" d="M306.54,223.22l-1.09,0a34.91,34.91,0,0,1-34.08-33.85c-.48-19.68,15.15-36.76,34.13-37.29,6.9-.19,14,1.64,21.2,5.44l.2.11a1.5,1.5,0,1,1-1.41,2.65l-.18-.1c-6.72-3.56-13.34-5.28-19.72-5.09-17.36.48-31.65,16.15-31.21,34.21a31.91,31.91,0,0,0,31.17,30.93,33.78,33.78,0,0,0,20.4-6.1,1.5,1.5,0,1,1,1.71,2.46A36.74,36.74,0,0,1,306.54,223.22Z"/><path class="cls-13" d="M309.1,193.93H309a7.82,7.82,0,0,1-5.56-2.43,8.42,8.42,0,0,1-2.38-6.08,8.09,8.09,0,0,1,7.75-8,7.65,7.65,0,0,1,.86,0,8.19,8.19,0,0,1,7.33,6.28,8.08,8.08,0,0,1,.17,1.38,8.61,8.61,0,0,1-2.5,6.25A8,8,0,0,1,309.1,193.93ZM309,180.47h-.1a5.06,5.06,0,0,0-4.82,5,5.44,5.44,0,0,0,1.53,3.93,4.85,4.85,0,0,0,3.43,1.52,5,5,0,0,0,3.5-1.6,5.67,5.67,0,0,0,1.65-4.05,5.07,5.07,0,0,0-.11-.87,5.17,5.17,0,0,0-4.66-3.92Z"/><path class="cls-13" d="M291.08,206.29a1.5,1.5,0,0,1-1.3-2.25l1.41-2.45a152.45,152.45,0,0,1,9.52-15.21,1.5,1.5,0,0,1,2.41,1.79,124.3,124.3,0,0,0-7.51,11.75c3.28-2.26,6.54-4.55,9.72-6.8l2.7-1.9a1.5,1.5,0,1,1,1.73,2.45l-2.7,1.9c-4.94,3.48-10,7.08-15.15,10.48A1.5,1.5,0,0,1,291.08,206.29Z"/><path class="cls-13" d="M307.34,161.87a1.5,1.5,0,0,1-1.5-1.5v-2.59a1.5,1.5,0,1,1,3,0v2.59A1.5,1.5,0,0,1,307.34,161.87Z"/><path class="cls-13" d="M277.35,190.83a1.5,1.5,0,0,1,0-3,7.13,7.13,0,0,0,1.57-.25,8.11,8.11,0,0,1,3.07-.25,1.5,1.5,0,0,1-.5,3,4.72,4.72,0,0,0-1.9.21A9.64,9.64,0,0,1,277.35,190.83Z"/><path class="cls-13" d="M310.45,217.47a1.5,1.5,0,0,1-1.42-1,6.58,6.58,0,0,1-.32-2.11c0-.31,0-.62,0-.94s0-.53,0-.8a4.6,4.6,0,0,0-.06-.77,1.5,1.5,0,1,1,3-.49,7.68,7.68,0,0,1,.1,1.27c0,.32,0,.64,0,1s0,.52,0,.78a3.5,3.5,0,0,0,.16,1.16,1.5,1.5,0,0,1-1.42,2Z"/><path class="cls-13" d="M299.07,146.62a1.5,1.5,0,0,1-1.5-1.5c0-8.63.15-11.79,1.84-13.45,1.23-1.2,2.86-1.17,4.92-1.12l1.45,0c1.32,0,2.64,0,4,.08,2.05.06,4.11.12,6.18,0a1.53,1.53,0,0,1,1.13.44,1.5,1.5,0,0,1,.43,1.14c-.05.91-.08,1.9-.08,3s0,2.07,0,3.1,0,2.1,0,3.15,0,2.14-.08,3.06a1.47,1.47,0,0,1-1.58,1.41,1.5,1.5,0,0,1-1.42-1.58c0-.86.07-1.81.07-2.89s0-2.06,0-3.09,0-2.11,0-3.16c0-.56,0-1.09,0-1.59-1.59,0-3.18,0-4.77-.07-1.29,0-2.58-.07-3.88-.07l-1.51,0c-1.36,0-2.43-.05-2.76.27-.87.85-.94,5.42-.94,11.3A1.5,1.5,0,0,1,299.07,146.62Z"/><path class="cls-13" d="M238.82,209.87a1.5,1.5,0,0,1-1.5-1.44c-.23-5.43-.35-11.38-.35-18.21,0-6.08.09-12.25.17-18.22s.17-12.09.17-18.1a1.5,1.5,0,1,1,3,0c0,6-.09,12.19-.17,18.15s-.17,12.12-.17,18.18c0,6.78.11,12.69.34,18.08a1.5,1.5,0,0,1-1.43,1.56Z"/><path class="cls-9" d="M154.74,37.87c-.59,6.17-.19,12.58-.19,18.55s-.14,21.8,13.28,21.8,25.23,0,32.33-.69c15.9-1.5,35.64,8.81,35.64,32,0,1.67.91,9.77.91,16.8,0,7.92,11.24,19,23.76,6.4"/><path class="cls-9" d="M134.82,39.88c-1.36,10.57-.38,26.54-.32,36.94.07,12,13.81,20.42,27.55,20.76,9.41.23,18.53.74,27.94.93,20.48.43,24.12,6.78,23.91,24.74l-.3,13.63a14.7,14.7,0,0,0,14.11,15,43.62,43.62,0,0,1,11,1.77"/><path class="cls-9" d="M134.82,39.88c5.67-.32,14.32-.75,20-1.08"/><path class="cls-9" d="M135.21,40.18c1.24-2.47-.28-6-2.28-8-1.17-1.12-5.4-2.76-9.11-8"/><path class="cls-9" d="M151.52,39.31c3-3.16,5.09-13.22,4.54-16"/><path class="cls-9" d="M143.7,10.22v4.5c0,1.57.35,3.38,1.74,4.12a3.1,3.1,0,0,0,3.54-.72,5.08,5.08,0,0,0,1.27-3.56V9.39"/><path class="cls-9" d="M135.21,9.39a26.64,26.64,0,0,0,1.8,9.19c1,2.37,3.86,2.2,5.11-.1s1.67-7.34,1.57-9.09"/><path class="cls-9" d="M150.33,11.31c.58,1.63,1.21,5.5,2.89,5.89a3.74,3.74,0,0,0,4.48-2.9c.39-2.07.43-3-.1-6.28s-2.92-5.09-9.83-4.89c-4.59.13-16-2.1-18.61,1.7a13.29,13.29,0,0,0,.16,14,2.72,2.72,0,0,0,4.5-.82c1.06-2.89,1.79-7.21,1.39-9.4"/><path class="cls-9" d="M120,11.27a2.85,2.85,0,0,1-2.63-1.89,2.85,2.85,0,0,1,1-3.1,4.26,4.26,0,0,1,3-.64A8.77,8.77,0,0,1,126.45,8"/><path class="cls-9" d="M195.16,191.46c-.12,1.64-.15,3.5-.13,5.39a12.25,12.25,0,0,1-12.23,12.4h-6.37a27.7,27.7,0,0,0-27.7,27.7v12.18a26.06,26.06,0,0,0,26.06,26.06h23.39a10.33,10.33,0,0,1,10.33,10.33v26.16h14.95V285.84c0-17.67-14.33-26-32-26H178.9a13.05,13.05,0,0,1-13.05-13.05v-8.67a12.66,12.66,0,0,1,12.66-12.66l47.27-1.14a4.18,4.18,0,0,0,4-4.51,467.94,467.94,0,0,1,.05-67.49"/><g class="cls-14"><path class="cls-7" d="M224.73,348.54c.12,0,1,1.38,1.08,1.32,1-.22,2.57,0,2.08-1.26.08-.36-2.27-11.17-8.38-12.44-.46-.1.12,1.61.13,2.09,0,.92,0,1.83.12,2.74a4.89,4.89,0,0,0,.16,1,3.1,3.1,0,0,0-.4,2.21c.11.92.08,4.37.63,5.13C221.14,350.73,223,349,224.73,348.54Z"/><path class="cls-7" d="M209.85,340.6c-.32-.45-1.34-1.91-1.58-2.29-.53-.84-1.23-8.29-.22-10.3.74-2,1.95-3.37,3.06-5.16,1.84-3,1.39-7,.95-10.29.33,2.4-2.89-5.66-4.36.78a13.49,13.49,0,0,0,.08,4.51c.22,2.63-1.24,3.58-2.36,5.71-.75,1.42-1.65,3.36-1.51,5a13.94,13.94,0,0,0,.25,6.9,5.8,5.8,0,0,0,1.6,2.55,10.21,10.21,0,0,1,1.75,2.34C208.38,342.2,211,342.2,209.85,340.6Z"/><path class="cls-15" d="M236.93,346.49c.47-11.67-5.42-18.25-7.88-21.21-3.24-3.91-5.52-13.36-5.52-13.36h-15.7s.09,6.31-.64,8.7c-6.53,6.71-2.28,19.63,3.32,21.27,0,2.66-.1,5.39-.11,8.05,0,1.68-.27,7.27,4.73,7.29s5.18-4.83,5.09-6.15c-.31-4.62-.28-9.26-.59-13.88"/></g><path class="cls-8" d="M92.16,326.06c0-.16,0-.32,0-.48.06-2.47-2.29-3.76-4.45-3.39a6.93,6.93,0,0,0-5.15,3.69v0c-11.74.06-23.49-.45-35.23-.64-6.56-.1-13.11-.36-19.67-.42s-14.36-1.22-20.61.71a3.57,3.57,0,0,0,0,6.82c6,1.89,13.39.83,19.63.84,6.88,0,13.77-.23,20.65-.3,12.53-.12,25.09-.61,37.63-.38,2.82,2.25,7.27,1.57,8-2.51A4.91,4.91,0,0,0,92.16,326.06Z"/><path class="cls-8" d="M90.09,344.48c0-.16,0-.32,0-.48a3.44,3.44,0,0,0-4.25-3.39c-2.33.42-3.7.6-4.91,2.69v0c-11.21.06-22.42-.45-33.62-.64-6.26-.1-12.52.64-18.77.58S14.84,342,8.87,344a3.62,3.62,0,0,0,0,6.82c5.72,1.89,12.78.83,18.73.84,6.57,0,13.14-.23,19.71-.3,12-.12,23.95-.61,35.91-.38,2.7,2.25,6.94,1.57,7.66-2.51A5.09,5.09,0,0,0,90.09,344.48Z"/><path class="cls-12" d="M83.27,324.28c-2.78-1.46-6.06-1.28-9.14-1.51s-6.11-.3-9.19-.28c-6.37,0-12.69-.17-19.06-.29s-12.71.14-19.06.45c-3.07.15-6.13.2-9.2.25s-6.74-.15-9.77,1c-1.89.72-2.23,3.61,0,4.2,5.84,1.53,13-.23,19-.23s12.27.15,18.4.11,12.26-.05,18.4.48c3.06.27,6.12.54,9.19.65s6.84.86,9.86-.24C84.56,328.2,85.33,325.37,83.27,324.28Z"/><path class="cls-7" d="M92.26,310.55a9,9,0,0,0-7.91-.26c-2.62,1.08-5.42,3-5.46,6.18a5.08,5.08,0,0,0,0,.72c-.58,3.93,5,6.53,7.37,3.37a8.88,8.88,0,0,0,2.62-4.2,3,3,0,0,0,.16-.75c.89-.37,1.77-.74,2.66-1.08C93.33,313.92,94.1,311.45,92.26,310.55Z"/><path class="cls-7" d="M89.83,330.34c-6.87.06-13.72.41-20.6.41-7.07,0-14.15.07-21.22.19-6.88.11-13.73.65-20.59.92-3.3.13-6.68.29-10,.17-3.72-.14-7.09-.84-10.81-.14s-2.42,4.88.83,5.18,6.23-.51,9.39-1A86.54,86.54,0,0,1,28,335.44c6.86-.14,13.73,0,20.59-.15q10-.22,20-.3c7.11-.07,14.13.31,21.23.48C93.73,335.56,93.74,330.31,89.83,330.34Z"/><path class="cls-12" d="M89.27,340.55q-20.47.68-41,1c-13.62.23-27.37-.29-41,.35-3.45.16-3.43,4.08,0,4.28,13.55.8,27.39.22,41,.12s27.31-.36,41-.73C93.3,345.47,93.32,340.42,89.27,340.55Z"/><path class="cls-7" d="M87.93,349.74c-6.88-.43-14-.21-20.93-.24-6.53,0-13.08.21-19.62.32s-13.08.14-19.61.26c-6.7.12-13.82-.53-20.43.46-3.69.55-2.35,4.56.82,4.84,6.38.57,13.19-.46,19.61-.6,6.76-.15,13.51-.31,20.27-.33,6.54,0,13.08.15,19.62.12,6.72,0,13.57.27,20.27,0C91.83,354.4,91.78,350,87.93,349.74Z"/><path class="cls-9" d="M2.1,216.23C.94,233.45,1.57,300.69,3,323.45a1.9,1.9,0,0,0,2.15,1.77c7-.94,31.93-3.46,74.25,1.5l16.28-16s-1.25-71.55.23-92.82a3,3,0,0,0-2.85-3.25c-13.8-.88-69.44-4.24-87.17-2.36A4.24,4.24,0,0,0,2.1,216.23Z"/><path class="cls-9" d="M79.41,326.72s-.61-13.17,0-16.14c0,0,3.65-2.11,16.28.16"/><path class="cls-9" d="M5.48,327v4.32a1.64,1.64,0,0,0,1.81,1.43c7.68-.08,39.39-.35,58.81,0,12.58.24,20.34.21,23.58.14a2.89,2.89,0,0,0,3.08-2.55v-9.24"/><path class="cls-9" d="M6.58,336.4v4.32a1.64,1.64,0,0,0,1.81,1.43c7.68-.08,40.72-.35,60.13,0,12.58.24,17,.21,20.26.14a2.89,2.89,0,0,0,3.08-2.55v-3.32"/><path class="cls-9" d="M7.21,345.85v4.32A1.6,1.6,0,0,0,9,351.61c7.42-.08,39.36-.35,58.13,0,12.16.24,16.46.21,19.58.14a2.83,2.83,0,0,0,3-2.55V345.9"/><path class="cls-9" d="M9,226.81c10.6-.27,21.2-.13,31.8-.4h6.47"/><path class="cls-9" d="M8.7,235l.27.27H80.15"/><path class="cls-9" d="M9,245.58l71.68-.42"/><path class="cls-9" d="M8.16,255.42h25.6"/><path class="cls-9" d="M39.69,255.26l28.57-.17"/><path class="cls-9" d="M73.65,255.56l12.13-.17"/><path class="cls-9" d="M7.35,266.18l46.62.69"/><path class="cls-9" d="M59.9,266.75l22.91-.85"/><path class="cls-9" d="M7.35,277.39l33.95-1.31"/><path class="cls-9" d="M47,276.89l42.48-1.39-1.26.22"/><path class="cls-9" d="M7.36,288.13l50.93-1.93"/><path class="cls-9" d="M62.33,286.56l11.05-.18"/><path class="cls-9" d="M79.31,286.76l11.86-.1"/><path class="cls-9" d="M7.62,296.15l32.61-.52"/><path class="cls-9" d="M46.17,295.55,72.57,294"/><path class="cls-9" d="M76.88,295.21l12.4-.49"/><path class="cls-9" d="M7.62,305.3l51.2-.21"/><path class="cls-9" d="M391.64,90.93c9.27,2.56,10.25,10.86,8.32,15.7-1.33,3.33-5.14,5.19-8.7,5.64a15.74,15.74,0,0,1-10.25-2.5c-2.94-1.86-5.45-4.77-5.8-8.22C374.32,92.79,382.46,88.4,391.64,90.93Z"/><path class="cls-16" d="M391.81,99.48c.81.85,2.76,5.73-2.36,6.34s-6.15-5.52-3.69-7.2C387.75,97.26,391,98.63,391.81,99.48Z"/><path class="cls-10" d="M45.42,202.86c-4.65-32.82,31.23-63.2,65.91-37.56s53.42-30.24,84.65,2.47"/><g class="cls-17"><path class="cls-9" d="M339.63,299.45a113.35,113.35,0,0,1-59.2-3.61"/><path class="cls-10" d="M430,176.39a114,114,0,0,1-90.38,123.07"/><path class="cls-9" d="M402.07,112.51A114.86,114.86,0,0,1,430,176.39"/><path class="cls-9" d="M392.38,324C337,353.48,296.07,347.75,267,336"/><path class="cls-10" d="M417,68.09a156.08,156.08,0,0,1,47.78,169.53"/></g><path class="cls-7" d="M292.4,75.49a27.47,27.47,0,0,1-6.22,5,23.19,23.19,0,0,1-8.39,2.21c-3,.3-5.76-.77-8.47-2.11-2.32-1.14-4.19-3.46-6.59-4.2a1.26,1.26,0,0,0-1.54,1.54c.58,2.88,4.48,5.23,6.95,6.44a26.56,26.56,0,0,0,10.09,2.24c6.29.26,13.76-3.4,17.12-8.78C296.52,75.91,293.94,74,292.4,75.49Z"/><path class="cls-7" d="M283.76,79c-.22,1.82-4.84,1.41-6,1.35a16.41,16.41,0,0,1-5.92-1.53.92.92,0,0,0-1.36.78c-.51,4.68,4.5,5.59,8.17,5.5,4.35-.1,7.89-1.16,9.46-5.52C289.1,76.78,284.16,75.64,283.76,79Z"/><path class="cls-18" d="M271.53,75.09a5.22,5.22,0,0,1,4.66-3.6,6.35,6.35,0,0,1,5.38,2.69,5.3,5.3,0,0,1,1,4.39,4.8,4.8,0,0,1-3.75,3.27C275.23,82.51,270.42,79,271.53,75.09Z"/><path class="cls-9" d="M259.43,78.51s12.3-25.41,37-2.56C296.47,75.94,280.35,99.42,259.43,78.51Z"/><path class="cls-7" d="M161.35,318.2a27.47,27.47,0,0,1-6.22,5,23.19,23.19,0,0,1-8.39,2.21c-3,.3-5.76-.77-8.47-2.11-2.32-1.14-4.19-3.46-6.59-4.2a1.26,1.26,0,0,0-1.54,1.54c.58,2.88,4.48,5.23,6.95,6.44a26.56,26.56,0,0,0,10.09,2.24c6.29.26,13.76-3.4,17.12-8.78C165.47,318.62,162.89,316.76,161.35,318.2Z"/><path class="cls-7" d="M152.71,321.73c-.22,1.82-4.84,1.41-6,1.35a16.41,16.41,0,0,1-5.92-1.53.92.92,0,0,0-1.36.78c-.51,4.68,4.5,5.59,8.17,5.5,4.35-.1,7.89-1.16,9.46-5.52C158.05,319.49,153.11,318.35,152.71,321.73Z"/><path class="cls-18" d="M140.48,317.8a5.22,5.22,0,0,1,4.66-3.6,6.35,6.35,0,0,1,5.38,2.69,5.3,5.3,0,0,1,1,4.39,4.8,4.8,0,0,1-3.75,3.27C144.18,325.22,139.37,321.73,140.48,317.8Z"/><path class="cls-9" d="M128.38,321.22s12.3-25.41,37-2.56C165.42,318.65,149.3,342.14,128.38,321.22Z"/><path class="cls-9" d="M412.7,18.34c-.86,8.72,9.35,26.83,19.73,33.32,0,0,30-15.11,38.67-43.51C471.1,8.15,445.9.11,412.7,18.34Z"/><path class="cls-9" d="M457,6.38s.23,9.14,8.23,13.76"/><line class="cls-9" x1="470.31" y1="8.33" x2="482.07" y2="1.5"/><circle class="cls-9" cx="439.61" cy="25.14" r="11.31" transform="translate(-0.28 44.87) rotate(-5.84)"/><circle class="cls-13" cx="439.61" cy="25.14" r="4.66" transform="matrix(0.99, -0.1, 0.1, 0.99, -0.28, 44.87)"/><circle class="cls-13" cx="470.56" cy="8.87" r="3.52" transform="translate(325.17 456.5) rotate(-73.09)"/><polyline class="cls-9" points="414.29 28.7 408.93 36.94 415.36 47.07 424.75 45.17"/><circle class="cls-16" cx="399.67" cy="50.88" r="9.46" transform="translate(-1.81 17.19) rotate(-2.46)"/><circle class="cls-19" cx="390.48" cy="64.41" r="6.96" transform="translate(-2.4 16.81) rotate(-2.46)"/><circle class="cls-19" cx="377.85" cy="63.32" r="5.78" transform="translate(-2.37 16.27) rotate(-2.46)"/><polyline class="cls-9" points="412.69 18.34 403.53 13.25 418.21 5.88 431.09 10.02"/><polyline class="cls-9" points="433.12 50.98 434.21 59.62 445.89 53.07 447.64 41.05"/><path class="cls-9" d="M233.8,42.44c6.67.33,8.33.66,15,1"/><path class="cls-9" d="M242.07,36.63c-.37,5-.75,9.07-1.12,14.1"/><path class="cls-7" d="M428,241.42c-11.68,4.53-9.65,21.95-9.77,31.8-.1,8-.11,15.93-.25,23.9-.07,3.88-.12,8.47-2.22,11.9-2.39,3.91-7,4.28-11,5.35-2.71.72-2.24,5.15.67,5,5.78-.31,11.18-2.05,14.8-6.81,4.62-6.07,3.88-14.16,3.95-21.36q.11-13,.17-26c0-8.24.78-14.88,5-22.09C429.77,242.32,429,241,428,241.42Z"/><path class="cls-7" d="M439.9,238.9c-3.44-1.13-9.66-.3-12.87,2.08-4,2.95-5.32,7.42-5.88,12.17-.83,7.15-.59,14.52-.62,21.71,0,7.43-.18,14.88,0,22.3a1.76,1.76,0,0,0,3.53,0c.38-11.13.24-22.32.16-33.46,0-5.07-1.37-11.88,1.12-16.53,2.9-5.41,7.75-5.5,13.07-6C439.42,241,441,239.25,439.9,238.9Z"/><path class="cls-7" d="M468.6,228.14c0-.09,1.08-.76,1-.84-.18-.8,0-2-1-1.63-.28-.06-8.76,1.78-9.75,6.57-.08.36,1.26-.1,1.64-.1.72,0,1.43,0,2.15-.09a3.83,3.83,0,0,0,.78-.12,2.43,2.43,0,0,0,1.73.32c.72-.09,3.42-.07,4-.49C470.32,231,469,229.49,468.6,228.14Z"/><path class="cls-7" d="M462.37,239.8c-.36.25-1.49,1.05-1.79,1.24-.66.42-6.5,1-8.07.18a21.72,21.72,0,0,1-4-2.39c-2.32-1.44-5.51-1.09-8.07-.74,1.88-.26-4.43,2.26.61,3.42a10.57,10.57,0,0,0,3.54-.06c2.06-.17,2.8,1,4.48,1.85a8,8,0,0,0,4,1.18,10.92,10.92,0,0,0,5.41-.19,4.54,4.54,0,0,0,2-1.26,8,8,0,0,1,1.84-1.37C463.63,241,463.64,238.89,462.37,239.8Z"/><path class="cls-15" d="M469.37,218.62a30.4,30.4,0,0,0-19,6.14c-3.06,2.54-10.47,4.32-10.47,4.32v12.3s4.95-.07,6.82.5c5.26,5.12,15.38,1.79,16.67-2.6,2.09,0,4.22.08,6.31.09,1.31,0,5.7.21,5.71-3.71s-3.78-4.06-4.82-4c-3.62.24-7.25.22-10.87.46"/><path class="cls-15" d="M439.71,229a56,56,0,0,0-13.64,1.49c-12.82,3.36-13.64,14.63-13.64,22.23,0,16.35-.2,34.82-.33,45a7.83,7.83,0,0,1-7.84,7.73h0a7.84,7.84,0,0,1-7.84-7.84V185.2a14.08,14.08,0,0,0-14.08-14.08l-13.37.49"/><path class="cls-15" d="M439.73,241.38c-10.49.4-16.26,1.07-16,13.75.39,21-.16,21.83-.24,42.81v1a19.29,19.29,0,0,1-19.29,19.29h0a19.29,19.29,0,0,1-19.29-19.29V190.31a6.69,6.69,0,0,0-6.69-6.69h-9.51"/><g class="cls-20"><path class="cls-7" d="M544,217.09c-.35-2.45-3.89-2.48-5-.65-2.34,3.87-3.18,7.74-7,10.66a17.64,17.64,0,0,1-14.56,3.14,20.18,20.18,0,0,1-12.17-8.11c-2.67-3.84-3.14-8.38-5.24-12.42-.9-1.73-3.28-1.09-3.86.5-2.13,5.9,1.44,13.24,5,17.84a25.38,25.38,0,0,0,17.08,9.65C529.52,239.08,545.92,230.22,544,217.09Z"/><path class="cls-7" d="M534.34,209c-.84-5.4-7.65-9-12.62-9.47-5.66-.54-11.44,1.92-13,7.56a.75.75,0,0,0,1.09.84c3.67-1.59,7.87-3.67,12-2.82s5.49,3.85,8.3,6.35A2.54,2.54,0,0,0,534.34,209Z"/><path class="cls-7" d="M508.57,243.83c-5.28-.14-10.63.25-15.91.53-4.37.23-9.2,0-13.15,2-1.61.84-1,3.08.47,3.61,4.24,1.49,9.2.5,13.62.26,5-.27,10-.32,15-.77C512.15,249.17,512.27,243.93,508.57,243.83Z"/><path class="cls-7" d="M524.65,242.78a27.92,27.92,0,0,0-10.11,1.86,2,2,0,0,0,0,3.89,27.61,27.61,0,0,0,10.11,1C528.9,249.09,529.14,242.91,524.65,242.78Z"/><path class="cls-7" d="M560.54,242c-5.32.05-10.65,0-16,.3-4.24.23-9.24.12-13,2.32a1.54,1.54,0,0,0,0,2.63c4,1.84,8.69,1.34,13,1.17,5.33-.21,10.65-.75,16-1.19C563.84,246.92,564,241.93,560.54,242Z"/><path class="cls-7" d="M536.62,253.22c-10-.12-20.06.49-30.06.83-4.85.17-9.7.28-14.54.5-4.27.19-8.67,0-12.64,1.72-1.72.73-1,3.15.48,3.64,4.37,1.51,9.53.77,14.1.62s9-.33,13.57-.5c9.68-.36,19.43-.47,29.09-1.27C540.13,258.48,540.24,253.27,536.62,253.22Z"/><path class="cls-7" d="M558.5,252.31c-2.24-1.34-4.91-.93-7.43-.67a36,36,0,0,0-7.7,1.29,2.67,2.67,0,0,0,.71,5.22c2.47.15,5-.13,7.49-.13s4.78.33,6.93-.88A2.82,2.82,0,0,0,558.5,252.31Z"/><path class="cls-7" d="M500.59,264.63c-3.67-.39-7.63.55-11.33.76-3.08.18-6.21,0-9,1.49a1.29,1.29,0,0,0,0,2.19c2.91,2.17,7,2.1,10.51,2,3.73-.06,7.67-.17,11.11-1.71C504.46,268.24,502.8,264.87,500.59,264.63Z"/><path class="cls-7" d="M559.35,262.62c-9.23,0-18.49.36-27.71.69-8.25.29-18.45-.7-26.19,2.42-1.56.63-1.88,3,0,3.5,8.08,2.18,17.91.17,26.19-.21,9.24-.42,18.48-.57,27.71-.93C562.85,267.95,562.89,262.63,559.35,262.62Z"/><path class="cls-7" d="M525.18,275.57c-7.88.11-15.77.65-23.64,1.07-7,.37-15.44-.19-22.06,2.44a1.48,1.48,0,0,0,0,2.83c6.87,2,15,.63,22.06.31,7.88-.36,15.78-.59,23.64-1.25C528.58,280.68,528.7,275.53,525.18,275.57Z"/><path class="cls-7" d="M542.73,274.67a50.93,50.93,0,0,0-12,1.81,2.06,2.06,0,0,0-1.45,1.45,1.94,1.94,0,0,0-.06.93l.06.17a2.06,2.06,0,0,0,1.45,1.45,50.17,50.17,0,0,0,12,0C546.37,280.1,546.53,274.47,542.73,274.67Z"/><path class="cls-7" d="M561.95,274.16a27.63,27.63,0,0,0-8.48,0c-2.35.21-5,.29-6.76,2a1.53,1.53,0,0,0,0,2.15c1.86,1.58,4.4,1.58,6.76,1.66,2.82.09,5.73.3,8.48-.48C564.47,278.77,564.67,274.76,561.95,274.16Z"/><path class="cls-7" d="M561,285.81c-14.43-.12-28.89.3-43.32.47-7.22.08-14.44.15-21.66.3-5.77.12-13.15-.86-18.39,1.91a1.34,1.34,0,0,0,0,2.29c5.33,2.65,12.58,1.51,18.39,1.49,7.22,0,14.44-.12,21.66-.21,14.43-.17,28.89-.09,43.32-.55C564.61,291.4,564.63,285.84,561,285.81Z"/><path class="cls-7" d="M588.9,297.35c0-7.6.14-65.2-.14-72.8-.23-6.43.16-14.25-3-20.08a1.14,1.14,0,0,0-2.11.57c.12,5.26,1.4,10.43,1.47,15.74.08,5.67-.32,61.37-.42,67q-.15,8.09-.25,16.19c0,3.52,3.2,16.4-3,14.74a.53.53,0,0,0-.28,1C593.57,323.33,588.87,303.63,588.9,297.35Z"/><path class="cls-7" d="M532,311.84l31.09,0c6.35,0,14.33,1.55,16.93-6.06a1.43,1.43,0,0,0-1.16-1.87c.29-2,.24-4.09.33-6q.29-6,.52-12c.3-7.4.39-64.77,0-72.17-.36-6.43-.66-13.73-3.39-19.63-.44-.95-2-.46-1.93.52.14,5.16,1.41,10.26,1.76,15.43.37,5.54.26,11.06.1,16.61-.15,5.23-.35,60.47-.58,65.7-.11,2.51.46,10.27-1.43,13.89-5.8,2.38-12.25.93-17.93.92L533,307.17q-11.72,0-23.44,0c-3.58,0-7.17,0-10.75,0-2.69,0-12.33,1.63-13.65-1.64-.83-2.06-4.09-1.31-3.43.95,2,7,12.51,5.23,18.05,5.27C510.49,311.82,521.24,311.83,532,311.84Z"/><path class="cls-7" d="M570,322.24c6-.33,11.64.76,16.39-3.56a1.28,1.28,0,0,0-.9-2.17c-3.58-.14-5.16,1-8.79,1.14-3.88.17-5.77.27-9.66.3q-12.29.12-24.58.12-11.8,0-23.6-.41c-8.15-.28-16.92.09-24.83-2.09-2.62-.72-4.55,3.38-1.91,4.53,6.84,3,15.48,2.12,22.81,2.41q13.76.54,27.53.55C551.68,323.08,560.83,322.74,570,322.24Z"/><path class="cls-15" d="M507.32,180.26c-13.15.13-14.48.35-24.38-.25-3.43-.21-7.23-.26-9.88,1.94-3,2.51-3.35,7-3.44,10.89-.35,15.45.51,79.08.16,94.53-.1,4.18.15,9.08,3.59,11.46,2,1.36,4.5,1.51,6.9,1.61,26.29,1.09,55.63-.87,81.92.21,2,.08,4.07.13,5.75-.9,2.9-1.78,3.2-5.8,3.19-9.2-.07-16.61-.14-80.79-.22-97.41,0-5.61-.9-10.5-6.86-11.57-4.06-.73-39-.89-44.18-.94Z"/><path class="cls-15" d="M492.21,315.75a7.64,7.64,0,0,0,2.86,4.13c2,1.36,4.5,1.51,6.9,1.61,26.29,1.09,53.6-.79,79.89.3,2,.08,7-.75,7-6.78,0-16.61-.14-84.19-.22-100.81,0-4.91-.7-9.26-4.85-11"/><path class="cls-15" d="M481.67,305.86a7.64,7.64,0,0,0,2.86,4.13c2,1.36,4.5,1.51,6.9,1.61,26.29,1.09,55.6-.79,81.89.3,2,.08,7-.75,7-6.78,0-16.61-.14-84.19-.22-100.81,0-4.91-.7-9.26-4.85-11"/><path class="cls-21" d="M500.59,204.85c-8.47,25.26,29.94,42,39.47,15.35C549.17,194.69,509.27,179,500.59,204.85Zm32.54,12.7c-6.17,17.29-31.06,6.42-25.58-9.95C513.18,190.83,539,201,533.14,217.56Z"/><g id="_8VReB8" data-name="8VReB8"><path class="cls-22" d="M515.84,219.14a9.47,9.47,0,0,0,4.76-3,9.85,9.85,0,0,0,2.23-5.27"/><path class="cls-22" d="M515.14,207.53l10.84-.18"/><path class="cls-22" d="M520.62,205.21l.07,1.8"/><path class="cls-22" d="M518.61,213.33a12.3,12.3,0,0,0,6.53,5.68"/></g><path class="cls-15" d="M480.28,246.72l29.48-1.24"/><path class="cls-15" d="M514.37,245.39h12.14"/><path class="cls-15" d="M532.57,245.27c9.05-.72,18.1-.45,27.15-1.17"/><path class="cls-15" d="M480.58,256.49l57.21-1.29"/><path class="cls-15" d="M544.13,254.23c4.91-.48,9.83,0,14.74-.43"/><path class="cls-15" d="M481.15,266.28l19.36-.27"/><path class="cls-15" d="M506.3,266.17c18-1.13,36-.27,54-1.4"/><path class="cls-15" d="M480.87,278.74l45.08-1.15"/><path class="cls-15" d="M530.56,277.24l11.56-.86"/><path class="cls-15" d="M548.18,276.29c4.43-.27,8.86.45,13.29.18"/><path class="cls-15" d="M479.7,288.14l81.78-1"/></g><path class="cls-7" d="M525.6,97.67c-1.44,3.14-3.33,5.76-7.28,4.75-3.46-.88-4.38-3.7-5.72-6.62a.39.39,0,0,0-.67,0c-2.81,4.16,1.39,9.89,5.64,11,5,1.36,11.56-1.85,12.4-7.33C530.33,97.1,526.83,95,525.6,97.67Z"/><path class="cls-7" d="M499,116.8c-4.26,1.78-9.07,3.89-11,8.41a32.84,32.84,0,0,0-1,4c-.79,2.63-2.36,3.84-4.08,5.65a81,81,0,0,0-5.47,6.32,50.44,50.44,0,0,0-.44-8,2.33,2.33,0,0,0-1.7-1.7l-.6-.09a25.07,25.07,0,0,0,3.74-1.84c1.81-1.11,4.1-2.44,5.1-4.37.72-1.37-.52-3.63-2.25-2.93-2,.81-3.47,2.51-5,4s-3.12,3.12-4.69,4.67a.72.72,0,0,0-.11.16c-.69,0-1.39-.07-2.1-.07a2.09,2.09,0,0,0-.55,4.09,30.76,30.76,0,0,0,3.8.87c.72,3,1.83,5.63,2.83,8.58a1,1,0,0,0,1.47.6c4.32-3.13,9.5-7.11,12.33-11.71,1.17-1.91,1-3.92,1.74-6,1.38-3.93,5.38-5.69,8.93-7.18C502,119.39,501.11,115.91,499,116.8Z"/><path class="cls-7" d="M550.06,92.33c-1.09-2-4.67-1.2-4.44,1.2.73,7.56.45,18.14-5.26,24.13-5.13,5.39-15,4.71-21.75,3.88-7.77-1-16.58-4.39-19.59-12.32-2.78-7.31,2.17-15.7-1.61-22.54a2,2,0,0,0-3.07-.4c-3.58,3.89-3.73,10-3.94,15.12A24.66,24.66,0,0,0,494,116c5.56,8.61,16.46,13.18,26.33,13.9,9.26.68,18.24-1.39,24.32-9.32C550,113.58,554.51,100.38,550.06,92.33Z"/><path class="cls-7" d="M534,80.84a16.86,16.86,0,0,0-13.72-4c-6.51.88-19.24,8.8-15.75,16.89a1.08,1.08,0,0,0,1.44.38c2.31-1,3.39-3.36,4.95-5.24a16.17,16.17,0,0,1,7.8-5.57c3.67-1.1,8-.71,10.95,1.86,2.48,2.13,2.82,5.22,4.44,7.84,1.12,1.81,3.45,1.22,4.18-.55C540,88.32,537,83.62,534,80.84Z"/><path class="cls-21" d="M549.18,92.38a26.83,26.83,0,0,0-3.71-11.14c-3.35-5.19-14.52-17.58-35.87-7.64s-14.35,36.18-12.92,38.26c1.79,2.59,3,5,5.66,6.89a31.71,31.71,0,0,0,9.83,4.49c7.88,2.34,16.75,3.18,24.05-.6a24.45,24.45,0,0,0,11.22-13A35.31,35.31,0,0,0,549.18,92.38Zm-12.1,11.43A15.45,15.45,0,0,1,530,112c-4.62,2.39-10.22,1.86-15.2.38a20,20,0,0,1-6.21-2.84c-1.66-1.22-2.45-2.72-3.58-4.36-.91-1.31-5.33-17.9,8.16-24.18s20.55,1.55,22.67,4.83a17,17,0,0,1,2.34,7A22.31,22.31,0,0,1,537.08,103.82Z"/><path class="cls-21" d="M519.54,103.43a8.13,8.13,0,0,0,2.75-.33,8.37,8.37,0,0,0,5.18-3.35,6.27,6.27,0,0,0,.71-4.34,9.05,9.05,0,0,0-1.93-4,6.88,6.88,0,0,0-2.3-1.94c-1.43-.69-5.53-1.9-8.87,3.13s1.71,9.83,2.3,10.1A6.36,6.36,0,0,0,519.54,103.43Z"/><line class="cls-15" x1="520.93" y1="96.46" x2="476.28" y2="133.66"/><polygon class="cls-9" points="488.27 123.11 488.27 130.44 477.63 141.36 476.79 133.13 469.29 131.39 481.22 121.54 488.27 123.11"/><path class="cls-7" d="M606.84,80.46a.14.14,0,0,1,0-.28A.14.14,0,0,1,606.84,80.46Z"/><path class="cls-7" d="M606.16,83.45a.17.17,0,0,1,0-.34A.17.17,0,0,1,606.16,83.45Z"/><line class="cls-23" x1="521.83" y1="180.38" x2="521.83" y2="128.9"/></g></g></g></svg>