<svg xmlns="http://www.w3.org/2000/svg" xmlns:xlink="http://www.w3.org/1999/xlink" viewBox="0 0 310 310"><defs><style>.cls-1,.cls-5{opacity:0.1;}.cls-2,.cls-3,.cls-4{fill:none;stroke:#000;stroke-linecap:round;stroke-miterlimit:10;stroke-width:2px;}.cls-3{stroke-dasharray:7.99 6;}.cls-4{stroke-dasharray:8 6;}.cls-5{mix-blend-mode:multiply;}.cls-6{fill:#fff;}.cls-7{fill:#e0dfe6;}.cls-8{fill:#525d7d;}</style><symbol id="frame" data-name="frame" viewBox="0 0 277.17 291.17"><g class="cls-1"><polyline class="cls-2" points="236.53 232.63 236.53 236.63 232.53 236.63"/><line class="cls-3" x1="226.53" y1="236.63" x2="47.64" y2="236.63"/><polyline class="cls-2" points="44.65 236.63 40.65 236.63 40.65 232.63"/><line class="cls-4" x1="40.65" y1="226.63" x2="40.64" y2="47.54"/><polyline class="cls-2" points="40.65 44.54 40.65 40.54 44.65 40.54"/><line class="cls-3" x1="50.64" y1="40.54" x2="229.53" y2="40.54"/><polyline class="cls-2" points="232.53 40.54 236.53 40.54 236.53 44.54"/><line class="cls-4" x1="236.53" y1="50.54" x2="236.53" y2="229.63"/></g><g class="cls-5"><polygon points="277.17 152.66 138.66 291.17 0 152.51 138.51 14 277.17 152.66"/></g><polygon class="cls-6" points="277.17 138.66 138.66 277.17 0 138.51 138.51 0 277.17 138.66"/></symbol></defs><title>s3_04</title><g id="icons"><use id="frame-3" data-name="frame" width="277.17" height="291.17" transform="translate(16.41 9.41)" xlink:href="#frame"/><path class="cls-7" d="M163,120.82a2.79,2.79,0,0,0-.47-2.89c-1.89-2.23-6.4-1.07-8.92-1-4.3.16-10.39-.64-14.45.85-3.17,1.16-2,4.21-2.24,7-.23,3.32-1.09,3.38-4.29,3.55-2.56.13-5.1.06-7.65.07-.05-.25-.09-.5-.14-.75-.19-.84-1.65-.91-1.77,0-1.12,8.33-.4,17.12,0,25.49a2,2,0,0,0,3.28,1.42,2.64,2.64,0,0,0,3.58,2.2,17.79,17.79,0,0,0,2.27,1.41,2.25,2.25,0,0,0,2.87,1.21c7.38,2.4,16.27.35,22.42-5.22C166.71,145.78,168.43,131.69,163,120.82Zm-17,1.09-1.65.39c-.07-.14-.14-.27-.22-.41C144.76,121.88,145.38,121.89,146,121.91Z"/><path class="cls-7" d="M196.39,199.64a4.24,4.24,0,0,0-6.12-2.49l-.19.1-.75.24-.17.06c-.16-4.5-.53-9-.71-13.49-.25-6.31-.27-12.66-1-18.94-.09-.73-1.24-1.06-1.41-.19A121,121,0,0,0,184.82,203a2.37,2.37,0,0,0,2.37,2.11,4.4,4.4,0,0,0,2.47.23l1.75-.32a5.26,5.26,0,0,1,.88-.16l-.48.08h.57A4.22,4.22,0,0,0,196.39,199.64Z"/><path class="cls-7" d="M236.33,200.93a2.53,2.53,0,0,0,0-2.24c-.24-.52-.49-1-.73-1.54a7.86,7.86,0,0,0-.41-2c-2-5.92-5.9-11.68-9.16-17a1,1,0,0,0-.46-.4q-.8-1.58-1.57-3.17c-4.23-8.81-7-17.83-10.28-27a.61.61,0,0,0-1.2.16c0,9.42,3.69,19,7.3,27.6,3.32,7.86,6.88,15.79,10.92,23.34-.94,1.65-3.15,3.4-4.36,4.62-2.19,2.19.57,5.18,3.12,4a42.06,42.06,0,0,0,6-3.18A2.47,2.47,0,0,0,236.33,200.93Z"/><path class="cls-7" d="M207.29,169.72c-1.35-2.5-2.66-4.94-3.9-7.45a32,32,0,0,0-.9-3.92,1.67,1.67,0,0,0-3.08-.25,3,3,0,0,0-2.34,3.4,21.61,21.61,0,0,0,1.41,4.45c-.11,4.78.33,9.73.4,14.25.12,7.79.29,15.58.65,23.36a2.94,2.94,0,0,0,.17.82c-1.47,2.28-5.74,2.52-8.67,2.76a129.56,129.56,0,0,1-14,.3c-2.62-.07-5.55-.48-8.53-.75,3.27-.5,6.21.06,9.53.61,6.06,1,8.49-7.21,2.56-9.28a18,18,0,0,0-11.57.37c0-4.15-.67-8.49-1-12.35a93.69,93.69,0,0,0-2.81-18.19,1,1,0,0,0-.33-.51,39.47,39.47,0,0,0,5.95-5.86,50,50,0,0,0,9.88-21.75,3.32,3.32,0,0,0,2.92,3.29,49.73,49.73,0,0,0,5,.44,3,3,0,0,0,2.53-4.41,99.5,99.5,0,0,1-5.57-14.48c-.49-1.48-2.95-1.33-2.85.39a66.7,66.7,0,0,0,2,12l-1.09-.12a2.41,2.41,0,0,0-2.68,1.48c1.17-7.43.54-15-2.6-21.58-1.5-3.12-5.92-.81-5.31,2.24,1.3,6.49,2.54,12.46,1.49,19.12a41.6,41.6,0,0,1-6.93,17.33c-9,12.79-24.11,18.14-38.42,11a1.61,1.61,0,0,0-1.94,2.52,18.93,18.93,0,0,0,14.54,7.18c-.07,4.56-.06,9.12-.16,13.68,0,1.25-.1,2.51-.18,3.78a2.37,2.37,0,0,0-.33,0A2.46,2.46,0,0,0,139,194.8a2.57,2.57,0,0,0,0,2.47c0,.07.08.12.12.18a7.33,7.33,0,0,0-3.44.62,23.52,23.52,0,0,0-2.66,1.8,9.41,9.41,0,0,1-2.25.81c-.86.24-1.75.32-2.61.54s-1.66.74-2.55,1a1.08,1.08,0,0,0-.64,1.57c.76,1.23,1.18,2.32,2.44,3.13a12.61,12.61,0,0,0,4.12,1.55c3.13.65,6.92.73,9.74-.83a4.79,4.79,0,0,0,.47-.33c1,1.29,3,1.71,4,.51a2.73,2.73,0,0,0,2.73,1.5l6.58-.76a.91.91,0,0,0,1,1.38c5.47-1.54,12.62,1.69,18.16,2.39a98.34,98.34,0,0,0,18.67.46c3.9-.25,8.13-.54,11-3.59a9.76,9.76,0,0,0,2.36-8.75,117.45,117.45,0,0,0,2.67-21.54C208.95,175.61,208.89,172.68,207.29,169.72ZM146.84,203.2l-.08,0c.91-8.74-.46-18.53-2.11-27.14,6.39-.53,13-3.45,18.4-7.37-.36,6.06,0,12.18.19,18.24.09,3.3-.18,6.87-.13,10.36a4.3,4.3,0,0,0-1.56-.15C156.59,197.64,151.36,201.09,146.84,203.2Z"/><path class="cls-7" d="M121.54,160.85a8.51,8.51,0,0,0-7.92-2.11,2.84,2.84,0,0,0-3.21-3.91c-.84.16-2.29.57-2.73,1.45l-.14.11a15.17,15.17,0,0,0-1.78-1.95c-2.2-2-6.38.74-4.38,3.38.21.27.41.57.63.87a34.15,34.15,0,0,0-5.06,4.88,104.19,104.19,0,0,1-9.14,8.26,2.29,2.29,0,0,0-2.86-.36l-2.8,1.93a4.06,4.06,0,0,0-.5-.56,4.92,4.92,0,0,0-3.46-1.43,5.19,5.19,0,0,0-2.66.86l-.48-.2a3.39,3.39,0,0,0-3.37.89,3.6,3.6,0,0,0-.89,3.37c-.24-1.37,0,.36.07.79a4.94,4.94,0,0,0,.66,1.43,6.62,6.62,0,0,0,2.39,2.21l.33.14a3.31,3.31,0,0,0,.28,1.68c2.8,6.19,10.47,5.41,15.54,2.89a89.07,89.07,0,0,0,10-6c3.31-2.24,7.19-4.25,8.94-8a6.25,6.25,0,0,0,.62-2.75c1.12-.11,2.3-.39,3.23-.49l.39,0a5.58,5.58,0,0,0,7.13,1.36C123.33,167.9,124.31,163.21,121.54,160.85Zm-18.26,2.65c1-.63,1.7-.93,2-.65a2.55,2.55,0,0,0,2,.65l-.31.29a2.52,2.52,0,0,0-.27.28A6.26,6.26,0,0,0,103.28,163.5Z"/><path class="cls-8" d="M139.26,170.16c-15.06,0-36.06-14-36.06-36.79,0-17.56,12.42-32.87,28.89-35.61a51.63,51.63,0,0,1,8.55-.8,38.32,38.32,0,0,1,25,9.31,32.81,32.81,0,0,1,11.28,25,40.27,40.27,0,0,1-10.53,27.11A36.6,36.6,0,0,1,139.26,170.16Zm-6.68-69.44c-15,2.5-26.38,16.54-26.38,32.65,0,20.93,19.26,33.79,33.06,33.79,19.44,0,34.67-15.78,34.67-35.93,0-15.37-12.46-31.27-33.3-31.27A48.75,48.75,0,0,0,132.58,100.73Z"/><path class="cls-8" d="M139.44,162.3c-11.83,0-28.32-11-28.32-28.88,0-13.79,9.76-25.81,22.7-28a40.37,40.37,0,0,1,6.69-.63,30.08,30.08,0,0,1,19.64,7.31A25.79,25.79,0,0,1,169,131.76C169,148.89,156,162.3,139.44,162.3Zm-5.13-53.89c-11.51,1.91-20.19,12.66-20.19,25,0,16,14.75,25.88,25.32,25.88C152.5,159.3,166,149,166,131.76c0-11.76-9.54-23.93-25.5-23.93A37.5,37.5,0,0,0,134.31,108.41Z"/><path class="cls-8" d="M106.22,165.33a1.5,1.5,0,0,1-1.2-.6c-.6-.8-1.4-1.71-2.24-2.67-2.72-3.1-5.81-6.62-5.81-10.2s3.59-5.44,6.75-7c.79-.4,1.55-.77,2.25-1.17a1.5,1.5,0,0,1,1.48,2.61c-.77.44-1.59.85-2.39,1.24-3.07,1.53-5.09,2.65-5.09,4.32,0,2.45,2.81,5.65,5.06,8.22.66.75,1.29,1.47,1.84,2.15,1.95-.4,3.37-2,5-3.74.6-.67,1.23-1.35,1.9-2a1.5,1.5,0,1,1,2.07,2.17c-.6.57-1.16,1.19-1.75,1.84-2,2.17-4.2,4.63-7.78,4.82Z"/><path class="cls-8" d="M77.32,182.21c-3.89,0-8-2.53-8-7.21,0-6.71,7.24-10.71,16.41-15.78,3.78-2.09,8.06-4.45,12.12-7.21a1.5,1.5,0,0,1,1.69,2.48c-4.17,2.83-8.52,5.24-12.35,7.35-8.3,4.59-14.86,8.21-14.86,13.15,0,3.09,3,4.21,5,4.21,4.14,0,14.12-7.15,26-18.66a1.5,1.5,0,0,1,2.08,2.16C97.9,170,84.22,182.21,77.32,182.21Z"/><path class="cls-8" d="M123.25,208.13a1.5,1.5,0,0,1-1.5-1.42c-.38-6.93-.44-14-.49-20.75,0-5.28-.08-10.73-.27-16.08a1.5,1.5,0,0,1,3-.11c.2,5.4.24,10.88.28,16.17,0,6.29.09,12.77.41,19.16l2.48,0a117.52,117.52,0,0,0,12.39-.56c-.52-7.56-1-15-1-22.24,0-2.51.05-5,.16-7.24a1.5,1.5,0,0,1,3,.14c-.1,2.25-.16,4.64-.16,7.1,0,7.65.5,15.45,1.06,23.45a1.5,1.5,0,0,1-1.29,1.59,107.6,107.6,0,0,1-14.16.77Z"/><path class="cls-8" d="M148.1,208.23a62.51,62.51,0,0,1-7.3-.42,1.5,1.5,0,1,1,.35-3,68.7,68.7,0,0,0,21.22-1.05,339,339,0,0,1-1.7-33.95,1.5,1.5,0,1,1,3,0,335.66,335.66,0,0,0,1.82,35,1.5,1.5,0,0,1-1.19,1.63A80.54,80.54,0,0,1,148.1,208.23Z"/><path class="cls-8" d="M177.21,208.55c-1.67,0-3.37-.07-5-.14-2.16-.09-4.37-.19-6.52-.11a1.5,1.5,0,0,1-.1-3c2.24-.08,4.54,0,6.75.11,1.61.07,3.27.14,4.88.14a30,30,0,0,0,7.25-.74c-1.24-25.41-1.85-47.84-1.85-68.56,0-6.48.06-12.92.18-19.16h-.3c-2.26-.06-4.59-.12-6.83-.24a1.5,1.5,0,1,1,.16-3c2.2.12,4.51.18,6.75.24l1.8,0a1.5,1.5,0,0,1,1.46,1.53c-.14,6.68-.21,13.61-.21,20.59,0,21,.62,43.77,1.9,69.61a1.5,1.5,0,0,1-1.06,1.51A30.65,30.65,0,0,1,177.21,208.55Z"/><path class="cls-8" d="M192,209.06a14.14,14.14,0,0,1-5-.86,1.5,1.5,0,0,1,1-2.81,11.18,11.18,0,0,0,4,.67,26.2,26.2,0,0,0,6.56-1.07c-1.58-21.91-2.28-39-2.28-55.24q0-1.64,0-3.27l-2.56-.12c-2.46-.12-5-.24-7.44-.24a1.5,1.5,0,0,1,0-3c2.5,0,5.08.12,7.58.24,1.33.06,2.66.13,4,.17a1.5,1.5,0,0,1,1.45,1.51q0,2.35,0,4.7c0,16.48.73,33.83,2.36,56.26a1.5,1.5,0,0,1-1.1,1.56A32.55,32.55,0,0,1,192,209.06Z"/><path class="cls-8" d="M226.38,209.72a1.5,1.5,0,0,1-1.32-.78c-14.13-25.74-16.72-32.86-21.43-45.8-2.12-5.82-4.75-13.06-9.1-23.78a1.5,1.5,0,0,1,1-2,53,53,0,0,0,9-4c.88-.46,1.76-.91,2.64-1.35a1.5,1.5,0,0,1,2,.72c2.35,5.18,23.16,51.13,31.35,68.22a1.5,1.5,0,0,1-.44,1.84A47.58,47.58,0,0,1,230,208.25c-1,.44-2,.87-3,1.33A1.5,1.5,0,0,1,226.38,209.72Zm-28.47-70c4,10,6.51,16.82,8.54,22.39,4.58,12.59,7.14,19.61,20.57,44.16l1.77-.78a51,51,0,0,0,8.52-4.37c-8-16.79-26-56.56-30.19-65.73l-1.21.62A65.47,65.47,0,0,1,197.91,139.73Z"/><path class="cls-8" d="M212,176.61a1.5,1.5,0,0,1-.51-2.91,58.4,58.4,0,0,0,11.06-5.14,1.5,1.5,0,0,1,1.59,2.54,61.26,61.26,0,0,1-11.62,5.42A1.5,1.5,0,0,1,212,176.61Z"/><path class="cls-8" d="M214.19,180.21a1.5,1.5,0,0,1-.62-2.87c1.88-.85,3.83-1.65,5.73-2.42s3.79-1.55,5.61-2.38a1.5,1.5,0,0,1,1.24,2.73c-1.87.85-3.83,1.65-5.72,2.42s-3.8,1.55-5.62,2.38A1.5,1.5,0,0,1,214.19,180.21Z"/><path class="cls-8" d="M194.4,160.83c-1.38,0-2.75-.08-4.07-.15s-2.65-.15-4-.15a1.5,1.5,0,0,1,0-3c1.43,0,2.82.08,4.16.16s2.6.15,3.9.15c.69,0,1.33,0,1.94-.06a1.5,1.5,0,0,1,.21,3C195.86,160.81,195.16,160.83,194.4,160.83Z"/><path class="cls-8" d="M195.46,164.85h-8.87a1.5,1.5,0,0,1,0-3h8.87a1.5,1.5,0,0,1,0,3Z"/><path class="cls-8" d="M178.45,175.89h-.07c-1.7-.08-3.4-.11-5.05-.13a84,84,0,0,1-10.37-.6,1.5,1.5,0,1,1,.41-3,80.35,80.35,0,0,0,10,.57c1.67,0,3.4.05,5.15.13a1.5,1.5,0,0,1-.07,3Z"/><path class="cls-8" d="M173.64,180.25c-1.14,0-2.27,0-3.41,0-2,0-4-.08-6,0a1.5,1.5,0,0,1-.13-3c2.1-.09,4.16,0,6.21,0,1.12,0,2.23,0,3.35,0a42.11,42.11,0,0,0,7-.5,1.5,1.5,0,0,1,.5,3A45,45,0,0,1,173.64,180.25Z"/><path class="cls-8" d="M159.22,187.65a103.53,103.53,0,0,1-13.81-1.24L142,186a1.5,1.5,0,1,1,.38-3l3.41.45a101.25,101.25,0,0,0,13.41,1.22,1.5,1.5,0,0,1,0,3Z"/><path class="cls-8" d="M143.2,191.06c-.76,0-1.53,0-2.29-.05a1.5,1.5,0,0,1,.14-3,82.28,82.28,0,0,0,8.71-.21c2.2-.13,4.48-.27,6.74-.27a1.5,1.5,0,0,1,0,3c-2.17,0-4.41.13-6.57.26S145.46,191.06,143.2,191.06Z"/><path class="cls-8" d="M123.23,185.49a1.5,1.5,0,0,1,0-3c4.81,0,9.79,0,14.64-.47a1.5,1.5,0,0,1,.29,3C133.16,185.49,128.11,185.49,123.23,185.49Z"/><path class="cls-8" d="M123.48,190.05a1.5,1.5,0,1,1,0-3,92.48,92.48,0,0,0,11.4-.47,1.5,1.5,0,0,1,.36,3A94.85,94.85,0,0,1,123.48,190.05Z"/></g></svg>