<svg xmlns="http://www.w3.org/2000/svg" xmlns:xlink="http://www.w3.org/1999/xlink" viewBox="0 0 310 310"><defs><style>.cls-1,.cls-5{opacity:0.1;}.cls-2,.cls-3,.cls-4,.cls-9{fill:none;stroke-linecap:round;}.cls-2,.cls-3,.cls-4{stroke:#000;stroke-miterlimit:10;stroke-width:2px;}.cls-3{stroke-dasharray:7.99 6;}.cls-4{stroke-dasharray:8 6;}.cls-5{mix-blend-mode:multiply;}.cls-6{fill:#fff;}.cls-7{fill:#e0dfe6;}.cls-8{fill:#525d7d;}.cls-9{stroke:#525d7d;stroke-linejoin:round;stroke-width:3px;}</style><symbol id="frame" data-name="frame" viewBox="0 0 277.17 291.17"><g class="cls-1"><polyline class="cls-2" points="236.53 232.63 236.53 236.63 232.53 236.63"/><line class="cls-3" x1="226.53" y1="236.63" x2="47.64" y2="236.63"/><polyline class="cls-2" points="44.65 236.63 40.65 236.63 40.65 232.63"/><line class="cls-4" x1="40.65" y1="226.63" x2="40.64" y2="47.54"/><polyline class="cls-2" points="40.65 44.54 40.65 40.54 44.65 40.54"/><line class="cls-3" x1="50.64" y1="40.54" x2="229.53" y2="40.54"/><polyline class="cls-2" points="232.53 40.54 236.53 40.54 236.53 44.54"/><line class="cls-4" x1="236.53" y1="50.54" x2="236.53" y2="229.63"/></g><g class="cls-5"><polygon points="277.17 152.66 138.66 291.17 0 152.51 138.51 14 277.17 152.66"/></g><polygon class="cls-6" points="277.17 138.66 138.66 277.17 0 138.51 138.51 0 277.17 138.66"/></symbol></defs><title>s3_02</title><g id="icons"><use id="frame-3" data-name="frame" width="277.17" height="291.17" transform="translate(16.41 9.41)" xlink:href="#frame"/><path class="cls-7" d="M166,101.49l.72-.46a3,3,0,0,0-3-5.18,143.49,143.49,0,0,1-13.51,6c-4.3,1.49-8.78,2.45-13,4.06-.89.34-1.13,1.83,0,2.06a30.05,30.05,0,0,0,6.84.5c-1.76.52-3.55,1-5.38,1.39-1.73-2-5-2.83-6.7.32-2.1,3.94-6.17,5.91-9.65,8.35-1.72,1.21-1.26,4.29,1.14,4.21,5.95-.18,10.58-4.08,15-7.57a4.41,4.41,0,0,0,.36-.32c9.4,1.89,18.68-2.44,27.2-6.22C169.25,107.15,168.4,103.18,166,101.49Z"/><path class="cls-7" d="M116.34,130.75A3,3,0,0,0,115,129c-.13-.06-.48-.31-.07,0l-.12-.09a2.29,2.29,0,0,0-.71-.42,2.38,2.38,0,0,0-.34-.13l.34.17a6.64,6.64,0,0,1-.64-.31,2.63,2.63,0,0,0-2.12,0,2.51,2.51,0,0,0-1.55,1.73,3.8,3.8,0,0,0,.46,2.89,3.93,3.93,0,0,0,3.25,1.72,3,3,0,0,0,2.87-2.18A3.54,3.54,0,0,0,116.34,130.75Z"/><path class="cls-7" d="M113.44,128.21l.26.1C113,128,113.14,128,113.44,128.21Z"/><path class="cls-7" d="M134.09,160.61a25.48,25.48,0,0,0-6.09-1.29,46.15,46.15,0,0,0-12-1.07c-5.37.28-11.6,2.23-15,6.56a1.41,1.41,0,0,0,1.36,2.34c6.36-.91,11.59-2.38,18-.87,4.21,1,8.29,2.86,12.31.91C136.65,167.84,138,162,134.09,160.61Z"/><path class="cls-7" d="M165.52,152.53c-.39-1.94-3.1-2.05-4-.53-1.24,2-1.55,4.47-3.07,6.36-1.34,1.68-3.4,1.51-5.11,2.54a2.91,2.91,0,0,0-.58,4.51c2.85,3.21,7.81.85,10.06-1.86A13.86,13.86,0,0,0,165.52,152.53Z"/><path class="cls-7" d="M168.14,130.84c-.57-3.28-5-2-5.34.72-.63,5.22-.15,10.28-4.66,14-3.92,3.21-11.33,6-16.36,5.11a.79.79,0,0,0-.42,1.52c6.71,2.56,15.14,1.23,21.1-2.87S169.29,137.49,168.14,130.84Z"/><path class="cls-7" d="M143.63,122.92a2.59,2.59,0,0,0-3.34-.67,9.07,9.07,0,0,0-2.06,1.75c-.32.36-.61.77-.9,1.16a3.12,3.12,0,0,0-.54,1.67c-.13,1.12,1,1.91,2,2a4.62,4.62,0,0,0,2.61-.88,9.28,9.28,0,0,0,2-1.6A2.61,2.61,0,0,0,143.63,122.92Z"/><path class="cls-7" d="M165.66,118.67a4.08,4.08,0,0,0-1.64,1.59c-.11.18-.23.37-.35.55l-.22.31a20.42,20.42,0,0,1-2,2.21c-1.41,1.3.05,4,1.93,3.31,2.46-.89,5.9-3,5.84-5.93A2.39,2.39,0,0,0,165.66,118.67Z"/><path class="cls-7" d="M203.37,165.75c-2.61-3.09-6.73-3.64-10.28-5.13-1.21-.51-2.53,1.24-1.75,2.28,1.58,2.11,3.94,3.11,5.67,5,1.89,2.1,1,4.2.06,6.47-.77,1.82.68,4,2.31,4.71a4,4,0,0,0,5-1.63C206.73,174,206,168.83,203.37,165.75Z"/><path class="cls-7" d="M203.06,185.75c-1.79-.21-4.13.88-4.43,2.89a13.34,13.34,0,0,1-2.73,6.92,2.89,2.89,0,0,0-2,2.65,3.33,3.33,0,0,0,1.09,2.72,3,3,0,0,0,3,.8,13.43,13.43,0,0,0,8.54-12A4,4,0,0,0,203.06,185.75Z"/><path class="cls-7" d="M194.12,206a10.19,10.19,0,0,0,.22-3.14c-.3-3.07-4.85-5.2-6.49-1.76-1,2.12-1,6-3.39,6.89a7,7,0,0,1-2,.43,4.84,4.84,0,0,0,.3-1.79c-.26-11.88-1.58-28.54-12.64-35.77a1.52,1.52,0,0,0-1-.22c.75-2.8-1.81-6.47-5.23-5.45-5.82,1.74-11.17,5-17.18,6.21-6.75,1.31-13.93-.92-20.49-2.36a1.69,1.69,0,0,0-1.29,3.06c6.15,4.48,13.21,7.65,21,7.38,5.73-.2,11.82-2.28,17.3-4.7a16.08,16.08,0,0,1,.63,2.22,2.73,2.73,0,0,0-2,2.07c-.88,4.47.33,8.93.58,13.45.21,3.71,1.36,11.55-.68,14.89-2.44,4-10.17,5.06-14.24,5.5-3.74.41-7.51.36-11.22,1-.77.14-.68,1.28,0,1.47,8.41,2.32,22.67,2.75,29.2-4.27,3.23-3.47,3.43-8.88,3.72-13.34.31-4.74.85-10.29-.21-15.17,0-.06,0-.11.06-.17a10.55,10.55,0,0,0-.56-6.47,11,11,0,0,0-1.69-2.89l.33-.16c.13-.06.23-.14.34-.21a1.28,1.28,0,0,0,0,.13c2.09,5,4.13,9.58,5,15,.94,6.22.58,12.46.59,18.72a5,5,0,0,0,.2,1.37,1.07,1.07,0,0,0-.54,1.81c3.39,3,10.58,5.77,15.09,4.17a9.12,9.12,0,0,0,4.2-3.29q-.58,1.42-1.14,2.85c-1.21,3.05-1.09,3.35-4.36,3.08-4-.33-7.83-.64-11.74-.8a4.53,4.53,0,0,0-6.29-2.2c-1.84,1-2.18,2.05-3.22,3.65a1,1,0,0,0-.22.45l-1.34,0c-1.67,0-3.35.1-5,.2a87.32,87.32,0,0,0-17.39,2.37,1.28,1.28,0,0,0,0,2.45c7.15,2.35,14.92,3.31,22.41,3.83,5.47.38,7.32-1.17,9.52-4.72,5.75,2.2,12.34,4.47,17.9,3.66,7-1,9.3-10.1,11.11-15.87C203.69,205,196.53,201.72,194.12,206Z"/><path class="cls-7" d="M215.89,170.37c-.64-2-3.77-2.22-4.31,0-.31,1.26-.46,2.54-.73,3.81s-.72,2.55-.91,3.85c-.27,1.83.45,3.69,2.4,4.22,1.64.45,3.92-.56,4.22-2.4A22,22,0,0,0,215.89,170.37Z"/><path class="cls-7" d="M190.85,155.93a79.76,79.76,0,0,0-7.61-3.66,4.74,4.74,0,0,0-1.32-2.37A10.36,10.36,0,0,0,177,147a6.65,6.65,0,0,0-1.48-.19c.22-1.23.51-2.61.55-3a34.41,34.41,0,0,0,0-5.8,24.79,24.79,0,0,0-2.21-8.74,3.41,3.41,0,0,0,1.5-2.7c.32-3.7-.89-7.47-1.59-11.08-.88-4.54-1.69-9.08-2.42-13.64-.14-.9-1.54-.65-1.55.21-.08,7.48.74,16.33-1.13,23.61a3.07,3.07,0,0,0,1.35,3.6,75.75,75.75,0,0,1-1.17,10.25c-.77,3.37-2.57,6.58-2.69,10.08-.23,7.2,5.65,5.55,10.1,7.71a4.87,4.87,0,0,0,5.25-.59,71.15,71.15,0,0,1,6.58,4C190.94,162.7,194,157.62,190.85,155.93Z"/><path class="cls-7" d="M129.59,202.08c-.1-5.05-.16-10.31-1.48-15.21a2,2,0,0,0-3.58-.58l.37-3.13a1.58,1.58,0,0,0-1.58-1.58,1.43,1.43,0,0,0-1.19.58,1.35,1.35,0,0,0-2.34,0c-2.41,4.64-2.77,10.36-3.88,15.44-.76,3.48-1.7,6.89-2.69,10.3a3.08,3.08,0,0,0-2.42,2.09c-.68,1.8-1,3.8-2.07,5.43s-2.39,1.89-4,2.82a2.25,2.25,0,0,0,0,3.86c2.68,1.29,6-.2,8-2.2.14-.14.26-.3.4-.44a4.4,4.4,0,0,0,6.41-2.42c.21-.62.4-1.24.58-1.86a5.41,5.41,0,0,1-.52,2.52c-1,2.16-2.7,3.05-4.83,3.84a2.17,2.17,0,0,0,.57,4.24c5.28.59,10.08-3.41,11.86-8.29a2.75,2.75,0,0,0,.83-1C130.09,211.89,129.69,207,129.59,202.08Zm-5.85-11.89q0-.95-.12-1.89a1.53,1.53,0,0,0,.48-.44C124,188.64,123.85,189.41,123.74,190.19Z"/><path class="cls-8" d="M117.23,148.24a1.5,1.5,0,0,1-1.5-1.49l0-8.73a13.44,13.44,0,0,1-6.89-2.37,8.79,8.79,0,0,1-3.66-8.34,7,7,0,0,1,3-4.44,6.31,6.31,0,0,1,2.48-1C109.48,114.59,109,105.67,113,98a27.09,27.09,0,0,1,15.86-13.16,32.8,32.8,0,0,1,20.57.46,71.29,71.29,0,0,1,7.67,3.33c1.82.88,3.7,1.78,5.58,2.54a44.51,44.51,0,0,0,11.68,2.93A1.5,1.5,0,0,1,175,96.8c-10.22,6.66-25.21,15-38.86,12.09a24.63,24.63,0,0,1-18.61,15.37,1.5,1.5,0,1,1-.49-3,21.51,21.51,0,0,0,16.69-14.63,1.5,1.5,0,0,1,1.83-1c11.48,3.15,24.59-3.17,34.45-9.24a47.61,47.61,0,0,1-8.46-2.51c-2-.79-3.9-1.72-5.77-2.62a69.24,69.24,0,0,0-7.35-3.2,29.8,29.8,0,0,0-18.68-.44,24.08,24.08,0,0,0-14.11,11.67c-3.88,7.57-3,16.7-1.8,23.81a1.5,1.5,0,0,1-1.79,1.72,2.94,2.94,0,0,0-2.25.51,3.92,3.92,0,0,0-1.68,2.48,5.75,5.75,0,0,0,2.49,5.39,11.48,11.48,0,0,0,6.62,1.85,1.5,1.5,0,0,1,1.49,1.49l0,10.16A1.5,1.5,0,0,1,117.23,148.24Z"/><path class="cls-9" d="M170.75,118.74c-3,2.51-3.76,7-6.9,9.37a7.06,7.06,0,0,1-11.2-6.74l-6.07.61A10.06,10.06,0,0,1,127,123.56a140.53,140.53,0,0,1,24.24-3C157.32,120.19,164.75,119.56,170.75,118.74Z"/><path class="cls-8" d="M167.93,120.07h-.08a1.5,1.5,0,0,1-1.42-1.58,71,71,0,0,0-.55-13.2,1.5,1.5,0,0,1,3-.4,74,74,0,0,1,.58,13.76A1.5,1.5,0,0,1,167.93,120.07Z"/><path class="cls-8" d="M147.66,154.68q-1.48,0-3-.07a17.79,17.79,0,0,1-4.13-.56,20.45,20.45,0,0,1-3.81-1.64c-.49-.25-1-.51-1.49-.74a20.21,20.21,0,0,0-13-1.35,1.5,1.5,0,0,1-.68-2.92,23.23,23.23,0,0,1,15,1.55c.54.25,1.07.52,1.59.79a18.05,18.05,0,0,0,3.25,1.42,15.24,15.24,0,0,0,3.45.45,62.15,62.15,0,0,0,14.05-1,8.2,8.2,0,0,0,2.92-.94,7.93,7.93,0,0,0,2.56-3.88,42,42,0,0,0,2.78-17.21,1.5,1.5,0,0,1,3-.15,45,45,0,0,1-3,18.45,10.52,10.52,0,0,1-3.73,5.31,10.68,10.68,0,0,1-4,1.37A65.21,65.21,0,0,1,147.66,154.68Z"/><path class="cls-8" d="M107.62,226.61c-4.7,0-8.31-3.75-9.81-7.52s-1.45-8.17-1.36-11.93c.07-2.92.26-5.67.44-8.33a91.67,91.67,0,0,0,.19-15.12,71.28,71.28,0,0,0-1.93-11.18c-.14-.53-.28-1.06-.42-1.6-1.07-4-2.18-8.19-1.09-12.39a14.8,14.8,0,0,1,5.87-8.18,22,22,0,0,1,9.14-3.59,1.5,1.5,0,0,1,.5,3,19,19,0,0,0-7.91,3.08,11.81,11.81,0,0,0-4.71,6.5c-.89,3.43.11,7.21,1.08,10.86.14.54.29,1.09.43,1.63a74.16,74.16,0,0,1,2,11.65,94,94,0,0,1-.18,15.6c-.18,2.63-.37,5.34-.44,8.19-.09,3.48-.18,7.42,1.15,10.75,1.09,2.73,3.74,5.63,7,5.63h.12c3.15-.07,5.67-2.76,6.89-4.35,4.56-6,5.83-13.94,7-21L124.36,181a1.5,1.5,0,1,1,3,.47l-2.76,17.25c-1.18,7.39-2.52,15.77-7.54,22.33-2.67,3.5-5.95,5.46-9.22,5.53Z"/><path class="cls-8" d="M97.29,177.91a1.5,1.5,0,0,1-1.49-1.35c-.7-6.92,3.6-14.19,10.47-17.67,5.83-3,13.15-3.36,20.63-1.13,1.21.36,2.42.78,3.58,1.19A28.35,28.35,0,0,0,139,161a1.5,1.5,0,0,1,1.46,1.54,1.48,1.48,0,0,1-1.54,1.46,31,31,0,0,1-9.41-2.23c-1.13-.4-2.3-.81-3.44-1.15-6.74-2-13.28-1.68-18.42.93-5.79,2.94-9.42,9-8.84,14.69a1.5,1.5,0,0,1-1.34,1.64Z"/><path class="cls-8" d="M132,172.9a27.5,27.5,0,0,1-3.27-.19,13.76,13.76,0,0,1-5.23-1.54c-2.69-1.51-4.47-4.16-5.89-6.3a1.5,1.5,0,1,1,2.5-1.67c1.31,2,2.8,4.19,4.86,5.35a10.91,10.91,0,0,0,4.12,1.18c5,.6,10-.5,15.28-1.66,2.57-.57,5.23-1.16,7.89-1.52l1.54-.2a27.55,27.55,0,0,0,4.77-.86,11.3,11.3,0,0,0,6.53-5.06,8.82,8.82,0,0,0,.48-7.87,1.5,1.5,0,0,1,2.73-1.25,11.87,11.87,0,0,1-.6,10.59,14.33,14.33,0,0,1-8.26,6.45,30.24,30.24,0,0,1-5.29,1l-1.49.19c-2.54.35-5.14.92-7.66,1.48A60.73,60.73,0,0,1,132,172.9Z"/><path class="cls-8" d="M98.07,211.5a1.5,1.5,0,0,1-.11-3c7.38-.53,14.83-1.29,22.16-2.27a1.5,1.5,0,0,1,.4,3c-7.39,1-14.9,1.75-22.34,2.29Z"/><path class="cls-8" d="M108.54,225.66a1.5,1.5,0,0,1-1.48-1.28,41.82,41.82,0,0,1-.36-8.52,1.5,1.5,0,0,1,3,.18,38.76,38.76,0,0,0,.34,7.9,1.5,1.5,0,0,1-1.27,1.7Z"/><path class="cls-8" d="M133.79,219.15l-.64,0a7.35,7.35,0,0,1-5-2.12,10,10,0,0,1-1.35-2,5.89,5.89,0,0,0-1.11-1.56,1.5,1.5,0,0,1,1.94-2.29,8.3,8.3,0,0,1,1.78,2.37,7.54,7.54,0,0,0,.93,1.4,4.54,4.54,0,0,0,3,1.18,16.78,16.78,0,0,0,3.54-.31l.56-.09a63.44,63.44,0,0,1,7.82-.69c1.3,0,2.6,0,3.9,0,1.93,0,3.93,0,5.86-.11a38.73,38.73,0,0,0,6.38-1,11.61,11.61,0,0,0,5.29-2.44c1.93-1.85,2.53-4.8,2.89-7.72a104.33,104.33,0,0,0,.33-20.27,40.91,40.91,0,0,0-1.68-10,15.88,15.88,0,0,0-5.37-7.85,1.5,1.5,0,0,1,1.76-2.43A18.6,18.6,0,0,1,171,172.5a43.53,43.53,0,0,1,1.83,10.79,107.28,107.28,0,0,1-.35,20.85c-.41,3.3-1.18,7-3.79,9.52a14.31,14.31,0,0,1-6.66,3.19,41.66,41.66,0,0,1-6.88,1.06c-2,.14-4.1.13-6.08.12-1.27,0-2.54,0-3.81,0a60.69,60.69,0,0,0-7.45.66l-.55.08A22.84,22.84,0,0,1,133.79,219.15Z"/><path class="cls-8" d="M203.56,180.27a1.5,1.5,0,0,1-1.38-2.08,65.24,65.24,0,0,0,2.29-6.39c.57-1.91,1-4.07.13-5.57a6.19,6.19,0,0,0-2.54-2,40.13,40.13,0,0,0-7.67-2.7c-4.39-1.22-8.87-2.4-13.3-3.52a17.33,17.33,0,0,0-5.22-.77,5,5,0,0,0-3.83,1.86,1.5,1.5,0,1,1-2.48-1.69,7.83,7.83,0,0,1,6.12-3.16,20,20,0,0,1,6.15.85c4.46,1.12,9,2.31,13.37,3.54a43.83,43.83,0,0,1,8.23,2.92,8.89,8.89,0,0,1,3.75,3.15c1.51,2.5.93,5.44.17,8a68.41,68.41,0,0,1-2.39,6.69A1.5,1.5,0,0,1,203.56,180.27Z"/><path class="cls-8" d="M186.49,217a30,30,0,0,1-17.31-5.52,1.5,1.5,0,1,1,1.75-2.44,26.89,26.89,0,0,0,18.4,4.8,5.92,5.92,0,0,0,2.81-.84,6.92,6.92,0,0,0,1.88-3.23l2.18-5.82A1.5,1.5,0,1,1,199,205l-2.18,5.82a9.58,9.58,0,0,1-2.89,4.58,8.55,8.55,0,0,1-4.27,1.42A28.76,28.76,0,0,1,186.49,217Z"/><path class="cls-9" d="M203.3,179.62c-2.7-.29-5.67-.3-7.84,1.34-1.88,1.43-2.75,3.8-3.45,6.06a22.1,22.1,0,0,0-1.28,6.73,8.5,8.5,0,0,0,2.46,6.21,11.49,11.49,0,0,0,6,2.39,5.43,5.43,0,0,0,2.48,0,5.25,5.25,0,0,0,2.65-2.5,30.59,30.59,0,0,0,4.21-13.22c.16-1.51.61-3-.13-4.36C207.4,180.34,205.29,179.84,203.3,179.62Z"/><path class="cls-8" d="M198.6,196.47h-.21a13.82,13.82,0,0,1-7.52-3.3,1.5,1.5,0,1,1,2-2.26,10.82,10.82,0,0,0,5.33,2.5,1.5,1.5,0,0,1,2,.45,1.61,1.61,0,0,1,0,1.75A1.91,1.91,0,0,1,198.6,196.47Zm.12-3h0Z"/><path class="cls-8" d="M200.3,188.54a9.54,9.54,0,0,1-7.37-3.56,1.5,1.5,0,1,1,2.35-1.86,6.49,6.49,0,0,0,5.24,2.42,1.48,1.48,0,0,1,1.56,1.44,1.5,1.5,0,0,1-1.44,1.56Z"/><path class="cls-8" d="M179.28,193.77a16.08,16.08,0,0,1-2-.15,1.48,1.48,0,0,1-.47,0,1.5,1.5,0,0,1-1.41-1.59,1.7,1.7,0,0,1,.58-1.13,1.6,1.6,0,0,1,1.22-.36,8.33,8.33,0,0,0,3.52,0,5.19,5.19,0,0,0,2.31-1.8,8.21,8.21,0,0,0,1.37-7.54,6.79,6.79,0,0,0-5.72-4.53,5.77,5.77,0,0,0-5.78,3.81,1.5,1.5,0,1,1-2.87-.88,8.79,8.79,0,0,1,8.85-5.93,9.86,9.86,0,0,1,8.35,6.53,11.13,11.13,0,0,1-1.83,10.36,7.91,7.91,0,0,1-3.75,2.81A7.58,7.58,0,0,1,179.28,193.77Z"/></g></svg>