<svg xmlns="http://www.w3.org/2000/svg" xmlns:xlink="http://www.w3.org/1999/xlink" viewBox="0 0 310 310"><defs><style>.cls-1,.cls-5{opacity:0.1;}.cls-2,.cls-3,.cls-4{fill:none;stroke:#000;stroke-linecap:round;stroke-miterlimit:10;stroke-width:2px;}.cls-3{stroke-dasharray:7.99 6;}.cls-4{stroke-dasharray:8 6;}.cls-5{mix-blend-mode:multiply;}.cls-6{fill:#fff;}.cls-7{fill:#e0dfe6;}.cls-8{fill:#525d7d;}</style><symbol id="frame" data-name="frame" viewBox="0 0 277.17 291.17"><g class="cls-1"><polyline class="cls-2" points="236.53 232.63 236.53 236.63 232.53 236.63"/><line class="cls-3" x1="226.53" y1="236.63" x2="47.64" y2="236.63"/><polyline class="cls-2" points="44.65 236.63 40.65 236.63 40.65 232.63"/><line class="cls-4" x1="40.65" y1="226.63" x2="40.64" y2="47.54"/><polyline class="cls-2" points="40.65 44.54 40.65 40.54 44.65 40.54"/><line class="cls-3" x1="50.64" y1="40.54" x2="229.53" y2="40.54"/><polyline class="cls-2" points="232.53 40.54 236.53 40.54 236.53 44.54"/><line class="cls-4" x1="236.53" y1="50.54" x2="236.53" y2="229.63"/></g><g class="cls-5"><polygon points="277.17 152.66 138.66 291.17 0 152.51 138.51 14 277.17 152.66"/></g><polygon class="cls-6" points="277.17 138.66 138.66 277.17 0 138.51 138.51 0 277.17 138.66"/></symbol></defs><title>s3_01</title><g id="icons"><use id="frame-3" data-name="frame" width="277.17" height="291.17" transform="translate(16.41 9.41)" xlink:href="#frame"/><path class="cls-7" d="M130.68,131.55c-.34.46-2,1-2.53,1.52a5.2,5.2,0,0,0-1.7,3.43,15.4,15.4,0,0,0,1.26,6.07,13.32,13.32,0,0,0-8.31,4.31.88.88,0,0,0,.82,1.47c3-.79,7.1-3.62,9.72-.64,2,2.23,4.84-.13,4.53-2.54-.17-1.37-.39-2.72-.66-4.07-.14-.67-.28-1.34-.42-2l-.21-1c0-.11,0-.21,0-.3.41-.21.85-.46,1-.56a7.81,7.81,0,0,0,2.25-2.18C139,131.54,133.21,128.07,130.68,131.55Z"/><path class="cls-7" d="M157.78,93.39c-.4.8-1.22,1.08-1.89,1.68a6.18,6.18,0,0,0-2,3.26,12.79,12.79,0,0,0-.07,4.29c-2.61-.17-5.14.72-6.32,3.34a1.71,1.71,0,0,0,2.28,2.36c1.7-.79,4.18-1.59,5.31.56,1.45,2.74,6,1.64,5.92-1.5,0-1.39-.14-2.77-.23-4.15,0-.62-.36-2.84-.27-3,.29-.48,1.38-.9,1.8-1.28a5.72,5.72,0,0,0,1.75-2.79C165.11,92.52,159.59,89.77,157.78,93.39Z"/><path class="cls-7" d="M191.21,149.42c1.62-1.82,1.3-5.22-1.44-5.85-.89-.2-1.78-.39-2.67-.58a3.17,3.17,0,0,0-3.75,3.86l-.23.19a5.85,5.85,0,0,0-1.83,3.72,14.2,14.2,0,0,0,.87,5.57,8.27,8.27,0,0,0-5.81,3.65,1.37,1.37,0,0,0,1.82,1.89c2.15-1.18,4.43-2.08,6.64-.47s4.54-.88,4.1-3c-.24-1.17-1.88-5.37-1.31-6.36S190.4,150.32,191.21,149.42Z"/><path class="cls-7" d="M124.48,110.39a69.49,69.49,0,0,0-8.73,1.54c-2.47.46-5.05.66-7.51,1.21a5.93,5.93,0,0,0-6,2.54c-2.15,3.17-1.58,7.75-1.56,11.37l.1,17c.07,11,.08,22,.31,33,.12,5.47,3.83,13.64,10.6,9.24,3.71-2.41.59-8.15-3.39-6-.64.34-.93-6.61-.94-7.09l-.18-9c-.11-5.67-.27-11.34-.42-17l-.42-16c-.08-2.92-.21-5.84-.22-8.75a12.94,12.94,0,0,1,1.57-5.62,24.81,24.81,0,0,0,2.83.29.57.57,0,0,0,.88,0c1.43,0,2.87,0,4.29,0,3.15,0,6.43.15,9.51-.58C128.56,115.75,128.06,110.2,124.48,110.39Z"/><path class="cls-7" d="M222.69,193q-.43-13.16-1.08-26.33c-.9-17.57-1.54-35.67-4.9-53-.22-1.16-1.78-.78-1.91.22-.63,4.9-1,9.84-1.24,14.8-.57-8-.44-17-3.11-24.58-.23-.65-1.26-.8-1.45,0-1.76,7.16-1,15.15-.78,22.47.21,7.77.58,15.54.93,23.31l1,23.31c.24,5.36,1.73,12.65-.22,18.1-18.88,1.23-38.1,3.11-57,2.77-17.81-.32-36.93-3.54-53.95,3.59-1,.43-.45,1.9.49,2,9.64.53,19.43-1.1,29.11-.92,7.17.13,14.28,1.06,21.42,1.47a94.48,94.48,0,0,0-12.75,1.94c-2.36.53-2.67,4.55-.09,5a127.08,127.08,0,0,0,15.7,1.5c5.6.26,11.45,1.18,17,.68a4.36,4.36,0,0,0,2.55-1.16,5.37,5.37,0,0,0,1,2.23c1.53,2,6.79,4.66,8.62,7.27-3.37,1.23-9.16,1.32-11.66,1.5-4.09.3-8.19.29-12.28.24-8.19-.1-16.63-.52-24.72,1a1.37,1.37,0,0,0,0,2.62c7.61,2.2,15.83,2.65,23.7,3.21a104,104,0,0,0,23.6-.48c5.5-.87,12.4-2.6,10.11-9.8a9,9,0,0,0-1.27-2.53l.68,0c4.2.18,5.46-4.48,3.68-7.21,7.49.37,15,.71,22.45.56a4.06,4.06,0,0,0,4.31-4.1C222.43,200,222.77,195.52,222.69,193Zm-56.24,7.32c4.78-.08,9.57-.25,14.36-.45-2.68.56-5.34,1.18-8,1.84a4.24,4.24,0,0,0-1.59-.65C169.68,200.71,168.08,200.47,166.45,200.28Z"/><path class="cls-7" d="M138.23,156.31c1.77-2.89,4.77-5.21,4.17-9-.33-2.07-1.71-3.1-2.68-4.82-1.3-2.3-.74-4.48.79-6.46.77-1-.61-1.92-1.5-1.55a8.1,8.1,0,0,0-4.73,7.85c.12,1.84,1.86,3.77,1.7,5.43s-2.65,3.48-3.47,5a3.29,3.29,0,0,0,.58,4c-2.08,8-2.14,17.64-1,25.67.65,4.63,7.93,3.53,8-.94a70.28,70.28,0,0,0-3.68-23.78A3.18,3.18,0,0,0,138.23,156.31Z"/><path class="cls-7" d="M164.16,118.39c2-.55,4.25-1.5,5.35-3.33s.69-4-.41-5.86-4.32-4.13-3.23-6.54a1.56,1.56,0,0,0-2.4-1.92c-2.24,1.93-2.22,4.91-1.33,7.54a9.64,9.64,0,0,0,.92,2.29l.2.55-.09,0a8.93,8.93,0,0,0-4.87,1.14c-1.53,1.08-2.46,3.57-.74,5l.16.12a1,1,0,0,0-.31.66c-.46,8.76,1.11,17.76,1.79,26.49a3.72,3.72,0,0,0,.81,2.14,1.88,1.88,0,0,0-.58,1.26c-.52,6.83-.09,13.79,0,20.63.06,4.29-1.58,11.61,2.36,14.53,3.3,2.45,7.47-2.09,5.56-5.38-.2-.34-.08-4.92-.2-6.06-.28-2.61-.57-5.23-.94-7.83a105.74,105.74,0,0,0-3.07-16,3.27,3.27,0,0,0,2.78-4.06c-1.47-8.4-2.81-17.32-6.17-25.24A7.79,7.79,0,0,0,164.16,118.39Z"/><path class="cls-7" d="M198.85,161.86c-.82-1.91-2.28-3.43-2.7-5.54-.46-2.29.62-4.33.66-6.55a1.34,1.34,0,0,0-1.66-1.31c-3.19,1-4.68,4.67-5.15,7.76a13,13,0,0,0,.16,5.14,30.58,30.58,0,0,1,1.2,2.88,2.36,2.36,0,0,0-3.69,1.05,28.11,28.11,0,0,0-.63,7.79,36.37,36.37,0,0,0,.51,8.22c1,4.25,8.29,3.62,7.82-.92a48.5,48.5,0,0,0-1.39-6.7,3.74,3.74,0,0,0,1-.53C198.62,170.48,200.73,166.25,198.85,161.86Z"/><path class="cls-8" d="M156.43,202.11c-9,0-17.83-.11-27.95-.28q-10.11-.18-20.24-.4l-15.95-.32a1.5,1.5,0,0,1-1.47-1.39c-2.81-39-3.89-70.76-3.42-100a1.5,1.5,0,0,1,1.45-1.47c13-.42,26-1.43,40.35-2.62a1.5,1.5,0,1,1,.25,3c-13.87,1.15-26.44,2.13-39.07,2.58-.41,28.37.66,59.25,3.34,96.9l14.58.3q10.13.21,20.23.4c28,.49,46.21.46,85-1-1.45-18.59-1.46-37.41-1.47-55.63,0-13.1,0-26.63-.56-40-7.62.44-15.34.6-23,.47-5.86-.1-11.77-.37-17.56-.82a1.5,1.5,0,0,1-.93-2.58l.52-.5a1.5,1.5,0,0,1,2.12,0l.14.17c5.21.37,10.5.6,15.76.69,8.08.14,16.25,0,24.28-.56a1.5,1.5,0,0,1,1.59,1.43c.61,13.89.62,28,.62,41.62,0,18.67,0,38,1.58,56.95a1.5,1.5,0,0,1-1.44,1.62C189.5,201.76,172.72,202.11,156.43,202.11Z"/><path class="cls-8" d="M121.13,186.39q-4.75,0-9.48-.08c-2.77,0-5.51-.12-8.14-.21a1.5,1.5,0,0,1-1.45-1.46c-.27-9.63-.69-19.44-1.11-28.92-.62-14.22-1.26-28.93-1.37-43.4a1.5,1.5,0,0,1,1.49-1.51c2.62,0,5.25,0,7.89,0,6.45.05,13.11.1,19.48-.39a1.5,1.5,0,1,1,.23,3c-6.5.51-13.23.45-19.74.4l-6.34,0c.15,13.93.76,28.08,1.36,41.79.39,9,.8,18.35,1.07,27.55,2.17.07,4.41.12,6.68.16,18.47.32,37.26-.39,55.42-1.08,11.41-.43,23.2-.88,34.84-1.07-.24-4.76-.45-9.56-.65-14.23-.58-13.37-1.18-27.2-2.54-40.78a50.75,50.75,0,0,1-.2-5.93c0-1.89.13-3.81.24-5.68-2.4,0-4.83,0-7.18,0-2.71,0-5.52.06-8.29,0a89.14,89.14,0,0,1-12.15-.92,1.5,1.5,0,0,1,.46-3,86.27,86.27,0,0,0,11.74.89c2.73,0,5.51,0,8.21,0s5.52-.05,8.29,0h.53a1.5,1.5,0,0,1,1.47,1.58l-.07,1.25c-.11,1.94-.22,3.94-.25,5.88a47.84,47.84,0,0,0,.19,5.58c1.37,13.67,2,27.54,2.55,41,.22,5.17.46,10.51.73,15.76a1.5,1.5,0,0,1-1.48,1.58c-12.12.17-24.42.64-36.33,1.09C152.13,185.8,136.59,186.39,121.13,186.39Z"/><path class="cls-8" d="M142,113.83a1.5,1.5,0,0,1-1.45-1.89l2.41-9-7.74-7a1.5,1.5,0,0,1,.91-2.61l9.05-.6,3.92-8.49a1.5,1.5,0,0,1,2.58-.25l5.22,7.21,9.18.16a1.5,1.5,0,0,1,1.24,2.31l-5.18,8.09,1.77,8.67a1.5,1.5,0,0,1-2,1.7l-9.85-3.8-9.31,5.28A1.5,1.5,0,0,1,142,113.83Zm-2.12-17.71,5.78,5.21a1.5,1.5,0,0,1,.44,1.5l-1.72,6.42,6.81-3.86a1.5,1.5,0,0,1,1.28-.09l7.95,3.07L159,101.79a1.5,1.5,0,0,1,.21-1.11l4.06-6.34-7.24-.12a1.5,1.5,0,0,1-1.19-.62l-4.15-5.74-3.22,7a1.5,1.5,0,0,1-1.26.87Z"/><path class="cls-8" d="M116.73,152.53a1.5,1.5,0,0,1-1.49-1.65l1-10-8-6.65a1.5,1.5,0,0,1,.86-2.65l9.9-.71,4.83-9.28a1.5,1.5,0,0,1,2.72.13l3.2,7.9,9.71.83a1.5,1.5,0,0,1,1,2.45l-5.74,7,2.47,8.24a1.5,1.5,0,0,1-1.75,1.9l-9.74-2.11-8.31,4.41A1.5,1.5,0,0,1,116.73,152.53Zm-3.7-18.2,5.71,4.77a1.5,1.5,0,0,1,.53,1.3l-.78,8,6.33-3.36a1.49,1.49,0,0,1,1-.14l7.79,1.69-2-6.58a1.5,1.5,0,0,1,.28-1.38l4.44-5.4-7.79-.66a1.5,1.5,0,0,1-1.26-.93L125,125.89,121.29,133a1.5,1.5,0,0,1-1.22.8Z"/><path class="cls-8" d="M171.84,166.7a1.5,1.5,0,0,1-1.49-1.65l1-10-8-6.65a1.5,1.5,0,0,1,.86-2.65l9.9-.71,4.83-9.28a1.5,1.5,0,0,1,2.72.13l3.19,7.9,9.71.83a1.5,1.5,0,0,1,1,2.45l-5.74,7,2.47,8.24a1.5,1.5,0,0,1-1.75,1.9l-9.74-2.11-8.31,4.41A1.5,1.5,0,0,1,171.84,166.7Zm-3.7-18.2,5.71,4.77a1.5,1.5,0,0,1,.53,1.3l-.78,8,6.33-3.36a1.49,1.49,0,0,1,1-.14l7.79,1.69-2-6.57a1.5,1.5,0,0,1,.28-1.38l4.44-5.4-7.79-.66a1.5,1.5,0,0,1-1.26-.93l-2.32-5.74-3.72,7.14a1.5,1.5,0,0,1-1.22.8Z"/><path class="cls-8" d="M146.46,186a1.5,1.5,0,0,1-1.5-1.43c-.5-10.28-.72-20.69-.94-30.76-.24-11.3-.5-23-1.13-34.52a1.5,1.5,0,0,1,3-.17c.64,11.58.89,23.29,1.13,34.62.22,10,.44,20.44.93,30.68a1.5,1.5,0,0,1-1.43,1.57Z"/><path class="cls-8" d="M159.78,185.51a1.5,1.5,0,0,1-1.49-1.4c-.76-11.18-1.05-22.55-1.34-33.55s-.57-22.09-1.31-33.08a1.5,1.5,0,0,1,1.4-1.6,1.52,1.52,0,0,1,1.6,1.4c.74,11.06,1,22.32,1.31,33.21s.58,22.31,1.33,33.42a1.5,1.5,0,0,1-1.39,1.6Z"/><path class="cls-8" d="M121.55,186.39a1.5,1.5,0,0,1-1.5-1.45c-.13-4.2-.24-8.35-.34-12.5-.15-5.79-.29-11.79-.53-17.81a1.5,1.5,0,0,1,3-.12c.23,6,.38,12,.53,17.85.1,4.14.21,8.29.34,12.48A1.51,1.51,0,0,1,121.55,186.39Z"/><path class="cls-8" d="M132.76,186.29a1.5,1.5,0,0,1-1.5-1.44l-.15-4c-.31-8.3-.63-16.89-1.23-25.3a1.5,1.5,0,1,1,3-.21c.6,8.46.92,17.07,1.24,25.4l.15,4a1.5,1.5,0,0,1-1.44,1.56Z"/><path class="cls-8" d="M176.11,184.9a1.5,1.5,0,0,1-1.5-1.4c-.09-1.33-.19-2.67-.3-4-.27-3.37-.55-6.85-.49-10.27a1.5,1.5,0,0,1,3,.05c-.06,3.27.22,6.68.48,10,.11,1.35.22,2.71.3,4.05a1.5,1.5,0,0,1-1.4,1.59Z"/><path class="cls-8" d="M186.6,184.54a1.5,1.5,0,0,1-1.5-1.44c-.06-1.51-.14-3-.22-4.56-.19-3.57-.38-7.25-.32-10.82a1.5,1.5,0,0,1,3,.05c-.06,3.46.13,7.1.31,10.61.08,1.53.16,3.07.22,4.59a1.5,1.5,0,0,1-1.44,1.56Z"/><path class="cls-8" d="M126.4,220.9a1.5,1.5,0,0,1-1.49-1.31,9.16,9.16,0,0,1-.07-1.28c.08-4.49,3.5-7.65,10.18-9.41-.29-2.68-.47-5.45-.55-8.41a1.5,1.5,0,0,1,3-.08c.09,3.36.31,6.45.69,9.45A1.5,1.5,0,0,1,137,211.5c-5.71,1.27-8.77,3.41-9.12,6.37,14.13-.25,28.55-.7,42.52-1.14l9.72-.3a11.7,11.7,0,0,0-8.21-6.29,1.5,1.5,0,0,1-1.2-1.35c-.22-2.62-.19-5.35-.17-8v-.32a1.5,1.5,0,0,1,3,0v.32c0,2.2,0,4.47.08,6.63a14.64,14.64,0,0,1,10.09,10,1.5,1.5,0,0,1-1.4,1.91l-11.82.37C156,220.19,141.05,220.66,126.4,220.9Z"/></g></svg>