<svg xmlns="http://www.w3.org/2000/svg" xmlns:xlink="http://www.w3.org/1999/xlink" viewBox="0 0 310 310"><defs><style>.cls-1{fill:#fff;}.cls-2,.cls-6{opacity:0.1;}.cls-10,.cls-3,.cls-4,.cls-5{fill:none;stroke-linecap:round;}.cls-3,.cls-4,.cls-5{stroke:#000;stroke-miterlimit:10;stroke-width:2px;}.cls-4{stroke-dasharray:7.99 6;}.cls-5{stroke-dasharray:8 6;}.cls-6{mix-blend-mode:multiply;}.cls-7{mask:url(#mask);}.cls-8{fill:#e0dfe6;}.cls-9{fill:#525d7d;}.cls-10{stroke:#525d7d;stroke-linejoin:round;stroke-width:3px;stroke-dasharray:7;}.cls-11{filter:url(#luminosity-noclip);}</style><filter id="luminosity-noclip" x="88.2" y="94.93" width="141.68" height="131.97" filterUnits="userSpaceOnUse" color-interpolation-filters="sRGB"><feFlood flood-color="#fff" result="bg"/><feBlend in="SourceGraphic" in2="bg"/></filter><mask id="mask" x="88.2" y="94.93" width="141.68" height="131.97" maskUnits="userSpaceOnUse"><g class="cls-11"><path class="cls-1" d="M104.82,177.48c0-.12,0-.22-.06-.34a6.58,6.58,0,0,0-1.65-4.16,7.75,7.75,0,0,0-11.73,0,6.54,6.54,0,0,0-1.67,4.27c0,.09,0,.17,0,.26a135.19,135.19,0,0,0-.52,19.16c0,2.44.09,4.88.09,7.29,0,5.16,4,7.73,8,7.73s8-2.57,8-7.73c0-2.41.05-4.84.09-7.28A135.24,135.24,0,0,0,104.82,177.48Z"/><path d="M107.12,184.78a9.1,9.1,0,0,0-3.53-4.91c-.7-.52-1.4-1-2.13-1.52a15.8,15.8,0,0,0-5.16-2.75A5.29,5.29,0,0,0,89.88,182a15.8,15.8,0,0,0,2.75,5.16c.44.66.91,1.3,1.38,1.93a9,9,0,0,0,5.05,3.72A6.62,6.62,0,0,0,107.12,184.78Z"/><path d="M102.69,188.35c-.12-9.29-14.33-9.31-14.45,0-.09,6.83-.23,13.23,1.57,19.88,1.51,5.57,9.79,5.58,11.3,0C102.91,201.57,102.77,195.18,102.69,188.35Z"/><path d="M214,200.95c-19.53-1.19-39.06-1-58.62-1.1-9.6,0-19.21-.16-28.81-.09-4.59,0-9.41-.28-14,.43-5,.77-9.93,2.69-14.78,4a3.5,3.5,0,0,0,0,6.69c4.86,1.34,9.83,3.26,14.78,4,4.56.71,9.35.39,14,.43,9.6.07,19.21-.05,28.81-.09,19.56-.09,39.09.09,58.62-1.1C222.47,213.65,222.48,201.47,214,200.95Z"/><path d="M214.33,214.48c-3.84-2-6.31-3.77-10.81-4.23-4.29-.44-8.64-.57-12.95-.79-8.3-.42-16.59-.51-24.9-.59s-16.6-.16-24.9-.2-18-1.66-25.25,3.26a6.71,6.71,0,0,0,0,11.41c7.26,4.93,16.84,3.31,25.25,3.26s16.6-.13,24.9-.2,16.6-.17,24.9-.59c4-.2,8-.32,12-.68,4.85-.43,7.62-2.14,11.81-4.34A3.68,3.68,0,0,0,214.33,214.48Z"/><path d="M223.25,204c-3.39,1.11-5.5,3-7.73,5.7-2,2.45-4.1,4.84-5.13,7.88-1.09,3.25,2.42,6.76,5.67,5.67,3-1,5.43-3.12,7.88-5.13,2.71-2.22,4.6-4.35,5.7-7.73C230.86,206.73,226.95,202.82,223.25,204Z"/></g></mask><symbol id="frame" data-name="frame" viewBox="0 0 277.17 291.17"><g class="cls-2"><polyline class="cls-3" points="236.53 232.63 236.53 236.63 232.53 236.63"/><line class="cls-4" x1="226.53" y1="236.63" x2="47.64" y2="236.63"/><polyline class="cls-3" points="44.65 236.63 40.65 236.63 40.65 232.63"/><line class="cls-5" x1="40.65" y1="226.63" x2="40.64" y2="47.54"/><polyline class="cls-3" points="40.65 44.54 40.65 40.54 44.65 40.54"/><line class="cls-4" x1="50.64" y1="40.54" x2="229.53" y2="40.54"/><polyline class="cls-3" points="232.53 40.54 236.53 40.54 236.53 44.54"/><line class="cls-5" x1="236.53" y1="50.54" x2="236.53" y2="229.63"/></g><g class="cls-6"><polygon points="277.17 152.66 138.66 291.17 0 152.51 138.51 14 277.17 152.66"/></g><polygon class="cls-1" points="277.17 138.66 138.66 277.17 0 138.51 138.51 0 277.17 138.66"/></symbol></defs><title>s1_08</title><g id="icons"><use id="frame-3" data-name="frame" width="277.17" height="291.17" transform="translate(16.41 9.41)" xlink:href="#frame"/><g class="cls-7"><path class="cls-8" d="M111.3,111.3c-1.94-.81-3.66.31-4.38,2.12s-3.46,1.24-4.73.48c-1.64-1-3.07.91-2.4,2.41,2.4,5.41,10.48,3.84,13.08-.4A3.25,3.25,0,0,0,111.3,111.3Z"/><path class="cls-8" d="M124.37,110.77c-1.15,2.63-3.36,3.87-6.14,2.79-2-.79-3.18,2-2,3.4,4.18,4.72,12.63,2.15,14.33-3.58C131.65,109.78,125.94,107.19,124.37,110.77Z"/><path class="cls-8" d="M143.1,108.64a3.08,3.08,0,0,0-3.84,1.27,3.84,3.84,0,0,1-1.56,1.87,2.16,2.16,0,0,1-2.2-.17c-2.33-1.49-4.88,1.9-2.92,3.81,3.55,3.45,11.42,2.36,12.32-3.14A3.12,3.12,0,0,0,143.1,108.64Z"/><path class="cls-8" d="M186.06,200.87c6.63-.3,13.71-1.28,20.45-1q-1.24-28.94-2.28-57.89-.22-6-.39-12c-2.89.16-5.92-.27-8.73-.35q-7.22-.21-14.43-.39-13.4-.33-26.81-.53l-26.81-.4c-8.86-.13-18.77.3-27.17-2.88a1.33,1.33,0,0,1,0-2.55c8.38-3.26,18.29-2.85,27.16-2.9q13.92-.09,27.84.11t27.84.52q7.22.17,14.43.38c2.2.06,4.37,0,6.48.19-.06-3-.1-6-.11-9,0-1.28.81-6.93-.09-7.81s-4.27-.78-5.17-.93A83.69,83.69,0,0,1,183,99.89c-1-.36-1.25-2,0-2.26a87.6,87.6,0,0,1,16.19-1c4,0,8.55-.32,11.08,3.42,2.37,3.52,1.79,9.11,2,13.12.33,5.82.53,11.64.77,17.46q.2,4.77.37,9.54a238.15,238.15,0,0,1,1.46-31.62c.18-1.41,2.41-2.06,2.74-.38,3.47,17.67,1.8,36.21,2.84,54.16.52,9-1.9,41.88-5.29,48.16.48,2.68,5.46,5.79,1.93,6.06a396.72,396.72,0,0,1-46.75.89c-9.92-.41-20.3-.92-30.33-2.62a4,4,0,0,1-3.27,2.17c-8.81.44-19.32-2.43-27-6.75a1.33,1.33,0,0,1,.66-2.46c5,0,10.31.06,15.55.35,2.81-.25,5.62-.41,8.45-.49-6.67-.39-13.32-1-19.93-1.93-1.18-.17-.75-1.83.26-1.92Z"/><path class="cls-9" d="M215.13,210.48h-.32c-15.3,0-30.79-.35-45.76-.72s-30.34-.75-45.52-.72c-10,0-19,.22-27.58.6a1.51,1.51,0,0,1-1.56-1.39c-1.72-24.42-2.33-49.35-2.92-73.47-.26-10.61-.53-21.58-.89-32.34a6.78,6.78,0,0,1,6.75-7c4.38,0,8.71,0,13,0,11.73,0,23.64-.15,35.15-.26s23.41-.24,35.13-.26c9.46,0,17.91,0,25.84.13a8,8,0,0,1,7.87,8v.79c0,19.34.62,39.14,1.17,58.28.45,15.39.91,31.3,1.09,46.87a1.5,1.5,0,0,1-1.5,1.52ZM123.52,206c15.23,0,30.67.35,45.6.72,14.56.36,29.61.73,44.49.72-.19-15.06-.64-30.42-1.07-45.3-.55-19.16-1.13-39-1.17-58.36V103a5,5,0,0,0-4.91-5c-7.92-.11-16.36-.15-25.8-.13-11.71,0-23.6.15-35.11.26s-23.44.24-35.18.26q-6.5,0-13,0a3.78,3.78,0,0,0-3.79,3.9c.36,10.77.63,21.75.89,32.36.58,23.6,1.18,48,2.82,71.87C105.46,206.24,114.06,206.06,123.52,206Z"/><path class="cls-9" d="M92.66,123.9a1.5,1.5,0,0,1,0-3c42.89-.69,81.55-1.28,120.39-1.49a1.5,1.5,0,1,1,0,3C174.22,122.62,135.56,123.21,92.66,123.9Z"/><path class="cls-9" d="M106.28,115.11c-2.58,0-5.24-1.7-5.25-4.58a5.32,5.32,0,0,1,4.13-5.29l.22,0a6.38,6.38,0,0,1,1.36-.18,5.05,5.05,0,1,1-.46,10.09Zm-.53-6.92a2.34,2.34,0,0,0-1.72,2.34c0,1.08,1.34,1.58,2.24,1.58a2.25,2.25,0,0,0,2.38-2.09,2.44,2.44,0,0,0-1.9-2,4.1,4.1,0,0,0-.74.12Z"/><path class="cls-9" d="M123.12,114.41a4.58,4.58,0,0,1-4.76-4.36,4.31,4.31,0,0,1,.3-1.55,4.09,4.09,0,0,1,4.23-3.32c1.45,0,5,1.63,5,4.1C127.91,112.44,126.08,114.4,123.12,114.41Zm-1.73-4.66a1.27,1.27,0,0,0,0,.3,1.6,1.6,0,0,0,1.76,1.37c.92,0,1.77-.25,1.79-2a4,4,0,0,0-1.67-1.11,1.5,1.5,0,0,1-.88.29,1.58,1.58,0,0,0-.77.72A1.5,1.5,0,0,1,121.4,109.75Zm3.53-.33Z"/><path class="cls-9" d="M140.1,114.5c-2.3,0-4.1-2.06-4.11-4.69a5.53,5.53,0,0,1,2-4.31,1.5,1.5,0,0,1,1.92,0c2,.19,5.06,1.89,5.06,4.6S142.13,114.49,140.1,114.5Zm-.83-5.92a2.71,2.71,0,0,0-.28,1.22c0,1.16.66,1.7,1.1,1.7.67,0,1.87-.69,1.87-1.36s-1.65-1.62-2.4-1.62A.68.68,0,0,0,139.27,108.58Z"/></g><path class="cls-8" d="M132,184.55c-2.21-2.8-5.27-3-8.25-2.14-.35-.35-.69-.68-1-1a2.9,2.9,0,0,0-3.33-.51c3.48-4.08,5.33-9.74,3.5-14.76a5,5,0,0,0-.79-1.4,3.76,3.76,0,0,0,.36-4.14l-.56-1.11a3.63,3.63,0,0,0-6.56,3.07l-.11.06-2.68,1.84a3.69,3.69,0,0,0-1.59,2.07,3.53,3.53,0,0,0,.35,2.66,3.6,3.6,0,0,0,1.9,1.49c.08,3.73-.34,7.08-3.2,10.24-2.27,2.52.55,5.81,3.48,4.5a16.37,16.37,0,0,0,4.45-3c-.05.1-.12.2-.16.31-.36.93-.43,1.88-.7,2.83a14.14,14.14,0,0,0-.73,3.62c0,.12,0,.24,0,.36-1.76-.08-3.65,1.7-3,3.61a7.28,7.28,0,0,1-1.2,6.73c-1.78,2.53-.14,6.16,2.44,7.25s6.28-.27,6.89-3.31a16.57,16.57,0,0,0,.28-4.72c2.65,2,7.2,1.8,9.14-1.48C132.94,194.12,134.75,188.06,132,184.55Z"/><path class="cls-8" d="M181.46,211.4a5.29,5.29,0,0,0-2.68-2.16,9.24,9.24,0,0,0,.42-.87,3.87,3.87,0,0,0,2.16-4.51l-.5-1.82a3.72,3.72,0,0,0-1-1.64,11.18,11.18,0,0,0-4.07-6.9,9,9,0,0,0-7.15-1.68c2.38-3.18,4-6.85,3.14-10.59,3.61-1.11,3.25-7.9-1.43-7.86a64.76,64.76,0,0,0-18.77,2.8c-1.4.47-1.73,2.91,0,3.18,4.45.71,9.09,1.17,13.67,1.58.08,3.61-4.12,6.08-6.86,7.75-5.19,3.16-1,10.23,3.65,9.09a8.26,8.26,0,0,0-.23,1.42c-.21,3.07,2.67,5.39,5.52,5.38a9.76,9.76,0,0,0-.17,2.18,14.69,14.69,0,0,0-4.34-3.12,2.26,2.26,0,0,0-3.06,3.06,20.93,20.93,0,0,1,2,6.14c.37,2.39-.21,4.49-.23,6.86,0,4.09,4.33,5.88,7.38,4.53-1,2.19-4.63,2.4-6.93,2.43-5.06-.11-10.12-.72-15.19-.49-2,.1-3.18,3.07-1.11,4.1,8,4,21.17,8.36,30.06,5.17C185.49,231.94,186.25,219.17,181.46,211.4Z"/><path class="cls-8" d="M223.62,193.49a4.23,4.23,0,0,0-.56-1.32,7.74,7.74,0,0,0-.73-3.6,10.19,10.19,0,0,0-1.78-2.62,26.75,26.75,0,0,0,.3-4.52,3,3,0,0,0-5.49-1.49,10.33,10.33,0,0,1-1.28,1.8,14.81,14.81,0,0,0,1.66-7.05c-.07-4.65-2.21-9.86-7-11.31-2.07-.63-3.48,1.35-3.19,3.19.37,2.32.91,4.47.3,6.78s-2.09,3.54-3.71,5.39c-3.22,3.68-.21,11.17,5.28,9.06a11.8,11.8,0,0,0,1.53-.73,5.5,5.5,0,0,0,1.27,5.05,4.82,4.82,0,0,0,.19,1.74,4,4,0,0,0-2.78-.71,3.78,3.78,0,0,0-3.3,3.74l.2,4.44a4.26,4.26,0,0,0,2.84,3.91,37.23,37.23,0,0,0-7,2.47c-2.07,1-.92,4,1.11,4.1,3.64.18,7.41-.75,11-1.23,2.91-.38,6.34-.27,9.09-1.31C228.26,206.76,224.74,198.44,223.62,193.49Zm-10.7,10.28-1.15.32a4.46,4.46,0,0,0,.95-3.86l-.83-4a7.51,7.51,0,0,0,3.84,2c.28,1.63.65,3.47,1.33,4.19,0,.06,0,.1,0,.15l-.61.18A18.55,18.55,0,0,0,212.92,203.77Z"/><path class="cls-9" d="M153.61,201.27a17.34,17.34,0,0,1-13.48-6.3,20.14,20.14,0,0,1-4.66-12.54c0-10.69,8-20.2,17.91-21.18a31.09,31.09,0,0,1,3.13-.18c9,0,18.57,7,18.57,19.93a18.8,18.8,0,0,1-7.62,15.64A23.84,23.84,0,0,1,153.61,201.27Zm2.89-37c-.81,0-1.7.05-2.81.16-9,.9-15,10-15,18,0,6.3,4.74,15.61,14.92,15.61,7.05,0,18.24-4.63,18.24-17C171.84,170.15,163.94,164.29,156.5,164.29Z"/><path class="cls-9" d="M170,227.54c-9.64,0-21,0-32.14-.23a1.61,1.61,0,0,1-1.58-1.62c0-13.57,3.06-23,9.2-28.8a1.61,1.61,0,0,1,2.21,2.34c-5.24,5-7.92,13.1-8.18,24.88,10.1.16,20.3.19,29.16.2a30.49,30.49,0,0,0,.45-5.23A27.77,27.77,0,0,0,161,199a1.61,1.61,0,0,1,2.23-2.32,31,31,0,0,1,9.13,22.38,33.69,33.69,0,0,1-.78,7.19A1.61,1.61,0,0,1,170,227.54Z"/><path class="cls-9" d="M156.74,213a1.61,1.61,0,0,1-1.57-1.24,61.16,61.16,0,0,1-1.47-12.14,1.61,1.61,0,1,1,3.22-.11A58.11,58.11,0,0,0,158.31,211a1.61,1.61,0,0,1-1.19,1.94A1.59,1.59,0,0,1,156.74,213Z"/><path class="cls-9" d="M138.71,191.32a1.61,1.61,0,0,1-1-2.87c4.45-3.57,6.93-9.05,8.4-12.86a1.61,1.61,0,0,1,1.44-1c8.27-.31,16.68-1,24.82-1.58a1.61,1.61,0,0,1,.25,3.21c-7.83.6-15.91,1.22-23.9,1.55-1.65,4.08-4.33,9.48-9,13.23A1.6,1.6,0,0,1,138.71,191.32Z"/><path class="cls-9" d="M109.63,188.18c-8.23,0-17.4-6.7-17.4-16.3a20.84,20.84,0,0,1,4.37-12.06,17,17,0,0,1,12.3-7.07c8.67-.63,18.45,5.87,18.45,15.82C127.34,180.85,118.34,188.18,109.63,188.18Zm-.5-32.21c-8.47.61-13.68,9.67-13.68,15.91,0,7.71,7.47,13.08,14.18,13.08,7.12,0,14.49-6.13,14.49-16.38C124.12,160.64,116.19,155.47,109.13,156Z"/><path class="cls-9" d="M121.33,210.59H95.46a1.61,1.61,0,0,1-1.57-1.24,26,26,0,0,1,8.25-25.45,1.61,1.61,0,1,1,2,2.5,22.15,22.15,0,0,0-7.73,17.12,22.51,22.51,0,0,0,.33,3.85h22.9c-.34-9-2.53-16.12-6.37-20.62a1.61,1.61,0,1,1,2.45-2.09c4.63,5.43,7,13.61,7.18,24.3a1.61,1.61,0,0,1-1.61,1.63Z"/><path class="cls-9" d="M109.83,199.09a1.61,1.61,0,0,1-1.61-1.54c-.15-3.35-.23-6.84-.27-11a1.61,1.61,0,1,1,3.22,0c0,4.1.13,7.55.27,10.86a1.61,1.61,0,0,1-1.54,1.68Z"/><path class="cls-9" d="M95.88,180.54a1.61,1.61,0,0,1-1.1-2.79,25.57,25.57,0,0,0,6.86-11.1,1.61,1.61,0,0,1,1.49-1.14c4.44-.14,8.85-.32,13.25-.5l9.09-.36a1.61,1.61,0,1,1,.12,3.22l-9.07.36c-4,.17-8.08.33-12.15.47A28.75,28.75,0,0,1,97,180.11,1.61,1.61,0,0,1,95.88,180.54Z"/><path class="cls-9" d="M202.18,190c-9.75,0-16.3-6.06-16.3-15.09a18.08,18.08,0,0,1,4.22-10.79,14.65,14.65,0,0,1,11.3-5.78,13.31,13.31,0,0,1,2.79.3c3.27.7,6.42,2.74,9.63,6.24,1.55,1.69,3.2,5.62,3.2,9.57C217,183.77,209.35,190,202.18,190Zm-.78-28.44c-7.14,0-12.3,8-12.3,13.36,0,8.76,7,11.87,13.08,11.87a12.17,12.17,0,0,0,11.63-12.34,12.75,12.75,0,0,0-2.36-7.39c-2.74-3-5.33-4.71-7.93-5.26A10.08,10.08,0,0,0,201.4,161.58Z"/><path class="cls-9" d="M189.43,208.78a1.61,1.61,0,0,1-1.61-1.61V205a1.59,1.59,0,0,1,0-.28c.22-10.1,2-15.53,6.06-19a1.61,1.61,0,0,1,2.1,2.44c-3,2.57-5,6.76-5,18.87v.13A1.61,1.61,0,0,1,189.43,208.78Z"/><path class="cls-9" d="M193.15,208.42q-1.88,0-3.77-.06a1.61,1.61,0,0,1-1.56-1.66,1.58,1.58,0,0,1,1.66-1.56c6.94.21,13.95-.25,20.75-.69l4-.26c-.79-4.93-2.74-11.25-7.45-16.19a1.61,1.61,0,0,1,2.33-2.22c5.88,6.17,7.9,14.13,8.55,19.73a1.61,1.61,0,0,1-1.51,1.79l-5.73.36C204.79,208,198.95,208.42,193.15,208.42Z"/><path class="cls-9" d="M201.53,200.61a1.61,1.61,0,0,1-1.59-1.34,90,90,0,0,1-1.28-10.87,1.61,1.61,0,0,1,3.22-.16,86.88,86.88,0,0,0,1.24,10.48,1.61,1.61,0,0,1-1.31,1.86Z"/><path class="cls-9" d="M214.75,180.44a1.61,1.61,0,0,1-.62-.12c-3.12-1.3-8.53-4.06-11.19-8.39-4.28,0-8.78-.11-14.49-.44a1.61,1.61,0,1,1,.19-3.22c5.14.3,9.33.43,13.18.43h2a1.65,1.65,0,0,1,1.47.89c1.42,2.86,5.08,5.68,10,7.75a1.61,1.61,0,0,1-.62,3.1Z"/><path class="cls-10" d="M194.58,153c-.62-7.17-4.62-14.64-11.48-16.8-5.37-1.68-11.35.27-15.82,3.69a56.34,56.34,0,0,0-11.78,12.72c-3.32-6.17-7.62-12-13.39-15.92s-13.17-5.91-19.94-4.13-12.55,7.74-13,14.73"/></g></svg>