<svg xmlns="http://www.w3.org/2000/svg" xmlns:xlink="http://www.w3.org/1999/xlink" viewBox="0 0 310 310"><defs><style>.cls-1{filter:url(#luminosity-noclip);}.cls-2,.cls-6{opacity:0.1;}.cls-11,.cls-12,.cls-3,.cls-4,.cls-5{fill:none;}.cls-3,.cls-4,.cls-5{stroke:#000;stroke-width:2px;}.cls-12,.cls-3,.cls-4,.cls-5{stroke-linecap:round;}.cls-11,.cls-3,.cls-4,.cls-5{stroke-miterlimit:10;}.cls-4{stroke-dasharray:7.99 6;}.cls-5{stroke-dasharray:8 6;}.cls-6{mix-blend-mode:multiply;}.cls-7{fill:#fff;}.cls-8{fill:#525d7d;}.cls-9{mask:url(#mask);}.cls-10{fill:#e0dfe6;}.cls-11,.cls-12{stroke:#525d7d;stroke-width:3px;}.cls-12{stroke-linejoin:round;}</style><filter id="luminosity-noclip" x="106.44" y="110.29" width="115.83" height="115.67" filterUnits="userSpaceOnUse" color-interpolation-filters="sRGB"><feFlood flood-color="#fff" result="bg"/><feBlend in="SourceGraphic" in2="bg"/></filter><mask id="mask" x="106.44" y="110.29" width="115.83" height="115.67" maskUnits="userSpaceOnUse"><path class="cls-1" d="M216.82,131.92c-6.35-5.26-15.17-8.36-23.33-7-7.65,1.32-14.62,5.84-19.57,11.73-2.3,2.74-3.45,6.56-.41,9.25a6.79,6.79,0,0,0,1.29.89,6.37,6.37,0,0,0,6.94,5.91,41.38,41.38,0,0,0,6.55-.67c8.61,1.85,19.41-2.08,26.47-5.92a4.05,4.05,0,0,0,2.37-3.73,7.69,7.69,0,0,0,1.42-1.7A6.72,6.72,0,0,0,216.82,131.92Z"/></mask><symbol id="frame" data-name="frame" viewBox="0 0 277.17 291.17"><g class="cls-2"><polyline class="cls-3" points="236.53 232.63 236.53 236.63 232.53 236.63"/><line class="cls-4" x1="226.53" y1="236.63" x2="47.64" y2="236.63"/><polyline class="cls-3" points="44.65 236.63 40.65 236.63 40.65 232.63"/><line class="cls-5" x1="40.65" y1="226.63" x2="40.64" y2="47.54"/><polyline class="cls-3" points="40.65 44.54 40.65 40.54 44.65 40.54"/><line class="cls-4" x1="50.64" y1="40.54" x2="229.53" y2="40.54"/><polyline class="cls-3" points="232.53 40.54 236.53 40.54 236.53 44.54"/><line class="cls-5" x1="236.53" y1="50.54" x2="236.53" y2="229.63"/></g><g class="cls-6"><polygon points="277.17 152.66 138.66 291.17 0 152.51 138.51 14 277.17 152.66"/></g><polygon class="cls-7" points="277.17 138.66 138.66 277.17 0 138.51 138.51 0 277.17 138.66"/></symbol></defs><title>s1_05</title><g id="icons"><use id="frame-3" data-name="frame" width="277.17" height="291.17" transform="translate(16.41 9.41)" xlink:href="#frame"/><path class="cls-8" d="M107.88,134.42a14.06,14.06,0,0,0-9.22-3.2c-4.92,0-10.44,2.13-15.15,5.84a1.5,1.5,0,0,1-2.43-1.16c-.09-6.79-.13-11.07-.13-13.07,0-11.28,0-22.94-.63-34.31a1.5,1.5,0,0,1,.86-1.44,34.21,34.21,0,0,1,14.47-3.2c11.22,0,17.47,4.49,21.63,8.82a29.25,29.25,0,0,1,20.55-7.86,44.29,44.29,0,0,1,12.08,1.34A1.5,1.5,0,0,1,151,87.59c.08,4,.1,8.07.12,12,0,4.14,0,8.41.13,12.62a1.5,1.5,0,0,1-3,.06c-.09-4.23-.11-8.52-.13-12.67,0-3.54,0-7.19-.1-10.81a45.19,45.19,0,0,0-10.19-.94,26.21,26.21,0,0,0-19.51,8.05,1.5,1.5,0,0,1-2.21,0c-4-4.44-9.49-9-20.47-9a31.3,31.3,0,0,0-12.28,2.5c.58,11.12.58,22.47.58,33.45,0,1.69,0,5,.1,10.16a27.44,27.44,0,0,1,14.62-4.76,17.36,17.36,0,0,1,9.47,2.69"/><path class="cls-8" d="M108.13,143.23a7.48,7.48,0,0,1-6.08-3.67c-2.43.2-4.88.27-7.24.34-3,.09-6.12.18-9.16.54a1.5,1.5,0,0,1-.35-3c3.16-.37,6.34-.47,9.42-.56,2.62-.08,5.33-.16,8-.41a1.5,1.5,0,0,1,1.45.76c.51.9,1.91,3,4,3"/><path class="cls-8" d="M106.6,99.65a1.49,1.49,0,0,1-.47-.08,56.09,56.09,0,0,0-8.59-2A19,19,0,0,0,94,98a21.43,21.43,0,0,1-4.12.52,1.5,1.5,0,0,1,0-3,18.9,18.9,0,0,0,3.55-.47,21.5,21.5,0,0,1,4.14-.53c2.17,0,8.61,1.86,9.54,2.17a1.5,1.5,0,0,1-.47,2.92Z"/><path class="cls-8" d="M104.78,109.12a1.49,1.49,0,0,1-.83-.25,7.78,7.78,0,0,0-4.52-1.24,28.75,28.75,0,0,0-4.83.57c-1.28.22-2.6.45-3.91.55a1.5,1.5,0,0,1-.23-3c1.17-.09,2.36-.3,3.62-.52a31.44,31.44,0,0,1,5.35-.62,10.79,10.79,0,0,1,6.18,1.74,1.5,1.5,0,0,1-.83,2.75Z"/><path class="cls-8" d="M90.94,119a1.5,1.5,0,0,1-.27-3c.85-.15,1.7-.34,2.55-.53a31.18,31.18,0,0,1,6.8-1,14.9,14.9,0,0,1,3.66.44,1.5,1.5,0,0,1-.73,2.91,11.94,11.94,0,0,0-2.93-.35,28.47,28.47,0,0,0-6.15.91c-.89.2-1.78.39-2.67.55Z"/><path class="cls-8" d="M118.62,114.08a1.5,1.5,0,0,1-1.5-1.49c0-2.88-.29-5.91-.54-8.85-.27-3.17-.55-6.44-.55-9.6a1.5,1.5,0,1,1,3,0c0,3,.28,6.24.54,9.34s.52,6.08.55,9.08A1.5,1.5,0,0,1,118.62,114.08Z"/><path class="cls-8" d="M125.54,100a1.5,1.5,0,0,1-.51-2.91,24.86,24.86,0,0,1,8.37-1.93,10.82,10.82,0,0,1,5.25,1.3,1.5,1.5,0,0,1-1.44,2.63,7.75,7.75,0,0,0-3.81-.93,22.48,22.48,0,0,0-7.34,1.75A1.5,1.5,0,0,1,125.54,100Z"/><path class="cls-8" d="M128.09,107.3a1.5,1.5,0,0,1-.43-2.94,23.67,23.67,0,0,1,11.65-.76,1.5,1.5,0,0,1-.59,2.94,20.72,20.72,0,0,0-10.2.69A1.48,1.48,0,0,1,128.09,107.3Z"/><path class="cls-8" d="M104.51,183a1.49,1.49,0,0,1-.9-.3c-1.1-.83-2.18-1.69-3.2-2.57a1.5,1.5,0,1,1,2-2.27c1,.83,2,1.65,3,2.44a1.5,1.5,0,0,1-.9,2.7Zm-9.37-9a1.5,1.5,0,0,1-1.17-.56c-.87-1.08-1.69-2.2-2.44-3.34a1.5,1.5,0,0,1,2.5-1.66c.7,1.06,1.47,2.11,2.28,3.12A1.5,1.5,0,0,1,95.14,174Zm-6.43-11.23a1.5,1.5,0,0,1-1.41-1,37.69,37.69,0,0,1-1.22-4,1.5,1.5,0,1,1,2.91-.71,34.75,34.75,0,0,0,1.12,3.66,1.5,1.5,0,0,1-1.41,2Zm-2.2-12.74a1.5,1.5,0,0,1-1.5-1.51,40,40,0,0,1,.25-4.15,1.5,1.5,0,0,1,3,.33,37,37,0,0,0-.23,3.84A1.5,1.5,0,0,1,86.52,150.08Z"/><g class="cls-9"><path class="cls-10" d="M220,155.13q-.36-6.2-.74-12.39a5.32,5.32,0,0,1-1.52-5,6.32,6.32,0,0,1-.4-5.69,7.34,7.34,0,0,1,1-1.76c-.34-4-.74-8-1.23-11.92-.08-.52-.15-1-.18-1.53a5.33,5.33,0,0,1,.15-1.79c-.16-.35-.32-.7-.51-1-.66-1.22-2.89-1.07-3.14.41-.51,3,0,6.33.31,9.47a5.64,5.64,0,0,0-4.42,6.42A5.7,5.7,0,0,0,213,135l.54,4.41c-1.79,3.56-1.56,8-1.76,11.89-.29,5.49-.26,11-.3,16.48q-.12,16.28.05,32.55a4,4,0,0,0-2-.51,199.05,199.05,0,0,0-27.32,2.6,1.27,1.27,0,0,0-1,.73,4.63,4.63,0,0,0-3-1.32c-5.63-.38-11.62.79-17.25,1.21-4.73.35-9.89.33-14.26,2.27-1.46.65-1.25,2.88,0,3.59,4.43,2.51,10.29,2.64,15.28,2.8,5.71.18,11.89.51,17.44-1a4.14,4.14,0,0,0,3.14-5,48.46,48.46,0,0,0,6.3,2,1.52,1.52,0,0,0-.24,2.69c2.2,1.55,2.75,4.31,2.84,7-17.13.28-34.25.55-51.36,1.41-1,.05-1.37,1.67-.25,1.87a355,355,0,0,0,57.6,5.28c4.64.08,5.41-6,2.33-8-1.06-3.56-2.75-7.38-5.77-9.22a55.87,55.87,0,0,0,7.59.56c3.45-2.87,7.23-3.07,11.64-3.64a7.55,7.55,0,0,0,6.55-4.74c3.08-6.44,2.6-14.62,2.2-21.55C221.53,171.27,220.49,163.23,220,155.13Z"/><path class="cls-10" d="M207.44,154.7c0-.17-.61-10.28-.24-10.2q-.13-2.57-.29-5.14c-.31-4.83-.25-10-1.85-14.61a1.13,1.13,0,0,0-2.17,0,23.84,23.84,0,0,0-.59,3.16c4,2.06,3.23,9.47-2.31,9.47h-.1c-.48,14.9-1.38,30-4.22,44.56-1.4,0-2.79-.08-3.91,0-3.13.09-6.26.13-9.39.22s-6.5.13-9.73.53c0-.13-.07-.26-.11-.39l-.07-.22a34.48,34.48,0,0,1-7.8,1.36,5.13,5.13,0,0,0,.26,1.08c-4.87.16-9.75.19-14.6,0-8.65-.36-18.44-3-27.05-1q-.15-14.55-.54-29.09c-.14-4.91-.52-9.76-.85-14.66-.3-4.55.94-8.72,1.1-13.14,3.15,1.79,7.81,1.29,11.25,1.21,3.6-.09,6.87-.86,10.41-1.28,3.77-.44,7.67,0,11.46.1q3.05.07,6.11.17c0,.59,0,1.18.06,1.77a15.15,15.15,0,0,1,4.19-.32c-.06-.44-.12-.88-.18-1.31,10.42.39,20.87.9,31.27,1,.67-.38,1.49,9.39,2.45,9.39.32,0,4.09-.06,4.38,0,3.25-1.92-1-18.23-5.59-17.88-7,.53-13.86,1.52-20.82,2.09-7.34.6-14.53.65-21.87.86-3.7.11-7.47.49-11.15.05-3.26-.38-6.38-1.2-9.68-1.39-4.15-.25-10.08-1.22-13.46,1.67l-.24-.16a2.9,2.9,0,0,0-4.33,2.48c0,5,1.76,9.58,1.6,14.66-.16,4.9-.39,9.75-.36,14.66q.07,14.66.43,29.32a2.15,2.15,0,0,0,2.57,2.08,1.2,1.2,0,0,0,.48.47,28.2,28.2,0,0,0,10,2.81,1,1,0,0,0,.78,1.16c23.54,4.62,47.48,6.63,71.46,4a4.12,4.12,0,0,0,3.34-5.47,2.54,2.54,0,0,0,1-2.36A306.69,306.69,0,0,1,207.44,154.7Z"/><path class="cls-8" d="M143.27,202.7c-11.43,0-21.65-.24-31.25-.73a3.58,3.58,0,0,1-3.38-3.32c-2-28-2.17-56.41-2.19-83.13a3.77,3.77,0,0,1,3.69-3.75c9.22-.16,18.62-.4,27.71-.64,15.75-.41,32-.84,48.07-.84,8.33,0,15.92.11,23.21.34a5.22,5.22,0,0,1,5,5.3c-.27,13.74-.4,25.06-.4,35.65,0,17.12.34,32.35,1,46.58a3,3,0,0,1-3,3.18c-8.32.15-16.78.37-25,.59C172.58,202.31,157.81,202.7,143.27,202.7Zm-31.64-4.27a.58.58,0,0,0,.54.53c9.54.49,19.71.73,31.09.73,14.5,0,29.25-.39,43.52-.77,8.19-.22,16.66-.44,25-.59-.68-14.3-1-29.59-1-46.76,0-10.61.13-22,.4-35.71a2.21,2.21,0,0,0-2.13-2.25c-7.26-.23-14.82-.34-23.12-.34-16,0-32.26.42-48,.83-9.1.24-18.5.48-27.73.64a.76.76,0,0,0-.74.75C109.47,142.18,109.65,170.54,111.63,198.44Z"/><path class="cls-8" d="M204.26,135v-.22l.11-14.09a1.5,1.5,0,0,0-1.62-1.51c-13.05,1-26.84,1.49-43.37,1.49-13.78,0-27.76-.34-41.28-.66l-.77,0a1.45,1.45,0,0,0-1.08.42,1.5,1.5,0,0,0-.46,1.06q0,1.93,0,3.86c0,11.3.56,22.8,1.1,33.92.46,9.39.93,19.09,1.06,28.58a1.5,1.5,0,0,0,1.46,1.48c5.6.15,11.2.34,16.79.53,12.61.43,25.65.87,38.49.87,10.31,0,19.54-.28,28.2-.87a1.5,1.5,0,0,0,1.4-1.52c-.12-6.9-.18-14.29-.18-22.59C204.08,155.54,204.17,145.12,204.26,135Zm-3,2.2c-.08,9.39-.16,19-.16,28.54,0,7.74.05,14.7.16,21.21-8.18.52-16.89.77-26.57.77-12.78,0-25.8-.44-38.39-.87-5.12-.17-10.24-.35-15.37-.49-.16-9.08-.6-18.31-1-27.25-.54-11.08-1.1-22.55-1.1-33.78q0-1.15,0-2.3c13.31.32,27,.65,40.6.65,15.93,0,29.32-.44,42-1.37Z"/><path class="cls-8" d="M135.27,219.73a1.5,1.5,0,0,1-1.46-1.17,12.68,12.68,0,0,1-.36-2.75c0-4.49,4-7.63,11.9-9.34-.11-1.55-.17-3.25-.19-5.24a1.5,1.5,0,0,1,1.48-1.52,1.47,1.47,0,0,1,1.52,1.48c0,2.5.12,4.52.29,6.36a1.5,1.5,0,0,1-1.22,1.61c-4,.75-10.78,2.62-10.78,6.66a6.62,6.62,0,0,0,.06.86c10.26-.5,28.8-.88,29.78-.88,4.06,0,8.16.12,12.12.24,4.16.13,8.48.26,12.68.24-.56-4.38-3.55-6.24-9.95-6.35a1.5,1.5,0,0,1-1.47-1.46c0-1.08-.07-2.15-.11-3.23-.06-1.54-.11-3.07-.14-4.61a1.5,1.5,0,0,1,1.47-1.53,1.53,1.53,0,0,1,1.53,1.47c0,1.52.08,3,.14,4.55q0,.92.07,1.84c4,.21,11.48,1.47,11.56,10.78a1.5,1.5,0,0,1-1.48,1.51c-4.8.06-9.68-.09-14.39-.23-3.94-.12-8-.24-12-.24-1,0-21.08.42-30.93.94Z"/><path class="cls-11" d="M129,138.84a10.94,10.94,0,0,1,.79-5.32c1.84-3.52,6.63-3.95,10.6-3.91l40,.35c3.47,0,7.31.2,9.81,2.61,2.69,2.59,2.83,6.78,2.79,10.51l-.28,27.33c0,2.71-.1,5.58-1.57,7.87-2.68,4.19-8.57,4.52-13.54,4.39l-36.89-.93c-4.37-.11-10.43,1.56-11-3.94-.59-6.08-.24-12.41-.35-18.52C129.28,152.47,129,145.65,129,138.84Z"/><path class="cls-11" d="M129.59,142.71a370.36,370.36,0,0,1,62.61,1"/><path class="cls-11" d="M135.86,136.12a1.22,1.22,0,1,1,0,.15Z"/><path class="cls-11" d="M142.86,136.12a1.22,1.22,0,1,1,0,.15Z"/><path class="cls-11" d="M149.86,136.12a1.22,1.22,0,1,1,0,.15Z"/><path class="cls-12" d="M152.62,147.62l.25,8.84a3,3,0,0,1-.4,2c-.59.75-1.72.74-2.68.66-3.86-.32-11.57,0-11.57,0s-2.07-10.16.92-11.37C140.27,147.28,152.62,147.62,152.62,147.62Z"/><path class="cls-12" d="M137.39,164.82c5.17-.32,42.07-.47,47.24-.78"/><path class="cls-12" d="M137.68,170.23c7.89-.41,38,.34,45.93-.07"/><path class="cls-12" d="M137,175.81c8.56.19,38.86.1,47.41.29"/><path class="cls-12" d="M160.75,156.41c7.89-.41,15.78,1.06,23.67.64"/></g><path class="cls-8" d="M195.14,153.36c-11.58,0-21.31-4.71-26.69-12.93a1.5,1.5,0,0,1,.08-1.76c5.6-7,13.05-14.49,30.78-14.49,12.8,0,19.26,6,25.28,12.65a1.5,1.5,0,0,1,.07,1.93A37.23,37.23,0,0,1,195.14,153.36Zm-23.56-13.68c4.93,6.8,13.45,10.68,23.56,10.68a34.19,34.19,0,0,0,26.36-12.47c-5.48-5.95-11.18-10.71-22.19-10.71C183.62,127.18,176.86,133.23,171.58,139.68Z"/><path class="cls-8" d="M197.41,149.84h-.36a10.79,10.79,0,0,1-4-20.42,13,13,0,0,1,2.86-.88,8.76,8.76,0,0,1,1.77-.19,11.37,11.37,0,0,1,7.71,3.29,10.24,10.24,0,0,1,3.06,7.39,11,11,0,0,1-3.44,7.68A10.82,10.82,0,0,1,197.41,149.84Zm.28-18.49a5.85,5.85,0,0,0-1.2.12,10.32,10.32,0,0,0-2.21.66,7.79,7.79,0,0,0,2.86,14.7,7.79,7.79,0,0,0,5.74-2.27,8.06,8.06,0,0,0,2.53-5.52,7.29,7.29,0,0,0-2.17-5.27A8.37,8.37,0,0,0,197.7,131.35Z"/><path class="cls-8" d="M197.24,142.89a4.25,4.25,0,0,1-4.44-4.15,5.64,5.64,0,0,1,2-3.87,1.5,1.5,0,0,1,1.95-.15,4.09,4.09,0,0,1,2,.3,4.22,4.22,0,0,0,.5.15c1.44,0,2.6,1.72,2.6,3.9S199.75,142.89,197.24,142.89Zm.57-3.14Zm-1-.75a3.4,3.4,0,0,0,.55.47,1.5,1.5,0,0,1,1.42-.19.43.43,0,0,0,.12-.21,2.37,2.37,0,0,0-.17-1,6.62,6.62,0,0,1-.89-.26c-.15-.05-.37-.13-.51-.16A1.83,1.83,0,0,0,196.77,139Zm-.07-.1"/></g></svg>