<svg xmlns="http://www.w3.org/2000/svg" xmlns:xlink="http://www.w3.org/1999/xlink" viewBox="0 0 310 310"><defs><style>.cls-1,.cls-5{opacity:0.1;}.cls-2,.cls-3,.cls-4{fill:none;stroke:#000;stroke-linecap:round;stroke-miterlimit:10;stroke-width:2px;}.cls-3{stroke-dasharray:7.99 6;}.cls-4{stroke-dasharray:8 6;}.cls-5{mix-blend-mode:multiply;}.cls-6{fill:#fff;}.cls-7{fill:#e0dfe6;}.cls-8{fill:#525d7d;}</style><symbol id="frame" data-name="frame" viewBox="0 0 277.17 291.17"><g class="cls-1"><polyline class="cls-2" points="236.53 232.63 236.53 236.63 232.53 236.63"/><line class="cls-3" x1="226.53" y1="236.63" x2="47.64" y2="236.63"/><polyline class="cls-2" points="44.65 236.63 40.65 236.63 40.65 232.63"/><line class="cls-4" x1="40.65" y1="226.63" x2="40.64" y2="47.54"/><polyline class="cls-2" points="40.65 44.54 40.65 40.54 44.65 40.54"/><line class="cls-3" x1="50.64" y1="40.54" x2="229.53" y2="40.54"/><polyline class="cls-2" points="232.53 40.54 236.53 40.54 236.53 44.54"/><line class="cls-4" x1="236.53" y1="50.54" x2="236.53" y2="229.63"/></g><g class="cls-5"><polygon points="277.17 152.66 138.66 291.17 0 152.51 138.51 14 277.17 152.66"/></g><polygon class="cls-6" points="277.17 138.66 138.66 277.17 0 138.51 138.51 0 277.17 138.66"/></symbol></defs><title>s3_06</title><g id="icons"><use id="frame-3" data-name="frame" width="277.17" height="291.17" transform="translate(16.41 9.41)" xlink:href="#frame"/><path class="cls-7" d="M129.47,114.09c-8.16,7.35-12.19,19.27-14.79,29.63-1,3.85,5,5.5,5.94,1.64,2.53-10.51,7.66-19.93,10.63-30.23A1.08,1.08,0,0,0,129.47,114.09Z"/><path class="cls-7" d="M182.74,186.57a4.47,4.47,0,0,0-.34-1.14,47.93,47.93,0,0,1-3.35-11.33c-.52-2.9-4.95-2.11-5,.68a46,46,0,0,0,1.39,11.91c-.48.1-1,.23-1.44.33.36-3.07-.64-6.86-1.47-9.59a3.58,3.58,0,0,0-1.32-2,3.93,3.93,0,0,0,3-4.29C173,159.62,170,148,167.12,136.72c-2.78-10.83-5.57-22.8-11.54-32.41a1.37,1.37,0,0,0-2.53.69c.12,11,3.4,22.27,5.58,33,2.32,11.4,3.77,23.09,6.44,34.39a4.13,4.13,0,0,0,.52,1.22,3.61,3.61,0,0,0-2.5.34c-1.15.59-3.36-15.32-3.55-16.67-.88-6.35-1.75-12.7-2.65-19q-1.27-9-2.77-18c-.93-5.62-1.55-11.74-3.94-17a1.3,1.3,0,0,0-2.35.31c-1.33,7.85.5,16.6,1.36,24.45.91,8.38,2,16.74,3,25.11.93,7.46.36,32.55,13.84,27.56.19,1.12.39,2.24.55,3.37.05.32.08.65.12,1a3.14,3.14,0,0,0-1.54.36l-1.95.08c-1.62.08-3.25.19-4.87.29a93.42,93.42,0,0,0-16.79,2.33.91.91,0,0,0,0,1.73l.27.05c-.58,0-1.17-.05-1.74-.1a2.22,2.22,0,0,0-1.91,3.32c3.57,5.54,11.81,4.64,17.62,4.63a117.91,117.91,0,0,0,25.63-3.12C185.64,193.73,185.43,188.62,182.74,186.57Z"/><path class="cls-7" d="M146.44,164.32a73.2,73.2,0,0,1-1.19-7.7c-.19-2-2.07-4.2-4.34-3.3-5.81,2.3-12.92,1.55-19.07,2.41-1.14.16-1,1.88,0,2.15,5.41,1.51,11,.95,16.5,1.62q0,1.18.15,2.35c-2.76-1.08-5.8-1.26-8.76-1.54s-6.28-.59-9.19.25a1.72,1.72,0,0,0-.41,3.11c.34.22.7.41,1.06.6-.55.81-1.08,1.63-1.61,2.41-1.51,2.23-3.06,4.43-4.5,6.7a3.24,3.24,0,0,0,.15,4,4,4,0,0,0-.71,1.79c-.79-.78-1.84-1.44-2.53-2.19,3.1-5.84,6.93-12.29,7.69-18.72a1,1,0,0,0-1.57-.9c-2.88,2.12-4.83,5.09-6.92,8s-6.77,7.58-7.16,11.19a7,7,0,0,0,3.08,6l.71.62-.08.23a4.07,4.07,0,0,0-.49,2.1,93.88,93.88,0,0,0-11.55,1A.94.94,0,0,0,95,187.6c-4.19.41-8.39.77-12.56,1.29-.9.11-1.34,1.59-.24,1.76,1.29.2,2.59.36,3.88.51A62.94,62.94,0,0,0,76.45,193a1.12,1.12,0,0,0,.3,2.19c13.77,1.69,27.52,3.5,41.34,4.77a4.34,4.34,0,0,0,4.19-3.19,64.83,64.83,0,0,0,1-16.76,4.46,4.46,0,0,0-1.53-3.1,5.22,5.22,0,0,0,.3-.59,107.41,107.41,0,0,0,4.06-10.13l1.62.56c2.71,1,5.55,2.59,8.38,3a4.39,4.39,0,0,0,4.35-1.51A3.84,3.84,0,0,0,146.44,164.32Z"/><path class="cls-7" d="M131.93,121.13a83.49,83.49,0,0,0-4.08,9c-.64,1.6-1.3,3.2-1.91,4.82-.17.45-.37,1.36-.61,2.26l-.5.15a3.65,3.65,0,0,0-2.58,3.39,3.91,3.91,0,0,0,7.26,2.21,3.81,3.81,0,0,0,.88-2.6c.48-2.51.38-5.45.79-7.78.64-3.61,1.67-7.16,2.52-10.73A1,1,0,0,0,131.93,121.13Z"/><path class="cls-7" d="M239.16,155.86c-2.18-8.6-7-17.14-15.16-21.23a1.51,1.51,0,0,0-1.82,2.36,45,45,0,0,1,9.14,18.21,49.21,49.21,0,0,1,1.06,11.11c0,1,0,2-.07,3,.24-16.75-7.51-35.75-24-41.63-1-.35-1.54,1-.94,1.62,5.71,6.4,11,12.55,13.9,20.8A42.13,42.13,0,0,1,223,173a14.19,14.19,0,0,1-1.78.75,2.72,2.72,0,1,0,1.45,5.24c.42-.09.84-.19,1.26-.31a5.09,5.09,0,0,0,.54.44l-1.45.45c-1.49.44-6,2.76-7.13,1.31a1.36,1.36,0,0,0-.89-.47c0-.13,0-.26.05-.39a3.86,3.86,0,0,0-2.52-4,34.31,34.31,0,0,0,2.68-2.19c3.18-2.9-2-7.89-4.63-4.63-1.33,1.67-2.56,3.4-3.92,5-1.13,1.36-3,2.93-3.43,4.66a1.28,1.28,0,0,0,1.22,1.6,4.17,4.17,0,0,0,1.14-.19c-3.16,6.9-13.53.67-16.67-4.14a1.52,1.52,0,0,0-2.75.36c-1.69,7.33,6,13.09,12.24,14.93a12.94,12.94,0,0,0,15.24-6.49c3.12,4.25,16,.83,19.38-.08a3.68,3.68,0,0,0,2.26-1.63,3.82,3.82,0,0,0,2.52-.66c3.53-2.34,3-6.67,3.09-10.49A61.67,61.67,0,0,0,239.16,155.86Z"/><path class="cls-7" d="M204.6,145A16,16,0,0,0,185,155.35a14.23,14.23,0,0,0,13.61,18.35c5.54,0,5.52-8.44,0-8.59-5.26-.15-7.88-5-6.39-9.84,1.67-5.36,7-7.3,12.08-7.95A1.2,1.2,0,0,0,204.6,145Z"/><path class="cls-8" d="M102,192.76c-5.09,0-10.26-.14-15.26-.27s-10.11-.27-15.15-.27H71.1a1.5,1.5,0,0,1-1.5-1.51V190c0-3.13-.16-6.33-.31-9.43-.06-1.14-.12-2.29-.17-3.43a1.5,1.5,0,0,1,1.41-1.56c2.51-.15,5-.25,7.47-.35s5.11-.21,7.67-.37a668.81,668.81,0,0,0,28.75-63.74,84.16,84.16,0,0,1-5-9.55,1.5,1.5,0,0,1,1.47-2.08c7.14.44,14.88.66,23.66.66,4.6,0,9.47-.06,15.33-.18a1.51,1.51,0,0,1,1.51,1.26c3.91,24.55,8.5,48.57,14,73.38,1.34,0,2.71-.08,4-.14s2.47-.11,3.69-.13a1.48,1.48,0,0,1,1.52,1.31c.22,1.79.47,3.58.72,5.37.37,2.69.76,5.47,1,8.22a1.5,1.5,0,0,1-1.39,1.65c-4.65.31-9.49.47-14.81.47-8.78,0-17.43-.42-25.54-.85a1.5,1.5,0,0,1-1.4-1.23,66,66,0,0,1-.94-10.86,1.5,1.5,0,0,1,1.23-1.5c2.55-.46,5-.82,7.43-1.17-1.46-5-1.77-10.26-2.06-15.38-5.56.05-11.16-.2-16.56-.46-2.54,5.59-5.47,11-8.32,16.32l-.4.75c1.46.44,2.92.88,4.41,1.29a1.5,1.5,0,0,1,1.09,1.62c-.11.92-.22,1.82-.34,2.73-.35,2.79-.69,5.43-.8,8.2a1.5,1.5,0,0,1-1.39,1.43C112.29,192.6,107.5,192.76,102,192.76Zm-29.45-3.53c4.77,0,9.59.14,14.27.27,5,.13,10.13.27,15.18.27,4.84,0,9.14-.13,13.1-.39.16-2.43.46-4.8.75-7.11q.09-.71.18-1.43l-3.49-1-1.5-.45a1.5,1.5,0,0,1-.89-2.15l1.28-2.37c3-5.53,6.05-11.24,8.64-17.05a1.47,1.47,0,0,1,1.44-.89c6.14.29,12.53.6,18.83.48a1.51,1.51,0,0,1,1.52,1.41l.08,1.3c.31,5.55.64,11.3,2.46,16.42a1.5,1.5,0,0,1-1.2,2l-1.22.17c-2.14.31-4.34.62-6.6,1a63.35,63.35,0,0,0,.67,7.93c7.72.4,15.91.78,24.18.78,4.65,0,8.94-.12,13-.36-.26-2.2-.56-4.41-.86-6.57-.19-1.35-.38-2.71-.55-4.06l-2.27.09c-1.63.07-3.32.15-5,.15h-.39a1.5,1.5,0,0,1-1.45-1.17c-5.55-24.86-10.17-48.9-14.1-73.45-5.3.1-9.81.15-14.09.15-7.84,0-14.86-.17-21.37-.52,1.31,2.72,2.8,5.31,4.15,7.6a1.5,1.5,0,0,1,.11,1.3A672.47,672.47,0,0,1,88,177a1.5,1.5,0,0,1-1.23.81c-2.88.19-5.79.31-8.6.42-1.95.08-3.94.16-5.94.27q0,1,.1,1.93C72.42,183.31,72.57,186.28,72.59,189.23Z"/><path class="cls-8" d="M139.68,148.78c-3.9,0-7.82-.29-11.61-.56-2.53-.19-5.15-.38-7.72-.48a1.5,1.5,0,0,1-1.37-2c2.46-7.53,5.24-15,7.92-22.21,1.32-3.55,2.63-7.09,3.91-10.62a1.5,1.5,0,0,1,2.88.2c1.51,7.07,3.69,14.07,5.79,20.83,1.31,4.21,2.66,8.56,3.84,12.89a1.5,1.5,0,0,1-1.4,1.89Q140.8,148.78,139.68,148.78Zm-17.23-3.95c2,.11,3.92.25,5.84.39,3.81.28,7.76.58,11.62.56-1-3.66-2.18-7.35-3.29-10.93-1.64-5.27-3.32-10.67-4.7-16.17q-1.09,3-2.2,5.92C127.26,131.2,124.74,138,122.45,144.84Z"/><path class="cls-8" d="M198,180.95c-18,0-22-16.63-22-22.45,0-10,7.41-17.68,15.12-22.06a31,31,0,0,0-11.69-2.14,1.5,1.5,0,0,1-1.47-1.45q-.05-1.46-.1-2.92c-.06-1.91-.12-3.82-.21-5.71a1.5,1.5,0,0,1,1.43-1.57c3-.13,5.43-.2,7.76-.2,31.41,0,46.68,14.69,46.68,44.89,0,3.81-.2,7.56-.41,11a1.5,1.5,0,0,1-1.35,1.4l-1.09.11c-4.62.45-9.4.92-14,1a1.5,1.5,0,0,1-1.51-1.21,29,29,0,0,0-1.54-5.17C211,178.24,208.06,180.95,198,180.95ZM181,131.34c6,.27,10.68,1.54,14.24,3.86a1.5,1.5,0,0,1-.18,2.61c-11.78,5.56-16,14.33-16,20.68a23.2,23.2,0,0,0,3.62,11.61c3.4,5.21,8.57,7.85,15.37,7.85,9.71,0,11.36-2.45,14.09-6.51l.52-.77A1.48,1.48,0,0,1,214,170a1.5,1.5,0,0,1,1.24.83,33.08,33.08,0,0,1,2.59,7.06c4.09-.17,8.31-.58,12.41-1,.18-3.07.33-6.31.33-9.58,0-28.58-13.88-41.89-43.68-41.89-1.88,0-3.85,0-6.13.13.06,1.41.1,2.83.15,4.25Q180.94,130.59,181,131.34Z"/><path class="cls-8" d="M200.09,169.45a10.89,10.89,0,0,1-10.79-10.68,12.66,12.66,0,0,1,4.79-9.6,11.74,11.74,0,0,1,5.16-2.8,10.88,10.88,0,0,1,1.79-.15c6.53,0,11.59,5.55,11.59,10.33C212.62,158.16,210.13,169.45,200.09,169.45Zm.95-20.22a7.89,7.89,0,0,0-1.29.11,9.42,9.42,0,0,0-3.75,2.16,9.64,9.64,0,0,0-3.69,7.28,8,8,0,0,0,7.79,7.68c8,0,9.53-9.8,9.53-9.9C209.62,153.23,205.79,149.22,201,149.22Z"/><path class="cls-8" d="M75.42,170h-.07a1.5,1.5,0,0,1-1.43-1.57q.09-2,.17-4a1.5,1.5,0,0,1,3,.12q-.08,2-.17,4A1.5,1.5,0,0,1,75.42,170Zm.48-13a1.51,1.51,0,0,1-1.5-1.54q.06-2,.1-4a1.5,1.5,0,0,1,3,.07q0,2-.1,4A1.5,1.5,0,0,1,75.89,157Zm.27-13a1.5,1.5,0,0,1-1.5-1.52q0-2,0-4a1.5,1.5,0,0,1,3,0q0,2,0,4A1.5,1.5,0,0,1,76.16,144Zm.07-13a1.5,1.5,0,0,1-1.5-1.5q0-2,0-4a1.5,1.5,0,0,1,3,0q0,2,0,4A1.5,1.5,0,0,1,76.23,131Zm-.09-13a1.5,1.5,0,0,1-1.5-1.48q0-1.83-.05-3.67a1.5,1.5,0,0,1,.47-1.11,1.52,1.52,0,0,1,1.14-.41l.32,0a1.5,1.5,0,0,1,1.09,2.41q0,1.36,0,2.73A1.5,1.5,0,0,1,76.14,118Zm9.26-3.41a1.5,1.5,0,0,1,0-3l4,0a1.5,1.5,0,0,1,.05,3C88.09,114.59,86.75,114.61,85.41,114.61Zm17-.13c-1.28,0-2.53,0-3.78,0H98.4a1.5,1.5,0,0,1,0-3h.22c1.28,0,2.55,0,3.82,0a1.5,1.5,0,0,1,0,3Z"/><path class="cls-8" d="M206.66,121.86a1.5,1.5,0,0,1-1.5-1.5v-4a1.5,1.5,0,1,1,3,0v4A1.5,1.5,0,0,1,206.66,121.86Zm-22.11-7.3a1.5,1.5,0,0,1,0-3l4,0a1.5,1.5,0,0,1,0,3Zm-9-.11c-1.39,0-2.73-.1-4.08-.17a1.5,1.5,0,1,1,.16-3q2,.11,4,.17a1.5,1.5,0,0,1,0,3Zm22-.16a1.5,1.5,0,0,1,0-3l4-.13a1.5,1.5,0,0,1,.1,3Zm-35-.73h-.17q-2-.22-4-.5a1.5,1.5,0,0,1,.41-3q2,.27,3.93.49a1.5,1.5,0,0,1-.16,3Z"/><path class="cls-8" d="M204.42,210.51l-4-.06a1.5,1.5,0,0,1-1.48-1.52,1.52,1.52,0,0,1,1.52-1.48l4,.06a1.5,1.5,0,0,1,0,3Zm-13-.17-4,0a1.5,1.5,0,0,1,0-3l4,0a1.5,1.5,0,0,1,0,3Zm-13-.08h-4a1.5,1.5,0,0,1,0-3h4a1.5,1.5,0,0,1,0,3Zm-13,0h-4a1.5,1.5,0,0,1,0-3h4a1.5,1.5,0,0,1,0,3Zm-13,0h-4a1.5,1.5,0,0,1,0-3h4a1.5,1.5,0,0,1,0,3Zm-13,0h-4a1.5,1.5,0,0,1,0-3h4a1.5,1.5,0,0,1,0,3Zm-13-.06-4,0a1.5,1.5,0,0,1,0-3l4,0a1.5,1.5,0,0,1,0,3Zm-13-.13-4-.06a1.5,1.5,0,0,1,0-3l4,.06a1.5,1.5,0,0,1,0,3Zm-13-.23-4-.09a1.5,1.5,0,0,1-1.46-1.54,1.52,1.52,0,0,1,1.54-1.46l4,.09a1.5,1.5,0,0,1,0,3Zm-13-.35h-.05l-4-.14a1.5,1.5,0,1,1,.11-3l4,.14a1.5,1.5,0,0,1,0,3ZM77,206.37a1.5,1.5,0,0,1-1.5-1.46c0-1.48-.1-2.76-.19-3.93a1.5,1.5,0,1,1,3-.21c.09,1.21.15,2.54.19,4.06A1.51,1.51,0,0,1,77,206.37ZM207.27,205a1.5,1.5,0,0,1-1.5-1.46c0-.68,0-1.37,0-2.05s0-1.34,0-2a1.5,1.5,0,0,1,3,0c0,.66,0,1.31,0,2s0,1.32,0,2A1.51,1.51,0,0,1,207.27,205Zm-.43-13a1.5,1.5,0,0,1-1.48-1.25,18,18,0,0,0-1-3.56,1.5,1.5,0,1,1,2.79-1.09,20.85,20.85,0,0,1,1.12,4.15,1.5,1.5,0,0,1-1.23,1.73Z"/></g></svg>