<svg xmlns="http://www.w3.org/2000/svg" xmlns:xlink="http://www.w3.org/1999/xlink" viewBox="0 0 310 310"><defs><style>.cls-1,.cls-5{opacity:0.1;}.cls-2,.cls-3,.cls-4{fill:none;stroke:#000;stroke-linecap:round;stroke-miterlimit:10;stroke-width:2px;}.cls-3{stroke-dasharray:7.99 6;}.cls-4{stroke-dasharray:8 6;}.cls-5{mix-blend-mode:multiply;}.cls-6{fill:#fff;}.cls-7{fill:#e0dfe6;}.cls-8{fill:#525d7d;}</style><symbol id="frame" data-name="frame" viewBox="0 0 277.17 291.17"><g class="cls-1"><polyline class="cls-2" points="236.53 232.63 236.53 236.63 232.53 236.63"/><line class="cls-3" x1="226.53" y1="236.63" x2="47.64" y2="236.63"/><polyline class="cls-2" points="44.65 236.63 40.65 236.63 40.65 232.63"/><line class="cls-4" x1="40.65" y1="226.63" x2="40.64" y2="47.54"/><polyline class="cls-2" points="40.65 44.54 40.65 40.54 44.65 40.54"/><line class="cls-3" x1="50.64" y1="40.54" x2="229.53" y2="40.54"/><polyline class="cls-2" points="232.53 40.54 236.53 40.54 236.53 44.54"/><line class="cls-4" x1="236.53" y1="50.54" x2="236.53" y2="229.63"/></g><g class="cls-5"><polygon points="277.17 152.66 138.66 291.17 0 152.51 138.51 14 277.17 152.66"/></g><polygon class="cls-6" points="277.17 138.66 138.66 277.17 0 138.51 138.51 0 277.17 138.66"/></symbol></defs><title>s4_02</title><g id="icons"><use id="frame-3" data-name="frame" width="277.17" height="291.17" transform="translate(16.41 9.41)" xlink:href="#frame"/><path class="cls-7" d="M184.83,133.43a3.29,3.29,0,0,0-5.23.06,26.48,26.48,0,0,0-4.54-5.71.94.94,0,0,0-1.55.9c2.72,9.83,6,20.22-2.93,27.84a3.39,3.39,0,0,0-.56,4.52,19.12,19.12,0,0,1-6.22,2.58c-6.39,1.46-16.75,1.18-21.3-4.27-.82-1-2.46.07-2.1,1.22,1.95,6.24,7.86,9.23,14.15,10.22l-2.48.49c-1,.2-.67,1.62.23,1.72,12.23,1.39,24.75.92,33.51-9C193.9,154.78,192.58,142.29,184.83,133.43Z"/><path class="cls-7" d="M223.4,161.36c-1.36-12.79-2.29-27.5-7.46-39.38-.16-.37-.76-.25-.85.11-2.38,9.73-1.79,20.57-1.15,30.86a130.57,130.57,0,0,0-3,18.86c-.28,3-.54,6-.69,9.14l-1.47.17a3.77,3.77,0,0,0-3.62-2.75c-15-.45-30-1.14-45.08-1.52-14.5-.36-29.08-1.1-43.37,1.71a.83.83,0,0,0,0,1.58c14.25,3.05,28.86,2.89,43.37,3.5q9.12.38,18.23.86c-5.08.51-10.16,1-15.24,1.32-7.75.55-15.46.59-23.22.47s-16.22-1.37-23.73.65a1.22,1.22,0,0,0-.29,2.2c6.65,3.23,14.8,3.65,22.06,4.37,2.33.23,4.66.4,7,.53l-8.31,0c-8.41,0-17-.5-25.24,1.72a1.71,1.71,0,0,0,0,3.27c7.78,2.64,16.13,2.69,24.25,3.07,3.87.18,7.73.32,11.6.46-7.3,2.3-14.48,5.12-20.49,9.22a.85.85,0,0,0,.43,1.58c12.51-.17,25.43-4.26,37.69-6.56a3.71,3.71,0,0,0,3.17-3.58c15.64.44,31.3.56,46.94.65a5.44,5.44,0,0,0,.69,0c2.4.89,5.4.13,6.2-3.06C225,187.77,224.81,174.54,223.4,161.36Zm-61.08,32.75h-.72l.48,0c16.06-.75,32.12-2.39,48.16-3.62.08,1.25.19,2.5.36,3.72C194.51,194.23,178.42,194.09,162.32,194.11Z"/><path class="cls-8" d="M193.42,116.49a50.35,50.35,0,0,1-5.16-.53c-8.18-.84-16.64-1.71-25-2.51-11.16-1.06-22.43-1.19-33.33-1.31-9.09-.1-18.48-.21-27.75-.86-1.33,18.34-2,34.91-2,50.6,0,4.46.05,8.92.16,13.29,54.87.63,93.74,2.66,109.43,3.62-.06-3.4-.08-7-.08-10.6,0-13.53.81-27.26.81-40.64,0-2.07,3-2.46,3,0,0,13.39-.81,27.12-.81,40.64,0,4.2,0,8.3.11,12.17a1.5,1.5,0,0,1-1.5,1.53h-.09c-14.6-.91-54.78-3.09-112.35-3.73a1.5,1.5,0,0,1-1.48-1.46c-.13-4.84-.2-9.83-.2-14.81,0-16.19.68-33.3,2.09-52.31a1.5,1.5,0,0,1,1.61-1.38c9.65.74,19.51.85,29.05,1,11,.12,22.3.25,33.58,1.33,8.39.8,16.85,1.67,25,2.51a47.38,47.38,0,0,0,4.85.5C195,113.47,194.89,116.49,193.42,116.49Z"/><path class="cls-8" d="M210.86,188.95l-13.71-.13c-31.44-.28-63.95-.56-95.95-2.8a1.5,1.5,0,1,1,.21-3c31.91,2.23,64.37,2.52,95.76,2.79l13.7.13a1.5,1.5,0,0,1,0,3Z"/><path class="cls-8" d="M158.63,196.48c-18.13,0-36.23-.66-53.78-2a1.5,1.5,0,0,1,.22-3c17.48,1.3,35.5,2,53.55,2,16.3,0,33-.54,49.58-1.6a1.5,1.5,0,1,1,.19,3C191.73,195.94,175,196.48,158.63,196.48Z"/><path class="cls-8" d="M91.82,162.38a1.5,1.5,0,0,1-1.39-.93c-2.15-5.26-4.64-10.64-7.84-17a1.5,1.5,0,0,1,.63-2c3.26-1.74,6.61-3.39,9.85-5,1.83-.91,3.66-1.81,5.48-2.73a1.5,1.5,0,0,1,1.35,2.68c-1.83.93-3.67,1.83-5.51,2.74-2.79,1.38-5.66,2.8-8.47,4.27,2.92,5.82,5.24,10.89,7.27,15.86a1.5,1.5,0,0,1-1.39,2.07Z"/><path class="cls-8" d="M119.82,216.39a1.5,1.5,0,0,1-1.3-.75l-.76-1.32a129.08,129.08,0,0,1-7.61-14.52,1.5,1.5,0,1,1,2.76-1.16,125,125,0,0,0,7.44,14.18c4.48-2.46,9.17-4.51,13.72-6.5a142,142,0,0,0,15-7.3,1.5,1.5,0,0,1,1.52,2.59,144.24,144.24,0,0,1-15.36,7.46,141.5,141.5,0,0,0-14.7,7.12A1.5,1.5,0,0,1,119.82,216.39Z"/><path class="cls-8" d="M215.61,171.88a1.5,1.5,0,0,1-.7-2.83c2.48-1.3,5-2.73,7.34-4.1l1.74-1A271.46,271.46,0,0,1,210.32,139a1.5,1.5,0,1,1,2.72-1.27,280.38,280.38,0,0,0,14.31,26,1.5,1.5,0,0,1-.54,2.08l-3.06,1.75c-2.42,1.39-4.92,2.83-7.44,4.16A1.5,1.5,0,0,1,215.61,171.88Z"/><path class="cls-8" d="M155.7,112.86a1.5,1.5,0,0,1-.63-2.86c9.52-4.42,19.69-9.42,33-16.22a1.5,1.5,0,0,1,1.94.51c1.75,2.66,2.73,4.81,3.77,6.54a1.5,1.5,0,1,1-2.57,1.54c-1.07-1.78-1.56-3.07-3-5.31-12.72,6.51-22.59,11.36-31.86,15.65A1.49,1.49,0,0,1,155.7,112.86Z"/><path class="cls-8" d="M159.56,173c-16.59,0-28.18-11.28-28.18-27.43,0-15,10-23.86,19.35-25.8a19.7,19.7,0,0,1,4-.38c19.45,0,29.94,13.51,29.94,26.22C184.71,160.46,173.19,173,159.56,173Zm-4.79-50.61a16.81,16.81,0,0,0-3.44.31c-8.17,1.7-17,9.58-17,22.87,0,14.61,10.12,24.43,25.18,24.43,13.25,0,22.15-12.61,22.15-24.39C181.71,134.36,172.27,122.4,154.77,122.4Z"/><path class="cls-8" d="M118.87,167c-1.58,0-3.2-.12-4.77-.23-1.22-.09-2.48-.18-3.7-.21a1.5,1.5,0,0,1-1.46-1.5V152.12a1.5,1.5,0,0,1,3,0v11.49l2.37.16c1.58.11,3.08.22,4.56.22.66,0,1.25,0,1.81-.06a1.5,1.5,0,0,1,.23,3C120.27,167,119.6,167,118.87,167Z"/><path class="cls-8" d="M110.08,133.54a1.5,1.5,0,0,1-1.5-1.5V120.11A1.5,1.5,0,0,1,109,119a1.52,1.52,0,0,1,1.11-.41l2,.12c2,.12,3.87.23,5.81.23,1,0,2,0,2.92-.1a1.5,1.5,0,1,1,.21,3c-1,.07-2,.11-3.14.11-2,0-4-.12-6-.23l-.44,0V132A1.5,1.5,0,0,1,110.08,133.54Z"/><path class="cls-8" d="M202.1,137.19H202a1.5,1.5,0,0,1-1.38-1.61c.07-.93.11-1.9.11-3.06,0-.92,0-1.84,0-2.75s0-1.86,0-2.8c0-.12,0-.25,0-.37a72.29,72.29,0,0,1-10.44-.74,1.5,1.5,0,1,1,.46-3,74.82,74.82,0,0,0,11.52.71,1.5,1.5,0,0,1,1.49,1.56c0,.6,0,1.2,0,1.8,0,.91,0,1.82,0,2.73s0,1.88,0,2.82c0,1.24,0,2.29-.11,3.29A1.5,1.5,0,0,1,202.1,137.19Z"/><path class="cls-8" d="M189.32,171.88a1.5,1.5,0,0,1-.23-3,24.53,24.53,0,0,1,3.79-.26c1,0,2.06,0,3.09.08,1.29.05,2.65.1,3.83.07,0-1.26.13-2.52.2-3.75.12-1.83.23-3.56.23-5.26a1.5,1.5,0,1,1,3,0c0,1.79-.12,3.65-.23,5.45s-.22,3.36-.23,5a1.5,1.5,0,0,1-1.37,1.48,47.59,47.59,0,0,1-5.54,0c-1,0-2-.08-3-.08a21.73,21.73,0,0,0-3.33.22Z"/><path class="cls-8" d="M157.56,161.91a23.92,23.92,0,0,1-11.08-3,1.5,1.5,0,1,1,1.46-2.62,20.79,20.79,0,0,0,9.62,2.59c5.59,0,8.09-3.22,8.09-6.41,0-2.22-2-2.69-6.6-3.22-4.4-.52-10.43-1.22-10.43-7.55,0-3.11,2.55-7.74,9.58-7.74a20.74,20.74,0,0,1,7.2,1.39,1.5,1.5,0,1,1-1.08,2.8,17.77,17.77,0,0,0-6.12-1.19c-5.2,0-6.58,3.1-6.58,4.74,0,3.3,2.49,3.95,7.78,4.57,4.12.48,9.26,1.08,9.26,6.2C168.65,157,165.18,161.91,157.56,161.91Z"/><path class="cls-8" d="M158.28,137a1.5,1.5,0,0,1-1.5-1.5v-7.11a1.5,1.5,0,1,1,3,0v7.11A1.5,1.5,0,0,1,158.28,137Z"/><path class="cls-8" d="M157.18,167.5a1.5,1.5,0,0,1-1.5-1.5v-5.59a1.5,1.5,0,1,1,3,0V166A1.5,1.5,0,0,1,157.18,167.5Z"/><path class="cls-7" d="M218.73,108.58a.33.33,0,0,0-.12-.08l-.15,0a1.17,1.17,0,0,0-1.28.52c-.85,1.29-1.72,2.58-2.62,3.85a.81.81,0,0,0-1-.14c-1.53.94-3.08,1.88-4.59,2.84a12.9,12.9,0,0,0-3,2,1.5,1.5,0,0,0-.69-1.31c-2.1-1.36-3.77-4.78-5.25-7.49,2.73.35,6.21.71,7.41-1.46,1.56-2.81.44-9.53.12-12.58a.76.76,0,0,0-1.52,0c-.33,2.93.09,6-.29,8.86-.35,2.67-.55,2.49-2.63,2.79-1.54.22-3.88-.26-5.43-.36a1.25,1.25,0,0,0-1.2,1.58c1.63,4,4.39,10.38,8.22,12.89a1.55,1.55,0,0,0-.93,2.26c.91,1.33,1.61,2.76,3.48,2.62s3.37-2.06,4.54-3.27a31.56,31.56,0,0,0,7.51-12.18A1.16,1.16,0,0,0,218.73,108.58Zm-11.64,13s-.4-.28-.74-.54a4.07,4.07,0,0,0,1.94-.57C207.93,120.82,207.35,121.51,207.08,121.53Z"/><path class="cls-7" d="M213.76,96.6a1.22,1.22,0,0,0-2.38-.32c-.88,2.53-1.56,6.88-.25,9.32a1.3,1.3,0,0,0,2.36-.31,13.89,13.89,0,0,0,.12-4.18C213.6,99.61,213.76,98.11,213.76,96.6Z"/><path class="cls-8" d="M219.75,106c-.29-1.42-2.42-1.42-3.83-1.31-1,.07-2,.21-3,.25-.29,0-.58,0-.86,0,.78-3.65.22-8,.15-11.65a.85.85,0,0,0-.84-.84,52,52,0,0,0-6.87.3.66.66,0,0,0-.62.82c.17.63-.37,8.17.16,11.55a25.48,25.48,0,0,0-4.76-.34,11.33,11.33,0,0,0-4.73.58.61.61,0,0,0-.39.51.55.55,0,0,0-.15.68c2.06,4.95,10.8,16,12,16.37,2.11.71,3.4-2.54,4.46-3.79,2.16-2.56,4.34-5,6.29-7.75C217.69,110.09,220,107.42,219.75,106Zm-7.31,7c-1.18,1.64-2.21,3.36-3.36,5-2,2.37-2.21,3.42-3.46,1.83-1.3-1.82-4.11-6-5.41-7.79a42.77,42.77,0,0,0-4.1-5.38c2.94-.21,6,.79,9,.28a.73.73,0,0,0,.58-.9,53.22,53.22,0,0,0,0-11.6,11.49,11.49,0,0,1,4.91-.37c-.07,3.76-.73,7.87-.13,11.52a.34.34,0,0,0,0,.25c.48,1.27,1.88,1.34,3.08,1.38a23.76,23.76,0,0,0,2.46-.15c.3,0,.56.31.39.49C214.85,109.23,213.64,111.34,212.45,113Z"/></g></svg>