<svg xmlns="http://www.w3.org/2000/svg" xmlns:xlink="http://www.w3.org/1999/xlink" viewBox="0 0 310 310"><defs><style>.cls-1,.cls-5{opacity:0.1;}.cls-2,.cls-3,.cls-4{fill:none;stroke:#000;stroke-linecap:round;stroke-miterlimit:10;stroke-width:2px;}.cls-3{stroke-dasharray:7.99 6;}.cls-4{stroke-dasharray:8 6;}.cls-5{mix-blend-mode:multiply;}.cls-6{fill:#fff;}.cls-7{fill:#e0dfe6;}.cls-8{fill:#525d7d;}</style><symbol id="frame" data-name="frame" viewBox="0 0 277.17 291.17"><g class="cls-1"><polyline class="cls-2" points="236.53 232.63 236.53 236.63 232.53 236.63"/><line class="cls-3" x1="226.53" y1="236.63" x2="47.64" y2="236.63"/><polyline class="cls-2" points="44.65 236.63 40.65 236.63 40.65 232.63"/><line class="cls-4" x1="40.65" y1="226.63" x2="40.64" y2="47.54"/><polyline class="cls-2" points="40.65 44.54 40.65 40.54 44.65 40.54"/><line class="cls-3" x1="50.64" y1="40.54" x2="229.53" y2="40.54"/><polyline class="cls-2" points="232.53 40.54 236.53 40.54 236.53 44.54"/><line class="cls-4" x1="236.53" y1="50.54" x2="236.53" y2="229.63"/></g><g class="cls-5"><polygon points="277.17 152.66 138.66 291.17 0 152.51 138.51 14 277.17 152.66"/></g><polygon class="cls-6" points="277.17 138.66 138.66 277.17 0 138.51 138.51 0 277.17 138.66"/></symbol></defs><title>s4_03</title><g id="icons"><use id="frame-3" data-name="frame" width="277.17" height="291.17" transform="translate(16.41 9.41)" xlink:href="#frame"/><path class="cls-7" d="M153.63,159.57a2.53,2.53,0,0,0-4.81-1v0c.35-2.65-1.74-5.72-5.11-4.8-2.09.57-4.1,1.36-6.24,1.8s-4.18.27-5.95,1.34c-1.22.74-1.79,2.86-.5,3.87a10,10,0,0,0,4.63,1.75,2.75,2.75,0,0,0,1.93,1c.77.07,1.56.09,2.34.1a2.61,2.61,0,0,0,5-.21l.52,0a4.17,4.17,0,0,0,2.62-1.25,27.73,27.73,0,0,1-3.48,8.59c-3.88,4.31-8.26,7.17-14.24,7.43-5.67.25-9.76-2.58-15-3.87a1.43,1.43,0,0,0-1.74,1.74c2.08,6.81,11,10.13,17.52,10.23a25.91,25.91,0,0,0,20.62-10.38,3.53,3.53,0,0,0,.14-4.22A29.3,29.3,0,0,0,153.63,159.57Z"/><path class="cls-7" d="M184.39,181.19a3.91,3.91,0,0,0-5.3-1.39,27.55,27.55,0,0,1-3.66,2.31c-1.3.59-2.72.73-4.06,1.2a2.26,2.26,0,0,0-.53,4.08c3.47,1.93,8.94,1.23,12.16-.9A4,4,0,0,0,184.39,181.19Z"/><path class="cls-7" d="M182,156.1a4.42,4.42,0,0,0-6,2.87l-.09.35-.13.28a.19.19,0,0,0,0,0l0,0-.37.33-.25.16,0,.05-.11,0a10.24,10.24,0,0,1-1.53.39,3.29,3.29,0,0,0-2.41,3.17,3.42,3.42,0,0,0,2.41,3.17c4,1.55,8.75-1,10.67-4.59A4.44,4.44,0,0,0,182,156.1Z"/><path class="cls-7" d="M180.1,138.08a3.19,3.19,0,0,0-4.31-1.13l-2.92,2a3,3,0,0,0,3,5.1l3.11-1.64A3.18,3.18,0,0,0,180.1,138.08Z"/><path class="cls-7" d="M217.47,177.54c-2.17-16.22-4.21-32.45-6-48.72-.29-2.71-4.46-2.84-4.33,0q.77,17.47,1.16,34.94c.12,5.48.25,11,.34,16.44,0,2.19,1.4,12.46-1,15.12h0a4.61,4.61,0,0,0,.06-.78c-.57-23.35-1-46.69-3.25-70a1.13,1.13,0,0,0-.67-1,4.34,4.34,0,0,0-.69-2.48c3-.56,5.58-3.09,4.19-6.42a87.24,87.24,0,0,1-4.2-13.26c-1.13-4.69-8.09-3.53-8.23,1.11a13.09,13.09,0,0,0,.19,2.27c.09,1,.19,1.9.3,2.85a5.88,5.88,0,0,1-.07,1c-.3,1.82.37,1.5-1.4,2.65-1.53,1-3.63,1.06-5.39,1.25-5.88.64-11.94.31-17.84.26-12.23-.1-24.43-.18-36.67.09a1.51,1.51,0,0,0,0,3c15.6,1.15,31.22,1.49,46.87,1.36,4.73,0,11,.16,15.93-1.22.1.49.2,1,.31,1.48a5.43,5.43,0,0,0,.39,1.14c-6.55-1-14.22.09-20.56.15-8.64.07-17.27.12-25.91.3-16.94.36-33.9.42-50.78,2a1.68,1.68,0,0,0,0,3.35c16.87,1.79,33.83,2.09,50.78,2.68,8.29.29,16.58.45,24.87.63l12.44.28c4.15.09,8.5.65,12.51-.56a4.35,4.35,0,0,0,1.19-.57c-2.08,22.5-2.49,45.06-3,67.63a4.59,4.59,0,0,0,.09,1c-11.6.64-23.32,2.21-34.78,3.17-7.61.64-15.24,1.22-22.83,2-6,.63-12.43,1.15-18.36,2.72-2.58,0-5.15.1-7.72.3a1.15,1.15,0,0,0-.31,2.26c15.1,3.93,31.36,4.38,46.83,5.95s31.15,2.77,46.51-.9a4.65,4.65,0,0,0,3.65-5.23,11.85,11.85,0,0,0,6.58-7.34C220.71,192,218.34,184.07,217.47,177.54Z"/><path class="cls-8" d="M95.94,204.42a1.5,1.5,0,0,1-1.5-1.4c-.89-13-3.59-62-3.9-96.22a9.26,9.26,0,0,1,9.06-9.31c9.16-.17,13.9-.4,18.09-.6,10.77-.51,16.7-.8,80.54.73a9.17,9.17,0,0,1,8.94,8.82c.89,24.37,1.22,57,1.42,76.49.07,7.22.13,12.92.19,15.88a1.5,1.5,0,0,1-1.44,1.53c-16.66.69-33.59,1.25-50,1.8-20.11.67-40.91,1.36-61.36,2.29ZM134.63,99.48c-8.27,0-12.06.18-16.8.41-4.21.2-9,.43-18.18.6a6.25,6.25,0,0,0-6.11,6.29c.3,33.16,2.91,81,3.8,94.58,20-.9,40.29-1.57,59.93-2.23,15.89-.53,32.31-1.08,48.48-1.74-.05-3.2-.1-8.26-.17-14.44-.2-19.48-.53-52.08-1.42-76.41a6.17,6.17,0,0,0-6-5.93C162.62,99.77,145.06,99.48,134.63,99.48Z"/><path class="cls-8" d="M206.06,120.22H206c-23.61-.83-47.69-.88-71-.92-14.08,0-28.65-.06-42.94-.26a1.5,1.5,0,0,1-1.48-1.52A1.53,1.53,0,0,1,92.14,116c14.27.2,28.82.23,42.9.26,23.31,0,47.42.09,71.07.92a1.5,1.5,0,0,1-.05,3Z"/><path class="cls-8" d="M103.77,112.09a3.87,3.87,0,0,1-3.94-3.89,4.53,4.53,0,0,1,.74-2.43,1.5,1.5,0,0,1,2.53,1.61,1.55,1.55,0,0,0-.27.81c0,.64.6,1,1.32.84a1.5,1.5,0,1,1,.73,2.91A4.57,4.57,0,0,1,103.77,112.09Z"/><path class="cls-8" d="M115.73,112c-1.92,0-4.71-1.75-4.71-4.5a3.7,3.7,0,0,1,1.1-2.63,1.5,1.5,0,1,1,2.12,2.12.68.68,0,0,0-.22.51c0,.91,1.27,1.5,1.71,1.5a2.79,2.79,0,0,0,1-.13,1.5,1.5,0,0,1,2.61,1.46C118.94,111.14,118,112,115.73,112Z"/><path class="cls-8" d="M128.38,111.12a4.87,4.87,0,0,1-4.75-4.74,1.5,1.5,0,1,1,3,0,1.9,1.9,0,0,0,1.75,1.74,1.54,1.54,0,0,1,2-.68,1.51,1.51,0,0,1,.7,2A2.93,2.93,0,0,1,128.38,111.12Z"/><path class="cls-8" d="M127.85,178.79c-18.15,0-24.92-14.82-24.92-24.16,0-13.19,10.87-24.28,23.56-23.88l1,0a17.58,17.58,0,0,1,4.46.49c11.86,3.09,19.52,11.69,19.52,21.89A31.93,31.93,0,0,1,147,167.9,21.39,21.39,0,0,1,127.85,178.79Zm-2-45c-10.77,0-19.88,9.57-19.88,20.89,0,8.18,6,21.16,21.92,21.16,17.1,0,20.6-17.85,20.6-22.63,0-8.8-6.78-16.25-17.28-19a14.77,14.77,0,0,0-3.76-.39l-1,0Z"/><path class="cls-8" d="M145.58,168.92a1.49,1.49,0,0,1-.5-.09l-2-.71a198.07,198.07,0,0,1-19.63-7.78,1.5,1.5,0,0,1-.85-1.35c0-8.15.08-17.62.82-26.85a1.5,1.5,0,1,1,3,.24c-.7,8.76-.79,17.78-.81,25.66,6,2.82,12.35,5.07,18.49,7.25l2,.71a1.5,1.5,0,0,1-.5,2.91Z"/><path class="cls-8" d="M124.78,160.82a1.5,1.5,0,0,1-.51-2.91c4.15-1.52,8.37-3.19,12.44-4.8s8.22-3.26,12.4-4.79a1.5,1.5,0,0,1,1,2.82c-4.14,1.52-8.3,3.17-12.33,4.76s-8.33,3.3-12.52,4.83A1.51,1.51,0,0,1,124.78,160.82Z"/><path class="cls-8" d="M175.88,142.69c-1.31,0-2.63,0-3.94-.07l-2.62-.06a1.5,1.5,0,0,1-1.47-1.35c-.31-3-.49-6.24-.55-9.71a1.5,1.5,0,0,1,.45-1.09,1.43,1.43,0,0,1,1.1-.43l4.35.11,3.52.08a1.5,1.5,0,0,1,1.46,1.46c.08,3.34.34,6.63.58,9.41a1.5,1.5,0,0,1-1.46,1.63Zm-5.17-3.1,1.31,0c1.2,0,2.4.06,3.61.07-.17-2-.32-4.26-.41-6.56l-2.09,0-2.79-.06C170.4,135.32,170.53,137.52,170.71,139.59Z"/><path class="cls-8" d="M169.8,163.4a1.5,1.5,0,0,1-1.49-1.36c-.17-1.83-.24-3.68-.31-5.47-.05-1.34-.1-2.68-.2-4a1.5,1.5,0,0,1,.41-1.14,1.44,1.44,0,0,1,1.13-.46c1.54,0,3.09.12,4.64.2l3.17.15a1.5,1.5,0,0,1,1.44,1.46c.07,2.58.4,5.25.72,7.82l.11.89a1.5,1.5,0,0,1-1.48,1.68c-1.71,0-3.44.08-5.11.15Zm1.09-9.39c0,.81.07,1.62.1,2.43.05,1.29.1,2.6.19,3.91l1.52-.06c1.16,0,2.34-.1,3.53-.12-.24-1.95-.47-3.94-.58-5.93l-1.82-.09Z"/><path class="cls-8" d="M173.21,183.12c-.78,0-1.55,0-2.33-.05a1.5,1.5,0,0,1-1.42-1.3,71.65,71.65,0,0,1-.51-9,1.5,1.5,0,0,1,1.45-1.51c2.07-.07,4.13,0,6.12.14,1.2.06,2.4.12,3.61.15a1.5,1.5,0,0,1,1.46,1.37c.17,1.91.29,3.82.41,5.72q.08,1.27.17,2.55a1.5,1.5,0,0,1-1.41,1.6l-.43,0C178,183,175.61,183.12,173.21,183.12Zm-.92-3c2.25,0,4.54-.08,6.8-.21l-.07-1.05c-.09-1.44-.19-2.88-.3-4.33l-2.35-.11c-1.51-.08-2.95-.15-4.4-.16C172,176.11,172.08,178.11,172.29,180.12Z"/><path class="cls-8" d="M193.82,137.7h-.2a79.61,79.61,0,0,0-10.54-.55,1.5,1.5,0,0,1,0-3,82.41,82.41,0,0,1,10.94.57,1.5,1.5,0,0,1-.2,3Z"/><path class="cls-8" d="M195,158.52a27.51,27.51,0,0,1-4.58-.51,19.1,19.1,0,0,0-5.28-.39,1.5,1.5,0,1,1-.37-3,12.82,12.82,0,0,1,1.57-.09,27.51,27.51,0,0,1,4.58.51,24.88,24.88,0,0,0,4.08.46,9.75,9.75,0,0,0,1.2-.07,1.5,1.5,0,1,1,.37,3A12.51,12.51,0,0,1,195,158.52Z"/><path class="cls-8" d="M197.14,178.37H186.65a1.5,1.5,0,0,1,0-3h10.49a1.5,1.5,0,0,1,0,3Z"/><path class="cls-8" d="M161.23,201.29a1.5,1.5,0,0,1-1.5-1.43l-.19-4a1.5,1.5,0,0,1,3-.14l.19,4a1.5,1.5,0,0,1-1.42,1.57Zm-.61-13a1.5,1.5,0,0,1-1.5-1.43l-.18-4a1.5,1.5,0,1,1,3-.13l.18,4a1.5,1.5,0,0,1-1.43,1.56Zm-.56-13a1.5,1.5,0,0,1-1.5-1.44l-.16-4a1.5,1.5,0,0,1,1.44-1.56,1.47,1.47,0,0,1,1.56,1.44l.16,4a1.5,1.5,0,0,1-1.44,1.56Zm-.52-13a1.5,1.5,0,0,1-1.5-1.44l-.16-4a1.5,1.5,0,1,1,3-.12l.16,4a1.5,1.5,0,0,1-1.44,1.56Zm-.51-13a1.5,1.5,0,0,1-1.5-1.44l-.16-4a1.5,1.5,0,0,1,3-.12l.16,4a1.5,1.5,0,0,1-1.44,1.56Zm-.51-13a1.5,1.5,0,0,1-1.5-1.44l-.16-4a1.5,1.5,0,0,1,1.44-1.56,1.47,1.47,0,0,1,1.56,1.44l.16,4a1.5,1.5,0,0,1-1.44,1.56Zm-.54-13a1.5,1.5,0,0,1-1.5-1.44l-.17-4a1.5,1.5,0,1,1,3-.13l.17,4a1.5,1.5,0,0,1-1.43,1.56Z"/></g></svg>