<svg xmlns="http://www.w3.org/2000/svg" xmlns:xlink="http://www.w3.org/1999/xlink" viewBox="0 0 310 310"><defs><style>.cls-1,.cls-5{opacity:0.1;}.cls-2,.cls-3,.cls-4{fill:none;stroke:#000;stroke-linecap:round;stroke-miterlimit:10;stroke-width:2px;}.cls-3{stroke-dasharray:7.99 6;}.cls-4{stroke-dasharray:8 6;}.cls-5{mix-blend-mode:multiply;}.cls-6{fill:#fff;}.cls-7{fill:#e0dfe6;}.cls-8{fill:#525d7d;}</style><symbol id="frame" data-name="frame" viewBox="0 0 277.17 291.17"><g class="cls-1"><polyline class="cls-2" points="236.53 232.63 236.53 236.63 232.53 236.63"/><line class="cls-3" x1="226.53" y1="236.63" x2="47.64" y2="236.63"/><polyline class="cls-2" points="44.65 236.63 40.65 236.63 40.65 232.63"/><line class="cls-4" x1="40.65" y1="226.63" x2="40.64" y2="47.54"/><polyline class="cls-2" points="40.65 44.54 40.65 40.54 44.65 40.54"/><line class="cls-3" x1="50.64" y1="40.54" x2="229.53" y2="40.54"/><polyline class="cls-2" points="232.53 40.54 236.53 40.54 236.53 44.54"/><line class="cls-4" x1="236.53" y1="50.54" x2="236.53" y2="229.63"/></g><g class="cls-5"><polygon points="277.17 152.66 138.66 291.17 0 152.51 138.51 14 277.17 152.66"/></g><polygon class="cls-6" points="277.17 138.66 138.66 277.17 0 138.51 138.51 0 277.17 138.66"/></symbol></defs><title>s4_01</title><g id="icons"><use id="frame-3" data-name="frame" width="277.17" height="291.17" transform="matrix(-1, 0, 0, 1, 293.59, 9.41)" xlink:href="#frame"/><path class="cls-7" d="M161.25,179.08c-9.24,1.92-18.54,3.63-27.66,6.06s-18.16,5.48-27.34,8a2,2,0,0,0-1.54,1.63c.11-.46-.25.55-.13.71l.55.67a1.85,1.85,0,0,0,1.73.65c9.27-1.87,18.58-3.19,27.81-5.12s18.36-4.61,27.49-7.06C165.59,183.71,164.85,178.33,161.25,179.08Z"/><path class="cls-7" d="M214.8,155.37c-1.28-6.26-3.41-12.38-5.24-18.49s-3.65-12.18-5.6-18.24c-1.7-5.27-3-12.44-7.48-16.06a1,1,0,0,0-1.63.73c-1.07,4.6,1.28,9.71,2.66,14.1,1.94,6.17,3.79,12.37,5.51,18.61,1.52,5.49,2.87,11,4.15,16.6a36.66,36.66,0,0,1,.77,4.85,9.58,9.58,0,0,1-1.05,6.15c-.69,1.11-2.77,1.94-4,2.29-2.81.83-6.22.43-8.49,2.53-.92.86-.89,2.71.51,3.12,2.48.72,5.47.33,8,0,1.91-.29,8.38-1.43,9.7-2.94C216.07,164.69,215.77,160.11,214.8,155.37Z"/><path class="cls-7" d="M168.33,180.75a4.52,4.52,0,0,0,2.58,1c4.18.34,7.24-3.9,7.8-7.61.6-4-1.38-7.61-3.87-10.58a3.74,3.74,0,0,0-3.23-1.24c-2.86-11.43-16.77-19-25.35-25.56-5.72-4.39-11.4-8.83-17.16-13.16-3.71-2.8-8.11-7.13-12.81-8.69a1.85,1.85,0,0,0-.42-.68,2.37,2.37,0,0,0-.15-3.13,9.69,9.69,0,0,0-6-2.81c-2.24-.24-2.68,3.23-.59,3.83a5.4,5.4,0,0,1,1.69.8,3.79,3.79,0,0,1,.57.5q.19.19.36.39l.11.13a3.31,3.31,0,0,0,.31.38,2.35,2.35,0,0,0-.39,1.24,11.24,11.24,0,0,1-2,5.82c-.81,1.2.87,2.28,1.87,1.48a14.11,14.11,0,0,0,3.22-3.74c2.43,3.11,6.13,5.6,8.93,8,5,4.25,10.1,8.36,15.15,12.54,9.64,8,21.65,15.37,26.53,27.28a3.56,3.56,0,0,0,.56.93,30.33,30.33,0,0,0-2.56,4.66c-.67,1.63,1.28,3.74,3,3.11.36-.14.72-.3,1.08-.47a4.42,4.42,0,0,0-.5,3.62"/><path class="cls-7" d="M103.07,109.73a21.69,21.69,0,0,1-3.56-2.21c-1.11-.87-2-1.94-3.14-2.77-1.6-1.18-3.41.66-3.1,2.3a.18.18,0,0,0,0,.13,2,2,0,0,0,1.11,2.08,24,24,0,0,0,5.63,5.54C103.06,117.08,106.52,111.49,103.07,109.73Z"/><path class="cls-7" d="M172.32,145.64c-6.69-5-13.28-10.17-20.06-15.06-1.42-1-2.86-2.09-4.32-3.16a3.56,3.56,0,0,0-3.29-2.37,66.15,66.15,0,0,0-12.84-7.45,1,1,0,0,0-1.19,1.49c3.68,5.18,8.83,9.45,13.54,13.67,5.23,4.69,10.64,9.16,16,13.65,5,4.12,10,8.15,14.81,12.47,2.25,2,4.66,4.26,5.87,7.1,1,2.42.86,5,1.16,7.62.24,2.1,2.85,3.34,4.83,2.83a15.59,15.59,0,0,0,.51,1.55c.45,1.06.91,2.08,1.45,3.11,1.68,3.15,6.48-.32,3.91-2.9-.81-.82-1.65-1.56-2.54-2.3a16.68,16.68,0,0,0-1.38-1C197.45,163.07,180.34,151.65,172.32,145.64Z"/><path class="cls-8" d="M208.4,164.14a5.23,5.23,0,0,1-1,.43c-7.23,2.17-16.58,5-26.77,8a1.5,1.5,0,0,1-.85-2.88c10.19-3,19.53-5.82,26.76-8a2.13,2.13,0,0,0,1.28-1A2.16,2.16,0,0,0,208,159q-4.49-15-9-29.95-4.34-14.46-8.67-28.91a1.89,1.89,0,0,0-2.3-1.29c-31.57,8.32-50,13.79-63.46,17.78l-1.23.37a1.5,1.5,0,1,1-.85-2.88l1.23-.37c13.48-4,31.93-9.47,63.55-17.8a4.88,4.88,0,0,1,5.94,3.33q4.34,14.44,8.67,28.91,4.49,15,9,29.95a5.18,5.18,0,0,1-.4,3.92A5.11,5.11,0,0,1,208.4,164.14Z"/><path class="cls-8" d="M163.23,177.68a1.51,1.51,0,0,1-.3.13c-15.71,4.65-44.19,13.07-58.39,17.11a4.25,4.25,0,0,1-5.19-2.72q-2-6-4.1-12C89.65,163.88,83.87,147,79,130.13a4.43,4.43,0,0,1,3.36-5.56c5.53-1.15,10.58-2.31,15.43-3.52a1.5,1.5,0,1,1,.73,2.91c-4.89,1.23-10,2.39-15.55,3.55a1.43,1.43,0,0,0-1.09,1.8c4.81,16.79,10.58,33.64,16.17,49.93q2.05,6,4.1,12a1.25,1.25,0,0,0,1.53.8c14.18-4,42.65-12.45,58.36-17.1a1.5,1.5,0,0,1,1.15,2.75Z"/><path class="cls-8" d="M176.28,180.73c-8.78,4.84-33.83-13.41-81.22-59.16a1.5,1.5,0,0,1-.16-2,121.84,121.84,0,0,1,13.69-15.32,1.5,1.5,0,0,1,1.95-.11l.61.47c16.31,12.46,59.65,45.55,68.88,62.31C184.41,174.91,180.33,178.5,176.28,180.73ZM98.1,120.33c12.3,11.86,28.06,26.75,42.65,38.69,24.05,19.68,31.68,20.4,34.08,19.08,4.59-2.53,5.21-4.89,2.56-9.72-8.84-16.05-52.62-49.57-67.66-61.05A119,119,0,0,0,98.1,120.33Z"/><path class="cls-8" d="M103.76,128.46a1.5,1.5,0,0,1-1.89-2.25c3.47-4.3,7.26-8.43,10.94-12.42l3.31-3.61a1.5,1.5,0,0,1,2.22,2q-1.65,1.82-3.32,3.63c-3.64,4-7.4,8.05-10.81,12.28A1.5,1.5,0,0,1,103.76,128.46Z"/><path class="cls-8" d="M99.66,118.16A1.5,1.5,0,0,1,98,118a90.61,90.61,0,0,1-8-7.17,1.5,1.5,0,0,1-.14-1.93c1.08-1.5,2.14-3,3.2-4.47l1.66-2.32a1.5,1.5,0,0,1,2.18-.28c1,.86,2.11,1.7,3.18,2.55,1.9,1.49,3.86,3,5.68,4.72a1.5,1.5,0,0,1-2,2.2c-1.73-1.6-3.65-3.11-5.5-4.56l-2-1.58-.73,1-2.47,3.45a90.07,90.07,0,0,0,6.81,6,1.5,1.5,0,0,1-.22,2.48Z"/><path class="cls-8" d="M163.69,173.47a1.5,1.5,0,0,1-1.84-2.31c1.9-2.14,3.73-4.4,5.49-6.6,1.49-1.86,3-3.78,4.62-5.61a1.5,1.5,0,1,1,2.27,2c-1.55,1.79-3.08,3.69-4.55,5.53-1.78,2.22-3.63,4.52-5.59,6.71A1.49,1.49,0,0,1,163.69,173.47Z"/><path class="cls-8" d="M189.77,188.57a1.5,1.5,0,0,1-1.43,0,132.11,132.11,0,0,1-13.62-8,1.5,1.5,0,1,1,1.71-2.46,120.59,120.59,0,0,0,12.2,7.18l.37-.51c-2.72-2.71-5.77-5.57-9.75-9.12a1.5,1.5,0,1,1,2-2.24c4.46,4,7.78,7.1,10.76,10.13a1.5,1.5,0,0,1,.19,1.87c-.56.86-1.21,1.74-2,2.72A1.49,1.49,0,0,1,189.77,188.57Z"/><path class="cls-8" d="M187,138.4c-4.24,2.34-10.55,2.39-14.92,2.23a1.5,1.5,0,0,1,.11-3c4,.15,9.77.12,13.36-1.86a5.79,5.79,0,0,0,2.82-7.13c-.87-1.58-4.94-.79-8.53-.1-5.29,1-11.29,2.17-13.72-2.24-1.42-2.57.38-8.42,6.41-11.74a20,20,0,0,1,8.69-2.38,1.5,1.5,0,1,1,.12,3,16.93,16.93,0,0,0-7.36,2c-5,2.76-5.64,6.92-5.23,7.67,1.38,2.5,6,1.61,10.52.75,4.82-.93,9.81-1.88,11.73,1.6A8.67,8.67,0,0,1,187,138.4Z"/><path class="cls-8" d="M183.63,144.47l-.19.09a1.5,1.5,0,0,1-1.93-.87,30.14,30.14,0,0,1-1.1-3.94l-.18-.77a1.5,1.5,0,1,1,2.92-.69l.18.78a27.44,27.44,0,0,0,1,3.55A1.5,1.5,0,0,1,183.63,144.47Z"/><path class="cls-8" d="M175.63,116.4a1.5,1.5,0,0,1-2.16-.89l-1.59-5.43a1.5,1.5,0,1,1,2.88-.84l1.59,5.43A1.5,1.5,0,0,1,175.63,116.4Z"/><path class="cls-8" d="M107.62,140.07l-.23.1-1.88.68c-3.82,1.39-7.43,2.7-11.86,2.72a1.5,1.5,0,0,1,0-3c3.9,0,7.28-1.24,10.85-2.54l1.91-.69a1.5,1.5,0,0,1,1.22,2.73Z"/><path class="cls-8" d="M156.18,124.41a1.49,1.49,0,0,1-.45.16,31.89,31.89,0,0,0-3.8,1,20.24,20.24,0,0,1-7.24,1.33,1.5,1.5,0,0,1,.16-3,17.71,17.71,0,0,0,6.17-1.19,34.85,34.85,0,0,1,4.16-1.12,1.5,1.5,0,0,1,1,2.79Z"/><path class="cls-8" d="M121.48,156.38a1.48,1.48,0,0,1-.36.14c-2.38.6-4.73,1.36-7,2.09-4.77,1.54-9.7,3.12-15.15,3.34a1.5,1.5,0,1,1-.12-3c5-.2,9.56-1.66,14.35-3.2,2.32-.75,4.73-1.52,7.2-2.14a1.5,1.5,0,0,1,1.09,2.77Z"/><path class="cls-8" d="M133.29,172.69l-.16.08a142.6,142.6,0,0,1-28,8,1.5,1.5,0,1,1-.54-3A139.76,139.76,0,0,0,132,170a1.5,1.5,0,0,1,1.29,2.7Z"/><path class="cls-7" d="M165.84,203.57a2.47,2.47,0,0,0-4.56-1.24c-1.67,2.35-3.77,2.77-6.38,3.45a7.12,7.12,0,0,0-2.08.9.71.71,0,0,0-.56.27c-.1.12-.17.24-.26.36a5.37,5.37,0,0,0-1.63,3.47,2.32,2.32,0,0,0,1.73,2.33,6.32,6.32,0,0,0,5.23,2.63C163.62,215.58,166.13,208.93,165.84,203.57Zm-7.32,7.35a3.38,3.38,0,0,1-2.33.48,2.31,2.31,0,0,0,.33-.91c1-.28,2.47-.7,3.47-1A4.7,4.7,0,0,1,158.52,210.92Z"/><path class="cls-8" d="M157,210.62h-.22a6.69,6.69,0,0,1-6.35-6.17,7.06,7.06,0,0,1,5.41-7.19,6.13,6.13,0,0,1,1.35-.15,6.85,6.85,0,0,1,6.61,6,7,7,0,0,1-2,5.4A6.79,6.79,0,0,1,157,210.62Zm.17-10.51a2.9,2.9,0,0,0-.65.07,4.08,4.08,0,0,0-3.09,4.11,3.63,3.63,0,0,0,3.45,3.33,3.79,3.79,0,0,0,2.81-1.18,4,4,0,0,0,1.12-3.11A3.9,3.9,0,0,0,157.12,200.1Z"/><path class="cls-8" d="M218.41,133.56a1.5,1.5,0,0,1-1.5-1.49V130.4a28.15,28.15,0,0,1,.33-4.86c-.75-.66-1.46-1.34-2.16-2l-1.19-1.13a1.5,1.5,0,0,1,1-2.6c1.68,0,3.42-.08,5.1-.15a60.46,60.46,0,0,1,1.06-8.18,1.5,1.5,0,0,1,2.84-.3,59.66,59.66,0,0,0,3.28,6.12l1.43.33c1.07.26,2.09.5,3.11.64a1.5,1.5,0,0,1,.92,2.48,35,35,0,0,0-2.81,3.6l0,.1a46.56,46.56,0,0,0,2.09,6.72,1.5,1.5,0,0,1-2,1.88,65.23,65.23,0,0,1-6.36-3.38,52.21,52.21,0,0,0-4.11,3.47A1.5,1.5,0,0,1,218.41,133.56Zm.17-10.85c.41.38.83.75,1.26,1.11a1.5,1.5,0,0,1,.5,1.49,17.66,17.66,0,0,0-.41,3.41c.82-.68,1.69-1.36,2.62-2a1.5,1.5,0,0,1,1.66-.08c1.3.78,2.5,1.47,3.67,2.11q-.24-.75-.46-1.52a1.46,1.46,0,0,1-.84-.17,1.5,1.5,0,0,1-.63-2,28.11,28.11,0,0,1,2.78-4.23l-.84-.2c-.65-.16-1.31-.31-2-.45a1.5,1.5,0,0,1-1-.7c-.56-.94-1.11-1.87-1.64-2.82-.17,1.53-.29,3.07-.39,4.62a1.5,1.5,0,0,1-1.44,1.4l-1.31.05Z"/><path class="cls-8" d="M225.07,147.94a9.08,9.08,0,0,1-8.12-6.34,1.5,1.5,0,1,1,2.87-.87,6.11,6.11,0,0,0,5.25,4.22c2.91,0,4.57-2.11,5.22-6.65l.05-.34a1.5,1.5,0,0,1,3,.49l0,.27C232.17,146.34,228.2,147.94,225.07,147.94Z"/><path class="cls-8" d="M171.9,207.39c-1.4,0-2.78-.1-4.13-.22a1.5,1.5,0,1,1,.27-3c1.28.11,2.59.18,3.89.21a1.5,1.5,0,0,1,0,3Zm9-.52a1.5,1.5,0,0,1-.2-3c1.28-.17,2.58-.39,3.85-.64a1.5,1.5,0,0,1,.59,2.94c-1.34.27-2.7.5-4,.67Zm12.61-3.07a1.5,1.5,0,0,1-.51-2.91c1.22-.44,2.44-.92,3.62-1.44a1.5,1.5,0,1,1,1.2,2.75c-1.24.54-2.52,1.05-3.81,1.52A1.49,1.49,0,0,1,193.49,203.8Zm11.65-5.72a1.5,1.5,0,0,1-.81-2.76c1.09-.7,2.17-1.45,3.19-2.22a1.5,1.5,0,0,1,1.81,2.39c-1.08.82-2.22,1.61-3.38,2.36A1.49,1.49,0,0,1,205.14,198.08Zm9.92-8.34a1.5,1.5,0,0,1-1.11-2.51c.87-1,1.7-2,2.47-3a1.5,1.5,0,0,1,2.39,1.81c-.82,1.09-1.71,2.15-2.64,3.18A1.5,1.5,0,0,1,215.06,189.74ZM222.23,179a1.5,1.5,0,0,1-1.36-2.13c.53-1.16,1-2.36,1.43-3.57a1.5,1.5,0,1,1,2.84,1c-.45,1.3-1,2.59-1.54,3.85A1.5,1.5,0,0,1,222.23,179Zm3.43-12.47h-.16a1.5,1.5,0,0,1-1.33-1.65c.14-1.26.22-2.55.23-3.85a1.5,1.5,0,0,1,3,0c0,1.39-.11,2.78-.25,4.13A1.5,1.5,0,0,1,225.67,166.5Z"/></g></svg>