<svg xmlns="http://www.w3.org/2000/svg" xmlns:xlink="http://www.w3.org/1999/xlink" viewBox="0 0 310 310"><defs><style>.cls-1,.cls-5{opacity:0.1;}.cls-2,.cls-3,.cls-4{fill:none;stroke:#000;stroke-linecap:round;stroke-miterlimit:10;stroke-width:2px;}.cls-3{stroke-dasharray:7.99 6;}.cls-4{stroke-dasharray:8 6;}.cls-5{mix-blend-mode:multiply;}.cls-6{fill:#fff;}.cls-7{fill:#e0dfe6;}.cls-8{fill:#525d7d;}</style><symbol id="frame" data-name="frame" viewBox="0 0 277.17 291.17"><g class="cls-1"><polyline class="cls-2" points="236.53 232.63 236.53 236.63 232.53 236.63"/><line class="cls-3" x1="226.53" y1="236.63" x2="47.64" y2="236.63"/><polyline class="cls-2" points="44.65 236.63 40.65 236.63 40.65 232.63"/><line class="cls-4" x1="40.65" y1="226.63" x2="40.64" y2="47.54"/><polyline class="cls-2" points="40.65 44.54 40.65 40.54 44.65 40.54"/><line class="cls-3" x1="50.64" y1="40.54" x2="229.53" y2="40.54"/><polyline class="cls-2" points="232.53 40.54 236.53 40.54 236.53 44.54"/><line class="cls-4" x1="236.53" y1="50.54" x2="236.53" y2="229.63"/></g><g class="cls-5"><polygon points="277.17 152.66 138.66 291.17 0 152.51 138.51 14 277.17 152.66"/></g><polygon class="cls-6" points="277.17 138.66 138.66 277.17 0 138.51 138.51 0 277.17 138.66"/></symbol></defs><title>s3_05</title><g id="icons"><use id="frame-3" data-name="frame" width="277.17" height="291.17" transform="translate(16.41 9.41)" xlink:href="#frame"/><path class="cls-7" d="M215.65,155.52a3.53,3.53,0,0,0-2.12-2.65,47.59,47.59,0,0,0-3-6.87c-2.22-9.18-6.11-17.9-8-27.17.11-3.31.53-6.69-.18-9.85a1.09,1.09,0,0,0-1.81-.48c-3,3.57-3.91,8.87-3.82,14.16-.92,9,1.94,18.07,3.65,26.83a36.87,36.87,0,0,1-.48,17.42,41.18,41.18,0,0,1-5.76,11.38,99.06,99.06,0,0,1-12.61,9.07c-9.69,6.13-22.45,13.11-28.4,23.63a4.09,4.09,0,0,0-3.36-3.76c-3-.73-5.62-1.15-8.37-2.74-2.47-1.43-4.8-3.08-7.27-4.52-4.06-2.36-9.19-4.93-14-4a.72.72,0,0,0-.31,1.19c3.68,4.3,9.72,7,14.08,10.68,3.85,3.25,8.3,7.45,13.36,8.46a4.65,4.65,0,0,0,4.17-1.09c.25,1.46,2.51,2,3.71,1,3.27-2.57,6.1-5.54,9.59-7.87,3.25-2.18,6.69-4,10.12-5.9,6.87-3.73,13.94-7.08,20.45-11.44C206.91,183.22,218.67,170.65,215.65,155.52Z"/><path class="cls-7" d="M170.67,142c-1.89-.89-4-1-6-1.35-.62-.12-1.26-.29-1.91-.46a4.55,4.55,0,0,0-.08-2,8.65,8.65,0,0,0-3-4c-1.73-1.58-3.32-3.24-4.92-4.95a3.17,3.17,0,0,0-1.37-.88,6.37,6.37,0,0,0-.24-2.26,2.63,2.63,0,0,0-4.76-.62c0,.05-.34.53-.38.61l-.26.34-.2.34-.07.1c-.22.21-.4.4-.61.57-1.6,1.33-1.14,4,.35,5.13a3.4,3.4,0,0,0,2.14.7c1.28,4.69,5.84,13.08,11.4,9.86.87.45,1.78.83,2.6,1.18,1.94.83,4,1.86,6.16,1.74C171.56,146,172.79,143,170.67,142Z"/><path class="cls-7" d="M179.41,146.25a3,3,0,0,0-5.81,1c0,.07,0,.17,0,.27a6,6,0,0,1-.43.71,2.67,2.67,0,0,0-.35,1.88,3.36,3.36,0,0,0,.16.65,2.75,2.75,0,0,0-2.49-1.34c-.17,0-.33,0-.5.07a3,3,0,0,0-1.26-2.57c-3.71-2.53-9.68-3-14.07-3a1.18,1.18,0,0,0-.31,2.31,50.43,50.43,0,0,1,6.35,2.77c-.53.42-1,.84-1.52,1.21q-2.66,2-5.21,4.17c-1.1.93-.19,2.54,1,2.68a20.23,20.23,0,0,0-.11,2.8c-2.15-.58-4.19-1.75-6.63-1.5-3.34.34-6.85,3.59-8.21,6.54a1,1,0,0,0,1.15,1.5l.62-.2a6.07,6.07,0,0,0-1.15,1.75,1.57,1.57,0,0,0,1.75,2.28c2.83-.8,5-2.11,7.95-.62s4.93-.9,5.05-3.13a5.27,5.27,0,0,0,2.74-.09c1.81.41,4-.93,3.89-3,0-.12,0-.24,0-.36a8.7,8.7,0,0,0,1.13,2.08,2.16,2.16,0,0,0,.4.4c-1.42,2.07-2.78,4.54-2.77,7.1a3.19,3.19,0,0,0,4.75,2.73c2.26-1.26,3.75-3.76,4.85-6a4,4,0,0,0-1.4-5.34,4,4,0,0,0-2.4-.46,12.13,12.13,0,0,0,.18-2.46,11.58,11.58,0,0,0,0-2.28c1-.2,2.53-1.44,3.3-1.9a8.24,8.24,0,0,0,3.12-2.84,3,3,0,0,0,.21-2.54,2.2,2.2,0,0,0,.31.36,3,3,0,0,0,3.57.46A5.07,5.07,0,0,0,179.41,146.25ZM161,155c-.88,1.53-.55,2.93-.1,4.51.12.42.24.84.35,1.27-.28-.59-.59-1.18-.87-1.84a24.36,24.36,0,0,1-1.17-4.06c.79-.45,1.59-.89,2.39-1.31.6-.32,1.27-.61,1.93-.91A7.22,7.22,0,0,0,161,155Z"/><path class="cls-7" d="M134.73,165.35a8.4,8.4,0,0,0-1.45,1.76c-.26.5-.52,1-.82,1.48l-.38.56-.34.41a4.79,4.79,0,0,0-1.29,1.94,2.38,2.38,0,0,0,1.64,2.9c1.63.36,3.37-.57,4.69-1.48a14.08,14.08,0,0,0,2-1.6,5.83,5.83,0,0,0,1.43-2.81C141,165.47,137,162.91,134.73,165.35Z"/><path class="cls-7" d="M132.26,147.29a2.84,2.84,0,0,0-.71-1.22,2.79,2.79,0,0,0-4.62,1.22l0,.11a4,4,0,0,1-.23.35c-.12.14-.23.28-.35.4a3.37,3.37,0,1,0,5.3,4.09A6.9,6.9,0,0,0,132.26,147.29Z"/><path class="cls-7" d="M193.69,143.48a4,4,0,0,0-.06-3c-2.64-6.89-5.89-13.5-11.78-18.2-3.64-2.9-10.5-7-14.82-3.31a1,1,0,0,0,0,1.45,6.74,6.74,0,0,0,1.06,1,1.92,1.92,0,0,0,.07,2.62c7.44,8.55,11.23,18.43,12.93,29.49-3.31,9.89-7.47,18.5-16.33,24.84a36.08,36.08,0,0,1-15.34,6.54c-7.07,1.08-13.42-2.19-19.29-5.72a1.54,1.54,0,0,0-2.12,2c-3.6-3.38-7.3-6.24-9.93-10.84-3.53-6.16-5.41-13.09-7.89-19.7-.28-.76-1.64-1-1.79,0a37,37,0,0,0,3.94,23.05c2.87,5.48,7.64,12.08,13.74,14.37,4.33,4.82,11.86,7.38,17.76,8.22,9.86,1.4,20.2-1.84,28.31-7.41C185.82,179.55,196.38,160.6,193.69,143.48Z"/><path class="cls-7" d="M111.67,108.32l-.4.17a4.3,4.3,0,0,0-4.15,2.09c-1.28,2.41-1.52,5.19-1.78,7.86-.36,3.65,4.73,6.72,7.73,4.44,2.37-1.81,5.4-3.58,6.32-6.61C120.73,111.84,116.43,106.55,111.67,108.32Z"/><path class="cls-7" d="M190.32,111.25a8,8,0,0,0-5.6-2.28,7.15,7.15,0,0,0-3.61,1,8.46,8.46,0,0,0-2.58,2.59l-.55,1.3a4.14,4.14,0,0,0-.1,2.18,5.19,5.19,0,0,0,1.5,3.13,5.77,5.77,0,0,0,3.09,1.49,6.41,6.41,0,0,0,5.37.24,6.89,6.89,0,0,0,3.89-4.31A5.38,5.38,0,0,0,190.32,111.25Z"/><path class="cls-7" d="M156.39,107.75a4.41,4.41,0,0,0-2-2.55,4.24,4.24,0,0,0-2.15-.58,4.31,4.31,0,0,0-1,.12,3.31,3.31,0,0,0-1-.15,3.86,3.86,0,0,0-3.16,1.76,3.92,3.92,0,0,0,0,4,6.09,6.09,0,0,0,1.78,1.8,6,6,0,0,0,3.38,1A4.31,4.31,0,0,0,156.39,107.75Z"/><path class="cls-8" d="M151.54,215.33a1.5,1.5,0,0,1-1-.38c-8-7.13-17-11.82-25.69-16.36-16.63-8.7-31-16.22-31-37.3,0-3.91.82-9.72,1.76-16.46,1.21-8.64,2.59-18.42,2.59-26.73a61.59,61.59,0,0,0-1.72-15.22,1.5,1.5,0,0,1,.61-1.61c1.53-1,3.07-2.06,4.6-3.08,1.8-1.19,3.67-2.43,5.48-3.68a1.5,1.5,0,0,1,1.9.16,28.42,28.42,0,0,0,20,8.09c8.16,0,14.88-2.88,21.17-9.06a1.5,1.5,0,0,1,2.21.12,30.43,30.43,0,0,0,22.9,11.06,22.74,22.74,0,0,0,16-6,1.5,1.5,0,0,1,1.83-.12c2.79,1.88,5.81,3.71,9.23,5.61a1.5,1.5,0,0,1,.56,2.08c-4.33,7.25-6.43,13.89-6.43,20.31s2.32,12,4.56,17.44c2.13,5.14,4.34,10.46,4.34,16.28,0,18.12-14.06,27.37-30.35,38.07-7.45,4.9-15.16,10-22.53,16.41A1.49,1.49,0,0,1,151.54,215.33ZM99.65,103.17a65.61,65.61,0,0,1,1.57,14.93c0,8.51-1.39,18.41-2.62,27.15-.93,6.62-1.73,12.34-1.73,16,0,19.26,13,26,29.38,34.64,8.09,4.24,17.23,9,25.3,15.91A209.29,209.29,0,0,1,173.41,196c16.2-10.65,29-19.06,29-35.56,0-5.22-2-10-4.11-15.13-2.35-5.67-4.79-11.54-4.79-18.59,0-6.57,2-13.29,6.08-20.51-2.58-1.46-4.95-2.9-7.17-4.36a25.48,25.48,0,0,1-17.08,6A33,33,0,0,1,151.16,97c-6.56,6-13.63,8.81-22.12,8.81a31.4,31.4,0,0,1-21.15-8.09c-1.52,1-3,2-4.54,3C102.12,101.52,100.88,102.34,99.65,103.17Z"/><path class="cls-8" d="M170.13,147.28l-.28,0c-3.74-.72-7.48-1.71-10.78-2.58-1.86-.49-3.62-1-5.26-1.35a1.5,1.5,0,0,1-1-.76c-1.73-3.28-3.31-6.13-4.71-8.65l-.21-.38a1.5,1.5,0,0,1,2.62-1.46l.21.38c1.32,2.38,2.81,5,4.43,8.11,1.48.36,3,.77,4.67,1.2,3.41.9,6.94,1.84,10.58,2.53a1.5,1.5,0,0,1-.28,3Z"/><path class="cls-8" d="M162.23,166.7a1.5,1.5,0,0,1-1.44-1.09c-1-3.55-1.81-6.55-2.51-9.63a1.5,1.5,0,0,1,.54-1.51,103.55,103.55,0,0,1,9.37-6.26l1.58-1a1.5,1.5,0,0,1,1.58,2.55l-1.59,1c-2.8,1.73-5.7,3.51-8.35,5.5.63,2.7,1.37,5.4,2.25,8.54a1.5,1.5,0,0,1-1.44,1.91Z"/><path class="cls-8" d="M138.29,169.56a1.5,1.5,0,0,1-.73-2.81c2.73-1.51,6-3.28,9.8-5.27a1.5,1.5,0,0,1,1.37,0c3.39,1.68,7.06,3.46,10.86,5a1.5,1.5,0,0,1-1.15,2.77c-3.63-1.5-7.11-3.17-10.36-4.78-3.48,1.84-6.53,3.48-9.07,4.88A1.49,1.49,0,0,1,138.29,169.56Z"/><path class="cls-8" d="M135.26,166.53a1.5,1.5,0,0,1-1.42-2c1.09-3.27,2.11-6.52,3-9.66-2-.75-4.3-1.64-6.51-2.68a1.5,1.5,0,1,1,1.29-2.71c2.58,1.22,5.27,2.23,7.57,3.05a1.5,1.5,0,0,1,.93,1.83c-1.05,3.6-2.22,7.34-3.47,11.12A1.5,1.5,0,0,1,135.26,166.53Z"/><path class="cls-8" d="M131.39,148a1.5,1.5,0,0,1-.49-2.92l5.79-2,4.54-1.55.17-.68c.67-2.78,1.37-5.65,2.26-8.43a1.5,1.5,0,0,1,2.86.91c-.86,2.67-1.54,5.49-2.2,8.22l-.36,1.48a1.5,1.5,0,0,1-1,1.06l-5.32,1.82-5.78,2A1.51,1.51,0,0,1,131.39,148Z"/><path class="cls-8" d="M147.23,134.79a6.84,6.84,0,0,1-7-6.62c0-3.23,2-6.71,5.82-6.24,4.2.53,6.71,2.17,7.46,4.89a4.86,4.86,0,0,1,.17,1.3A6.64,6.64,0,0,1,147.23,134.79Zm-1.84-9.9c-1.5,0-2.18,1.92-2.18,3.28a3.89,3.89,0,0,0,4,3.62,3.66,3.66,0,0,0,3.44-3.67,1.87,1.87,0,0,0-.06-.5c-.41-1.46-2-2.35-4.94-2.71Z"/><path class="cls-8" d="M175.64,152.79c-4.58,0-7.06-3.25-7.06-6.31,0-3.51,2.89-6.42,6.21-6A7.55,7.55,0,0,1,179,142.3a7.32,7.32,0,0,1,2.16,4.92C181.13,149.49,179,152.79,175.64,152.79Zm-1.56-9.31a2.86,2.86,0,0,0-2.49,3c0,1.33,1.08,3.31,4.06,3.31a2.85,2.85,0,0,0,2.5-2.57,4.45,4.45,0,0,0-1.15-2.68,4.57,4.57,0,0,0-2.62-1Z"/><path class="cls-8" d="M163.55,175.3a6.13,6.13,0,0,1-6.19-6c0-3.41,2-5.61,5.17-5.61a6,6,0,0,1,1.17.12,6.81,6.81,0,0,1,4.09,2.35,6.6,6.6,0,0,1,1.13,3.85A5.41,5.41,0,0,1,163.55,175.3Zm-1-8.61c-.54,0-2.17,0-2.17,2.61a3.11,3.11,0,0,0,3.19,3,2.44,2.44,0,0,0,2.37-2.29,3.7,3.7,0,0,0-.5-2,4,4,0,0,0-2.31-1.25A3,3,0,0,0,162.53,166.69Z"/><path class="cls-8" d="M134.39,174.92a6.27,6.27,0,0,1-6.09-6.55,4.14,4.14,0,0,1,2.22-3.89l.39-.2a7.27,7.27,0,0,1,1.74-.72,6.43,6.43,0,0,1,1.47-.17,5.65,5.65,0,0,1,5.78,5.63C139.89,171.86,137.79,174.92,134.39,174.92Zm-.28-8.53a3.44,3.44,0,0,0-.78.09,5,5,0,0,0-1,.46l-.44.23c-.15.08-.56.28-.56,1.21a3.32,3.32,0,0,0,3.09,3.55c1.63,0,2.5-1.68,2.5-2.9A2.65,2.65,0,0,0,134.12,166.39Z"/><path class="cls-8" d="M127.73,154.38a6.52,6.52,0,0,1-6.71-6.12c0-2.23,1.5-5.53,4.73-5.53l1,0,1,0a5.47,5.47,0,0,1,5.5,5.33C133.27,150.65,131.55,154.38,127.73,154.38Zm0-8.71-.9,0c-.36,0-.73,0-1.12,0-1.21,0-1.73,1.81-1.73,2.53a3.49,3.49,0,0,0,3.71,3.12c2.11,0,2.54-2.66,2.54-3.38A2.49,2.49,0,0,0,127.77,145.67Z"/><path class="cls-8" d="M148.48,191.8c-22.27,0-39.07-18.61-39.07-43.3,0-19.08,16.58-35.19,36.21-35.19a35.83,35.83,0,0,1,7.19.73c9.86,2,20.91,5.52,28.08,16.14a37.26,37.26,0,0,1,6.5,21.23C187.39,173.68,169.94,191.8,148.48,191.8Zm-2.86-75.49c-18,0-33.21,14.74-33.21,32.19,0,23,15.5,40.3,36.07,40.3,19.8,0,35.91-16.77,35.91-37.39a34.31,34.31,0,0,0-6-19.55c-6.57-9.72-16.93-13-26.2-14.88A32.85,32.85,0,0,0,145.62,116.31Z"/></g></svg>