<svg xmlns="http://www.w3.org/2000/svg" xmlns:xlink="http://www.w3.org/1999/xlink" viewBox="0 0 310 310"><defs><style>.cls-1,.cls-5{opacity:0.1;}.cls-2,.cls-3,.cls-4{fill:none;stroke:#000;stroke-linecap:round;stroke-miterlimit:10;stroke-width:2px;}.cls-3{stroke-dasharray:7.99 6;}.cls-4{stroke-dasharray:8 6;}.cls-5{mix-blend-mode:multiply;}.cls-6{fill:#fff;}.cls-7{fill:#e0dfe6;}.cls-8{fill:#525d7d;}</style><symbol id="frame" data-name="frame" viewBox="0 0 277.17 291.17"><g class="cls-1"><polyline class="cls-2" points="236.53 232.63 236.53 236.63 232.53 236.63"/><line class="cls-3" x1="226.53" y1="236.63" x2="47.64" y2="236.63"/><polyline class="cls-2" points="44.65 236.63 40.65 236.63 40.65 232.63"/><line class="cls-4" x1="40.65" y1="226.63" x2="40.64" y2="47.54"/><polyline class="cls-2" points="40.65 44.54 40.65 40.54 44.65 40.54"/><line class="cls-3" x1="50.64" y1="40.54" x2="229.53" y2="40.54"/><polyline class="cls-2" points="232.53 40.54 236.53 40.54 236.53 44.54"/><line class="cls-4" x1="236.53" y1="50.54" x2="236.53" y2="229.63"/></g><g class="cls-5"><polygon points="277.17 152.66 138.66 291.17 0 152.51 138.51 14 277.17 152.66"/></g><polygon class="cls-6" points="277.17 138.66 138.66 277.17 0 138.51 138.51 0 277.17 138.66"/></symbol></defs><title>s3_03</title><g id="icons"><use id="frame-3" data-name="frame" width="277.17" height="291.17" transform="translate(16.41 9.41)" xlink:href="#frame"/><path class="cls-7" d="M109.06,109.79c-1.93-.82-3.66.3-4.39,2.11s-3.46,1.23-4.73.47c-1.64-1-3.07.9-2.41,2.41,2.39,5.41,10.47,3.87,13.08-.37A3.25,3.25,0,0,0,109.06,109.79Z"/><path class="cls-7" d="M122.13,109.3c-1.16,2.63-3.37,3.86-6.15,2.78-2-.8-3.18,2-2,3.39,4.17,4.73,12.63,2.18,14.34-3.55C129.41,108.32,123.71,105.71,122.13,109.3Z"/><path class="cls-7" d="M140.87,107.2a3.08,3.08,0,0,0-3.85,1.26,3.84,3.84,0,0,1-1.57,1.86,2.16,2.16,0,0,1-2.2-.18c-2.32-1.5-4.89,1.89-2.93,3.8,3.54,3.46,11.42,2.38,12.32-3.12A3.12,3.12,0,0,0,140.87,107.2Z"/><path class="cls-7" d="M157.59,157.74a7.14,7.14,0,0,0-5.25-.63,1.51,1.51,0,0,0-2.16.32c-.4.51-.78,1-1.13,1.56a5.79,5.79,0,0,0-1.49,2.82s0,.08,0,.11a6.07,6.07,0,0,0,.88,5.77,6.75,6.75,0,0,0,10.64.71C161.95,165.17,161.51,160,157.59,157.74Z"/><path class="cls-7" d="M221.3,188c-.34-9-.73-17.94-1.23-26.9-1-17.94-1.29-36.48-4.71-54.17-.33-1.69-2.55-1-2.74.37a238.15,238.15,0,0,0-1.53,31.62q-.16-4.77-.34-9.54c-.23-5.82-.42-11.65-.73-17.47-.22-4,.37-9.6-2-13.12C205.5,95,201,95.33,196.95,95.31a87.6,87.6,0,0,0-16.19,1c-1.24.23-1,1.9,0,2.26A83.69,83.69,0,0,0,196,102.1c.9.15,4.4.19,5.16.94s.07,6.53.08,7.81c0,3,0,6,.09,9-2.11-.2-4.27-.14-6.48-.21q-7.22-.23-14.43-.41-13.92-.36-27.84-.58t-27.84-.18c-8.87,0-18.78-.4-27.16,2.84a1.33,1.33,0,0,0,0,2.55c8.4,3.2,18.3,2.79,27.16,2.94l26.81.46q13.41.23,26.81.59,7.22.19,14.43.42c2.81.09,5.84.52,8.73.37q.16,6,.36,12,1,28.95,2.15,57.89c-6.73-.25-13.82.7-20.45,1-7.93.35-15.85.61-23.78.88l-2,.06c14-.82,31.56-7.81,37.82-20.57a4.84,4.84,0,0,0,.32-.84c1.94-3,3.72-6.83,3-10.26-.31-1.52-2.22-1.74-3.23-.85-2,1.78-3.31,4.43-4.92,6.71a4.58,4.58,0,0,0-1.15.66c-5.31,4.16-9.56,8.94-15.67,12.11-1.1.57-2.23,1.08-3.38,1.55,10-5.6,19.48-14.45,22.36-24.51.71-2.48-2.23-3.67-4-2.31a90.85,90.85,0,0,0-8.3,7.88c.11-.45.21-.89.29-1.34a3.87,3.87,0,0,0-.49-2.73c.73-4.59-.45-9.39-4.39-12.23a1.85,1.85,0,0,0-2.69,2.07c1.2,3.14,2,6.74,1.08,9.86-.05.08-.11.14-.17.22-.2.32-.39.64-.58,1a3.49,3.49,0,0,0-4.33,1.23c-4,5.17-8.25,9.21-14.84,10.61a19.9,19.9,0,0,1-9.39-.14c-3.72-1.08-5.37-4.1-7.69-6.85a1.28,1.28,0,0,0-2.17.9c.19,4.13,1.6,7.12,3.78,9.17a1.38,1.38,0,0,0,.77,1.27c1.43.75,2.9,1.45,4.4,2.11a47.43,47.43,0,0,1-9.55-3.77c-5.28-2.75-10.34-5.84-15.94-7.92-2.14-.79-3.24,2.39-1.49,3.53,4.24,2.77,8.65,6.31,13.3,9.48a65.33,65.33,0,0,1-13.39-9.32,1,1,0,0,0-1.57,1.21c7.68,13.61,23.22,22,38.74,22.2h.61c-14.27.39-28.58.41-42.79,1.74-1,.09-1.44,1.75-.26,1.92,6.61,1,13.26,1.57,19.93,2-2.83.08-5.65.23-8.45.47-5.24-.3-10.54-.41-15.55-.39a1.33,1.33,0,0,0-.67,2.46c7.64,4.33,18.15,7.23,27,6.81a4,4,0,0,0,3.27-2.17c10,1.72,20.41,2.26,30.32,2.69a396.72,396.72,0,0,0,46.76-.79,5.14,5.14,0,0,0,4.61-6.21C222.6,202.79,221.55,194.82,221.3,188Z"/><path class="cls-8" d="M212.67,209.21h-.32c-15.3,0-30.79-.42-45.76-.83s-30.33-.82-45.52-.82c-10,0-19,.18-27.58.54a1.51,1.51,0,0,1-1.56-1.4c-1.67-24.42-2.22-49.36-2.76-73.47-.24-10.61-.48-21.58-.82-32.34a6.78,6.78,0,0,1,6.77-7c4.38,0,8.71,0,13,0,11.73,0,23.64-.09,35.15-.18s23.41-.18,35.13-.18c9.46,0,17.91.06,25.84.19a8,8,0,0,1,7.86,8v.79c0,19.34.53,39.14,1,58.28.41,15.39.84,31.3,1,46.87a1.5,1.5,0,0,1-1.5,1.51Zm-91.6-4.65c15.23,0,30.67.42,45.6.82,14.56.39,29.61.8,44.48.82-.16-15.06-.57-30.42-1-45.3-.51-19.16-1-39-1-58.36v-.79a5,5,0,0,0-4.9-5c-7.92-.12-16.36-.19-25.79-.19-11.71,0-23.6.09-35.11.18s-23.44.18-35.18.18q-6.5,0-13,0a3.78,3.78,0,0,0-3.8,3.89c.34,10.77.58,21.75.82,32.37.53,23.6,1.07,48,2.65,71.88C103,204.72,111.61,204.56,121.07,204.56Z"/><path class="cls-8" d="M90.39,122.35a1.5,1.5,0,0,1,0-3c42.89-.59,81.56-1.1,120.4-1.22a1.5,1.5,0,1,1,0,3C171.95,121.25,133.29,121.76,90.39,122.35Z"/><path class="cls-8" d="M104,113.59c-2.58,0-5.24-1.72-5.24-4.59a5.32,5.32,0,0,1,4.14-5.28l.22,0a6.38,6.38,0,0,1,1.36-.18,5.05,5.05,0,1,1-.48,10.09Zm-.51-6.92a2.34,2.34,0,0,0-1.73,2.34c0,1.08,1.34,1.59,2.24,1.59a2.25,2.25,0,0,0,2.38-2.08,2.44,2.44,0,0,0-1.9-2,4.1,4.1,0,0,0-.74.11Z"/><path class="cls-8" d="M120.87,112.93a4.58,4.58,0,0,1-4.75-4.37,4.31,4.31,0,0,1,.3-1.55,4.09,4.09,0,0,1,4.24-3.31c1.45,0,5,1.64,5,4.11C125.67,111,123.83,112.93,120.87,112.93Zm-1.72-4.67a1.27,1.27,0,0,0,0,.3,1.6,1.6,0,0,0,1.75,1.37c.92,0,1.77-.25,1.8-2a4,4,0,0,0-1.66-1.11,1.5,1.5,0,0,1-.88.29,1.58,1.58,0,0,0-.77.71A1.5,1.5,0,0,1,119.16,108.26Zm3.53-.32Z"/><path class="cls-8" d="M137.85,113.06c-2.3,0-4.1-2.07-4.1-4.7a5.53,5.53,0,0,1,2-4.3,1.5,1.5,0,0,1,1.92,0c2,.19,5.05,1.91,5.05,4.61S139.88,113.06,137.85,113.06Zm-.81-5.92a2.71,2.71,0,0,0-.28,1.21c0,1.16.65,1.7,1.1,1.7.67,0,1.88-.68,1.88-1.36s-1.65-1.63-2.4-1.63A.68.68,0,0,0,137,107.14Z"/><path class="cls-8" d="M155.52,193.51c-14.36,0-35.5-7.83-51.78-29.81a1.5,1.5,0,0,1,0-1.77c12.6-17.44,32.18-28.7,49.88-28.7,23.16,0,34.13,16.27,42.13,28.15.63.94,1.25,1.85,1.85,2.72a1.5,1.5,0,0,1,0,1.64C188.68,180.17,177.39,193.51,155.52,193.51Zm-48.71-30.71c15.52,20.41,35.27,27.71,48.71,27.71,20,0,30.64-12.16,39-25.52l-1.31-1.93c-8.05-12-18.08-26.82-39.64-26.82C137.14,136.23,118.88,146.63,106.81,162.81Z"/><path class="cls-8" d="M153.08,186.69a23,23,0,0,1-16.61-7A22.51,22.51,0,0,1,130,164.21c0-12.8,9.93-23.62,21.68-23.62a19.24,19.24,0,0,1,2.39.15,32.26,32.26,0,0,1,16.4,6.75c5,4,6.83,11.42,6.83,16.61C177.27,178.06,164.71,186.69,153.08,186.69Zm-1.43-43.1c-9.95,0-18.68,9.64-18.68,20.62a20.07,20.07,0,0,0,20.11,19.48c10.19,0,21.19-7.49,21.19-19.59,0-4.87-1.76-11.16-5.68-14.25a29,29,0,0,0-14.91-6.14A16.32,16.32,0,0,0,151.65,143.59Z"/><path class="cls-8" d="M153.43,172.71a9.07,9.07,0,0,1-8.43-5.83c-1.66-4.7.63-10,5-11.51a7.89,7.89,0,0,1,.92-.26,12.19,12.19,0,0,1,6.68.35c2.45.83,4.1,3.35,4.77,5.26,1.81,5.15-1.66,10-5.92,11.46A9,9,0,0,1,153.43,172.71Zm-1.89-14.66a4.75,4.75,0,0,0-.56.16c-2.77,1-4.24,4.57-3.15,7.68a6,6,0,0,0,7.6,3.47c2.9-1,5.29-4.23,4.09-7.63a5.71,5.71,0,0,0-2.9-3.42A9.14,9.14,0,0,0,151.54,158.05Z"/><path class="cls-8" d="M151.22,158.09a1.5,1.5,0,0,1-1.44-1.08c-.8-2.78-1.51-5.28-2-7.83a1.5,1.5,0,0,1,2.94-.59c.49,2.43,1.17,4.87,2,7.58a1.5,1.5,0,0,1-1.44,1.92Z"/><path class="cls-8" d="M160.1,161a1.5,1.5,0,0,1-.9-2.7,25.88,25.88,0,0,1,6.27-3.79,1.5,1.5,0,1,1,1.08,2.8,23.44,23.44,0,0,0-5.54,3.39A1.49,1.49,0,0,1,160.1,161Z"/><path class="cls-8" d="M165.76,170.57c-2-.72-3.93-1.43-5.87-2.21a1.5,1.5,0,1,1,1.12-2.78c1.89.76,3.83,1.47,5.7,2.15l-.44,1.44Z"/><path class="cls-8" d="M153.56,179.32a1.5,1.5,0,0,1-1.5-1.5c0-2.17,0-4.42.08-6.66a1.52,1.52,0,0,1,1.55-1.45,1.5,1.5,0,0,1,1.45,1.55c-.08,2.19-.08,4.41-.08,6.56A1.5,1.5,0,0,1,153.56,179.32Z"/><path class="cls-8" d="M142.48,173.64a1.5,1.5,0,0,1-.83-2.75c1-.69,2-1.44,3-2.23.65-.5,1.3-1,2-1.48a1.5,1.5,0,0,1,1.76,2.43c-.65.47-1.28,1-1.91,1.44-1,.78-2.08,1.59-3.21,2.34A1.49,1.49,0,0,1,142.48,173.64Z"/><path class="cls-8" d="M146.68,161.31a51.45,51.45,0,0,1-6.3-1.54,1.5,1.5,0,1,1,.95-2.85,48,48,0,0,0,5.91,1.44Z"/></g></svg>