<svg xmlns="http://www.w3.org/2000/svg" xmlns:xlink="http://www.w3.org/1999/xlink" viewBox="0 0 310 310"><defs><style>.cls-1,.cls-5{opacity:0.1;}.cls-2,.cls-3,.cls-4{fill:none;stroke:#000;stroke-linecap:round;stroke-miterlimit:10;stroke-width:2px;}.cls-3{stroke-dasharray:7.99 6;}.cls-4{stroke-dasharray:8 6;}.cls-5{mix-blend-mode:multiply;}.cls-6{fill:#fff;}.cls-7{fill:#e0dfe6;}.cls-8{fill:#525d7d;}</style><symbol id="frame" data-name="frame" viewBox="0 0 277.17 291.17"><g class="cls-1"><polyline class="cls-2" points="236.53 232.63 236.53 236.63 232.53 236.63"/><line class="cls-3" x1="226.53" y1="236.63" x2="47.64" y2="236.63"/><polyline class="cls-2" points="44.65 236.63 40.65 236.63 40.65 232.63"/><line class="cls-4" x1="40.65" y1="226.63" x2="40.64" y2="47.54"/><polyline class="cls-2" points="40.65 44.54 40.65 40.54 44.65 40.54"/><line class="cls-3" x1="50.64" y1="40.54" x2="229.53" y2="40.54"/><polyline class="cls-2" points="232.53 40.54 236.53 40.54 236.53 44.54"/><line class="cls-4" x1="236.53" y1="50.54" x2="236.53" y2="229.63"/></g><g class="cls-5"><polygon points="277.17 152.66 138.66 291.17 0 152.51 138.51 14 277.17 152.66"/></g><polygon class="cls-6" points="277.17 138.66 138.66 277.17 0 138.51 138.51 0 277.17 138.66"/></symbol></defs><title>s1_06</title><g id="icons"><use id="frame-3" data-name="frame" width="277.17" height="291.17" transform="translate(16.41 9.41)" xlink:href="#frame"/><path class="cls-7" d="M223.49,160.67a2.68,2.68,0,0,0-3.93-2.28c-3.15,1.41-5.33,4.27-8.21,6.15a30,30,0,0,1-10.22,4.28c-8.45,1.77-15.27-1.1-23.36-2.69-.74-.15-1.59.66-1.08,1.4a16.67,16.67,0,0,0,4.57,4.37l-.2,0c-.74-.33-1.49-.71-2.23-1.07a2.72,2.72,0,0,0-2.34-1.16L174,168.4c-.61-.32-1.59.06-1.51.87a10.3,10.3,0,0,0,.54,2.36,3.7,3.7,0,0,0-.52,2.5c1.13,8,2.31,15.94,2.44,24.06,0,2.24.4,4.7-1.87,6.34-1.48,1.07-4.17,1.37-5.87,1.73-3.76.82-7.53,1.39-11.27,2.32a.92.92,0,0,0-.43,1.46c-4.42.13-8.84.25-13.26.44-6.31.28-14.62,1.9-20.46-1.27a1.29,1.29,0,0,0-1.87,1.44c2.28,6.82,10.22,6.42,16.18,6.65,11.26.44,22.53.13,33.79-.48,7.9-.43,13.43-3.08,14.78-11.41,1.27-7.79,1-16.08.65-24.13a39.66,39.66,0,0,0,14.47,1.77c10.43-.94,25.85-7.26,26.3-19.58A2.64,2.64,0,0,0,223.49,160.67Z"/><path class="cls-7" d="M182.75,134.88c0-5.37-.55-10.68-3.75-15.14-.49-.68-1.79-.54-1.73.47.15,2.48.18,5,.18,7.42,0-.33,0-.67-.06-1-.3-4.3-2.21-8.52-7.12-7.69-.49.08-.39.76,0,.9,4.95,1.78,2.66,13.43,2.57,17.63-.12,5.26-.68,10.64-.48,15.88a2.6,2.6,0,0,0,5.19,0c.07-1.14.13-2.29.18-3.45a11.2,11.2,0,0,0,1,2.49,2.35,2.35,0,0,0,4.25-.56C184.14,146.68,182.75,140.21,182.75,134.88Z"/><path class="cls-7" d="M116.84,144.94l-.25-.55a2.78,2.78,0,0,0-2.45-1.41H114a2.43,2.43,0,0,0,.34-.8c.22-1.39-.11-3.23-1.58-3.89-4.21-1.9-9.76-5.06-14.17-2a1.06,1.06,0,0,0,.53,2c4.24.23,6.58,4.26,10.16,6a4.15,4.15,0,0,0,1.25.38,2.8,2.8,0,0,1-.5.6c-.19.06-2.64-1.39-3.58-1.63-3.78-.94-9.23-1.52-12.72.46a.65.65,0,0,0,0,1.1c2.18,1.64,4.82,1.94,7.45,2.46.71.14,3.07.24,3.69.86.37.37.7,1.78,1.1,2.29,2.88,3.73,7.75,2,10.27-1.1A4.14,4.14,0,0,0,116.84,144.94Z"/><path class="cls-7" d="M119.69,97.79a1.5,1.5,0,0,0-2-.52,4,4,0,0,0-2,2.59c-.09-.88-.16-1.74-.21-2.59a.39.39,0,0,0-.27-.35l-.49-.2a1,1,0,0,0-1,.27c-2.17,2.56-1.69,7-1.76,10.11-.11,5-.82,10.85,1,15.5a1.84,1.84,0,0,0,.11.19c-.43,3.91.5,8.55,1,11.31a.72.72,0,0,0,1.37,0c.86-4.26.86-8.58,1.09-12.89a2.87,2.87,0,0,0,2.56-2.5c1.89-1,2.61-4.07,2.54-6.22C121.57,108.25,122,101.52,119.69,97.79Z"/><path class="cls-7" d="M161.06,111.73c-.49-3.51-1.2-7-2-10.4-.64-2.66-1.16-5.6-3.37-7.4a.57.57,0,0,0-.8,0c-1.69,2.16-1.65,4.81-1.71,7.48a103.49,103.49,0,0,0,.36,11.34C154,118.27,161.84,117.31,161.06,111.73Z"/><path class="cls-8" d="M173.22,211.77H123.59a7.14,7.14,0,0,1-7.12-7L115.43,123a7,7,0,0,1,2-5.08,7.14,7.14,0,0,1,5.12-2.13c2,0,3.95-.07,5.85-.14,3-.1,6.21-.19,8.79-.07l34.53-.26a7.2,7.2,0,0,1,7.17,6.94c.18,6.58.26,11.61.26,16.31,0,3,0,5.74-.1,8.42l.18,8.37a1.5,1.5,0,0,1-1.47,1.53,1.53,1.53,0,0,1-1.53-1.47l-.18-8.44c.07-2.72.1-5.45.1-8.41,0-4.67-.08-9.68-.26-16.23a4.15,4.15,0,0,0-4.12-4l-34.64.26c-1,0-2-.06-2.92-.06-1.88,0-3.83.07-5.71.13s-3.92.14-5.89.14a4.2,4.2,0,0,0-3,1.24,4.07,4.07,0,0,0-1.18,2.93l1.05,81.8a4.13,4.13,0,0,0,4.12,4.06h49.63a4.12,4.12,0,0,0,4.12-4.21l-.75-34.6a1.5,1.5,0,0,1,3-.06l.75,34.6a7.12,7.12,0,0,1-7.12,7.27Z"/><path class="cls-8" d="M196.14,176.36c-11.58,0-21.31-4.71-26.69-12.93a1.5,1.5,0,0,1,.08-1.76c5.6-7,13.05-14.49,30.78-14.49,12.8,0,19.26,6,25.28,12.65a1.5,1.5,0,0,1,.07,1.93A37.23,37.23,0,0,1,196.14,176.36Zm-23.56-13.68c4.93,6.8,13.45,10.68,23.56,10.68a34.19,34.19,0,0,0,26.36-12.47c-5.48-5.95-11.18-10.71-22.19-10.71C184.62,150.18,177.86,156.23,172.58,162.68Z"/><path class="cls-8" d="M198.41,172.84h-.36a10.79,10.79,0,0,1-4-20.42,13,13,0,0,1,2.86-.88,8.76,8.76,0,0,1,1.77-.19,11.37,11.37,0,0,1,7.71,3.29,10.24,10.24,0,0,1,3.06,7.39,11,11,0,0,1-3.44,7.68A10.82,10.82,0,0,1,198.41,172.84Zm.28-18.49a5.85,5.85,0,0,0-1.2.12,10.32,10.32,0,0,0-2.21.66,7.79,7.79,0,0,0,2.86,14.7,7.79,7.79,0,0,0,5.74-2.27,8.06,8.06,0,0,0,2.53-5.52,7.29,7.29,0,0,0-2.17-5.27A8.37,8.37,0,0,0,198.7,154.35Z"/><path class="cls-8" d="M198.24,165.89a4.25,4.25,0,0,1-4.44-4.15,5.64,5.64,0,0,1,2-3.87,1.5,1.5,0,0,1,1.95-.15,4.09,4.09,0,0,1,2,.3,4.22,4.22,0,0,0,.5.15c1.44,0,2.6,1.72,2.6,3.9S200.75,165.89,198.24,165.89Zm.57-3.14Zm-1-.75a3.4,3.4,0,0,0,.55.47,1.5,1.5,0,0,1,1.42-.19.43.43,0,0,0,.12-.21,2.37,2.37,0,0,0-.17-1,6.62,6.62,0,0,1-.89-.26c-.15-.05-.37-.13-.51-.16A1.83,1.83,0,0,0,197.77,162Zm-.07-.1"/><path class="cls-8" d="M86.19,142.05a1.5,1.5,0,0,1-1.5-1.48c-.09-6.79-.13-11.07-.13-13.07,0-11.28,0-22.94-.63-34.31a1.5,1.5,0,0,1,.86-1.44,34.21,34.21,0,0,1,14.47-3.2c11.22,0,17.47,4.49,21.63,8.82a29.25,29.25,0,0,1,20.55-7.86,44.29,44.29,0,0,1,12.08,1.34,1.5,1.5,0,0,1,1.08,1.41c.08,4,.1,8.07.12,12,0,4.14,0,8.41.13,12.62a1.5,1.5,0,0,1-3,.06c-.09-4.23-.11-8.52-.13-12.67,0-3.54,0-7.19-.1-10.81a45.19,45.19,0,0,0-10.19-.94,26.21,26.21,0,0,0-19.51,8.05,1.5,1.5,0,0,1-2.21,0c-4-4.44-9.49-9-20.47-9A31.3,31.3,0,0,0,87,94.06c.58,11.12.58,22.47.58,33.45,0,1.69,0,5,.1,10.16a27.44,27.44,0,0,1,14.62-4.76,17.16,17.16,0,0,1,12.67,5.32,1.5,1.5,0,1,1-2.16,2.08,14,14,0,0,0-10.5-4.4c-4.92,0-10.44,2.13-15.15,5.84A1.5,1.5,0,0,1,86.19,142.05Z"/><path class="cls-8" d="M111.74,147.91a7.48,7.48,0,0,1-6.08-3.67c-2.43.2-4.87.27-7.24.34-3,.09-6.12.18-9.16.54a1.5,1.5,0,0,1-.35-3c3.16-.37,6.34-.47,9.42-.56,2.62-.08,5.33-.16,8-.41a1.5,1.5,0,0,1,1.45.76c.51.9,1.91,3,4,3a2.69,2.69,0,0,0,2.42-1.24,1.5,1.5,0,0,1,2.68,1.34A5.5,5.5,0,0,1,111.74,147.91Z"/><path class="cls-8" d="M110.21,104.33a1.49,1.49,0,0,1-.47-.08,56.09,56.09,0,0,0-8.59-2,19,19,0,0,0-3.57.47,21.43,21.43,0,0,1-4.12.52,1.5,1.5,0,0,1,0-3A18.9,18.9,0,0,0,97,99.77a21.5,21.5,0,0,1,4.14-.53c2.17,0,8.61,1.86,9.54,2.17a1.5,1.5,0,0,1-.47,2.92Z"/><path class="cls-8" d="M108.39,113.8a1.49,1.49,0,0,1-.83-.25,7.78,7.78,0,0,0-4.52-1.24,28.75,28.75,0,0,0-4.83.57c-1.28.22-2.6.45-3.91.55a1.5,1.5,0,0,1-.23-3c1.17-.09,2.36-.3,3.62-.52a31.44,31.44,0,0,1,5.35-.62,10.79,10.79,0,0,1,6.18,1.74,1.5,1.5,0,0,1-.83,2.75Z"/><path class="cls-8" d="M94.55,123.64a1.5,1.5,0,0,1-.27-3c.85-.15,1.7-.34,2.55-.53a31.18,31.18,0,0,1,6.8-1,14.9,14.9,0,0,1,3.66.44,1.5,1.5,0,0,1-.73,2.91,11.94,11.94,0,0,0-2.93-.35,28.47,28.47,0,0,0-6.15.91c-.89.2-1.78.39-2.67.55Z"/><path class="cls-8" d="M122.23,118.76a1.5,1.5,0,0,1-1.5-1.49c0-2.88-.29-5.91-.54-8.85-.27-3.17-.55-6.44-.55-9.6a1.5,1.5,0,1,1,3,0c0,3,.28,6.24.54,9.34s.52,6.08.55,9.08A1.5,1.5,0,0,1,122.23,118.76Z"/><path class="cls-8" d="M129.15,104.7a1.5,1.5,0,0,1-.51-2.91A24.86,24.86,0,0,1,137,99.85a10.82,10.82,0,0,1,5.25,1.3,1.5,1.5,0,0,1-1.44,2.63,7.75,7.75,0,0,0-3.81-.93,22.48,22.48,0,0,0-7.34,1.75A1.5,1.5,0,0,1,129.15,104.7Z"/><path class="cls-8" d="M131.7,112a1.5,1.5,0,0,1-.43-2.94,23.67,23.67,0,0,1,11.65-.76,1.5,1.5,0,0,1-.59,2.94,20.72,20.72,0,0,0-10.2.69A1.48,1.48,0,0,1,131.7,112Z"/><path class="cls-8" d="M117.9,200.41a1.5,1.5,0,0,1,0-3l60.8-.56a1.5,1.5,0,1,1,0,3Z"/><path class="cls-8" d="M144.48,205.83a31.84,31.84,0,0,1-4.24-.26,1.5,1.5,0,1,1,.4-3,28.85,28.85,0,0,0,3.84.24c1.93,0,3.81-.15,5.8-.3s4.06-.31,6.18-.31a1.5,1.5,0,0,1,0,3c-2,0-4,.16-6,.31S146.53,205.83,144.48,205.83Z"/><path class="cls-8" d="M117.5,124.73a1.5,1.5,0,0,1,0-3l59-.91a1.5,1.5,0,1,1,0,3Z"/><path class="cls-8" d="M137,157.14a1.5,1.5,0,0,1-1.48-1.25l-.33-1.95c-.85-5-1.72-10.14-2.68-15.24-1,2.4-2.07,4.78-3.11,7.1-1.45,3.27-3,6.64-4.31,10a1.5,1.5,0,0,1-2.79-1.11c1.37-3.43,2.89-6.83,4.35-10.12,1.7-3.82,3.45-7.76,5-11.69a1.5,1.5,0,0,1,2.87.24c1.35,6.75,2.52,13.63,3.66,20.29l.33,1.94a1.5,1.5,0,0,1-1.23,1.73Z"/><path class="cls-8" d="M127,149.31a1.5,1.5,0,0,1,0-3c2.12,0,4.31,0,6.43-.18a1.5,1.5,0,1,1,.25,3C131.4,149.31,129.15,149.31,127,149.31Z"/><path class="cls-8" d="M144.63,149.49a1.5,1.5,0,0,1-1.44-1.08,26.33,26.33,0,0,1-1-7.38c0-8.14,2.56-9.85,4.7-9.85a2.17,2.17,0,0,1,.41,0,3.5,3.5,0,0,1,3.21,3.79c0,3-2,5.24-3.68,7.06a1.51,1.51,0,0,1-1.61.42,23.23,23.23,0,0,0,.88,5.08,1.5,1.5,0,0,1-1.44,1.92Zm2.16-15.3c-.58.1-1.41,1.57-1.6,5.19,1.21-1.38,2.29-2.8,2.29-4.36a1.29,1.29,0,0,0-.09-.62A1.38,1.38,0,0,0,146.79,134.19Z"/><path class="cls-8" d="M153.9,142.47a1.84,1.84,0,0,1-.73-.15,2,2,0,0,1-1.17-2.08,3.92,3.92,0,0,1,.07-.72,7.3,7.3,0,0,0-1.82,1,1.5,1.5,0,0,1-2.12-2.12,11.62,11.62,0,0,1,5-2.29,2.18,2.18,0,0,1,2.14,2l.28-.27c1.92-1.84,3.18-3,4.51-3a2.13,2.13,0,0,1,2.3,2.24,6.58,6.58,0,0,1-.06.78c.37-.17.82-.4,1.11-.55a5.41,5.41,0,0,1,2.33-.85,3.57,3.57,0,0,1,2,.77c.11.08.27.19.36.23a1.5,1.5,0,0,1-.1,3,3.42,3.42,0,0,1-1.94-.74l-.34-.22c-.25.1-.66.32-1,.47a7.37,7.37,0,0,1-3.08,1.1,2.48,2.48,0,0,1-2.46-2.6c-.55.47-1.19,1.08-1.62,1.49C156.17,141.38,155,142.47,153.9,142.47Zm6.3-4.63"/><path class="cls-8" d="M155.77,156.52c-2.66,0-2.8-2.58-2.86-3.55a4.32,4.32,0,0,0-.15-1.13s-.11,0-.3,0a6.14,6.14,0,0,0-3.39,1.68,1.5,1.5,0,0,1-2-2.26c.65-.57,3-2.42,5.37-2.42,3.23,0,3.39,2.9,3.45,4,0,.21,0,.48.05.69a7.44,7.44,0,0,0,2.49-1.38c1.44-1,3.06-2.18,5.06-2.18a4.36,4.36,0,0,1,2.58.87,6.72,6.72,0,0,0,.67.4,1.5,1.5,0,1,1-1.34,2.68,9.71,9.71,0,0,1-1-.57c-.48-.31-.61-.39-.95-.39-1,0-2.15.79-3.32,1.63C158.85,155.52,157.44,156.52,155.77,156.52Z"/><path class="cls-8" d="M144.7,169.61c-2.18,0-4.37-.09-6.5-.18-3.28-.14-6.82-.25-9.69-.09a1.5,1.5,0,1,1-.17-3c3-.17,6.63,0,10,.09s6.81.25,9.69.09a1.5,1.5,0,1,1,.17,3C147.08,169.58,145.95,169.61,144.7,169.61Z"/><path class="cls-8" d="M163.94,168.8H155a1.5,1.5,0,0,1,0-3h8.92a1.5,1.5,0,0,1,0,3Z"/><path class="cls-8" d="M133.15,178.84c-.85,0-1.69-.06-2.5-.12a21.25,21.25,0,0,0-3-.09,1.5,1.5,0,0,1-.21-3,24.09,24.09,0,0,1,3.46.09,15.9,15.9,0,0,0,4.16-.06,1.5,1.5,0,0,1,.63,2.93A11.92,11.92,0,0,1,133.15,178.84Z"/><path class="cls-8" d="M143,178.45a1.5,1.5,0,0,1-.07-3c3.76-.18,7.52-.23,11.16-.27s7.35-.09,11.05-.27a1.48,1.48,0,0,1,1.57,1.42,1.5,1.5,0,0,1-1.42,1.57c-3.76.18-7.52.23-11.16.27s-7.35.09-11.05.27Z"/><path class="cls-8" d="M128.61,187.19a1.5,1.5,0,0,1,0-3c2.8-.06,5.66-.06,8.43-.07,6.43,0,13.07,0,19.5-.66a1.5,1.5,0,1,1,.29,3c-6.57.64-13.29.66-19.79.67C134.26,187.13,131.41,187.13,128.61,187.19Z"/><path class="cls-8" d="M117.44,193.48a1.49,1.49,0,0,1-.69-.17q-.9-.47-1.79-1a1.5,1.5,0,0,1,1.45-2.63q.85.47,1.72.91a1.5,1.5,0,0,1-.69,2.83Zm-9.32-5.8a1.49,1.49,0,0,1-.9-.3c-1.1-.83-2.18-1.69-3.2-2.57a1.5,1.5,0,1,1,2-2.27c1,.83,2,1.65,3,2.44a1.5,1.5,0,0,1-.9,2.7Zm-9.37-9a1.5,1.5,0,0,1-1.17-.56c-.87-1.08-1.69-2.2-2.44-3.34a1.5,1.5,0,0,1,2.5-1.66c.7,1.06,1.47,2.11,2.28,3.12a1.5,1.5,0,0,1-1.17,2.44ZM92.33,167.5a1.5,1.5,0,0,1-1.41-1,37.69,37.69,0,0,1-1.22-4,1.5,1.5,0,1,1,2.91-.71,34.75,34.75,0,0,0,1.12,3.66,1.5,1.5,0,0,1-1.41,2Zm-2.2-12.74a1.5,1.5,0,0,1-1.5-1.51,40,40,0,0,1,.25-4.15,1.5,1.5,0,0,1,3,.33,37,37,0,0,0-.23,3.84A1.5,1.5,0,0,1,90.13,154.76Z"/><path class="cls-8" d="M178.67,198.05a1.5,1.5,0,0,1-.56-2.89c1.22-.49,2.41-1,3.54-1.58a1.5,1.5,0,1,1,1.33,2.69c-1.21.6-2.47,1.16-3.76,1.68A1.5,1.5,0,0,1,178.67,198.05Zm11.27-6.39A1.5,1.5,0,0,1,189,189a38.39,38.39,0,0,0,2.91-2.52,1.5,1.5,0,0,1,2.07,2.17,41.11,41.11,0,0,1-3.14,2.71A1.49,1.49,0,0,1,189.94,191.66Zm8.73-9.54a1.5,1.5,0,0,1-1.26-2.31,36.44,36.44,0,0,0,1.9-3.34,1.5,1.5,0,1,1,2.68,1.34,39.52,39.52,0,0,1-2.05,3.61A1.5,1.5,0,0,1,198.67,182.12Z"/></g></svg>