<svg xmlns="http://www.w3.org/2000/svg" xmlns:xlink="http://www.w3.org/1999/xlink" viewBox="0 0 310 310"><defs><style>.cls-1,.cls-5{opacity:0.1;}.cls-2,.cls-3,.cls-4{fill:none;stroke:#000;stroke-linecap:round;stroke-miterlimit:10;stroke-width:2px;}.cls-3{stroke-dasharray:7.99 6;}.cls-4{stroke-dasharray:8 6;}.cls-5{mix-blend-mode:multiply;}.cls-6{fill:#fff;}.cls-7{fill:#e0dfe6;}.cls-8{fill:#525d7d;}</style><symbol id="frame" data-name="frame" viewBox="0 0 277.17 291.17"><g class="cls-1"><polyline class="cls-2" points="236.53 232.63 236.53 236.63 232.53 236.63"/><line class="cls-3" x1="226.53" y1="236.63" x2="47.64" y2="236.63"/><polyline class="cls-2" points="44.65 236.63 40.65 236.63 40.65 232.63"/><line class="cls-4" x1="40.65" y1="226.63" x2="40.64" y2="47.54"/><polyline class="cls-2" points="40.65 44.54 40.65 40.54 44.65 40.54"/><line class="cls-3" x1="50.64" y1="40.54" x2="229.53" y2="40.54"/><polyline class="cls-2" points="232.53 40.54 236.53 40.54 236.53 44.54"/><line class="cls-4" x1="236.53" y1="50.54" x2="236.53" y2="229.63"/></g><g class="cls-5"><polygon points="277.17 152.66 138.66 291.17 0 152.51 138.51 14 277.17 152.66"/></g><polygon class="cls-6" points="277.17 138.66 138.66 277.17 0 138.51 138.51 0 277.17 138.66"/></symbol></defs><title>s1_09</title><g id="icons"><use id="frame-3" data-name="frame" width="277.17" height="291.17" transform="translate(16.41 9.41)" xlink:href="#frame"/><path class="cls-7" d="M123.51,148.27c-1.14-3.73-7.09-2.08-5.84,1.61s1.48,8.3-2.32,10.75a7.07,7.07,0,0,1-5.67.93c-1.43-.39-2.4-.74-3.85-.3a.68.68,0,0,0,0,1.3c1.12.25,2.37,1.51,3.45,2a9.14,9.14,0,0,0,3.59.76,11.05,11.05,0,0,0,6.54-2.33C123.8,159.61,125.08,153.39,123.51,148.27Z"/><path class="cls-7" d="M112.47,147.87a4.41,4.41,0,0,0-4-.12,4.7,4.7,0,0,0-2.2,2.14,4,4,0,0,0-.2,3.27A2.45,2.45,0,0,0,108.3,155a1.18,1.18,0,0,0,1.1-.82s.18-.59.19-.71,0-.53,0-.35a1.4,1.4,0,0,1,.3-.74l.14,0,.25,0c.13,0,.88.09.31,0a2.48,2.48,0,0,0,2.89-1.42A2.43,2.43,0,0,0,112.47,147.87Z"/><path class="cls-7" d="M109.41,154.18l0,0Z"/><path class="cls-7" d="M111.83,178.85A21.42,21.42,0,0,1,106,181c-1.92.42-1.37,3.19.44,3.29a18.67,18.67,0,0,0,7.23-1C117,182.12,114.92,177.14,111.83,178.85Z"/><path class="cls-7" d="M111.4,170.36a10.25,10.25,0,0,1-5.07.64c-2-.22-2.39,3-.47,3.49a14.89,14.89,0,0,0,6.69,0C115.31,173.95,114,169.35,111.4,170.36Z"/><path class="cls-7" d="M110.66,133.94c-1.12.19-2.22.5-3.36.61s-2.3,0-3.44.16a1.48,1.48,0,0,0-.74,2.73,13.15,13.15,0,0,0,8.78,1C114.87,137.77,113.57,133.45,110.66,133.94Z"/><path class="cls-7" d="M112,122.56l-4.23-.09a2,2,0,0,0-.54,4l4.16.61a2.3,2.3,0,1,0,.61-4.53Z"/><path class="cls-7" d="M160.33,201.08a3.58,3.58,0,0,0-.93-3.68,4,4,0,0,0-2.84-3.66c-8-3-16.57-1-24.79.12-.44-5.51-.9-11-1.29-16.52.4-11.42.21-22.91.34-34.32.15-12.93.79-26.05-.46-38.94a1,1,0,0,0-2,0c-1.24,9.85-1.38,19.86-1.48,29.83-.21,6.38-.32,12.77-.37,19.17,0,.45,0,.91,0,1.36-.22,8.13-.45,16.28-.37,24.4-.06,5.21-.09,10.41,0,15.62-8.67.4-16.75-1.71-25.44-2.15-1,0-1.11,1.21-.46,1.7,6.9,5.22,16.46,7.7,25,8a131.82,131.82,0,0,0,14-.7l.66.15c-2.3.15-4.59.28-6.87.38-4,.17-7.95.4-11.92.66-3.37.22-7.78,1.12-10.18-1.84-1-1.21-2.92.1-2.53,1.47,2,7.21,11.77,6.74,17.68,7.13,11.07.73,22.89,1.41,33.91-.07C164.27,208.54,163.68,202.6,160.33,201.08Z"/><path class="cls-7" d="M218.93,177.87c-.13-16.48.16-33.11-1.38-49.54-.12-1.28-2.24-1.84-2.45-.33-.84,5.88-1.43,11.8-1.89,17.73-.11-7.27-.26-14.54-.51-21.81-.24-6.94-.4-17-9.37-17.84a.85.85,0,0,0-.42,1.57c7.88,4,4.92,17,4.66,24.23-.31,8.28-.36,16.58-.44,24.87-.08,8-.12,15.92-.25,23.88-.06,3.85.84,9.06-3.32,11.1-3.38,1.66-9.43,1-13.21.45.26-8.3-1-17-1.43-25-.6-10.28-1.6-19.7-5.55-29.28a.82.82,0,0,0-1.57.43c2.24,9.93,1.34,20.73.83,30.81-.49,9.84-2.14,20.7-.42,30.44a3.24,3.24,0,0,0,2.25,2.51,5.19,5.19,0,0,0-1.52,4.27,1.07,1.07,0,0,0,.78.92c-2.21.49-4.16,2.39-3.32,5.11.54,1.76.62,2.15-.71,3.43a19.61,19.61,0,0,1-2.57,2.05,2.7,2.7,0,0,0,.35-2,33.66,33.66,0,0,1-.5-3.45,8.35,8.35,0,0,0-.62-3.11,1.07,1.07,0,0,0-1.83,0,9.09,9.09,0,0,0-1,3.15,34.61,34.61,0,0,1-.93,3.41A2.54,2.54,0,0,0,175,219l.16,0c-2.89,1.5-5,1-8.19.3a1,1,0,0,0-1.21,1.21c1.51,5.75,9,5.6,13.35,3.72a22.52,22.52,0,0,0,7.55-4.84c2.46-2.66,2.36-5.91,1.81-9.28a3.54,3.54,0,0,0-4.08-3,.91.91,0,0,0,.3-.33c1.33-2.45,8.32-.33,10.69-.15,2.06.15,4.12.25,6.17.25a4,4,0,0,0,3.59,1.94C220.93,209.07,219,188.26,218.93,177.87Zm-11.46,20.51-1.23,0a13,13,0,0,0,3.48-2.09,7.59,7.59,0,0,1-1.19,2.12A4.71,4.71,0,0,0,207.47,198.38Z"/><path class="cls-7" d="M178.91,177.27c-.62-9.32-.16-19.23-2.11-28.37a1.06,1.06,0,0,0-2,0c-1.77,9.11-.86,19.12-.67,28.37.21,10,.5,20.08,1.45,30,.34,3.58,5.91,3.68,5.67,0C180.56,197.29,179.58,187.29,178.91,177.27Z"/><path class="cls-7" d="M179.08,138.75a13.22,13.22,0,0,0-3.27-4.91,2.81,2.81,0,0,0,.6.07A2.71,2.71,0,0,0,179,130.5c-.85-2.55-.93-5.28-1.77-7.82-.44-1.35-2.87-1.7-3.1,0-.36,2.59,0,5.23-.32,7.82a3.36,3.36,0,0,0,.42,2.2,7.5,7.5,0,0,0-4.05-1c-4.12.16-6.94,4-7.6,7.76a3.76,3.76,0,0,0,1.21,3.39,12.62,12.62,0,0,0-1.88.72c-1.65.81-.64,3,.85,3.13a70.16,70.16,0,0,1,7.95.83,12.51,12.51,0,0,0,5.17.54C180.73,147.13,180.58,142.53,179.08,138.75Zm-7.61,3.1c-.55,0-1.09,0-1.63,0a1.91,1.91,0,0,0-.2-1.42l0-.05c.34-.8.74-1.55,1.09-1.55.88,0,1.53,1.58,1.82,2.18.11.26.2.52.3.78Z"/><path class="cls-8" d="M132.16,202.7c-19.11,0-29.19-1-34.76-6.58-6.29-6.32-6.25-17.54-6.17-39.9q0-3.94,0-8.34c0-4.37-.08-8.39-.16-11.94-.3-14.08-.48-22.58,4.87-28,6.52-6.66,21-7.78,51-7.78,45.65,0,60.36.28,65.87,6,3.11,3.26,2.89,7.91,2.6,14.34-.1,2.22-.22,4.74-.22,7.53,0,3.86-.22,6.45-.46,9.2-.3,3.51-.64,7.5-.64,15.23,0,5.27.18,10.62.35,15.8s.35,10.64.35,16c0,5.79,0,15.49-9.62,15.49-1.61,0-3.19-.14-4.71-.27s-2.93-.25-4.37-.25a16,16,0,0,0-5.17.76,1.5,1.5,0,0,1-.95-2.85,18.87,18.87,0,0,1,6.12-.91c1.57,0,3.13.13,4.63.27s3,.26,4.45.26c5,0,6.62-3,6.62-12.49,0-5.32-.18-10.7-.35-15.91s-.35-10.59-.35-15.9c0-7.86.35-11.91.65-15.48.24-2.8.45-5.21.45-8.94,0-2.86.12-5.42.22-7.67.27-5.91.45-9.81-1.77-12.13-4.7-4.92-21.86-5.12-63.7-5.12-28.54,0-43.12,1-48.85,6.88-4.47,4.56-4.3,12.59-4,25.88.08,3.56.16,7.6.16,12q0,4.41,0,8.35c-.07,20.85-.12,32.34,5.3,37.78,4.82,4.84,14.37,5.69,32.64,5.69a99.83,99.83,0,0,0,11.24-.53c1.92-.18,4.09-.38,7.3-.58a1.5,1.5,0,0,1,.19,3c-3.16.2-5.31.4-7.21.58A103.32,103.32,0,0,1,132.16,202.7Z"/><path class="cls-8" d="M128.07,202.68a1.5,1.5,0,0,1-1.5-1.42c-.49-8.65-.73-16.44-.73-23.82s.2-11.51.38-15.56.39-8.31.39-15.8-.23-15.37-.45-22.86c-.2-7-.42-14.19-.44-21.31a1.5,1.5,0,1,1,3,0c0,7.09.24,14.28.44,21.24.22,7.51.45,15.28.45,22.95s-.2,11.82-.39,15.94-.38,8.17-.38,15.42.24,15.06.72,23.65a1.5,1.5,0,0,1-1.41,1.58Z"/><path class="cls-8" d="M111.21,164.39c-6.21,0-11.46-5.45-11.46-11.91,0-5.69,4-11.87,10.33-11.46a17.71,17.71,0,0,1,3.24.41c5.55,1.28,9.14,5.59,9.14,11A11.94,11.94,0,0,1,111.21,164.39ZM109.51,144c-4,0-6.76,4.38-6.76,8.48,0,4.75,4,8.91,8.46,8.91a9,9,0,0,0,8.24-9c0-4.79-3.52-7.31-6.81-8.07a14.8,14.8,0,0,0-2.75-.34Z"/><path class="cls-8" d="M101.92,136.19a1.5,1.5,0,0,1-.07-3c1.36-.07,2.75-.16,4.14-.25,2.89-.19,5.87-.38,8.76-.38a1.5,1.5,0,0,1,0,3c-2.78,0-5.72.19-8.56.38-1.41.09-2.81.18-4.19.25Z"/><path class="cls-8" d="M115.59,126.1h-.07c-1.49-.07-3-.19-4.46-.31a68.86,68.86,0,0,0-8.64-.32,1.5,1.5,0,1,1-.14-3,71.76,71.76,0,0,1,9,.33c1.43.11,2.92.23,4.37.3a1.5,1.5,0,0,1-.07,3Z"/><path class="cls-8" d="M111.65,173.06c-1.17,0-2.35,0-3.52-.06-1.85,0-3.69-.1-5.51,0a1.5,1.5,0,1,1-.14-3c1.88-.09,3.8,0,5.72,0,1.15,0,2.3.06,3.44.06a35.18,35.18,0,0,0,4.78-.27,1.5,1.5,0,0,1,.41,3A38.09,38.09,0,0,1,111.65,173.06Z"/><path class="cls-8" d="M105.07,182.65a1.5,1.5,0,0,1-.09-3c.86-.05,1.73-.07,2.59-.08,2.41,0,4.68-.07,6.75-1a1.5,1.5,0,0,1,1.27,2.72c-2.66,1.24-5.36,1.28-8,1.32-.81,0-1.63,0-2.45.08Z"/><path class="cls-8" d="M111.49,157.41a4.21,4.21,0,0,1-3.9-4.08c0-2.18,1.94-3.8,3.09-4.57a1.5,1.5,0,0,1,1.39-.14,5.38,5.38,0,0,1,2.35,2.08c.12.16.23.32.34.46a2.81,2.81,0,0,1,.63,1.83C115.4,154.84,114,157.41,111.49,157.41Zm.06-5.54a2.43,2.43,0,0,0-1,1.46c0,.44.54,1.08.9,1.08s.9-.94.91-1.42c-.14-.17-.27-.35-.41-.54S111.7,152,111.55,151.87Zm.91,1.2h0Z"/><path class="cls-8" d="M138.5,129.26a1.5,1.5,0,0,1-1.5-1.43c-.1-2.3-.26-4.59-.42-6.8l-.15-2.24a1.5,1.5,0,0,1,.41-1.14,1.46,1.46,0,0,1,1.12-.46l1.75,0c.93,0,1.87.06,2.8.06a25,25,0,0,0,4-.27,1.5,1.5,0,1,1,.47,3,27.91,27.91,0,0,1-4.43.31c-1,0-1.93,0-2.9-.06h-.07l0,.59c.16,2.23.32,4.54.42,6.88a1.5,1.5,0,0,1-1.43,1.57Z"/><path class="cls-8" d="M197.7,127.78a1.5,1.5,0,0,1-1.49-1.32c-.25-2.15-.35-4.34-.39-6.22H194.6a39.49,39.49,0,0,1-6.83-.48,1.5,1.5,0,0,1,.52-3,36.79,36.79,0,0,0,6.31.43l2.19,0h.49a1.48,1.48,0,0,1,1.52,1.48,71.5,71.5,0,0,0,.4,7.4,1.5,1.5,0,0,1-1.31,1.67Z"/><path class="cls-8" d="M138.56,185a1.5,1.5,0,0,1-1.49-1.34,87.84,87.84,0,0,1-.49-9.83,1.5,1.5,0,0,1,3,0c0,3,.11,5.64.34,8.16,2.45,0,5.05-.06,7.75-.2a1.5,1.5,0,0,1,.16,3C144.56,184.92,141.44,185,138.56,185Z"/><path class="cls-8" d="M197.47,183.31l-1,0c-.42,0-.88,0-1.39,0a13.41,13.41,0,0,1-4.61-.7,1.5,1.5,0,0,1,1-2.83,10.55,10.55,0,0,0,3.6.52c.54,0,1,0,1.48,0a9,9,0,0,0,1.71,0c.38-1-.54-5.9-1-8.29a1.5,1.5,0,0,1,2.95-.55c1.33,7.12,1.54,9.4.31,10.84A3.68,3.68,0,0,1,197.47,183.31Z"/><path class="cls-8" d="M173.84,209.46c-11,0-14.92-3-14.92-11.27v-4.31c0-9.68-.33-21.68-1-35.67,0-.72-.05-1.13-.05-1.19,0-18.37,4.62-27.69,13.73-27.69a8.91,8.91,0,0,1,3.22.61c4.88,1.88,7.57,7.76,7.57,16.56,0,0,0,.37,0,.92-.42,8-.63,14.35-.63,19a304.78,304.78,0,0,0,2.4,34,1.48,1.48,0,0,1,0,.2C184.13,206.73,181,209.46,173.84,209.46Zm-2.23-77.13c-7.12,0-10.73,8.31-10.73,24.69,0,.07,0,.43,0,1,.66,14,1,26.08,1,35.81v4.31c0,5.62,1.18,8.27,11.92,8.27,6.11,0,7.27-1.94,7.29-5.75a307.16,307.16,0,0,1-2.41-34.32c0-4.69.21-11.13.64-19.14,0-.44,0-.72,0-.79,0-4.29-.73-11.83-5.65-13.73A5.92,5.92,0,0,0,171.61,132.32Z"/><path class="cls-8" d="M180.84,149c-6.15,0-13.45-.07-21-.35a1.5,1.5,0,0,1-1.44-1.55,1.54,1.54,0,0,1,1.55-1.44c7.48.28,14.75.33,20.87.35a1.5,1.5,0,0,1,0,3Z"/><path class="cls-8" d="M167.43,133.27a1.5,1.5,0,0,1-1.5-1.51c.06-9.16,1.75-13.61,5.18-13.61,2.78,0,4,3.88,4.08,13a1.5,1.5,0,1,1-3,0c-.06-7.3-1-9.41-1.26-9.93-.73.42-1.94,3.22-2,10.57A1.5,1.5,0,0,1,167.43,133.27Z"/><path class="cls-8" d="M171,220.58c-2.58,0-4.22-.11-5.42-1.31-1.61-1.61-1.61-4.23-1.6-11.23V207a1.5,1.5,0,0,1,3,0V208c0,5,0,8.37.72,9.1.45.45,2.1.44,4.18.43h1.52c1.62,0,2.57,0,3-.42.95-.95.95-5,.95-6.39,0-1.05-.05-2.13-.16-3.3a1.5,1.5,0,1,1,3-.27c.11,1.26.17,2.43.17,3.57,0,4.88-.5,7.18-1.83,8.51s-3.07,1.3-5.1,1.3H171Z"/></g></svg>